<svg width="26" height="26" viewBox="0 0 26 26" fill="none" xmlns="http://www.w3.org/2000/svg">
<path d="M12.8125 1C19.5437 1 25 6.45634 25 13.1875C25 19.9187 19.5437 25.375 12.8125 25.375C6.08134 25.375 0.625 19.9187 0.625 13.1875C0.625 6.45634 6.08134 1 12.8125 1ZM12.8125 2.82812C10.065 2.82812 7.43008 3.91956 5.48732 5.86232C3.54456 7.80508 2.45312 10.44 2.45312 13.1875C2.45312 15.935 3.54456 18.5699 5.48732 20.5127C7.43008 22.4554 10.065 23.5469 12.8125 23.5469C15.56 23.5469 18.1949 22.4554 20.1377 20.5127C22.0804 18.5699 23.1719 15.935 23.1719 13.1875C23.1719 10.44 22.0804 7.80508 20.1377 5.86232C18.1949 3.91956 15.56 2.82812 12.8125 2.82812ZM12.8125 7.09375C13.0549 7.09375 13.2874 7.19005 13.4588 7.36147C13.6303 7.53289 13.7266 7.76539 13.7266 8.00781V12.2734H17.9922C18.2346 12.2734 18.4671 12.3697 18.6385 12.5412C18.8099 12.7126 18.9062 12.9451 18.9062 13.1875C18.9062 13.4299 18.8099 13.6624 18.6385 13.8338C18.4671 14.0053 18.2346 14.1016 17.9922 14.1016H13.7266V18.3672C13.7266 18.6096 13.6303 18.8421 13.4588 19.0135C13.2874 19.1849 13.0549 19.2812 12.8125 19.2812C12.5701 19.2812 12.3376 19.1849 12.1662 19.0135C11.9947 18.8421 11.8984 18.6096 11.8984 18.3672V14.1016H7.63281C7.39039 14.1016 7.15789 14.0053 6.98647 13.8338C6.81505 13.6624 6.71875 13.4299 6.71875 13.1875C6.71875 12.9451 6.81505 12.7126 6.98647 12.5412C7.15789 12.3697 7.39039 12.2734 7.63281 12.2734H11.8984V8.00781C11.8984 7.76539 11.9947 7.53289 12.1662 7.36147C12.3376 7.19005 12.5701 7.09375 12.8125 7.09375Z" fill="#333333" stroke="#333333" stroke-width="0.3"/>
</svg>
