<svg width="16" height="16" viewBox="0 0 16 16" fill="none" xmlns="http://www.w3.org/2000/svg">
<g clip-path="url(#clip0_896_2565)">
<path d="M8.49995 1C12.6422 1 16 4.35775 16 8.5C16 12.6422 12.6422 16 8.49995 16C4.3577 16 0.999954 12.6422 0.999954 8.5C0.999954 4.35775 4.3577 1 8.49995 1ZM8.49995 2.125C6.8092 2.125 5.18769 2.79665 3.99215 3.99219C2.7966 5.18774 2.12495 6.80924 2.12495 8.5C2.12495 10.1908 2.7966 11.8123 3.99215 13.0078C5.18769 14.2034 6.8092 14.875 8.49995 14.875C10.1907 14.875 11.8122 14.2034 13.0078 13.0078C14.2033 11.8123 14.875 10.1908 14.875 8.5C14.875 6.80924 14.2033 5.18774 13.0078 3.99219C11.8122 2.79665 10.1907 2.125 8.49995 2.125V2.125ZM8.49995 4.75C8.64914 4.75 8.79221 4.80926 8.8977 4.91475C9.00319 5.02024 9.06245 5.16332 9.06245 5.3125V7.9375H11.6875C11.8366 7.9375 11.9797 7.99676 12.0852 8.10225C12.1907 8.20774 12.25 8.35082 12.25 8.5C12.25 8.64918 12.1907 8.79226 12.0852 8.89775C11.9797 9.00324 11.8366 9.0625 11.6875 9.0625H9.06245V11.6875C9.06245 11.8367 9.00319 11.9798 8.8977 12.0852C8.79221 12.1907 8.64914 12.25 8.49995 12.25C8.35077 12.25 8.2077 12.1907 8.10221 12.0852C7.99672 11.9798 7.93745 11.8367 7.93745 11.6875V9.0625H5.31245C5.16327 9.0625 5.0202 9.00324 4.91471 8.89775C4.80922 8.79226 4.74995 8.64918 4.74995 8.5C4.74995 8.35082 4.80922 8.20774 4.91471 8.10225C5.0202 7.99676 5.16327 7.9375 5.31245 7.9375H7.93745V5.3125C7.93745 5.16332 7.99672 5.02024 8.10221 4.91475C8.2077 4.80926 8.35077 4.75 8.49995 4.75V4.75Z" fill="#6782E1" stroke="#6782E1" stroke-width="0.3"/>
</g>
<defs>
<clipPath id="clip0_896_2565">
<rect width="16" height="16" fill="white"/>
</clipPath>
</defs>
</svg>
