<svg width="32" height="32" viewBox="0 0 32 32" fill="none" xmlns="http://www.w3.org/2000/svg">
<path d="M7.33337 17.3337L14.6667 9.33366L16 8.66699L24.6667 15.3337L17.3334 25.3337L7.33337 17.3337Z" fill="white" stroke="#101010"/>
<path d="M4 16C4 14.4241 4.31039 12.8637 4.91345 11.4078C5.5165 9.95189 6.40042 8.62902 7.51472 7.51472C8.62902 6.40042 9.95189 5.5165 11.4078 4.91345C12.8637 4.31039 14.4241 4 16 4C17.5759 4 19.1363 4.31039 20.5922 4.91345C22.0481 5.5165 23.371 6.40042 24.4853 7.51472C25.5996 8.62902 26.4835 9.95189 27.0866 11.4078C27.6896 12.8637 28 14.4241 28 16C28 19.1826 26.7357 22.2348 24.4853 24.4853C22.2348 26.7357 19.1826 28 16 28C12.8174 28 9.76515 26.7357 7.51472 24.4853C5.26428 22.2348 4 19.1826 4 16ZM16 10C15.7348 10 15.4804 10.1054 15.2929 10.2929C15.1054 10.4804 15 10.7348 15 11V15H11C10.7348 15 10.4804 15.1054 10.2929 15.2929C10.1054 15.4804 10 15.7348 10 16C10 16.2652 10.1054 16.5196 10.2929 16.7071C10.4804 16.8946 10.7348 17 11 17H15V21C15 21.2652 15.1054 21.5196 15.2929 21.7071C15.4804 21.8946 15.7348 22 16 22C16.2652 22 16.5196 21.8946 16.7071 21.7071C16.8946 21.5196 17 21.2652 17 21V17H21C21.2652 17 21.5196 16.8946 21.7071 16.7071C21.8946 16.5196 22 16.2652 22 16C22 15.7348 21.8946 15.4804 21.7071 15.2929C21.5196 15.1054 21.2652 15 21 15H17V11C17 10.7348 16.8946 10.4804 16.7071 10.2929C16.5196 10.1054 16.2652 10 16 10Z" fill="#101010"/>
</svg>
