<svg width="16" height="16" viewBox="0 0 16 16" fill="none" xmlns="http://www.w3.org/2000/svg">
<g clip-path="url(#clip0_896_2547)">
<path d="M7.81814 16C4.02927 15.158 0.999954 11.5832 0.999954 7.81818V3.72727L7.81814 1L14.6363 3.72727V7.81818C14.6363 11.5845 11.607 15.158 7.81814 16ZM2.36359 4.40909V7.81818C2.40255 9.39463 2.95702 10.9149 3.94212 12.1463C4.92722 13.3776 6.28869 14.2523 7.81814 14.6364C9.34758 14.2523 10.709 13.3776 11.6941 12.1463C12.6793 10.9149 13.2337 9.39463 13.2727 7.81818V4.40909L7.81814 2.36364L2.36359 4.40909Z" fill="#6782E1"/>
<path d="M7.99999 7.33333C8.92047 7.33333 9.66666 6.58714 9.66666 5.66667C9.66666 4.74619 8.92047 4 7.99999 4C7.07952 4 6.33333 4.74619 6.33333 5.66667C6.33333 6.58714 7.07952 7.33333 7.99999 7.33333Z" fill="#6782E1"/>
<path d="M4.66667 10C4.99526 10.5988 5.47707 11.0995 6.06276 11.451C6.64846 11.8024 7.31702 11.9919 8 12C8.68299 11.9919 9.35155 11.8024 9.93725 11.451C10.5229 11.0995 11.0047 10.5988 11.3333 10C11.3167 8.736 9.10534 8 8 8C6.88867 8 4.68334 8.736 4.66667 10Z" fill="#6782E1"/>
</g>
<defs>
<clipPath id="clip0_896_2547">
<rect width="16" height="16" fill="white"/>
</clipPath>
</defs>
</svg>
