<svg width="208" height="48" viewBox="0 0 208 48" fill="none" xmlns="http://www.w3.org/2000/svg">
<g filter="url(#filter0_d_384_932)">
<g filter="url(#filter1_d_384_932)">
<path d="M33.218 8.28809C25.4842 8.28809 19.2202 14.5521 19.2202 22.2858C19.2202 29.3897 24.5044 35.2454 31.3516 36.1669V33.3674C31.3575 32.9749 31.2387 32.5906 31.0123 32.2699C30.7859 31.9491 30.4636 31.7085 30.0918 31.5827C28.1084 30.9138 26.391 29.628 25.1905 27.9134C23.9901 26.1987 23.3695 24.1451 23.4195 22.0525C23.4717 19.4732 24.5425 17.0194 26.3982 15.2271C28.2538 13.4349 30.7434 12.4499 33.3229 12.4874C34.6318 12.5005 35.9248 12.7758 37.1256 13.2969C38.3263 13.818 39.4105 14.5744 40.3141 15.5215C41.2176 16.4686 41.9223 17.5871 42.3864 18.811C42.8505 20.0349 43.0647 21.3394 43.0164 22.6474L43.0047 22.7291C42.9963 22.8771 42.9846 23.0249 42.9697 23.1724C42.9697 23.254 42.9581 23.3357 42.9464 23.4056C42.9464 23.499 42.9347 23.5923 42.9231 23.6739L42.8997 23.7906C41.6983 31.6993 31.4099 36.1319 31.3516 36.1669C31.9582 36.2486 32.5881 36.2836 33.218 36.2836C40.9517 36.2836 47.2157 30.0196 47.2157 22.2858C47.2157 14.5521 40.9517 8.28809 33.218 8.28809Z" fill="#31C4F3"/>
</g>
</g>
<rect x="0.862879" y="0.939051" width="206.135" height="42.6931" rx="12.8874" stroke="#B9B9B9" stroke-width="1.22737"/>
<path d="M70.9194 15.4204V10.8896H71.7632V15.4204C71.7632 15.8423 71.6768 16.1982 71.5039 16.4883C71.3311 16.7783 71.0923 16.9995 70.7876 17.1519C70.4858 17.3013 70.1387 17.376 69.7461 17.376C69.3535 17.376 69.0049 17.3086 68.7002 17.1738C68.3955 17.0391 68.1567 16.834 67.9839 16.5586C67.811 16.2832 67.7246 15.936 67.7246 15.5171H68.5728C68.5728 15.7866 68.6226 16.0078 68.7222 16.1807C68.8218 16.3535 68.9595 16.481 69.1353 16.563C69.314 16.645 69.5176 16.686 69.7461 16.686C69.9688 16.686 70.168 16.6392 70.3438 16.5454C70.5225 16.4487 70.6631 16.3066 70.7656 16.1191C70.8682 15.9287 70.9194 15.6958 70.9194 15.4204ZM76.8608 10.8896H77.7046V15.2183C77.7046 15.6987 77.5977 16.0986 77.3838 16.418C77.1699 16.7373 76.8857 16.9775 76.5312 17.1387C76.1797 17.2969 75.7974 17.376 75.3843 17.376C74.9507 17.376 74.5581 17.2969 74.2065 17.1387C73.8579 16.9775 73.5811 16.7373 73.376 16.418C73.1738 16.0986 73.0728 15.6987 73.0728 15.2183V10.8896H73.9121V15.2183C73.9121 15.5522 73.9736 15.8276 74.0967 16.0444C74.2197 16.2612 74.3911 16.4224 74.6108 16.5278C74.8335 16.6333 75.0913 16.686 75.3843 16.686C75.6802 16.686 75.938 16.6333 76.1577 16.5278C76.3804 16.4224 76.5532 16.2612 76.6763 16.0444C76.7993 15.8276 76.8608 15.5522 76.8608 15.2183V10.8896ZM82.4463 15.6709C82.4463 15.5215 82.4229 15.3896 82.376 15.2754C82.332 15.1582 82.2529 15.0527 82.1387 14.959C82.0273 14.8652 81.8721 14.7759 81.6729 14.6909C81.4766 14.606 81.2275 14.5195 80.9258 14.4316C80.6094 14.3379 80.3237 14.2339 80.0688 14.1196C79.814 14.0024 79.5957 13.8691 79.4141 13.7197C79.2324 13.5703 79.0933 13.3989 78.9966 13.2056C78.8999 13.0122 78.8516 12.791 78.8516 12.542C78.8516 12.293 78.9028 12.063 79.0054 11.8521C79.1079 11.6411 79.2544 11.458 79.4448 11.3027C79.6382 11.1445 79.8682 11.0215 80.1348 10.9336C80.4014 10.8457 80.6987 10.8018 81.0269 10.8018C81.5073 10.8018 81.9146 10.894 82.2485 11.0786C82.5854 11.2603 82.8418 11.499 83.0176 11.7949C83.1934 12.0879 83.2812 12.4014 83.2812 12.7354H82.4375C82.4375 12.4951 82.3862 12.2827 82.2837 12.0981C82.1812 11.9106 82.0259 11.7642 81.8179 11.6587C81.6099 11.5503 81.3462 11.4961 81.0269 11.4961C80.7251 11.4961 80.4761 11.5415 80.2798 11.6323C80.0835 11.7231 79.937 11.8462 79.8403 12.0015C79.7466 12.1567 79.6997 12.334 79.6997 12.5332C79.6997 12.668 79.7275 12.791 79.7832 12.9023C79.8418 13.0107 79.9312 13.1118 80.0513 13.2056C80.1743 13.2993 80.3296 13.3857 80.5171 13.4648C80.7075 13.5439 80.9346 13.6201 81.1982 13.6934C81.5615 13.7959 81.875 13.9102 82.1387 14.0361C82.4023 14.1621 82.6191 14.3042 82.7891 14.4624C82.9619 14.6177 83.0894 14.7949 83.1714 14.9941C83.2563 15.1904 83.2988 15.4131 83.2988 15.6621C83.2988 15.9229 83.2461 16.1587 83.1406 16.3696C83.0352 16.5806 82.8843 16.7607 82.688 16.9102C82.4917 17.0596 82.2559 17.1753 81.9805 17.2573C81.708 17.3364 81.4033 17.376 81.0664 17.376C80.7705 17.376 80.479 17.335 80.1919 17.2529C79.9077 17.1709 79.6484 17.0479 79.4141 16.8838C79.1826 16.7197 78.9966 16.5176 78.856 16.2773C78.7183 16.0342 78.6494 15.7529 78.6494 15.4336H79.4932C79.4932 15.6533 79.5356 15.8423 79.6206 16.0005C79.7056 16.1558 79.8213 16.2847 79.9678 16.3872C80.1172 16.4897 80.2856 16.5659 80.4731 16.6157C80.6636 16.6626 80.8613 16.686 81.0664 16.686C81.3623 16.686 81.6128 16.645 81.8179 16.563C82.0229 16.481 82.1782 16.3638 82.2837 16.2114C82.3921 16.0591 82.4463 15.8789 82.4463 15.6709ZM86.7441 10.8896V17.2881H85.9092V10.8896H86.7441ZM88.8008 10.8896V11.584H83.8569V10.8896H88.8008ZM94.1753 11.4565L92.0571 17.2881H91.1914L93.6304 10.8896H94.1885L94.1753 11.4565ZM95.9507 17.2881L93.8281 11.4565L93.8149 10.8896H94.373L96.8208 17.2881H95.9507ZM95.8408 14.9194V15.6138H92.2461V14.9194H95.8408ZM101.088 15.6709C101.088 15.5215 101.064 15.3896 101.018 15.2754C100.974 15.1582 100.895 15.0527 100.78 14.959C100.669 14.8652 100.514 14.7759 100.314 14.6909C100.118 14.606 99.8691 14.5195 99.5674 14.4316C99.251 14.3379 98.9653 14.2339 98.7104 14.1196C98.4556 14.0024 98.2373 13.8691 98.0557 13.7197C97.874 13.5703 97.7349 13.3989 97.6382 13.2056C97.5415 13.0122 97.4932 12.791 97.4932 12.542C97.4932 12.293 97.5444 12.063 97.647 11.8521C97.7495 11.6411 97.896 11.458 98.0864 11.3027C98.2798 11.1445 98.5098 11.0215 98.7764 10.9336C99.043 10.8457 99.3403 10.8018 99.6685 10.8018C100.149 10.8018 100.556 10.894 100.89 11.0786C101.227 11.2603 101.483 11.499 101.659 11.7949C101.835 12.0879 101.923 12.4014 101.923 12.7354H101.079C101.079 12.4951 101.028 12.2827 100.925 12.0981C100.823 11.9106 100.667 11.7642 100.459 11.6587C100.251 11.5503 99.9878 11.4961 99.6685 11.4961C99.3667 11.4961 99.1177 11.5415 98.9214 11.6323C98.7251 11.7231 98.5786 11.8462 98.4819 12.0015C98.3882 12.1567 98.3413 12.334 98.3413 12.5332C98.3413 12.668 98.3691 12.791 98.4248 12.9023C98.4834 13.0107 98.5728 13.1118 98.6929 13.2056C98.8159 13.2993 98.9712 13.3857 99.1587 13.4648C99.3491 13.5439 99.5762 13.6201 99.8398 13.6934C100.203 13.7959 100.517 13.9102 100.78 14.0361C101.044 14.1621 101.261 14.3042 101.431 14.4624C101.604 14.6177 101.731 14.7949 101.813 14.9941C101.898 15.1904 101.94 15.4131 101.94 15.6621C101.94 15.9229 101.888 16.1587 101.782 16.3696C101.677 16.5806 101.526 16.7607 101.33 16.9102C101.133 17.0596 100.897 17.1753 100.622 17.2573C100.35 17.3364 100.045 17.376 99.708 17.376C99.4121 17.376 99.1206 17.335 98.8335 17.2529C98.5493 17.1709 98.29 17.0479 98.0557 16.8838C97.8242 16.7197 97.6382 16.5176 97.4976 16.2773C97.3599 16.0342 97.291 15.7529 97.291 15.4336H98.1348C98.1348 15.6533 98.1772 15.8423 98.2622 16.0005C98.3472 16.1558 98.4629 16.2847 98.6094 16.3872C98.7588 16.4897 98.9272 16.5659 99.1147 16.6157C99.3052 16.6626 99.5029 16.686 99.708 16.686C100.004 16.686 100.254 16.645 100.459 16.563C100.665 16.481 100.82 16.3638 100.925 16.2114C101.034 16.0591 101.088 15.8789 101.088 15.6709ZM103.87 10.8896V17.2881H103.021V10.8896H103.87ZM107.732 10.8896L105.074 13.8735L103.58 15.4248L103.439 14.5195L104.564 13.2803L106.713 10.8896H107.732ZM106.915 17.2881L104.546 14.168L105.052 13.4956L107.926 17.2881H106.915Z" fill="#404040"/>
<path d="M71.835 32.1108V27.7593C71.835 27.4259 71.7673 27.1369 71.6318 26.8921C71.5016 26.6421 71.3037 26.4494 71.0381 26.314C70.7725 26.1785 70.4443 26.1108 70.0537 26.1108C69.6891 26.1108 69.3688 26.1733 69.0928 26.2983C68.8219 26.4233 68.6084 26.5874 68.4521 26.7905C68.3011 26.9937 68.2256 27.2124 68.2256 27.4468H66.7803C66.7803 27.1447 66.8584 26.8452 67.0146 26.5483C67.1709 26.2515 67.3949 25.9832 67.6865 25.7437C67.9834 25.4989 68.3376 25.3062 68.749 25.1655C69.1657 25.0197 69.6292 24.9468 70.1396 24.9468C70.7542 24.9468 71.2959 25.0509 71.7646 25.2593C72.2386 25.4676 72.6084 25.7827 72.874 26.2046C73.1449 26.6213 73.2803 27.1447 73.2803 27.7749V31.7124C73.2803 31.9937 73.3037 32.2931 73.3506 32.6108C73.4027 32.9285 73.4782 33.202 73.5771 33.4312V33.5562H72.0693C71.9964 33.3895 71.9391 33.1681 71.8975 32.8921C71.8558 32.6108 71.835 32.3504 71.835 32.1108ZM72.085 28.4312L72.1006 29.4468H70.6396C70.2282 29.4468 69.861 29.4806 69.5381 29.5483C69.2152 29.6108 68.9443 29.7072 68.7256 29.8374C68.5068 29.9676 68.3402 30.1317 68.2256 30.3296C68.111 30.5223 68.0537 30.7489 68.0537 31.0093C68.0537 31.2749 68.1136 31.5171 68.2334 31.7358C68.3532 31.9546 68.5329 32.1291 68.7725 32.2593C69.0173 32.3843 69.3167 32.4468 69.6709 32.4468C70.1136 32.4468 70.5042 32.353 70.8428 32.1655C71.1813 31.978 71.4495 31.7489 71.6475 31.478C71.8506 31.2072 71.96 30.9442 71.9756 30.689L72.5928 31.3843C72.5563 31.603 72.4574 31.8452 72.2959 32.1108C72.1344 32.3765 71.9183 32.6317 71.6475 32.8765C71.3818 33.116 71.0641 33.3166 70.6943 33.478C70.3298 33.6343 69.9183 33.7124 69.46 33.7124C68.887 33.7124 68.3844 33.6004 67.9521 33.3765C67.5251 33.1525 67.1917 32.853 66.9521 32.478C66.7178 32.0978 66.6006 31.6733 66.6006 31.2046C66.6006 30.7515 66.6891 30.353 66.8662 30.0093C67.0433 29.6603 67.2985 29.3713 67.6318 29.1421C67.9652 28.9077 68.3662 28.7306 68.835 28.6108C69.3037 28.491 69.8271 28.4312 70.4053 28.4312H72.085ZM76.9912 26.7827V33.5562H75.5381V25.103H76.9131L76.9912 26.7827ZM76.6943 29.0093L76.0225 28.9858C76.0277 28.4077 76.1032 27.8739 76.249 27.3843C76.3949 26.8895 76.611 26.4598 76.8975 26.0952C77.1839 25.7306 77.5407 25.4494 77.9678 25.2515C78.3949 25.0483 78.8896 24.9468 79.4521 24.9468C79.848 24.9468 80.2126 25.0041 80.5459 25.1187C80.8792 25.228 81.1683 25.4025 81.4131 25.6421C81.6579 25.8817 81.848 26.189 81.9834 26.564C82.1188 26.939 82.1865 27.3921 82.1865 27.9233V33.5562H80.7412V27.9937C80.7412 27.5509 80.6657 27.1968 80.5146 26.9312C80.3688 26.6655 80.1605 26.4728 79.8896 26.353C79.6188 26.228 79.3011 26.1655 78.9365 26.1655C78.5094 26.1655 78.1527 26.241 77.8662 26.3921C77.5798 26.5431 77.3506 26.7515 77.1787 27.0171C77.0068 27.2827 76.8818 27.5874 76.8037 27.9312C76.7308 28.2697 76.6943 28.6291 76.6943 29.0093ZM82.1709 28.2124L81.2021 28.5093C81.2074 28.0457 81.2829 27.6004 81.4287 27.1733C81.5798 26.7463 81.7959 26.366 82.0771 26.0327C82.3636 25.6994 82.7152 25.4364 83.1318 25.2437C83.5485 25.0457 84.0251 24.9468 84.5615 24.9468C85.0146 24.9468 85.4157 25.0067 85.7646 25.1265C86.1188 25.2463 86.4157 25.4312 86.6553 25.6812C86.9001 25.9259 87.085 26.241 87.21 26.6265C87.335 27.0119 87.3975 27.4702 87.3975 28.0015V33.5562H85.9443V27.9858C85.9443 27.5119 85.8688 27.1447 85.7178 26.8843C85.5719 26.6187 85.3636 26.4338 85.0928 26.3296C84.8271 26.2202 84.5094 26.1655 84.1396 26.1655C83.8219 26.1655 83.5407 26.2202 83.2959 26.3296C83.0511 26.439 82.8454 26.59 82.6787 26.7827C82.512 26.9702 82.3844 27.1864 82.2959 27.4312C82.2126 27.6759 82.1709 27.9364 82.1709 28.2124ZM94.5693 32.1108V27.7593C94.5693 27.4259 94.5016 27.1369 94.3662 26.8921C94.236 26.6421 94.0381 26.4494 93.7725 26.314C93.5068 26.1785 93.1787 26.1108 92.7881 26.1108C92.4235 26.1108 92.1032 26.1733 91.8271 26.2983C91.5563 26.4233 91.3428 26.5874 91.1865 26.7905C91.0355 26.9937 90.96 27.2124 90.96 27.4468H89.5146C89.5146 27.1447 89.5928 26.8452 89.749 26.5483C89.9053 26.2515 90.1292 25.9832 90.4209 25.7437C90.7178 25.4989 91.0719 25.3062 91.4834 25.1655C91.9001 25.0197 92.3636 24.9468 92.874 24.9468C93.4886 24.9468 94.0303 25.0509 94.499 25.2593C94.973 25.4676 95.3428 25.7827 95.6084 26.2046C95.8792 26.6213 96.0146 27.1447 96.0146 27.7749V31.7124C96.0146 31.9937 96.0381 32.2931 96.085 32.6108C96.137 32.9285 96.2126 33.202 96.3115 33.4312V33.5562H94.8037C94.7308 33.3895 94.6735 33.1681 94.6318 32.8921C94.5902 32.6108 94.5693 32.3504 94.5693 32.1108ZM94.8193 28.4312L94.835 29.4468H93.374C92.9626 29.4468 92.5954 29.4806 92.2725 29.5483C91.9495 29.6108 91.6787 29.7072 91.46 29.8374C91.2412 29.9676 91.0745 30.1317 90.96 30.3296C90.8454 30.5223 90.7881 30.7489 90.7881 31.0093C90.7881 31.2749 90.848 31.5171 90.9678 31.7358C91.0876 31.9546 91.2673 32.1291 91.5068 32.2593C91.7516 32.3843 92.0511 32.4468 92.4053 32.4468C92.848 32.4468 93.2386 32.353 93.5771 32.1655C93.9157 31.978 94.1839 31.7489 94.3818 31.478C94.585 31.2072 94.6943 30.9442 94.71 30.689L95.3271 31.3843C95.2907 31.603 95.1917 31.8452 95.0303 32.1108C94.8688 32.3765 94.6527 32.6317 94.3818 32.8765C94.1162 33.116 93.7985 33.3166 93.4287 33.478C93.0641 33.6343 92.6527 33.7124 92.1943 33.7124C91.6214 33.7124 91.1188 33.6004 90.6865 33.3765C90.2594 33.1525 89.9261 32.853 89.6865 32.478C89.4521 32.0978 89.335 31.6733 89.335 31.2046C89.335 30.7515 89.4235 30.353 89.6006 30.0093C89.7777 29.6603 90.0329 29.3713 90.3662 29.1421C90.6995 28.9077 91.1006 28.7306 91.5693 28.6108C92.0381 28.491 92.5615 28.4312 93.1396 28.4312H94.8193ZM104.585 32.3687V33.5562H98.4365V32.3687H104.585ZM104.358 26.1265L98.7646 33.5562H97.8818V32.4937L103.437 25.103H104.358V26.1265ZM103.718 25.103V26.2983H97.9443V25.103H103.718ZM105.718 29.4233V29.2437C105.718 28.6343 105.806 28.0692 105.983 27.5483C106.16 27.0223 106.416 26.5666 106.749 26.1812C107.082 25.7905 107.486 25.4884 107.96 25.2749C108.434 25.0562 108.965 24.9468 109.554 24.9468C110.147 24.9468 110.681 25.0562 111.155 25.2749C111.634 25.4884 112.041 25.7905 112.374 26.1812C112.713 26.5666 112.97 27.0223 113.147 27.5483C113.325 28.0692 113.413 28.6343 113.413 29.2437V29.4233C113.413 30.0327 113.325 30.5978 113.147 31.1187C112.97 31.6395 112.713 32.0952 112.374 32.4858C112.041 32.8713 111.637 33.1733 111.163 33.3921C110.694 33.6056 110.163 33.7124 109.569 33.7124C108.976 33.7124 108.442 33.6056 107.968 33.3921C107.494 33.1733 107.088 32.8713 106.749 32.4858C106.416 32.0952 106.16 31.6395 105.983 31.1187C105.806 30.5978 105.718 30.0327 105.718 29.4233ZM107.163 29.2437V29.4233C107.163 29.8452 107.213 30.2437 107.312 30.6187C107.41 30.9884 107.559 31.3166 107.757 31.603C107.96 31.8895 108.213 32.116 108.515 32.2827C108.817 32.4442 109.168 32.5249 109.569 32.5249C109.965 32.5249 110.312 32.4442 110.608 32.2827C110.91 32.116 111.16 31.8895 111.358 31.603C111.556 31.3166 111.705 30.9884 111.804 30.6187C111.908 30.2437 111.96 29.8452 111.96 29.4233V29.2437C111.96 28.827 111.908 28.4338 111.804 28.064C111.705 27.689 111.554 27.3582 111.351 27.0718C111.153 26.7801 110.903 26.5509 110.601 26.3843C110.304 26.2176 109.955 26.1343 109.554 26.1343C109.158 26.1343 108.809 26.2176 108.507 26.3843C108.21 26.5509 107.96 26.7801 107.757 27.0718C107.559 27.3582 107.41 27.689 107.312 28.064C107.213 28.4338 107.163 28.827 107.163 29.2437ZM116.671 26.9077V33.5562H115.226V25.103H116.593L116.671 26.9077ZM116.327 29.0093L115.726 28.9858C115.731 28.4077 115.817 27.8739 115.983 27.3843C116.15 26.8895 116.384 26.4598 116.687 26.0952C116.989 25.7306 117.348 25.4494 117.765 25.2515C118.187 25.0483 118.653 24.9468 119.163 24.9468C119.58 24.9468 119.955 25.0041 120.288 25.1187C120.621 25.228 120.905 25.4051 121.14 25.6499C121.379 25.8947 121.562 26.2124 121.687 26.603C121.812 26.9884 121.874 27.4598 121.874 28.0171V33.5562H120.421V28.0015C120.421 27.5588 120.356 27.2046 120.226 26.939C120.095 26.6681 119.905 26.4728 119.655 26.353C119.405 26.228 119.098 26.1655 118.733 26.1655C118.374 26.1655 118.046 26.241 117.749 26.3921C117.457 26.5431 117.205 26.7515 116.991 27.0171C116.783 27.2827 116.619 27.5874 116.499 27.9312C116.384 28.2697 116.327 28.6291 116.327 29.0093ZM133.022 32.1108V27.7593C133.022 27.4259 132.955 27.1369 132.819 26.8921C132.689 26.6421 132.491 26.4494 132.226 26.314C131.96 26.1785 131.632 26.1108 131.241 26.1108C130.877 26.1108 130.556 26.1733 130.28 26.2983C130.009 26.4233 129.796 26.5874 129.64 26.7905C129.489 26.9937 129.413 27.2124 129.413 27.4468H127.968C127.968 27.1447 128.046 26.8452 128.202 26.5483C128.358 26.2515 128.582 25.9832 128.874 25.7437C129.171 25.4989 129.525 25.3062 129.937 25.1655C130.353 25.0197 130.817 24.9468 131.327 24.9468C131.942 24.9468 132.483 25.0509 132.952 25.2593C133.426 25.4676 133.796 25.7827 134.062 26.2046C134.332 26.6213 134.468 27.1447 134.468 27.7749V31.7124C134.468 31.9937 134.491 32.2931 134.538 32.6108C134.59 32.9285 134.666 33.202 134.765 33.4312V33.5562H133.257C133.184 33.3895 133.127 33.1681 133.085 32.8921C133.043 32.6108 133.022 32.3504 133.022 32.1108ZM133.272 28.4312L133.288 29.4468H131.827C131.416 29.4468 131.049 29.4806 130.726 29.5483C130.403 29.6108 130.132 29.7072 129.913 29.8374C129.694 29.9676 129.528 30.1317 129.413 30.3296C129.299 30.5223 129.241 30.7489 129.241 31.0093C129.241 31.2749 129.301 31.5171 129.421 31.7358C129.541 31.9546 129.72 32.1291 129.96 32.2593C130.205 32.3843 130.504 32.4468 130.858 32.4468C131.301 32.4468 131.692 32.353 132.03 32.1655C132.369 31.978 132.637 31.7489 132.835 31.478C133.038 31.2072 133.147 30.9442 133.163 30.689L133.78 31.3843C133.744 31.603 133.645 31.8452 133.483 32.1108C133.322 32.3765 133.106 32.6317 132.835 32.8765C132.569 33.116 132.252 33.3166 131.882 33.478C131.517 33.6343 131.106 33.7124 130.647 33.7124C130.075 33.7124 129.572 33.6004 129.14 33.3765C128.713 33.1525 128.379 32.853 128.14 32.478C127.905 32.0978 127.788 31.6733 127.788 31.2046C127.788 30.7515 127.877 30.353 128.054 30.0093C128.231 29.6603 128.486 29.3713 128.819 29.1421C129.153 28.9077 129.554 28.7306 130.022 28.6108C130.491 28.491 131.015 28.4312 131.593 28.4312H133.272ZM138.312 21.5562V33.5562H136.858V21.5562H138.312ZM144.14 33.7124C143.551 33.7124 143.017 33.6134 142.538 33.4155C142.064 33.2124 141.655 32.9285 141.312 32.564C140.973 32.1994 140.713 31.7671 140.53 31.2671C140.348 30.7671 140.257 30.2202 140.257 29.6265V29.2983C140.257 28.6108 140.358 27.9989 140.562 27.4624C140.765 26.9207 141.041 26.4624 141.39 26.0874C141.739 25.7124 142.134 25.4285 142.577 25.2358C143.02 25.0431 143.478 24.9468 143.952 24.9468C144.556 24.9468 145.077 25.0509 145.515 25.2593C145.957 25.4676 146.319 25.7593 146.601 26.1343C146.882 26.5041 147.09 26.9416 147.226 27.4468C147.361 27.9468 147.429 28.4937 147.429 29.0874V29.7358H141.116V28.5562H145.983V28.4468C145.963 28.0718 145.884 27.7072 145.749 27.353C145.619 26.9989 145.41 26.7072 145.124 26.478C144.838 26.2489 144.447 26.1343 143.952 26.1343C143.624 26.1343 143.322 26.2046 143.046 26.3452C142.77 26.4806 142.533 26.6838 142.335 26.9546C142.137 27.2254 141.983 27.5562 141.874 27.9468C141.765 28.3374 141.71 28.7879 141.71 29.2983V29.6265C141.71 30.0275 141.765 30.4051 141.874 30.7593C141.989 31.1082 142.153 31.4155 142.366 31.6812C142.585 31.9468 142.848 32.1551 143.155 32.3062C143.468 32.4572 143.822 32.5327 144.218 32.5327C144.728 32.5327 145.16 32.4285 145.515 32.2202C145.869 32.0119 146.179 31.7332 146.444 31.3843L147.319 32.0796C147.137 32.3556 146.905 32.6187 146.624 32.8687C146.343 33.1187 145.996 33.3218 145.585 33.478C145.179 33.6343 144.697 33.7124 144.14 33.7124ZM150.093 25.103L151.944 28.1812L153.819 25.103H155.515L152.749 29.2749L155.601 33.5562H153.929L151.976 30.3843L150.022 33.5562H148.343L151.187 29.2749L148.429 25.103H150.093ZM162.038 32.1108V27.7593C162.038 27.4259 161.97 27.1369 161.835 26.8921C161.705 26.6421 161.507 26.4494 161.241 26.314C160.976 26.1785 160.647 26.1108 160.257 26.1108C159.892 26.1108 159.572 26.1733 159.296 26.2983C159.025 26.4233 158.812 26.5874 158.655 26.7905C158.504 26.9937 158.429 27.2124 158.429 27.4468H156.983C156.983 27.1447 157.062 26.8452 157.218 26.5483C157.374 26.2515 157.598 25.9832 157.89 25.7437C158.187 25.4989 158.541 25.3062 158.952 25.1655C159.369 25.0197 159.832 24.9468 160.343 24.9468C160.957 24.9468 161.499 25.0509 161.968 25.2593C162.442 25.4676 162.812 25.7827 163.077 26.2046C163.348 26.6213 163.483 27.1447 163.483 27.7749V31.7124C163.483 31.9937 163.507 32.2931 163.554 32.6108C163.606 32.9285 163.681 33.202 163.78 33.4312V33.5562H162.272C162.2 33.3895 162.142 33.1681 162.101 32.8921C162.059 32.6108 162.038 32.3504 162.038 32.1108ZM162.288 28.4312L162.304 29.4468H160.843C160.431 29.4468 160.064 29.4806 159.741 29.5483C159.418 29.6108 159.147 29.7072 158.929 29.8374C158.71 29.9676 158.543 30.1317 158.429 30.3296C158.314 30.5223 158.257 30.7489 158.257 31.0093C158.257 31.2749 158.317 31.5171 158.437 31.7358C158.556 31.9546 158.736 32.1291 158.976 32.2593C159.22 32.3843 159.52 32.4468 159.874 32.4468C160.317 32.4468 160.707 32.353 161.046 32.1655C161.384 31.978 161.653 31.7489 161.851 31.478C162.054 31.2072 162.163 30.9442 162.179 30.689L162.796 31.3843C162.759 31.603 162.66 31.8452 162.499 32.1108C162.338 32.3765 162.121 32.6317 161.851 32.8765C161.585 33.116 161.267 33.3166 160.897 33.478C160.533 33.6343 160.121 33.7124 159.663 33.7124C159.09 33.7124 158.588 33.6004 158.155 33.3765C157.728 33.1525 157.395 32.853 157.155 32.478C156.921 32.0978 156.804 31.6733 156.804 31.2046C156.804 30.7515 156.892 30.353 157.069 30.0093C157.246 29.6603 157.502 29.3713 157.835 29.1421C158.168 28.9077 158.569 28.7306 159.038 28.6108C159.507 28.491 160.03 28.4312 160.608 28.4312H162.288Z" fill="#404040"/>
<defs>
<filter id="filter0_d_384_932" x="14.5544" y="3.62223" width="44.1141" height="44.1141" filterUnits="userSpaceOnUse" color-interpolation-filters="sRGB">
<feFlood flood-opacity="0" result="BackgroundImageFix"/>
<feColorMatrix in="SourceAlpha" type="matrix" values="0 0 0 0 0 0 0 0 0 0 0 0 0 0 0 0 0 0 127 0" result="hardAlpha"/>
<feOffset dx="3.39339" dy="3.39339"/>
<feGaussianBlur stdDeviation="3.39339"/>
<feColorMatrix type="matrix" values="0 0 0 0 0.192157 0 0 0 0 0.768627 0 0 0 0 0.952941 0 0 0 0.15 0"/>
<feBlend mode="normal" in2="BackgroundImageFix" result="effect1_dropShadow_384_932"/>
<feBlend mode="normal" in="SourceGraphic" in2="effect1_dropShadow_384_932" result="shape"/>
</filter>
<filter id="filter1_d_384_932" x="16.2511" y="5.31893" width="37.3273" height="37.3273" filterUnits="userSpaceOnUse" color-interpolation-filters="sRGB">
<feFlood flood-opacity="0" result="BackgroundImageFix"/>
<feColorMatrix in="SourceAlpha" type="matrix" values="0 0 0 0 0 0 0 0 0 0 0 0 0 0 0 0 0 0 127 0" result="hardAlpha"/>
<feOffset dx="1.6967" dy="1.6967"/>
<feGaussianBlur stdDeviation="1.6967"/>
<feColorMatrix type="matrix" values="0 0 0 0 0 0 0 0 0 0 0 0 0 0 0 0 0 0 0.1 0"/>
<feBlend mode="normal" in2="BackgroundImageFix" result="effect1_dropShadow_384_932"/>
<feBlend mode="normal" in="SourceGraphic" in2="effect1_dropShadow_384_932" result="shape"/>
</filter>
</defs>
</svg>
