<svg width="64" height="64" viewBox="0 0 64 64" fill="none" xmlns="http://www.w3.org/2000/svg">
<g filter="url(#filter0_d_443_1887)">
<circle cx="28" cy="28" r="23" fill="white" stroke="#31C4F3" stroke-width="2"/>
<g filter="url(#filter1_d_443_1887)">
<path d="M28 11.5C18.8837 11.5 11.5 18.8837 11.5 28C11.5 36.3738 17.7287 43.2762 25.8 44.3625V41.0625C25.807 40.5998 25.667 40.1468 25.4001 39.7688C25.1332 39.3907 24.7533 39.1071 24.315 38.9587C21.9771 38.1703 19.9527 36.6547 18.5376 34.6335C17.1225 32.6124 16.391 30.1916 16.45 27.725C16.5114 24.6846 17.7737 21.7921 19.9611 19.6795C22.1485 17.5668 25.0831 16.4058 28.1238 16.45C29.6666 16.4655 31.1907 16.7899 32.6061 17.4042C34.0215 18.0185 35.2995 18.9101 36.3646 20.0265C37.4297 21.1428 38.2603 22.4613 38.8074 23.904C39.3545 25.3467 39.607 26.8844 39.55 28.4263L39.5362 28.5225C39.5263 28.6969 39.5126 28.8712 39.495 29.045C39.495 29.1413 39.4813 29.2375 39.4675 29.32C39.4675 29.43 39.4537 29.54 39.44 29.6362L39.4125 29.7737C37.9962 39.0963 25.8687 44.3212 25.8 44.3625C26.515 44.4587 27.2575 44.5 28 44.5C37.1163 44.5 44.5 37.1163 44.5 28C44.5 18.8837 37.1163 11.5 28 11.5Z" fill="#31C4F3"/>
</g>
</g>
<defs>
<filter id="filter0_d_443_1887" x="0" y="0" width="64" height="64" filterUnits="userSpaceOnUse" color-interpolation-filters="sRGB">
<feFlood flood-opacity="0" result="BackgroundImageFix"/>
<feColorMatrix in="SourceAlpha" type="matrix" values="0 0 0 0 0 0 0 0 0 0 0 0 0 0 0 0 0 0 127 0" result="hardAlpha"/>
<feOffset dx="4" dy="4"/>
<feGaussianBlur stdDeviation="4"/>
<feColorMatrix type="matrix" values="0 0 0 0 0.192157 0 0 0 0 0.768627 0 0 0 0 0.952941 0 0 0 0.15 0"/>
<feBlend mode="normal" in2="BackgroundImageFix" result="effect1_dropShadow_443_1887"/>
<feBlend mode="normal" in="SourceGraphic" in2="effect1_dropShadow_443_1887" result="shape"/>
</filter>
<filter id="filter1_d_443_1887" x="8" y="8" width="44" height="44" filterUnits="userSpaceOnUse" color-interpolation-filters="sRGB">
<feFlood flood-opacity="0" result="BackgroundImageFix"/>
<feColorMatrix in="SourceAlpha" type="matrix" values="0 0 0 0 0 0 0 0 0 0 0 0 0 0 0 0 0 0 127 0" result="hardAlpha"/>
<feOffset dx="2" dy="2"/>
<feGaussianBlur stdDeviation="2"/>
<feColorMatrix type="matrix" values="0 0 0 0 0 0 0 0 0 0 0 0 0 0 0 0 0 0 0.1 0"/>
<feBlend mode="normal" in2="BackgroundImageFix" result="effect1_dropShadow_443_1887"/>
<feBlend mode="normal" in="SourceGraphic" in2="effect1_dropShadow_443_1887" result="shape"/>
</filter>
</defs>
</svg>
