<svg width="33" height="33" viewBox="0 0 33 33" fill="none" xmlns="http://www.w3.org/2000/svg">
<rect width="33" height="33" rx="8" fill="#5ED29B"/>
<path d="M16.4999 7.96899C15.0183 7.96888 13.5621 8.35465 12.2749 9.0883C10.9876 9.82196 9.91365 10.8782 9.15867 12.1531C8.40368 13.4279 7.99374 14.8775 7.96919 16.3589C7.94464 17.8403 8.30634 19.3026 9.01867 20.6018L8.3214 23.0545C8.25582 23.2802 8.25166 23.5193 8.30934 23.7472C8.36702 23.975 8.48446 24.1833 8.64952 24.3506C8.81458 24.5165 9.02146 24.6346 9.24821 24.6923C9.47496 24.7501 9.71312 24.7454 9.93742 24.6788L12.3984 23.9815C13.5388 24.6066 14.8071 24.9626 16.1063 25.0225C17.4054 25.0823 18.7011 24.8443 19.8942 24.3267C21.0872 23.8091 22.1462 23.0256 22.9901 22.036C23.834 21.0464 24.4405 19.877 24.7632 18.6172C25.0859 17.3573 25.1163 16.0403 24.852 14.7669C24.5878 13.4935 24.0359 12.2974 23.2386 11.2699C22.4413 10.2425 21.4196 9.41091 20.2517 8.8388C19.0837 8.26669 17.8004 7.96917 16.4999 7.96899ZM19.1249 18.469H13.8749C13.7009 18.469 13.5339 18.3999 13.4109 18.2768C13.2878 18.1537 13.2187 17.9868 13.2187 17.8127C13.2187 17.6387 13.2878 17.4718 13.4109 17.3487C13.5339 17.2256 13.7009 17.1565 13.8749 17.1565H19.1249C19.299 17.1565 19.4659 17.2256 19.589 17.3487C19.712 17.4718 19.7812 17.6387 19.7812 17.8127C19.7812 17.9868 19.712 18.1537 19.589 18.2768C19.4659 18.3999 19.299 18.469 19.1249 18.469ZM19.1249 15.844H13.8749C13.7009 15.844 13.5339 15.7749 13.4109 15.6518C13.2878 15.5287 13.2187 15.3618 13.2187 15.1877C13.2187 15.0137 13.2878 14.8468 13.4109 14.7237C13.5339 14.6006 13.7009 14.5315 13.8749 14.5315H19.1249C19.299 14.5315 19.4659 14.6006 19.589 14.7237C19.712 14.8468 19.7812 15.0137 19.7812 15.1877C19.7812 15.3618 19.712 15.5287 19.589 15.6518C19.4659 15.7749 19.299 15.844 19.1249 15.844Z" fill="white"/>
</svg>
