<svg width="180" height="53" viewBox="0 0 180 53" fill="none" xmlns="http://www.w3.org/2000/svg">
<path d="M179 46.6342C179 49.4054 176.709 51.65 173.874 51.65H6.13243C3.2995 51.65 1 49.4054 1 46.6342V6.63467C1 3.86484 3.2995 1.6123 6.13243 1.6123H173.873C176.709 1.6123 178.999 3.86484 178.999 6.63467L179 46.6342Z" fill="black"/>
<path d="M173.333 1.67297C176.42 1.67297 178.932 4.12185 178.932 7.13135V46.1313C178.932 49.1408 176.42 51.5897 173.333 51.5897H6.66667C3.58 51.5897 1.06833 49.1408 1.06833 46.1313V7.13135C1.06833 4.12185 3.58 1.67297 6.66667 1.67297H173.333ZM173.333 0.63135H6.66667C3.00167 0.63135 0 3.55798 0 7.13135V46.1313C0 49.7047 3.00167 52.6313 6.66667 52.6313H173.333C176.998 52.6313 180 49.7047 180 46.1313V7.13135C180 3.55798 176.998 0.63135 173.333 0.63135Z" fill="#A6A6A6"/>
<path d="M40.1705 26.3505C40.1318 22.1606 43.6891 20.1222 43.8518 20.0273C41.8371 17.1634 38.7145 16.7721 37.6171 16.7409C34.9945 16.4718 32.4505 18.271 31.1145 18.271C29.7518 18.271 27.6945 16.7669 25.4771 16.8111C22.6238 16.854 19.9545 18.4647 18.4905 20.9659C15.4691 26.0658 17.7225 33.5603 20.6171 37.6826C22.0651 39.7015 23.7571 41.9557 25.9718 41.8764C28.1385 41.7893 28.9478 40.5296 31.5625 40.5296C34.1531 40.5296 34.9131 41.8764 37.1718 41.8257C39.4971 41.7893 40.9611 39.7977 42.3585 37.7606C44.0318 35.4466 44.7038 33.1677 44.7305 33.0507C44.6758 33.0325 40.2145 31.3724 40.1705 26.3505Z" fill="white"/>
<path d="M35.9038 14.0291C37.0691 12.6082 37.8665 10.6751 37.6451 8.71338C35.9585 8.78618 33.8491 9.85088 32.6345 11.2406C31.5598 12.4652 30.5998 14.4724 30.8478 16.36C32.7425 16.4978 34.6878 15.4279 35.9038 14.0291Z" fill="white"/>
<path d="M65.4002 13.6432C65.4002 15.1733 64.9295 16.3251 63.9895 17.0986C63.1189 17.8123 61.8815 18.1698 60.2789 18.1698C59.4842 18.1698 58.8042 18.136 58.2349 18.0684V9.70805C58.9775 9.59105 59.7775 9.53125 60.6415 9.53125C62.1682 9.53125 63.3189 9.85495 64.0949 10.5023C64.9642 11.2342 65.4002 12.2808 65.4002 13.6432ZM63.9269 13.6809C63.9269 12.689 63.6575 11.9284 63.1189 11.398C62.5802 10.8689 61.7935 10.6037 60.7575 10.6037C60.3175 10.6037 59.9429 10.6323 59.6322 10.6921V17.0479C59.8042 17.0739 60.1189 17.0856 60.5762 17.0856C61.6455 17.0856 62.4709 16.7957 63.0522 16.2159C63.6335 15.6361 63.9269 14.7911 63.9269 13.6809Z" fill="white"/>
<path d="M73.2122 14.9795C73.2122 15.922 72.9362 16.6942 72.3842 17.3C71.8055 17.9227 71.0388 18.2334 70.0815 18.2334C69.1588 18.2334 68.4242 17.9357 67.8762 17.3377C67.3295 16.741 67.0562 15.9883 67.0562 15.0809C67.0562 14.1319 67.3375 13.3532 67.9028 12.7487C68.4682 12.1442 69.2282 11.8413 70.1855 11.8413C71.1082 11.8413 71.8495 12.139 72.4108 12.7357C72.9442 13.3155 73.2122 14.0643 73.2122 14.9795ZM71.7628 15.0237C71.7628 14.4582 71.6375 13.9733 71.3882 13.569C71.0948 13.0802 70.6775 12.8358 70.1348 12.8358C69.5735 12.8358 69.1468 13.0802 68.8535 13.569C68.6028 13.9733 68.4788 14.466 68.4788 15.0484C68.4788 15.6139 68.6042 16.0988 68.8535 16.5031C69.1562 16.9919 69.5775 17.2363 70.1215 17.2363C70.6548 17.2363 71.0735 16.988 71.3748 16.4901C71.6335 16.078 71.7628 15.5892 71.7628 15.0237Z" fill="white"/>
<path d="M83.6867 11.9663L81.7201 18.0945H80.4401L79.6254 15.4334C79.4187 14.7691 79.2507 14.1087 79.1201 13.4535H79.0947C78.9734 14.1269 78.8054 14.786 78.5894 15.4334L77.7241 18.0945H76.4294L74.5801 11.9663H76.0161L76.7267 14.8796C76.8987 15.5686 77.0401 16.2251 77.1534 16.8465H77.1787C77.2827 16.3343 77.4547 15.6817 77.6974 14.8926L78.5894 11.9676H79.7281L80.5827 14.8302C80.7894 15.5283 80.9574 16.2004 81.0867 16.8478H81.1254C81.2201 16.2173 81.3627 15.5452 81.5521 14.8302L82.3147 11.9676H83.6867V11.9663Z" fill="white"/>
<path d="M90.9307 18.0943H89.5334V14.5843C89.5334 13.5027 89.112 12.9619 88.2667 12.9619C87.852 12.9619 87.5174 13.1101 87.2574 13.4078C87 13.7055 86.8694 14.0565 86.8694 14.4582V18.093H85.472V13.7172C85.472 13.179 85.4547 12.5953 85.4214 11.9635H86.6494L86.7147 12.9216H86.7534C86.9161 12.6239 87.1587 12.3782 87.4774 12.1819C87.856 11.9531 88.28 11.8374 88.744 11.8374C89.3307 11.8374 89.8187 12.022 90.2067 12.3925C90.6894 12.8462 90.9307 13.5235 90.9307 14.4231V18.0943Z" fill="white"/>
<path d="M94.7842 18.0944H93.3882V9.1543H94.7842V18.0944Z" fill="white"/>
<path d="M103.011 14.9795C103.011 15.922 102.735 16.6942 102.183 17.3C101.604 17.9227 100.836 18.2334 99.8803 18.2334C98.9563 18.2334 98.2216 17.9357 97.675 17.3377C97.1283 16.741 96.855 15.9883 96.855 15.0809C96.855 14.1319 97.1363 13.3532 97.7017 12.7487C98.267 12.1442 99.027 11.8413 99.983 11.8413C100.907 11.8413 101.647 12.139 102.21 12.7357C102.743 13.3155 103.011 14.0643 103.011 14.9795ZM101.56 15.0237C101.56 14.4582 101.435 13.9733 101.186 13.569C100.894 13.0802 100.475 12.8358 99.9336 12.8358C99.371 12.8358 98.9443 13.0802 98.6523 13.569C98.4016 13.9733 98.2776 14.466 98.2776 15.0484C98.2776 15.6139 98.403 16.0988 98.6523 16.5031C98.955 16.9919 99.3763 17.2363 99.9203 17.2363C100.454 17.2363 100.871 16.988 101.172 16.4901C101.432 16.078 101.56 15.5892 101.56 15.0237Z" fill="white"/>
<path d="M109.774 18.0943H108.519L108.415 17.3884H108.376C107.947 17.9513 107.335 18.2334 106.54 18.2334C105.947 18.2334 105.467 18.0475 105.106 17.6783C104.778 17.3429 104.614 16.9256 104.614 16.4303C104.614 15.6815 104.934 15.1108 105.578 14.7156C106.22 14.3204 107.124 14.1267 108.288 14.1358V14.0214C108.288 13.2141 107.854 12.8111 106.983 12.8111C106.363 12.8111 105.816 12.9632 105.344 13.2648L105.06 12.3704C105.644 12.0181 106.366 11.8413 107.216 11.8413C108.859 11.8413 109.683 12.6863 109.683 14.3763V16.6331C109.683 17.2454 109.714 17.7329 109.774 18.0943ZM108.323 15.9883V15.0432C106.782 15.0172 106.011 15.4293 106.011 16.2782C106.011 16.598 106.099 16.8372 106.279 16.9971C106.459 17.157 106.688 17.2363 106.962 17.2363C107.268 17.2363 107.555 17.1414 107.816 16.9529C108.079 16.7631 108.24 16.5226 108.3 16.2275C108.315 16.1612 108.323 16.0806 108.323 15.9883Z" fill="white"/>
<path d="M117.713 18.0944H116.473L116.408 17.1103H116.369C115.973 17.8591 115.299 18.2335 114.351 18.2335C113.593 18.2335 112.963 17.9436 112.463 17.3638C111.963 16.784 111.713 16.0313 111.713 15.107C111.713 14.1151 111.984 13.3117 112.528 12.6981C113.055 12.1261 113.7 11.8401 114.468 11.8401C115.312 11.8401 115.903 12.117 116.239 12.6721H116.265V9.1543H117.664V16.4434C117.664 17.0401 117.68 17.59 117.713 18.0944ZM116.265 15.51V14.4882C116.265 14.3114 116.252 14.1684 116.227 14.0592C116.148 13.7316 115.979 13.456 115.721 13.2337C115.461 13.0114 115.148 12.8996 114.787 12.8996C114.265 12.8996 113.857 13.1011 113.557 13.5054C113.26 13.9097 113.109 14.4258 113.109 15.0563C113.109 15.6621 113.252 16.1535 113.539 16.5318C113.841 16.9348 114.249 17.1363 114.76 17.1363C115.219 17.1363 115.585 16.9686 115.864 16.6319C116.133 16.3212 116.265 15.9468 116.265 15.51Z" fill="white"/>
<path d="M129.664 14.9795C129.664 15.922 129.388 16.6942 128.836 17.3C128.258 17.9227 127.492 18.2334 126.534 18.2334C125.612 18.2334 124.878 17.9357 124.328 17.3377C123.782 16.741 123.508 15.9883 123.508 15.0809C123.508 14.1319 123.79 13.3532 124.355 12.7487C124.92 12.1442 125.68 11.8413 126.639 11.8413C127.56 11.8413 128.303 12.139 128.863 12.7357C129.396 13.3155 129.664 14.0643 129.664 14.9795ZM128.216 15.0237C128.216 14.4582 128.091 13.9733 127.842 13.569C127.547 13.0802 127.131 12.8358 126.587 12.8358C126.027 12.8358 125.6 13.0802 125.306 13.569C125.055 13.9733 124.931 14.466 124.931 15.0484C124.931 15.6139 125.056 16.0988 125.306 16.5031C125.608 16.9919 126.03 17.2363 126.574 17.2363C127.107 17.2363 127.527 16.988 127.828 16.4901C128.086 16.078 128.216 15.5892 128.216 15.0237Z" fill="white"/>
<path d="M137.177 18.0943H135.781V14.5843C135.781 13.5027 135.36 12.9619 134.513 12.9619C134.099 12.9619 133.764 13.1101 133.505 13.4078C133.247 13.7055 133.117 14.0565 133.117 14.4582V18.093H131.719V13.7172C131.719 13.179 131.703 12.5953 131.669 11.9635H132.896L132.961 12.9216H133C133.164 12.6239 133.407 12.3782 133.724 12.1819C134.104 11.9531 134.527 11.8374 134.992 11.8374C135.577 11.8374 136.065 12.022 136.453 12.3925C136.937 12.8462 137.177 13.5235 137.177 14.4231V18.0943Z" fill="white"/>
<path d="M146.581 12.9866H145.043V15.9636C145.043 16.7202 145.316 17.0985 145.857 17.0985C146.108 17.0985 146.316 17.0777 146.48 17.0348L146.516 18.0683C146.24 18.1697 145.877 18.2204 145.431 18.2204C144.879 18.2204 144.449 18.0566 144.139 17.729C143.827 17.4014 143.672 16.8502 143.672 16.0767V12.9866H142.753V11.9661H143.672V10.8429L145.041 10.4399V11.9648H146.58V12.9866H146.581Z" fill="white"/>
<path d="M153.979 18.0944H152.58V14.6104C152.58 13.5119 152.159 12.962 151.315 12.962C150.667 12.962 150.224 13.2805 149.981 13.9175C149.94 14.0514 149.916 14.2152 149.916 14.4076V18.0931H148.52V9.1543H149.916V12.8476H149.943C150.383 12.1755 151.013 11.8401 151.831 11.8401C152.409 11.8401 152.888 12.0247 153.268 12.3952C153.741 12.8567 153.979 13.5431 153.979 14.4505V18.0944Z" fill="white"/>
<path d="M161.609 14.7403C161.609 14.9847 161.591 15.1901 161.557 15.3578H157.367C157.385 15.9636 157.585 16.4251 157.973 16.7449C158.328 17.0309 158.785 17.1739 159.345 17.1739C159.965 17.1739 160.531 17.0777 161.04 16.884L161.259 17.8304C160.663 18.0826 159.961 18.2087 159.149 18.2087C158.176 18.2087 157.409 17.9292 156.855 17.3702C156.297 16.8112 156.021 16.0611 156.021 15.1199C156.021 14.1956 156.279 13.426 156.797 12.8124C157.339 12.1572 158.071 11.8296 158.995 11.8296C159.899 11.8296 160.585 12.1572 161.049 12.8124C161.424 13.3324 161.609 13.9759 161.609 14.7403ZM160.276 14.388C160.287 13.9837 160.195 13.6353 160.005 13.3415C159.763 12.9632 159.393 12.7734 158.893 12.7734C158.437 12.7734 158.065 12.958 157.781 13.3285C157.549 13.6236 157.412 13.9759 157.367 14.388H160.276Z" fill="white"/>
<path d="M71.5269 41.5865H68.4989L66.8402 36.5048H61.0749L59.4949 41.5865H56.5469L62.2589 24.2861H65.7869L71.5269 41.5865ZM66.3402 34.3728L64.8402 29.8553C64.6815 29.3938 64.3842 28.307 63.9455 26.5962H63.8922C63.7175 27.332 63.4362 28.4188 63.0495 29.8553L61.5762 34.3728H66.3402Z" fill="white"/>
<path d="M86.2164 35.1961C86.2164 37.3177 85.6284 38.9947 84.4524 40.2258C83.399 41.3217 82.091 41.869 80.5297 41.869C78.8444 41.869 77.6337 41.2788 76.8964 40.0984H76.843V46.6699H74.0004V33.2188C74.0004 31.885 73.9644 30.5161 73.895 29.1121H76.395L76.5537 31.0894H76.607C77.555 29.5996 78.9937 28.856 80.9244 28.856C82.4337 28.856 83.6937 29.4371 84.7017 30.6006C85.7124 31.7654 86.2164 33.2968 86.2164 35.1961ZM83.3204 35.2975C83.3204 34.0833 83.0404 33.0823 82.4777 32.2945C81.863 31.4729 81.0377 31.0621 80.003 31.0621C79.3017 31.0621 78.6644 31.2909 78.095 31.742C77.5243 32.197 77.151 32.7911 76.9763 33.5269C76.8883 33.8701 76.8444 34.1509 76.8444 34.3719V36.4519C76.8444 37.3593 77.1297 38.125 77.7004 38.7503C78.271 39.3756 79.0124 39.6876 79.9244 39.6876C80.995 39.6876 81.8284 39.2846 82.4244 38.4812C83.0217 37.6765 83.3204 36.6157 83.3204 35.2975Z" fill="white"/>
<path d="M100.932 35.1961C100.932 37.3177 100.344 38.9947 99.167 40.2258C98.115 41.3217 96.807 41.869 95.2456 41.869C93.5603 41.869 92.3496 41.2788 91.6136 40.0984H91.5603V46.6699H88.7176V33.2188C88.7176 31.885 88.6816 30.5161 88.6123 29.1121H91.1123L91.271 31.0894H91.3243C92.271 29.5996 93.7096 28.856 95.6416 28.856C97.1496 28.856 98.4096 29.4371 99.4203 30.6006C100.427 31.7654 100.932 33.2968 100.932 35.1961ZM98.0363 35.2975C98.0363 34.0833 97.755 33.0823 97.1923 32.2945C96.5776 31.4729 95.755 31.0621 94.719 31.0621C94.0163 31.0621 93.3803 31.2909 92.8096 31.742C92.239 32.197 91.867 32.7911 91.6923 33.5269C91.6056 33.8701 91.5603 34.1509 91.5603 34.3719V36.4519C91.5603 37.3593 91.8456 38.125 92.4136 38.7503C92.9843 39.3743 93.7256 39.6876 94.6403 39.6876C95.711 39.6876 96.5443 39.2846 97.1403 38.4812C97.7376 37.6765 98.0363 36.6157 98.0363 35.2975Z" fill="white"/>
<path d="M117.385 36.735C117.385 38.2066 116.861 39.4039 115.809 40.3282C114.653 41.3383 113.044 41.8427 110.976 41.8427C109.067 41.8427 107.536 41.4839 106.377 40.765L107.036 38.4549C108.284 39.1907 109.653 39.5599 111.145 39.5599C112.216 39.5599 113.049 39.3233 113.648 38.8527C114.244 38.3821 114.541 37.7503 114.541 36.9625C114.541 36.2605 114.296 35.669 113.804 35.1893C113.315 34.7096 112.497 34.2637 111.356 33.8516C108.249 32.7219 106.697 31.067 106.697 28.8908C106.697 27.4686 107.241 26.3025 108.331 25.3951C109.416 24.4864 110.864 24.0327 112.675 24.0327C114.289 24.0327 115.631 24.307 116.701 24.8543L115.991 27.1137C114.991 26.5833 113.86 26.3181 112.595 26.3181C111.595 26.3181 110.813 26.5586 110.253 27.037C109.78 27.4647 109.543 27.986 109.543 28.6035C109.543 29.2873 109.813 29.8528 110.357 30.2974C110.831 30.7082 111.691 31.1528 112.939 31.6325C114.465 32.2318 115.587 32.9325 116.308 33.7359C117.027 34.5367 117.385 35.539 117.385 36.735Z" fill="white"/>
<path d="M126.784 31.1917H123.651V37.2484C123.651 38.7889 124.203 39.5585 125.31 39.5585C125.818 39.5585 126.239 39.5156 126.572 39.4298L126.651 41.5345C126.091 41.7386 125.354 41.8413 124.44 41.8413C123.318 41.8413 122.44 41.5072 121.807 40.8403C121.176 40.1721 120.859 39.0515 120.859 37.4772V31.1891H118.992V29.1091H120.859V26.825L123.651 26.0034V29.1091H126.784V31.1917Z" fill="white"/>
<path d="M140.922 35.2464C140.922 37.1639 140.359 38.7382 139.236 39.9693C138.059 41.2368 136.496 41.8686 134.548 41.8686C132.671 41.8686 131.176 41.2615 130.062 40.0473C128.947 38.8331 128.39 37.3004 128.39 35.4531C128.39 33.52 128.963 31.9366 130.114 30.7055C131.262 29.4731 132.811 28.8569 134.759 28.8569C136.636 28.8569 138.147 29.464 139.287 30.6795C140.378 31.8586 140.922 33.3809 140.922 35.2464ZM137.972 35.3361C137.972 34.1856 137.72 33.1989 137.21 32.376C136.614 31.3802 135.762 30.8836 134.658 30.8836C133.515 30.8836 132.647 31.3815 132.051 32.376C131.54 33.2002 131.288 34.2025 131.288 35.3881C131.288 36.5386 131.54 37.5253 132.051 38.3469C132.666 39.3427 133.524 39.8393 134.632 39.8393C135.718 39.8393 136.57 39.3323 137.184 38.3209C137.708 37.4824 137.972 36.4853 137.972 35.3361Z" fill="white"/>
<path d="M150.162 31.5496C149.88 31.4989 149.58 31.4729 149.266 31.4729C148.266 31.4729 147.492 31.8408 146.948 32.5779C146.475 33.2279 146.238 34.0495 146.238 35.0414V41.5869H143.396L143.423 33.0407C143.423 31.6029 143.387 30.2938 143.316 29.1134H145.792L145.896 31.5002H145.975C146.275 30.6799 146.748 30.0195 147.396 29.5242C148.03 29.0783 148.714 28.856 149.451 28.856C149.714 28.856 149.951 28.8742 150.162 28.9067V31.5496Z" fill="white"/>
<path d="M162.875 34.7592C162.875 35.2558 162.842 35.6744 162.771 36.0163H154.243C154.276 37.2487 154.688 38.1912 155.48 38.8412C156.199 39.4223 157.128 39.7135 158.27 39.7135C159.532 39.7135 160.684 39.5172 161.72 39.1233L162.166 41.0473C160.955 41.5621 159.526 41.8182 157.876 41.8182C155.892 41.8182 154.335 41.2488 153.202 40.1113C152.071 38.9738 151.504 37.4463 151.504 35.5301C151.504 33.649 152.031 32.0825 153.086 30.8332C154.19 29.4994 155.682 28.8325 157.559 28.8325C159.403 28.8325 160.799 29.4994 161.747 30.8332C162.498 31.8927 162.875 33.2031 162.875 34.7592ZM160.164 34.0403C160.183 33.2187 159.998 32.5089 159.612 31.9096C159.12 31.1387 158.364 30.7539 157.347 30.7539C156.418 30.7539 155.662 31.1296 155.084 31.8836C154.611 32.4829 154.33 33.2018 154.243 34.039H160.164V34.0403Z" fill="white"/>
</svg>
