<svg width="33" height="33" viewBox="0 0 33 33" fill="none" xmlns="http://www.w3.org/2000/svg">
<rect width="33" height="33" rx="8" fill="#82DD7A"/>
<path fill-rule="evenodd" clip-rule="evenodd" d="M25.6 7H6.4C5.06801 7 4.01201 8.00126 4.01201 9.25L4 22.75C4 23.9988 5.06801 25 6.4 25H25.6C26.932 25 28 23.9988 28 22.75V9.25C28 8.00126 26.932 7 25.6 7ZM14.8 21.625H17.2V20.5H18.4C19.06 20.5 19.6 19.9937 19.6 19.375V16C19.6 15.3813 19.06 14.875 18.4 14.875H14.8V13.75H19.6V11.5H17.2V10.375H14.8V11.5H13.6C12.9399 11.5 12.4 12.0063 12.4 12.625V16C12.4 16.6187 12.9399 17.125 13.6 17.125H17.2V18.25H12.4V20.5H14.8V21.625ZM6.4 22.75H25.6V9.25H6.4V22.75Z" fill="white"/>
</svg>
