<svg width="473" height="328" viewBox="0 0 473 328" fill="none" xmlns="http://www.w3.org/2000/svg">
<path d="M476.655 383.012C376.328 453.79 108.663 501.937 37.8853 401.61C-32.8926 301.284 248.173 272.133 348.5 201.355C448.826 130.577 451.722 -61.3265 522.5 39C593.278 139.327 576.981 312.234 476.655 383.012Z" fill="#6782E1"/>
<path d="M149.937 76.4176C148.584 76.4176 147.231 76.4176 145.878 76.4176C142.461 76.4176 139.043 76.4176 135.626 76.4176C131.123 76.4176 126.613 76.4176 122.11 76.4176C117.441 76.4176 112.766 76.4176 108.092 76.4176C104.23 76.4176 100.368 76.4176 96.4998 76.4176C94.4101 76.4176 92.3141 76.4176 90.2244 76.4176C88.9541 76.4176 87.8426 76.2461 86.7818 75.6744C84.6159 74.5121 83.3391 72.3207 83.3328 69.8944C83.3264 67.2775 83.3519 64.6669 83.3646 62.0501C83.3836 57.4451 83.3964 52.8338 83.4154 48.2288C83.4281 45.0784 83.4409 41.9279 83.4536 38.7775C83.4536 38.6124 83.4536 38.4472 83.4536 38.2884C83.4599 36.5925 80.8302 36.5925 80.8239 38.2884C80.8175 40.6068 80.8048 42.9315 80.7985 45.2499C80.7794 49.8612 80.7668 54.4725 80.7477 59.0838C80.735 62.4629 80.7223 65.842 80.7096 69.2211C80.7032 70.9233 80.932 72.5621 81.7069 74.1119C83.2249 77.1416 86.4389 79.0281 89.7989 79.0598C91.209 79.0725 92.619 79.0598 94.0291 79.0598C97.5161 79.0598 100.997 79.0598 104.484 79.0598C109.063 79.0598 113.643 79.0598 118.223 79.0598C122.91 79.0598 127.604 79.0598 132.292 79.0598C136.115 79.0598 139.933 79.0598 143.756 79.0598C145.725 79.0598 147.701 79.0598 149.67 79.0598C149.759 79.0598 149.848 79.0598 149.937 79.0598C151.626 79.0471 151.632 76.4176 149.937 76.4176Z" fill="#6D68E3"/>
<path d="M197.448 48.54H67.2953C60.9881 48.54 55.875 43.4269 55.875 37.1197V18.4203C55.875 12.1131 60.9881 7 67.2953 7H197.448C203.755 7 208.868 12.1131 208.868 18.4203V37.1197C208.862 43.4269 203.749 48.54 197.448 48.54Z" fill="#6D68E3"/>
<path d="M96.6904 28.0242C96.665 31.8415 94.2387 35.4175 90.6627 36.7069C86.9025 38.0662 82.793 36.9356 80.2333 33.8614C77.7879 30.9205 77.5084 26.5124 79.5218 23.2032C81.5163 19.9194 85.5306 18.16 89.2654 18.9476C93.5909 19.8496 96.6587 23.6606 96.6904 28.0242C96.7032 29.5422 99.0596 29.5486 99.0533 28.0242C99.0215 23.1588 95.9663 18.8206 91.4185 17.112C86.9279 15.4224 81.5736 16.8643 78.5311 20.5673C75.4315 24.3402 74.9296 29.7582 77.4575 33.982C79.9855 38.1996 84.9653 40.3464 89.7672 39.4064C94.3721 38.5044 98.1513 34.6109 98.8817 29.9678C98.9834 29.3263 99.0469 28.6784 99.0469 28.0242C99.0596 26.5061 96.6968 26.5061 96.6904 28.0242Z" fill="white"/>
<path d="M126.867 39.3872C129.021 39.3872 131.167 39.3872 133.321 39.3872C135.893 39.3872 138.466 39.3872 141.038 39.3872C142.994 39.3872 144.843 38.1867 145.287 36.205C145.471 35.3857 145.401 34.5028 145.401 33.6707C145.401 30.6346 145.401 27.5921 145.401 24.556C145.401 23.4508 145.401 22.3457 145.401 21.2468C145.401 19.5763 144.735 17.9693 143.172 17.1754C142.168 16.6672 141.152 16.699 140.072 16.699C138.713 16.699 137.354 16.699 135.995 16.699C133.168 16.699 130.342 16.699 127.509 16.699C126.099 16.699 124.733 16.9721 123.755 18.1027C123.075 18.8903 122.72 19.8621 122.707 20.9038C122.701 21.1706 122.707 21.4437 122.707 21.7105C122.707 24.6069 122.707 27.5096 122.707 30.4059C122.707 31.708 122.707 33.0038 122.707 34.3059C122.707 35.4936 122.745 36.6369 123.488 37.6468C124.288 38.733 125.508 39.3555 126.867 39.3872C128.385 39.419 128.385 37.0625 126.867 37.0244C126.054 37.0053 125.349 36.4908 125.127 35.7032C125.057 35.4555 125.063 35.2459 125.063 34.922C125.063 33.9311 125.063 32.9466 125.063 31.9557C125.063 28.9768 125.063 26.0042 125.063 23.0253C125.063 22.3139 125.051 21.5962 125.063 20.8848C125.082 19.7796 125.895 19.0555 127.013 19.0491C129.395 19.0428 131.771 19.0491 134.153 19.0491C136.471 19.0491 138.796 19.0364 141.114 19.0491C142.219 19.0555 143.026 19.7986 143.039 20.8975C143.051 21.6533 143.039 22.4155 143.039 23.1714C143.039 26.1249 143.039 29.0784 143.039 32.0383C143.039 33.0101 143.039 33.9819 143.039 34.9537C143.039 35.3666 143.058 35.5635 142.893 35.9509C142.823 36.1224 142.512 36.529 142.359 36.6433C141.965 36.9355 141.648 37.018 141.235 37.0307C136.611 37.126 131.968 37.0307 127.344 37.0307C127.185 37.0307 127.026 37.0307 126.867 37.0307C125.343 37.0307 125.343 39.3872 126.867 39.3872Z" fill="white"/>
<path d="M181.803 20.5101C183.842 24.048 185.888 27.5796 187.926 31.1174C188.682 32.4322 189.482 33.728 190.207 35.0619C190.289 35.2143 190.353 35.4366 190.353 35.5382C190.353 35.5192 190.327 35.8939 190.353 35.7351C190.378 35.5763 190.296 35.9384 190.302 35.9193C190.207 36.256 190.359 35.8368 190.27 36.0146C190.251 36.0527 190.048 36.3576 190.168 36.2115C190.105 36.2877 190.035 36.3576 189.965 36.4211C189.819 36.5545 190.181 36.3068 189.876 36.4846C189.648 36.618 189.756 36.5799 189.489 36.6371C189.146 36.7133 189.66 36.6434 189.292 36.6498C189.279 36.6498 189.26 36.6498 189.247 36.6498C188.708 36.6371 188.174 36.6498 187.634 36.6498C182.915 36.6498 178.196 36.6498 173.476 36.6498C173.216 36.6498 172.956 36.6498 172.695 36.6498C172.397 36.6498 172.384 36.6752 172.111 36.5862C171.914 36.5227 172.314 36.7133 172.003 36.5418C171.996 36.5354 171.691 36.3195 171.857 36.4592C171.799 36.4084 171.742 36.3512 171.691 36.3004C171.463 36.059 171.761 36.4529 171.596 36.167C171.558 36.1035 171.52 36.0336 171.488 35.9638C171.583 36.167 171.456 35.8177 171.45 35.8113C171.437 35.7732 171.418 35.5827 171.437 35.7796C171.431 35.7288 171.457 35.3032 171.425 35.5001C171.476 35.1952 171.52 35.1634 171.666 34.9094C172.574 33.3278 173.489 31.7526 174.397 30.1774C175.718 27.8845 177.04 25.5978 178.367 23.3049C178.799 22.5617 179.231 21.8122 179.663 21.0691C179.758 20.9039 179.853 20.7388 179.949 20.5737C179.98 20.5229 180.006 20.4657 180.044 20.4149C180.241 20.1227 179.923 20.5228 180.165 20.2815C180.317 20.129 180.241 20.2053 180.19 20.2434C180.279 20.1735 180.38 20.1163 180.482 20.0655C180.292 20.1608 180.584 20.0337 180.616 20.0274C180.654 20.0147 180.99 19.9829 180.736 19.9956C180.806 19.9893 180.882 19.9956 180.958 19.9893C181.251 19.9702 180.8 19.9194 181.086 20.002C181.156 20.0211 181.232 20.0401 181.302 20.0592C181.333 20.0719 181.524 20.1671 181.587 20.2243C181.651 20.2815 181.689 20.3323 181.803 20.5101C182.597 21.8059 184.636 20.6181 183.842 19.316C182.661 17.3915 179.834 16.985 178.316 18.7761C177.929 19.2398 177.649 19.7924 177.351 20.3132C176.119 22.4537 174.88 24.5879 173.648 26.7284C172.435 28.8245 171.228 30.9205 170.015 33.0166C169.684 33.5882 169.297 34.1599 169.144 34.8078C168.636 36.9673 170.32 38.9618 172.485 39.0126C176.925 39.1142 181.384 39.0126 185.824 39.0126C186.764 39.0126 187.71 39.0126 188.65 39.0126C189.686 39.0126 190.645 38.8983 191.49 38.1996C192.817 37.1071 193.014 35.2333 192.188 33.7852C191.858 33.2008 191.521 32.6292 191.185 32.0448C188.797 27.9035 186.402 23.7622 184.014 19.6209C183.957 19.5193 183.899 19.4176 183.842 19.316C183.08 18.0076 181.041 19.1953 181.803 20.5101Z" fill="white"/>
<path d="M250.401 80.6097C249.81 76.1952 247.886 72.1556 244.253 69.4688C240.835 66.9345 236.427 65.9817 232.235 65.9119C211.179 65.5562 196.056 83.7665 191.788 102.86C187.92 120.162 189.768 139.045 190.422 156.62C190.937 170.524 191.445 184.428 192.309 198.319C193.052 210.311 194.506 223.167 202.859 232.51C206.422 236.493 211.148 239.465 216.464 240.342C221.59 241.186 227.078 240.297 231.263 237.083C235.659 233.704 237.876 228.432 239.222 223.205C240.816 217.012 241.763 210.603 242.62 204.277C244.443 190.862 245.231 177.333 245.307 163.804C245.351 155.712 245.148 147.62 244.78 139.534C245.828 130.286 246.87 121.038 247.918 111.796C248.559 106.143 249.194 100.497 249.836 94.8438C250.363 90.1245 251.036 85.348 250.401 80.6097Z" fill="#308565"/>
<path d="M230.298 211.816C229.568 206.697 227.529 201.819 225.121 197.277C222.612 192.545 219.583 188.112 216.553 183.697C211.827 176.831 206.867 170.118 201.69 163.582C201.474 163.309 201.258 163.035 201.029 162.762C199.403 160.711 197.739 158.672 196.062 156.652C192.798 152.727 189.565 148.541 185.576 145.314C181.701 142.183 177.122 140.373 172.091 140.684C169.906 140.817 167.74 141.287 165.67 142.03C163.123 142.932 160.722 144.241 158.568 145.841C156.993 147.004 155.545 148.306 154.186 149.691C152.966 150.586 151.759 151.494 150.565 152.409C149.403 153.305 148.234 154.207 147.059 155.115V155.121C144.023 157.49 141.025 159.942 138.281 162.61C130.672 170.01 130.875 179.702 136.249 188.48C140.39 195.238 146.405 200.987 152.414 206.062C159.115 211.721 165.263 217.99 171.939 223.662C185.08 234.816 203.672 244.737 220.288 234.371C223.591 232.313 226.423 229.449 228.208 225.961C230.463 221.585 230.984 216.65 230.298 211.816Z" fill="#308565"/>
<path d="M201.576 162.934C199.956 160.304 198.019 157.827 196.056 155.464C192.791 151.539 189.558 147.353 185.569 144.126C181.695 140.995 177.115 139.185 172.085 139.496C169.9 139.63 167.734 140.1 165.663 140.843C163.898 143.333 162.869 146.28 161.935 149.163C160.887 152.415 159.801 155.648 158.55 158.831C156.104 165.055 153.17 171.096 149.791 176.876C148.19 179.632 146.399 182.395 146.037 185.647C145.751 188.239 146.767 191.015 148.857 192.628C149.86 193.403 151.048 193.822 152.312 193.797C152.509 193.797 152.687 193.752 152.833 193.676C155.583 195.156 158.746 195.734 161.821 195.302C163.58 200.32 168.992 202.365 173.94 202.689C179.364 203.045 184.903 202.035 189.85 199.78C198.984 195.62 205.895 186.41 205.825 176.164C205.793 171.299 204.047 166.935 201.576 162.934Z" fill="#308565"/>
<path d="M174.657 140.493C174.556 136.416 174.257 132.344 174.149 128.438C173.889 119.037 173.762 109.643 173.565 100.243C173.489 96.635 173.412 93.0336 173.342 89.4258C173.273 86.0023 173.501 82.3691 172.663 79.0218C171.964 76.2524 170.243 73.6355 167.499 72.5812C164.971 71.6093 162.132 72.4351 160.055 74.023C154.802 78.0309 155.316 85.2973 155.329 91.198C155.342 96.1015 155.355 101.005 155.367 105.902C151.995 104.422 147.84 105.127 144.925 107.344C144.239 107.865 143.623 108.443 143.07 109.065C139.215 107.719 137.17 107.122 133.13 108.195C132.228 108.436 129.389 110.336 128.805 111.022C124.46 106.461 117.371 110.069 115.441 115.061C114.691 116.998 114.412 119.082 114.189 121.146C114.062 122.34 113.961 123.547 113.891 124.754C109.527 140.766 114.64 158.748 129.427 167.691C137.475 172.557 147.224 173.357 155.659 170.422C156.955 170.359 158.244 170.2 159.521 169.921C166.851 168.326 171.685 162.121 173.444 155.089C174.606 150.44 174.778 145.467 174.657 140.493Z" fill="#FF9B87"/>
<path d="M142.2 110.189C140.663 114.547 139.609 119.037 139.424 123.661C139.291 126.971 139.113 130.705 140.822 133.684C142.562 136.72 146.723 138.092 149.962 136.759C153.316 135.374 154.618 131.734 155.297 128.451C156.345 123.382 156.053 118.18 156.009 113.041C156.002 112.476 155.126 112.476 155.132 113.041C155.164 117.278 155.38 121.534 154.853 125.751C154.599 127.79 154.205 129.905 153.411 131.811C152.839 133.183 151.956 134.497 150.718 135.348C148.006 137.216 143.756 136.454 141.883 133.735C140.034 131.055 140.155 127.409 140.269 124.297C140.447 119.514 141.451 114.934 143.038 110.424C143.235 109.891 142.391 109.662 142.2 110.189Z" fill="#2A222E"/>
<path d="M128.302 112.381C126.213 118.421 125.362 124.881 126.638 131.194C127.127 133.589 128.023 136.142 130.03 137.679C131.84 139.071 134.235 139.534 136.401 138.74C138.954 137.807 140.669 135.507 141.285 132.909C141.418 132.363 140.567 132.128 140.44 132.674C139.926 134.84 138.598 136.809 136.521 137.743C134.571 138.626 132.336 138.302 130.633 137.038C128.772 135.653 127.978 133.284 127.521 131.105C127.007 128.666 126.835 126.094 126.924 123.604C127.057 119.844 127.928 116.154 129.153 112.603C129.331 112.076 128.486 111.847 128.302 112.381Z" fill="#2A222E"/>
<path d="M114.697 125.599C114.71 130.185 115.567 135.647 119.512 138.575C121.798 140.271 124.993 140.703 127.591 139.464C128.646 138.963 129.662 138.092 129.954 136.911C130.087 136.365 129.243 136.13 129.109 136.676C128.912 137.489 128.233 138.118 127.451 138.55C126.46 139.096 125.311 139.318 124.193 139.293C120.985 139.223 118.496 137.025 117.168 134.231C115.904 131.563 115.586 128.508 115.58 125.592C115.574 125.033 114.697 125.033 114.697 125.599Z" fill="#2A222E"/>
<path d="M180.208 147.544C178.195 139.318 171.405 132.719 162.709 131.321C158.968 130.718 154.192 131.277 153.309 135.939C152.953 137.819 153.868 139.706 155.017 141.236C156.097 142.666 157.66 145.606 159.114 146.54C159.533 146.807 161.763 147.925 161.572 148.433C161.35 149.03 160.073 149.303 159.552 149.462C158.346 149.83 157.145 150.23 155.983 150.713C151.67 152.517 147.224 156.29 147.649 161.454C148.024 166.027 151.988 169.26 156.084 170.638C168.197 174.703 179.872 166.808 180.767 154.124C180.926 151.863 180.723 149.652 180.208 147.544Z" fill="#FF9B87"/>
<path d="M150.355 158.634C152.502 153.381 157.088 149.24 162.449 147.448C163.98 146.934 165.568 146.616 167.181 146.502C167.74 146.464 167.746 145.587 167.181 145.625C161.191 146.032 155.583 149.208 151.994 153.997C150.978 155.356 150.158 156.83 149.517 158.399C149.301 158.92 150.146 159.148 150.355 158.634Z" fill="#2A222E"/>
<path d="M161.217 146.705C159.172 145.384 157.419 143.625 156.123 141.56C154.903 139.61 153.785 137.082 154.484 134.758C155.138 132.573 157.355 131.652 159.457 131.512C161.693 131.366 163.961 131.931 166.031 132.738C168.629 133.748 170.992 135.323 172.948 137.305C173.349 137.705 173.965 137.089 173.571 136.682C171.653 134.745 169.379 133.202 166.87 132.134C164.59 131.169 162.036 130.483 159.54 130.629C157.368 130.756 155.068 131.582 154.008 133.621C152.782 135.984 153.62 138.816 154.802 141.014C156.205 143.631 158.289 145.848 160.779 147.461C161.249 147.772 161.687 147.016 161.217 146.705Z" fill="#2A222E"/>
<path d="M351.635 253.61C352.562 246.02 352.308 238.277 352.479 230.662C353.426 188.201 357.586 145.873 355.261 103.323C354.855 95.8409 355.649 84.9414 348.103 80.5841C345.664 79.1741 342.869 78.5198 340.125 77.872C333.742 76.373 327.358 74.8422 320.988 73.2797C314.998 71.8125 308.919 70.9867 302.917 69.5767L293.599 67.3853C287.394 65.9244 280.623 65.4989 274.417 64.038C268.339 62.6089 262.222 62.3612 256.004 61.7006C245.25 60.5573 233.531 62.285 224.791 69.1575C209.3 81.3336 206.981 103.387 207.096 121.692C207.185 135.526 208.569 149.303 210.119 163.035C211.504 175.275 216.852 188.15 219.151 200.275C222.645 218.657 234.459 237.534 251.538 247.227C258.29 251.057 256.067 254.798 263.149 257.898C277.383 264.129 290.646 272.557 305.407 277.588C314.941 280.834 326.431 283.508 336.2 279.69C346.134 275.809 349.85 265.475 351.342 255.649C351.463 254.976 351.552 254.29 351.635 253.61Z" fill="#308565"/>
<path d="M210.469 90.8103C209.668 98.1529 209.135 105.521 208.881 112.901C208.627 120.282 208.645 127.669 208.931 135.05C209.223 142.462 209.789 149.868 210.627 157.243C211.459 164.547 212.552 171.826 213.911 179.048C215.277 186.308 216.915 193.511 218.815 200.65C219.056 201.546 219.297 202.441 219.545 203.337C219.697 203.883 220.542 203.648 220.39 203.102C218.433 196.02 216.738 188.861 215.308 181.652C213.867 174.379 212.691 167.05 211.796 159.688C210.907 152.39 210.284 145.066 209.935 137.724C209.579 130.35 209.497 122.956 209.687 115.576C209.878 108.227 210.335 100.89 211.066 93.5797C211.161 92.6587 211.256 91.7313 211.358 90.8103C211.408 90.2514 210.526 90.2514 210.469 90.8103Z" fill="#2A222E"/>
<path d="M287.114 81.7274C286.618 79.9998 285.519 78.5326 284.249 77.3003C282.877 75.9728 281.321 74.8358 279.822 73.6544C278.107 72.2952 276.386 70.9423 274.671 69.5894C271.8 67.3155 268.395 64.3175 264.521 66.1785C261.377 67.6902 259.547 71.5012 258.296 74.5628C255.438 81.5496 255.266 88.6762 257.769 95.1485C258.766 97.7527 260.208 100.255 262.075 102.593C262.355 102.942 262.641 103.298 262.933 103.641C263.574 104.397 264.273 105.095 265.105 105.629C267.512 107.16 270.517 106.232 272.708 104.752C275.814 102.65 278.628 100.084 281.022 97.2001C283.417 94.3228 285.735 91.0199 286.872 87.4185C287.457 85.5893 287.66 83.5885 287.114 81.7274Z" fill="#FF9B87"/>
<path d="M266.395 100.211C271.362 96.3617 272.695 89.4892 271.514 83.5885C271.304 82.5468 270.796 81.4797 269.85 80.997C268.205 80.1649 266.268 81.3781 265.035 82.4134C261.961 84.9986 259.351 88.4602 258.252 92.3728C257.998 93.2748 257.839 94.2085 257.775 95.1549C258.658 97.4542 259.884 99.6709 261.44 101.767C263.225 101.932 264.946 101.329 266.395 100.211Z" fill="#2A222E"/>
<path d="M373.846 285.147L373.84 276.794C373.897 275.67 373.344 274.514 372.061 273.948L210.081 202.467C206.568 200.917 202.776 200.117 198.94 200.117H11.9783C10.4983 200.117 9.51371 201.044 9.15166 202.175H9.1453V202.194C8.95475 202.797 8.9484 203.458 9.1453 204.067L9.15166 212.432C9.10085 213.55 9.64712 214.7 10.9302 215.265L172.911 286.747C176.423 288.297 180.215 289.097 184.052 289.097H371.013C373.287 289.097 374.411 286.9 373.846 285.147Z" fill="#FCE2CC"/>
<path d="M371.42 278.693C365.817 278.731 360.209 278.763 354.607 278.795C340.944 278.877 327.282 278.947 313.619 279.011C296.622 279.087 279.619 279.157 262.622 279.195C247.054 279.233 231.492 279.252 215.924 279.195C206.397 279.163 196.85 279.22 187.329 278.871C177.382 278.503 168.229 274.063 159.172 270.061C148.311 265.266 137.449 260.477 126.588 255.681C111.172 248.878 95.7504 242.076 80.3348 235.273C65.8467 228.883 51.3649 222.487 36.8767 216.097C28.8101 212.534 20.7434 208.977 12.6704 205.414C12.2956 205.249 11.9272 205.084 11.5525 204.925C11.038 204.696 10.5934 205.452 11.1079 205.681C16.8435 208.215 22.5791 210.743 28.3146 213.277C41.8247 219.241 55.3409 225.206 68.851 231.164C84.5396 238.087 100.235 245.01 115.923 251.934C128.341 257.415 140.765 262.897 153.182 268.378C163.3 272.843 173.552 278.376 184.655 279.595C187.037 279.856 189.469 279.817 191.864 279.868C196.679 279.964 201.5 280.002 206.314 280.027C220.891 280.122 235.468 280.116 250.045 280.097C267.144 280.072 284.236 280.021 301.335 279.944C316.312 279.881 331.283 279.805 346.261 279.722C354.27 279.678 362.286 279.627 370.295 279.576C370.664 279.576 371.039 279.57 371.407 279.57C371.985 279.563 371.985 278.687 371.42 278.693Z" fill="#2A222E"/>
<path d="M173.806 253.483L278.139 244.597C282.02 244.267 285.932 244.705 289.648 245.893L326.31 257.625C327.809 258.101 327.561 260.292 325.992 260.426L221.66 269.312C217.779 269.642 213.866 269.204 210.151 268.016L173.489 256.284C171.99 255.808 172.237 253.617 173.806 253.483Z" fill="white"/>
<path d="M225.655 265.59C224.55 265.228 223.451 264.866 222.346 264.504C219.678 263.627 217.017 262.757 214.355 261.88C211.148 260.826 207.94 259.772 204.726 258.717C201.951 257.803 199.175 256.894 196.393 255.98C195.034 255.535 193.687 255.04 192.315 254.639C192.296 254.633 192.277 254.627 192.258 254.62C191.762 254.455 191.407 255.198 191.909 255.357C193.014 255.719 194.113 256.081 195.218 256.443C197.879 257.32 200.547 258.19 203.208 259.067C206.416 260.121 209.624 261.175 212.837 262.23C215.613 263.144 218.389 264.053 221.171 264.967C222.53 265.412 223.877 265.907 225.249 266.307C225.268 266.314 225.287 266.32 225.306 266.327C225.801 266.492 226.157 265.749 225.655 265.59Z" fill="#493E4F"/>
<path d="M241.407 263.557C237.698 262.338 233.995 261.124 230.285 259.905C224.417 257.98 218.554 256.056 212.685 254.131C211.338 253.687 209.992 253.248 208.645 252.804C208.15 252.639 207.794 253.382 208.296 253.541C212.005 254.76 215.708 255.973 219.418 257.193C225.287 259.117 231.149 261.042 237.018 262.966C238.365 263.411 239.711 263.849 241.058 264.294C241.547 264.459 241.903 263.722 241.407 263.557Z" fill="#493E4F"/>
<path d="M259.542 261.785C255.966 260.61 252.396 259.441 248.82 258.266C243.135 256.399 237.444 254.531 231.76 252.664C230.464 252.238 229.168 251.813 227.872 251.387C227.377 251.222 227.021 251.965 227.523 252.124C231.099 253.299 234.669 254.468 238.245 255.643C243.929 257.51 249.62 259.378 255.305 261.245C256.601 261.671 257.897 262.096 259.192 262.522C259.688 262.687 260.044 261.95 259.542 261.785Z" fill="#493E4F"/>
<path d="M275.637 259.098C272.124 257.942 268.605 256.793 265.093 255.637C259.516 253.807 253.933 251.972 248.356 250.142C247.08 249.723 245.803 249.304 244.52 248.885C244.024 248.72 243.669 249.463 244.17 249.621C247.683 250.777 251.202 251.927 254.714 253.083C260.291 254.912 265.874 256.748 271.451 258.577C272.728 258.997 274.004 259.416 275.287 259.835C275.783 260 276.138 259.263 275.637 259.098Z" fill="#493E4F"/>
<path d="M177.172 257.783H273.185C276.075 257.783 276.9 253.833 274.252 252.67L179.828 211.403C176.487 209.943 172.872 209.187 169.227 209.187H73.4497C70.5597 209.187 69.7339 213.137 72.3825 214.293L166.553 255.554C169.9 257.028 173.514 257.783 177.172 257.783Z" fill="#493E4F"/>
<path d="M180.006 248.758L149.486 142.97C148.343 139.007 145.472 135.768 141.673 134.154L35.6638 89.1399C34.4061 88.6064 33.1231 89.0192 32.3482 89.8894L26.7144 93.7004L34.5333 102.326L62.252 198.414C63.3953 202.378 66.2663 205.617 70.0646 207.23L166.902 248.351L173.438 255.56L177.713 252.435C179.307 252.149 180.514 250.53 180.006 248.758Z" fill="#493E4F"/>
<path d="M178.437 242.901H210.437C212.755 242.901 213.511 239.783 211.44 238.728L171.164 218.124L178.437 242.901Z" fill="#2A222E"/>
<path d="M179.217 217.857C179.662 217.139 180.526 217.031 181.231 217.393C188.44 221.083 195.643 224.774 202.852 228.464C203.557 228.826 203.71 229.849 203.316 230.478C202.871 231.195 202.007 231.303 201.302 230.941C194.093 227.251 186.89 223.561 179.681 219.87C178.982 219.515 178.824 218.486 179.217 217.857Z" fill="#2A222E"/>
<path d="M30.1185 92.8366L136.128 137.851C139.926 139.464 142.797 142.704 143.941 146.667L174.46 252.454C175.14 254.811 172.784 256.894 170.529 255.941L64.5193 210.927C60.7209 209.314 57.85 206.074 56.7067 202.111L26.1868 96.3237C25.5072 93.9672 27.8636 91.8775 30.1185 92.8366Z" fill="#493E4F"/>
<path d="M31.4654 93.8783C38.2046 96.7175 44.9374 99.563 51.6702 102.409C65.4851 108.246 79.3 114.083 93.1085 119.939C104.484 124.76 115.873 129.575 127.217 134.466C130.406 135.844 133.727 137.14 136.745 138.861C141.915 141.808 143.731 147.544 145.294 152.949C148 162.337 150.706 171.718 153.418 181.106C157.508 195.277 161.592 209.441 165.683 223.611C167.995 231.621 170.231 239.656 172.612 247.64C173.54 250.746 176.201 252.823 179.453 252.899C180.107 252.912 180.762 252.899 181.41 252.899C185.678 252.899 189.946 252.899 194.215 252.899C208.519 252.899 222.823 252.899 237.12 252.899C247.886 252.899 258.652 252.899 269.418 252.899C269.977 252.899 270.53 252.899 271.089 252.899C271.654 252.899 271.654 252.022 271.089 252.022C263.194 252.022 255.292 252.022 247.397 252.022C232.712 252.022 218.027 252.022 203.342 252.022C195.383 252.022 187.399 252.188 179.44 252.022C176.392 251.959 174.188 249.933 173.362 247.106C173.057 246.052 172.752 244.991 172.447 243.937C171.158 239.459 169.862 234.981 168.573 230.503C164.584 216.675 160.595 202.841 156.606 189.014C153.386 177.848 150.166 166.681 146.945 155.515C145.929 151.983 145.008 148.376 143.407 145.054C141.826 141.77 139.546 139.312 136.306 137.641C134.706 136.816 133.06 136.079 131.415 135.355C122.021 131.207 112.545 127.25 103.093 123.236C89.0117 117.259 74.9173 111.295 60.8229 105.337C51.5748 101.43 42.3268 97.5242 33.0788 93.6179C32.6215 93.4273 32.164 93.2304 31.7004 93.0399C31.1795 92.8176 30.9509 93.6623 31.4654 93.8783Z" fill="#2A222E"/>
<path d="M168.503 210.464C169.258 213.087 170.014 215.704 170.77 218.327C172.199 223.268 173.622 228.216 175.051 233.158C175.883 236.048 176.696 238.944 177.554 241.828C178.449 244.839 181.2 246.973 184.356 246.979C184.75 246.979 185.15 246.967 185.544 246.967C188.225 246.935 190.911 246.897 193.592 246.865C198.019 246.808 202.446 246.751 206.873 246.7C212.126 246.636 217.379 246.566 222.638 246.503C227.745 246.439 232.858 246.376 237.964 246.312C242.01 246.262 246.057 246.211 250.103 246.16C252.154 246.135 254.206 246.109 256.251 246.084C256.34 246.084 256.435 246.084 256.524 246.077C257.089 246.071 257.089 245.194 256.524 245.201C255.12 245.22 253.717 245.239 252.307 245.252C248.699 245.296 245.097 245.341 241.49 245.385C236.58 245.449 231.676 245.506 226.767 245.569C221.507 245.633 216.248 245.703 210.989 245.766C206.282 245.823 201.569 245.887 196.863 245.944C193.617 245.982 190.371 246.027 187.126 246.065C186.338 246.077 185.551 246.084 184.763 246.096C183.143 246.115 181.581 245.703 180.323 244.623C179.059 243.53 178.538 242.12 178.094 240.583C177.649 239.033 177.198 237.484 176.753 235.934C175.356 231.087 173.959 226.247 172.561 221.401C171.539 217.857 170.516 214.313 169.493 210.775C169.443 210.591 169.385 210.413 169.335 210.228C169.195 209.689 168.344 209.917 168.503 210.464Z" fill="#2A222E"/>
<path d="M73.0244 153.775L112.221 170.2C113.802 170.861 115.428 169.374 114.92 167.742L113.243 162.362C111.89 158.037 108.695 154.524 104.516 152.771L65.3199 136.346C63.7447 135.685 62.1123 137.171 62.6204 138.804L64.2972 144.184C65.6501 148.516 68.845 152.022 73.0244 153.775Z" fill="#2A222E"/>
<path d="M280.813 68.6622C280.648 67.2457 279.841 66.0771 278.984 64.9846C277.523 63.1108 276.361 61.326 276.03 58.9314C275.694 56.5114 275.941 54.0152 275.243 51.646C274.639 49.6198 273.35 47.8414 271.794 46.4059C269.374 44.1701 265.918 41.7374 262.444 42.1757C259.668 42.5313 257.579 44.7417 256.766 47.3332C255.876 50.1788 256.448 53.3927 257.515 56.1112C258.55 58.7535 260.989 60.7543 262.876 62.7932C265.086 65.1751 267.297 67.557 269.501 69.9389C270.466 70.9805 271.444 72.0286 272.664 72.7527C275.738 74.5819 281.302 72.9114 280.813 68.6622Z" fill="#2A222E"/>
<path d="M275.484 54.3074C273.464 52.9482 270.746 53.2975 268.637 54.2502C267.678 54.6821 266.801 55.2729 266.039 55.9843C265.468 54.968 264.832 53.9771 264.153 53.0307C260.933 48.5528 256.544 44.945 251.449 42.8108C246.521 40.7402 241.045 40.1813 235.856 41.5342C225.071 44.3607 219.513 53.2975 220.942 64.2605C221.33 67.2204 221.946 70.2565 222.778 73.2608C222.816 73.4069 222.86 73.553 222.899 73.6991C223.68 76.5129 224.639 79.2949 225.77 81.9626C225.973 82.4517 226.176 82.9408 226.398 83.4172C227.199 85.2338 228.069 86.9931 229.009 88.6636C231.27 92.7096 234.344 97.8291 238.733 99.995C240.677 100.948 242.906 101.094 245.066 101.03C252.085 100.833 260.678 98.7819 265.493 93.2813C267.265 91.2488 268.523 88.8351 269.38 86.2881C270.994 81.4608 271.209 76.1762 270.676 71.1266C273.96 68.713 276.38 65.1052 277.256 61.1164C277.803 58.6837 277.771 55.8445 275.484 54.3074Z" fill="#FF9B87"/>
<path d="M222.543 63.53C222.752 63.5618 223.013 63.5237 223.33 63.4348C225.255 62.9076 227.179 62.374 229.098 61.8405C229.403 61.7579 229.708 61.669 229.955 61.4785C230.343 61.1736 230.4 60.6591 230.228 60.2272C230.025 59.7127 229.568 59.3316 229.066 59.0966C226.513 57.9025 223.896 59.0331 222.486 61.3006C222.238 61.7008 222.035 62.1454 222.016 62.6154C221.984 63.2125 222.174 63.4792 222.543 63.53Z" fill="#2A222E"/>
<path d="M234.548 60.5956C235.723 61.0847 242.03 61.2245 243.637 61.3452C243.84 61.3579 244.05 61.3769 244.234 61.3007C245.314 60.9005 244.031 58.9569 243.58 58.5059C242.728 57.6548 241.553 57.153 240.372 56.9942C238.371 56.7338 235.704 57.1657 234.408 58.8616C234.236 59.0839 234.09 59.3317 234.046 59.6111C233.982 59.9859 234.154 60.4115 234.509 60.5766C234.522 60.583 234.535 60.5893 234.548 60.5956Z" fill="#2A222E"/>
<path d="M268.878 62.7551C269.266 60.0112 271.101 57.515 273.674 56.4352C273.896 56.3399 274.049 56.143 273.979 55.8953C273.922 55.6857 273.655 55.4951 273.439 55.5904C270.593 56.7845 268.459 59.4459 268.027 62.5201C267.995 62.7551 268.084 62.9901 268.332 63.06C268.542 63.1235 268.847 62.9901 268.878 62.7551Z" fill="#2A222E"/>
<path d="M229.816 71.9016C229.67 69.6721 228.52 66.8266 227.218 66.9155C226.589 66.9599 226.1 67.3982 225.846 67.9635C225.662 68.3764 225.598 68.8337 225.585 69.2847C225.541 70.9488 226.271 73.4958 227.923 74.2835C229.435 75.0012 229.93 73.6419 229.816 71.9016Z" fill="#2A222E"/>
<path d="M242.023 69.3037C241.776 67.9699 240.88 65.7658 239.489 65.4165C238.13 65.0735 237.653 67.1505 237.647 68.0969C237.641 69.4943 238.187 70.9297 238.981 72.0667C239.273 72.4859 239.667 72.8988 240.181 72.9496C241.896 73.1147 242.239 70.7328 242.055 69.4943C242.049 69.4371 242.036 69.3736 242.023 69.3037Z" fill="#2A222E"/>
<path d="M231.073 65.5881C231.683 69.5261 232.534 73.4197 233.62 77.2497C233.881 78.1644 234.135 79.079 234.446 79.9746C234.681 80.6479 235.011 81.3211 235.666 81.6832C237.196 82.5343 238.727 81.264 239.642 80.1397C239.998 79.7078 239.381 79.079 239.019 79.5173C238.543 80.1016 238.009 80.7304 237.266 80.9718C236.479 81.2195 235.818 80.9083 235.462 80.1778C235.107 79.4411 234.923 78.5963 234.694 77.815C234.459 77.0084 234.23 76.2017 234.014 75.3951C233.131 72.0858 232.433 68.7321 231.912 65.3467C231.829 64.8004 230.985 65.0355 231.073 65.5881Z" fill="#2A222E"/>
<path d="M248.261 78.374C248.121 78.1326 247.81 78.1199 247.619 78.2914C245.313 80.343 242.912 82.2739 240.505 84.2048C240.226 84.4271 239.101 85.1258 239.616 85.5577C241.718 87.3298 244.786 87.4187 246.939 85.6847C249.124 83.9316 249.652 80.7876 248.261 78.374Z" fill="white"/>
<path d="M264.744 46.1582C263.092 43.9414 261.149 42.0105 258.945 40.3527C254.556 37.0562 249.207 35.0999 243.726 34.8204C238.492 34.5537 233.188 35.8113 228.609 38.3647C226.761 39.1586 224.995 40.1749 223.362 41.4262C221.489 42.8617 219.856 44.5385 218.446 46.4123C217.83 46.5139 217.227 46.6536 216.662 46.8759C215.505 47.3332 214.489 48.1463 214.038 49.334C212.228 54.0914 219.615 55.0442 222.613 55.3999C231.372 56.4352 241.903 54.8028 247.67 47.4666C248.001 51.7604 250.383 55.7746 254.257 57.9596C258.716 60.4749 266.91 60.8179 267.704 54.1994C268.053 51.2268 266.446 48.4511 264.744 46.1582Z" fill="#2A222E"/>
<path d="M275.09 42.9442C277.155 32.6672 271.756 21.6152 262.495 16.6927C257.407 13.9869 251.475 13.0214 245.771 13.7773C240.042 14.5395 234.757 17.0802 230.451 20.9102C226.202 24.6895 223.019 29.6438 221.228 35.0363C220.561 35.5762 219.951 36.1797 219.418 36.872C217.817 38.9553 217.042 41.5659 217.614 44.1637C217.754 44.7989 218.433 45.0529 219.005 44.9577C224.455 44.0049 229.981 43.5349 235.513 43.5159C244.691 44.2018 253.819 45.523 262.819 47.4729C266.814 48.3431 270.79 49.334 274.722 50.4392C275.287 50.598 275.98 50.2423 276.113 49.6452C276.659 47.2379 276.177 44.9577 275.09 42.9442Z" fill="#EB5E50"/>
<path d="M222.631 36.2305C235.081 33.8676 248 34.0264 260.392 36.6814C263.841 37.4246 267.246 38.3583 270.593 39.4698C271.133 39.6477 271.362 38.8029 270.828 38.6251C258.696 34.5727 245.752 32.9848 233.004 33.9693C229.447 34.2424 225.909 34.7188 222.409 35.3857C221.844 35.4937 222.079 36.3384 222.631 36.2305Z" fill="#2A222E"/>
<path d="M280.845 214.649C276.83 212.979 271.158 209.663 266.915 203.356C262.082 196.172 261.828 189.084 261.707 185.673C261.701 185.431 261.047 161.721 278.361 150.897C282.68 148.198 291.338 143.987 300.84 146.134C301.716 146.33 302.587 146.585 303.438 146.877L303.145 147.702C302.332 147.417 301.488 147.175 300.649 146.985C291.452 144.908 283.03 149.005 278.831 151.634C261.942 162.191 262.584 185.4 262.59 185.635C262.711 188.963 262.958 195.886 267.652 202.86C271.775 208.99 277.294 212.21 281.194 213.83L280.845 214.649Z" fill="#2A222E"/>
<path d="M387.026 202.117C384.853 179.588 382.903 157.02 380.915 134.466C379.689 120.593 378.997 103.869 369.578 92.7921C363.525 85.6782 353.946 81.8037 345.225 79.1614C333.379 75.5727 326.158 82.2229 321.54 92.7286C319.171 98.1275 317.97 103.971 318.027 109.821C320.054 121.514 320.416 133.195 321.273 145.092C322.359 160.196 323.007 175.961 326.335 190.748C328.959 202.409 333.913 213.69 342.983 221.769C344.59 223.205 346.305 224.539 348.103 225.726C351.628 228.083 355.502 229.925 359.593 231.055C369.635 233.825 383.907 232.218 387.178 220.467C388.811 214.56 387.604 208.088 387.026 202.117Z" fill="#308565"/>
<path d="M324.278 161.727C323.439 151.926 322.055 142.176 320.975 132.408C320.41 127.288 319.876 122.15 319.679 117.005C319.463 111.352 319.787 105.553 321.915 100.243C323.884 95.3328 327.365 90.8993 332.275 88.708C332.789 88.4793 332.344 87.7235 331.83 87.9521C327.473 89.8957 324.17 93.5924 322.055 97.8036C319.584 102.713 318.784 108.208 318.746 113.657C318.701 119.145 319.273 124.658 319.851 130.108C320.384 135.209 321.013 140.303 321.623 145.397C322.271 150.834 322.931 156.271 323.401 161.727C323.446 162.286 324.322 162.292 324.278 161.727Z" fill="#2A222E"/>
<path d="M383.914 229.296C381.532 234.314 378.115 238.906 373.656 242.222C367.266 246.96 359.022 248.18 351.279 247.125C340.722 245.684 330.414 240.05 320.835 235.063C318.454 233.825 316.072 232.586 313.69 231.341C307.992 228.382 302.295 225.409 296.604 222.449C296.559 222.424 296.515 222.411 296.47 222.379C295.327 221.788 294.139 221.204 292.92 220.632C292.577 220.467 292.227 220.302 291.884 220.143C288.194 218.397 285.653 215.754 282.331 213.43C280.547 212.178 277.6 211.607 276.228 209.974C272.321 205.344 271.629 197.849 271.819 192.069C272.22 180.261 274.519 168.593 280.102 158.119C282.503 153.635 284.472 151.088 289.426 149.144C293.021 147.728 297.512 146.997 301.177 148.096C307.878 150.103 314.681 153.584 320.105 156.544C326.114 159.821 332.218 162.934 338.436 165.817C339.516 166.319 340.602 166.821 341.694 167.31C342.177 167.532 342.66 167.755 343.149 167.964C350.847 171.382 358.749 174.221 366.313 178.013C372.83 181.29 378.979 184.79 382.574 191.459C388.729 202.905 389.529 217.469 383.914 229.296Z" fill="#308565"/>
<path d="M343.86 168.377C343.549 167.443 342.475 167.386 341.904 167.863C331.684 161.994 321.299 156.398 310.768 151.107C307.7 149.563 304.276 149.57 301.183 148.077C300.903 147.944 300.624 147.753 300.376 147.81C296.946 146.889 292.811 147.347 289.445 148.674C284.491 150.618 282.503 153.622 280.102 158.1C274.512 168.574 272.213 180.242 271.819 192.05C271.628 197.83 271.794 205.82 276.227 209.955C281.531 214.91 290.245 219.26 297.766 223.535C300.338 224.996 303.298 225.701 305.839 227.232C309.091 229.201 312.165 231.43 316.116 231.526C320.168 231.621 324.093 229.938 327.58 228.019C331.83 225.682 335.482 222.303 338.251 218.333C344.438 209.472 347.004 198.084 346.959 187.4C346.928 180.953 345.88 174.5 343.86 168.377Z" fill="#308565"/>
<path d="M280.794 214.624C284.459 216.612 288.118 218.619 291.789 220.601C296.47 223.129 301.171 225.631 305.896 228.083C311.003 230.725 316.135 233.31 321.324 235.788C326.304 238.169 331.335 240.45 336.448 242.539C340.792 244.312 345.207 245.969 349.742 247.182C350.212 247.309 350.682 247.43 351.158 247.545C351.705 247.678 351.939 246.833 351.393 246.7C346.998 245.633 342.717 244.089 338.518 242.431C333.45 240.431 328.47 238.201 323.548 235.877C318.339 233.418 313.188 230.852 308.068 228.216C303.298 225.765 298.56 223.249 293.834 220.709C290.004 218.651 286.193 216.561 282.376 214.484C281.995 214.281 281.62 214.071 281.239 213.868C280.744 213.601 280.299 214.357 280.794 214.624Z" fill="#2A222E"/>
<path d="M302.892 147.613C306.646 149.265 310.279 151.209 313.918 153.095C319.641 156.061 325.338 159.091 331.023 162.133C337.216 165.449 343.39 168.79 349.558 172.15C354.544 174.869 359.517 177.593 364.478 180.35C366.04 181.22 367.603 182.09 369.152 182.973C372.341 184.79 375.638 186.651 377.772 189.744C378.445 190.716 378.991 191.77 379.423 192.876C379.626 193.396 380.477 193.168 380.268 192.641C379.436 190.519 378.216 188.595 376.584 187C375.117 185.565 373.389 184.434 371.63 183.393C369.965 182.408 368.282 181.468 366.593 180.528C361.886 177.898 357.154 175.307 352.422 172.722C346.325 169.393 340.214 166.078 334.091 162.794C328.184 159.618 322.264 156.468 316.319 153.368C312.305 151.272 308.291 149.151 304.181 147.251C303.902 147.118 303.616 146.991 303.33 146.87C302.822 146.629 302.377 147.385 302.892 147.613Z" fill="#2A222E"/>
<path d="M303.203 164.363C302.771 162.845 302.25 161.352 301.634 159.898C298.541 152.593 293.891 150.103 287 147.131C282.522 145.2 277.936 143.529 273.248 142.195C269.19 141.052 265.023 140.03 260.825 139.585C256.747 139.153 252.51 139.452 248.794 141.313C241.566 144.933 238.098 152.892 236.758 160.463C235.411 168.072 234.668 177.339 240.537 183.348C242.856 185.724 246.044 187.254 249.379 186.975C250.421 188.715 251.977 190.151 253.882 191.002C256.798 192.298 260.24 192.069 262.959 190.513C264.572 193.917 267.97 196.509 271.756 197.055C273.865 197.36 275.935 197.087 277.847 196.388C280.419 198.592 283.659 199.97 287.101 200.154C291.872 200.402 296.686 198.268 299.722 194.597C302.911 190.741 304.01 185.692 304.518 180.833C305.096 175.326 304.715 169.692 303.203 164.363Z" fill="#FF9B87"/>
<path d="M260.456 141.643C260.393 141.567 260.329 141.49 260.253 141.414C259.63 140.811 258.786 140.5 257.96 140.22C242.386 134.878 223.845 136.053 212.361 149.151C209.681 152.206 207.426 156.557 208.487 160.723C208.944 162.514 210.094 164.198 211.707 165.131C213.454 166.148 215.461 166.11 217.296 165.366C219.145 164.617 220.695 163.264 222.225 162.019C227.262 157.916 233.226 155.909 239.635 155.197C246.965 154.384 257.947 154.327 260.418 145.473C260.761 144.203 261.358 142.773 260.456 141.643Z" fill="#FF9B87"/>
<path d="M248.718 184.898C245.962 178.419 245.352 171.064 246.927 164.21C247.372 162.273 247.988 160.374 248.769 158.551C248.991 158.037 248.235 157.592 248.013 158.106C245.13 164.807 244.45 172.347 246.051 179.467C246.502 181.481 247.149 183.443 247.962 185.342C248.185 185.857 248.941 185.412 248.718 184.898Z" fill="#2A222E"/>
<path d="M262.279 189.579C260.425 183.043 260.025 176.005 261.771 169.406C262.273 167.52 262.946 165.684 263.798 163.925C264.045 163.416 263.29 162.972 263.042 163.48C259.968 169.819 259.218 177.003 260.184 183.932C260.463 185.92 260.882 187.883 261.435 189.814C261.587 190.354 262.438 190.125 262.279 189.579Z" fill="#2A222E"/>
<path d="M277.765 189.287C277.606 182.814 278.641 176.368 280.807 170.264C280.998 169.73 280.147 169.501 279.963 170.029C277.778 176.196 276.729 182.745 276.888 189.287C276.901 189.852 277.778 189.852 277.765 189.287Z" fill="#2A222E"/>
<path d="M279.111 195.994C281.372 193.447 283.615 190.779 284.599 187.451C285.514 184.364 285.171 180.858 282.814 178.502C281.671 177.352 280.172 176.622 278.546 176.552C277.981 176.526 277.981 177.403 278.546 177.428C280.274 177.504 281.824 178.495 282.84 179.867C283.958 181.385 284.332 183.265 284.174 185.12C283.812 189.192 281.106 192.45 278.502 195.378C278.114 195.797 278.737 196.42 279.111 195.994Z" fill="#2A222E"/>
<path d="M238.581 154.873C239.896 149.417 243.586 144.666 248.47 141.929C249.849 141.154 251.316 140.557 252.84 140.138C253.387 139.985 253.152 139.14 252.605 139.293C246.984 140.836 242.144 144.844 239.464 150.008C238.702 151.475 238.117 153.038 237.73 154.645C237.603 155.191 238.448 155.426 238.581 154.873Z" fill="#2A222E"/>
<path d="M176.29 76.1252C176.265 81.1176 173.082 85.7734 168.401 87.4566C163.536 89.2097 158.175 87.7425 154.859 83.7663C153.367 81.9751 152.351 79.4599 152.179 77.1161C151.988 74.5246 152.554 72.0919 153.862 69.9069C156.447 65.6005 161.662 63.2694 166.559 64.2794C171.539 65.302 175.325 69.2527 176.15 74.2896C176.188 74.5119 176.176 74.4293 176.195 74.6072C176.214 74.7596 176.226 74.9057 176.239 75.0581C176.277 75.4138 176.29 75.7695 176.29 76.1252C176.296 77.8211 178.932 77.8211 178.919 76.1252C178.888 69.9641 175.001 64.4508 169.233 62.304C163.542 60.1889 156.809 61.9991 152.948 66.6803C148.99 71.4694 148.374 78.3864 151.62 83.7346C154.84 89.0319 161.122 91.7313 167.182 90.5308C173.031 89.3685 177.808 84.4205 178.71 78.5198C178.831 77.7259 178.907 76.9319 178.913 76.1316C178.932 74.4357 176.296 74.4293 176.29 76.1252Z" fill="#6D68E3"/>
</svg>
