<svg width="409" height="376" viewBox="0 0 409 376" fill="none" xmlns="http://www.w3.org/2000/svg">
<circle cx="104" cy="317" r="104" fill="#6782E1"/>
<path d="M407 88C407 158.714 350.342 216 280.5 216C210.658 216 154 158.714 154 88C154 17.2856 210.658 -40 280.5 -40C350.342 -40 407 17.2856 407 88Z" stroke="#6782E1" stroke-width="4"/>
<path d="M202.77 216.759H93.711C87.5415 216.759 82.2037 212.451 80.9052 206.419L48.2504 54.9394C47.1494 49.8231 51.045 45 56.275 45H165.334C171.503 45 176.841 49.3085 178.14 55.3404L210.794 206.82C211.901 211.936 208 216.759 202.77 216.759Z" fill="#CDCCF0"/>
<path d="M171.437 130.314C168.888 130.314 166.333 130.314 163.784 130.314C160.977 130.314 158.165 130.344 155.358 130.314C152.881 130.29 150.697 128.615 150.134 126.179C149.931 125.306 149.751 124.432 149.56 123.552C148.788 120.022 148.022 116.485 147.25 112.955C147.035 111.955 146.813 110.962 146.598 109.963C146.083 107.533 147.154 104.936 149.488 103.877C150.691 103.332 151.9 103.362 153.18 103.362C154.796 103.362 156.417 103.362 158.033 103.362C161.193 103.362 164.346 103.362 167.506 103.362C169.564 103.362 171.515 104.23 172.538 106.103C173.047 107.036 173.203 108.108 173.424 109.137C174.178 112.602 174.932 116.06 175.686 119.525C175.961 120.794 176.237 122.068 176.518 123.337C176.608 123.744 176.691 124.145 176.733 124.558C176.883 126.024 176.332 127.49 175.363 128.579C174.364 129.698 172.909 130.29 171.437 130.314C169.84 130.344 169.84 127.861 171.437 127.837C171.952 127.825 172.443 127.705 172.874 127.448C173.304 127.197 173.651 126.844 173.909 126.383C174.238 125.796 174.346 125.066 174.202 124.408C174.005 123.522 173.813 122.631 173.622 121.745C172.88 118.334 172.138 114.923 171.396 111.512C171.168 110.465 170.941 109.412 170.707 108.365C170.588 107.808 170.468 107.413 170.127 106.953C169.624 106.27 168.739 105.87 167.865 105.858C165.334 105.822 162.808 105.858 160.277 105.858C157.489 105.858 154.694 105.852 151.906 105.858C151.265 105.858 150.769 105.965 150.254 106.282C149.428 106.785 148.914 107.725 148.914 108.7C148.914 109.053 148.967 109.233 149.051 109.616C149.153 110.07 149.249 110.525 149.35 110.98C150.08 114.319 150.804 117.658 151.535 120.997C151.816 122.284 152.097 123.57 152.378 124.863C152.426 125.09 152.474 125.318 152.528 125.539C152.755 126.508 153.348 127.286 154.257 127.645C154.957 127.921 155.957 127.843 156.86 127.843C158.422 127.843 159.978 127.843 161.54 127.843C164.651 127.843 167.763 127.843 170.875 127.843C171.066 127.843 171.252 127.843 171.443 127.843C173.035 127.837 173.035 130.314 171.437 130.314Z" fill="white"/>
<path d="M163 87.8935C160.451 87.8935 157.896 87.8935 155.346 87.8935C152.54 87.8935 149.727 87.9234 146.921 87.8935C144.443 87.8695 142.259 86.194 141.697 83.7585C141.493 82.8849 141.314 82.0112 141.122 81.1315C140.35 77.601 139.584 74.0644 138.812 70.5338C138.597 69.5345 138.376 68.5411 138.16 67.5418C137.646 65.1123 138.717 62.5152 141.05 61.4561C142.253 60.9115 143.462 60.9415 144.743 60.9415C146.358 60.9415 147.98 60.9415 149.596 60.9415C152.755 60.9415 155.909 60.9415 159.068 60.9415C161.127 60.9415 163.078 61.8091 164.101 63.6821C164.61 64.6157 164.765 65.6868 164.987 66.716C165.741 70.1808 166.495 73.6395 167.249 77.1043C167.524 78.3729 167.799 79.6475 168.08 80.9161C168.17 81.323 168.254 81.7239 168.296 82.1368C168.445 83.6029 167.895 85.069 166.925 86.1581C165.926 87.2771 164.472 87.8695 163 87.8935C161.402 87.9234 161.402 85.44 163 85.4161C163.515 85.4041 164.005 85.2844 164.436 85.0271C164.867 84.7758 165.214 84.4227 165.471 83.962C165.8 83.3755 165.908 82.6455 165.765 81.9872C165.567 81.1016 165.376 80.21 165.184 79.3243C164.442 75.9135 163.7 72.5026 162.958 69.0917C162.731 68.0445 162.503 66.9913 162.27 65.9441C162.15 65.3876 162.03 64.9926 161.689 64.5319C161.187 63.8497 160.301 63.4487 159.427 63.4368C156.896 63.4009 154.371 63.4368 151.84 63.4368C149.051 63.4368 146.257 63.4308 143.468 63.4368C142.828 63.4368 142.331 63.5445 141.816 63.8617C140.991 64.3643 140.476 65.3038 140.476 66.2792C140.476 66.6322 140.53 66.8118 140.614 67.1948C140.715 67.6495 140.811 68.1043 140.913 68.5591C141.643 71.8982 142.367 75.2373 143.097 78.5763C143.378 79.8629 143.66 81.1495 143.941 82.442C143.989 82.6694 144.037 82.8968 144.09 83.1182C144.318 84.0876 144.91 84.8656 145.82 85.2246C146.52 85.4999 147.519 85.4221 148.423 85.4221C149.985 85.4221 151.54 85.4221 153.102 85.4221C156.214 85.4221 159.326 85.4221 162.437 85.4221C162.629 85.4221 162.814 85.4221 163.006 85.4221C164.598 85.4161 164.598 87.8935 163 87.8935Z" fill="white"/>
<path d="M181.143 174.65C178.594 174.65 176.039 174.65 173.49 174.65C170.683 174.65 167.871 174.68 165.064 174.65C162.587 174.626 160.403 172.95 159.84 170.515C159.637 169.641 159.457 168.768 159.266 167.888C158.494 164.357 157.728 160.821 156.956 157.29C156.741 156.291 156.519 155.298 156.304 154.298C155.789 151.869 156.86 149.272 159.194 148.212C160.397 147.668 161.606 147.698 162.886 147.698C164.502 147.698 166.124 147.698 167.739 147.698C170.899 147.698 174.052 147.698 177.212 147.698C179.27 147.698 181.221 148.565 182.244 150.438C182.753 151.372 182.909 152.443 183.13 153.472C183.884 156.937 184.638 160.396 185.392 163.861C185.667 165.129 185.943 166.404 186.224 167.672C186.314 168.079 186.397 168.48 186.439 168.893C186.589 170.359 186.038 171.825 185.069 172.914C184.07 174.033 182.615 174.626 181.143 174.65C179.546 174.68 179.546 172.196 181.143 172.172C181.658 172.16 182.149 172.041 182.58 171.783C183.01 171.532 183.357 171.179 183.615 170.718C183.944 170.132 184.052 169.402 183.908 168.744C183.711 167.858 183.519 166.966 183.328 166.081C182.586 162.67 181.844 159.259 181.102 155.848C180.874 154.801 180.647 153.748 180.413 152.7C180.294 152.144 180.174 151.749 179.833 151.288C179.33 150.606 178.445 150.205 177.571 150.193C175.04 150.157 172.514 150.193 169.983 150.193C167.195 150.193 164.4 150.187 161.612 150.193C160.971 150.193 160.475 150.301 159.96 150.618C159.134 151.121 158.62 152.06 158.62 153.036C158.62 153.389 158.673 153.568 158.757 153.951C158.859 154.406 158.955 154.861 159.056 155.315C159.786 158.655 160.51 161.994 161.241 165.333C161.522 166.619 161.803 167.906 162.084 169.198C162.132 169.426 162.18 169.653 162.234 169.875C162.461 170.844 163.054 171.622 163.963 171.981C164.663 172.256 165.663 172.178 166.566 172.178C168.128 172.178 169.684 172.178 171.246 172.178C174.358 172.178 177.469 172.178 180.581 172.178C180.772 172.178 180.958 172.178 181.149 172.178C182.735 172.172 182.741 174.65 181.143 174.65Z" fill="white"/>
<path d="M130.273 87.9055H69.8947C67.9798 87.9055 66.3222 86.4394 65.9153 84.3809L62.3607 66.4228C61.8102 63.6283 63.7431 60.9894 66.3401 60.9894H126.719C128.634 60.9894 130.291 62.4554 130.698 64.5139L134.253 82.472C134.803 85.2665 132.87 87.9055 130.273 87.9055Z" fill="white"/>
<path d="M125.223 70.2346C123.326 70.2346 121.423 70.2346 119.526 70.2346C115.002 70.2346 110.478 70.2346 105.954 70.2346C100.467 70.2346 94.9856 70.2346 89.4983 70.2346C84.7589 70.2346 80.0196 70.2346 75.2802 70.2346C72.9884 70.2346 70.6845 70.3124 68.3926 70.2346C68.3627 70.2346 68.3268 70.2346 68.2969 70.2346C66.6991 70.2346 66.6991 67.5059 68.2969 67.5059C70.1938 67.5059 72.0967 67.5059 73.9937 67.5059C78.5176 67.5059 83.0415 67.5059 87.5654 67.5059C93.0527 67.5059 98.5341 67.5059 104.021 67.5059C108.761 67.5059 113.5 67.5059 118.239 67.5059C120.531 67.5059 122.835 67.4281 125.127 67.5059C125.157 67.5059 125.193 67.5059 125.223 67.5059C126.821 67.5059 126.821 70.2346 125.223 70.2346Z" fill="#CDCCF0"/>
<path d="M126.264 75.4468C124.367 75.4468 122.464 75.4468 120.567 75.4468C116.043 75.4468 111.519 75.4468 106.996 75.4468C101.508 75.4468 96.0268 75.4468 90.5395 75.4468C85.8002 75.4468 81.0608 75.4468 76.3215 75.4468C74.0296 75.4468 71.7257 75.5245 69.4339 75.4468C69.4039 75.4468 69.368 75.4468 69.3381 75.4468C67.7404 75.4468 67.7404 72.718 69.3381 72.718C71.235 72.718 73.1379 72.718 75.0349 72.718C79.5588 72.718 84.0827 72.718 88.6066 72.718C94.0939 72.718 99.5753 72.718 105.063 72.718C109.802 72.718 114.541 72.718 119.281 72.718C121.573 72.718 123.876 72.6403 126.168 72.718C126.198 72.718 126.234 72.718 126.264 72.718C127.862 72.718 127.868 75.4468 126.264 75.4468Z" fill="#CDCCF0"/>
<path d="M127.263 81.1076C125.366 81.1076 123.463 81.1076 121.566 81.1076C117.042 81.1076 112.518 81.1076 107.995 81.1076C102.507 81.1076 97.0258 81.1076 91.5385 81.1076C86.7992 81.1076 82.0598 81.1076 77.3205 81.1076C75.0286 81.1076 72.7247 81.1854 70.4328 81.1076C70.4029 81.1076 70.3671 81.1076 70.3372 81.1076C68.7394 81.1076 68.7394 78.3789 70.3372 78.3789C72.2341 78.3789 74.137 78.3789 76.034 78.3789C80.5579 78.3789 85.0817 78.3789 89.6057 78.3789C95.093 78.3789 100.574 78.3789 106.062 78.3789C110.801 78.3789 115.54 78.3789 120.28 78.3789C122.572 78.3789 124.875 78.3011 127.167 78.3789C127.197 78.3789 127.233 78.3789 127.263 78.3789C128.861 78.3789 128.861 81.1076 127.263 81.1076Z" fill="#CDCCF0"/>
<path d="M139.561 130.033H79.182C77.2671 130.033 75.6096 128.699 75.2027 126.826L71.6482 110.507C71.0976 107.97 73.0305 105.57 75.6276 105.57H136.006C137.921 105.57 139.579 106.905 139.986 108.778L143.54 125.096C144.097 127.633 142.158 130.033 139.561 130.033Z" fill="white"/>
<path d="M134.696 114.104C132.799 114.104 130.896 114.104 128.999 114.104C124.475 114.104 119.951 114.104 115.427 114.104C109.94 114.104 104.459 114.104 98.9714 114.104C94.232 114.104 89.4927 114.104 84.7533 114.104C82.4615 114.104 80.1576 114.175 77.8657 114.104C77.8358 114.104 77.7999 114.104 77.77 114.104C76.1722 114.104 76.1722 111.626 77.77 111.626C79.6669 111.626 81.5698 111.626 83.4668 111.626C87.9907 111.626 92.5146 111.626 97.0386 111.626C102.526 111.626 108.007 111.626 113.495 111.626C118.234 111.626 122.973 111.626 127.713 111.626C130.005 111.626 132.308 111.554 134.6 111.626C134.63 111.626 134.666 111.626 134.696 111.626C136.294 111.626 136.3 114.104 134.696 114.104Z" fill="#CDCCF0"/>
<path d="M135.743 118.837C133.846 118.837 131.943 118.837 130.046 118.837C125.522 118.837 120.999 118.837 116.475 118.837C110.987 118.837 105.506 118.837 100.019 118.837C95.2792 118.837 90.5399 118.837 85.8006 118.837C83.5087 118.837 81.2048 118.909 78.9129 118.837C78.883 118.837 78.8471 118.837 78.8172 118.837C77.2195 118.837 77.2195 116.359 78.8172 116.359C80.7141 116.359 82.617 116.359 84.514 116.359C89.0379 116.359 93.5618 116.359 98.0858 116.359C103.573 116.359 109.054 116.359 114.542 116.359C119.281 116.359 124.021 116.359 128.76 116.359C131.052 116.359 133.356 116.288 135.647 116.359C135.677 116.359 135.713 116.359 135.743 116.359C137.335 116.359 137.341 118.837 135.743 118.837Z" fill="#CDCCF0"/>
<path d="M136.833 123.983C133.493 123.983 130.154 123.983 126.815 123.983C121.489 123.983 116.158 123.983 110.832 123.983C109.599 123.983 108.373 123.983 107.14 123.983C105.542 123.983 105.542 121.506 107.14 121.506C110.479 121.506 113.818 121.506 117.157 121.506C122.483 121.506 127.815 121.506 133.14 121.506C134.373 121.506 135.6 121.506 136.833 121.506C138.424 121.506 138.43 123.983 136.833 123.983Z" fill="#CDCCF0"/>
<path d="M149.099 174.949H88.7203C86.8054 174.949 85.1478 173.615 84.7409 171.742L81.1864 155.423C80.6359 152.886 82.5687 150.486 85.1657 150.486H145.545C147.459 150.486 149.117 151.821 149.524 153.694L153.078 170.012C153.629 172.549 151.696 174.949 149.099 174.949Z" fill="white"/>
<path d="M144.234 159.163C142.337 159.163 140.434 159.163 138.537 159.163C134.013 159.163 129.489 159.163 124.965 159.163C119.478 159.163 113.997 159.163 108.509 159.163C103.77 159.163 99.0306 159.163 94.2912 159.163C91.9993 159.163 89.6956 159.235 87.4037 159.163C87.3738 159.163 87.3378 159.163 87.3079 159.163C85.7102 159.163 85.7102 156.686 87.3079 156.686C89.2048 156.686 91.1078 156.686 93.0047 156.686C97.5286 156.686 102.052 156.686 106.576 156.686C112.064 156.686 117.545 156.686 123.032 156.686C127.772 156.686 132.511 156.686 137.25 156.686C139.542 156.686 141.846 156.614 144.138 156.686C144.168 156.686 144.204 156.686 144.234 156.686C145.826 156.686 145.832 159.163 144.234 159.163Z" fill="#CDCCF0"/>
<path d="M145.323 163.902C143.426 163.902 141.523 163.902 139.626 163.902C135.102 163.902 130.578 163.902 126.054 163.902C120.567 163.902 115.086 163.902 109.598 163.902C104.859 163.902 100.12 163.902 95.3804 163.902C93.0885 163.902 90.7847 163.974 88.4928 163.902C88.4629 163.902 88.4269 163.902 88.397 163.902C86.7993 163.902 86.7993 161.425 88.397 161.425C90.294 161.425 92.1969 161.425 94.0938 161.425C98.6177 161.425 103.142 161.425 107.666 161.425C113.153 161.425 118.634 161.425 124.122 161.425C128.861 161.425 133.6 161.425 138.34 161.425C140.632 161.425 142.935 161.353 145.227 161.425C145.257 161.425 145.293 161.425 145.323 161.425C146.915 161.419 146.921 163.902 145.323 163.902Z" fill="#CDCCF0"/>
<path d="M146.364 169.043C143.438 169.043 140.506 169.043 137.58 169.043C137.167 169.043 136.754 169.043 136.335 169.043C134.737 169.043 134.737 166.565 136.335 166.565C139.261 166.565 142.193 166.565 145.12 166.565C145.532 166.565 145.945 166.565 146.364 166.565C147.962 166.565 147.962 169.043 146.364 169.043Z" fill="#CDCCF0"/>
<path d="M6.82316 70.0012H84.1307C88.505 70.0012 92.2869 73.0531 93.2084 77.3316L116.355 184.715C117.139 188.341 114.374 191.764 110.664 191.764H33.3563C28.982 191.764 25.2 188.712 24.2785 184.434L1.13236 77.0504C0.354433 73.4181 3.11307 70.0012 6.82316 70.0012Z" fill="#6D68E3"/>
<path d="M81.4018 106.51H65.2748C63.3599 106.51 61.7024 105.175 61.2955 103.302L57.7409 86.9838C57.1904 84.4466 59.1233 82.047 61.7203 82.047H77.8472C79.7621 82.047 81.4197 83.3814 81.8266 85.2544L85.3812 101.573C85.9317 104.11 83.9988 106.51 81.4018 106.51Z" fill="white"/>
<path d="M66.9268 89.0184C70.0205 91.7231 73.1202 94.4279 76.214 97.1327C76.6508 97.5157 77.0877 97.8927 77.5245 98.2757C78.0272 98.7185 77.9733 99.5802 77.5245 100.029C77.0219 100.532 76.2738 100.472 75.7712 100.029C72.6774 97.3242 69.5777 94.6194 66.484 91.9146C66.0471 91.5317 65.6103 91.1546 65.1735 90.7717C64.6708 90.3289 64.7247 89.4672 65.1735 89.0184C65.6761 88.5157 66.4241 88.5755 66.9268 89.0184Z" fill="#CDCCF0"/>
<path d="M75.9086 91.029C73.8202 93.6619 71.7318 96.2949 69.6434 98.9279C69.3502 99.2929 69.057 99.6639 68.7697 100.029C68.3509 100.556 67.4532 100.466 67.0164 100.029C66.4958 99.5083 66.5975 98.8022 67.0164 98.2756C69.1048 95.6427 71.1932 93.0097 73.2816 90.3767C73.5749 90.0117 73.8681 89.6407 74.1554 89.2756C74.5742 88.749 75.4718 88.8388 75.9086 89.2756C76.4292 89.7903 76.3275 90.5024 75.9086 91.029Z" fill="#CDCCF0"/>
<path d="M89.1032 140.104H72.9762C71.0613 140.104 69.4038 138.769 68.9969 136.896L65.4424 120.578C64.8918 118.041 66.8247 115.641 69.4217 115.641H85.5487C87.4635 115.641 89.1211 116.976 89.528 118.849L93.0826 135.167C93.6331 137.704 91.7003 140.104 89.1032 140.104Z" fill="white"/>
<path d="M84.8546 126.646C83.6279 128.674 82.4071 130.703 81.1804 132.726C80.7854 133.378 79.7801 133.581 79.2356 132.977C77.2968 130.823 75.352 128.674 73.4131 126.52C73.1379 126.215 72.8626 125.91 72.5873 125.599C72.1385 125.102 72.0967 124.336 72.5873 123.845C73.0421 123.391 73.8918 123.349 74.3406 123.845C76.2794 126 78.2242 128.148 80.1631 130.302C80.4383 130.607 80.7136 130.913 80.9889 131.224C80.3426 131.307 79.6903 131.391 79.0441 131.475C80.2708 129.446 81.4915 127.418 82.7182 125.395C83.5321 124.031 85.6804 125.276 84.8546 126.646Z" fill="#CDCCF0"/>
<path d="M96.8705 176.804H80.7436C78.8287 176.804 77.1712 175.469 76.7642 173.596L73.2097 157.278C72.6592 154.741 74.592 152.341 77.1891 152.341H93.3161C95.2309 152.341 96.8885 153.676 97.2954 155.549L100.85 171.867C101.4 174.404 99.4676 176.804 96.8705 176.804Z" fill="white"/>
<path d="M92.8675 162.819C91.8682 164.997 90.8748 167.17 89.8755 169.348C89.5464 170.06 88.4273 170.15 87.9307 169.599C85.7166 167.17 83.5024 164.74 81.2943 162.311C80.9832 161.969 80.672 161.628 80.3609 161.287C79.9121 160.791 79.8702 160.025 80.3609 159.534C80.8157 159.079 81.6594 159.037 82.1141 159.534C84.3282 161.963 86.5424 164.393 88.7505 166.823C89.0616 167.164 89.3728 167.505 89.6839 167.846C89.0377 167.93 88.3854 168.013 87.7391 168.097C88.7325 165.919 89.7318 163.747 90.7312 161.569C91.0124 160.958 91.892 160.809 92.4306 161.126C93.0529 161.491 93.1487 162.209 92.8675 162.819Z" fill="#CDCCF0"/>
<path d="M49.2136 85.5956C45.7668 85.5956 42.3259 85.5956 38.8792 85.5956C33.4337 85.5956 27.9883 85.5956 22.5428 85.5956C21.2922 85.5956 20.0415 85.5956 18.7908 85.5956C17.1931 85.5956 17.1931 83.1182 18.7908 83.1182C22.2376 83.1182 25.6785 83.1182 29.1252 83.1182C34.5707 83.1182 40.0161 83.1182 45.4616 83.1182C46.7122 83.1182 47.9629 83.1182 49.2136 83.1182C50.8113 83.1182 50.8113 85.5956 49.2136 85.5956Z" fill="white"/>
<path d="M50.2187 89.9698C46.7779 89.9698 43.3311 89.9698 39.8903 89.9698C34.4448 89.9698 29.0053 89.9698 23.5599 89.9698C22.3092 89.9698 21.0585 89.9698 19.8079 89.9698C18.2101 89.9698 18.2101 87.4924 19.8079 87.4924C23.2487 87.4924 26.6955 87.4924 30.1363 87.4924C35.5817 87.4924 41.0212 87.4924 46.4667 87.4924C47.7174 87.4924 48.968 87.4924 50.2187 87.4924C51.8164 87.4924 51.8164 89.9698 50.2187 89.9698Z" fill="white"/>
<path d="M51.218 94.7092C47.8071 94.7092 44.3902 94.7092 40.9794 94.7092C35.5399 94.7092 30.0944 94.7092 24.6549 94.7092C23.4043 94.7092 22.1537 94.7092 20.897 94.7092C19.2993 94.7092 19.2993 92.2318 20.897 92.2318C24.3079 92.2318 27.7248 92.2318 31.1357 92.2318C36.5752 92.2318 42.0206 92.2318 47.4601 92.2318C48.7108 92.2318 49.9614 92.2318 51.218 92.2318C52.8098 92.2258 52.8157 94.7092 51.218 94.7092Z" fill="white"/>
<path d="M56.5561 118.579C53.1392 118.579 49.7164 118.579 46.2995 118.579C40.848 118.579 35.3966 118.579 29.9452 118.579C28.6885 118.579 27.4379 118.579 26.1812 118.579C24.5835 118.579 24.5835 116.102 26.1812 116.102C29.5981 116.102 33.021 116.102 36.4378 116.102C41.8893 116.102 47.3407 116.102 52.7921 116.102C54.0488 116.102 55.2995 116.102 56.5561 116.102C58.1538 116.102 58.1538 118.579 56.5561 118.579Z" fill="white"/>
<path d="M57.5615 122.954C54.1446 122.954 50.7277 122.954 47.3108 122.954C41.8594 122.954 36.4139 122.954 30.9625 122.954C29.7118 122.954 28.4551 122.954 27.2045 122.954C25.6067 122.954 25.6067 120.476 27.2045 120.476C30.6214 120.476 34.0382 120.476 37.4551 120.476C42.9065 120.476 48.352 120.476 53.8035 120.476C55.0541 120.476 56.3108 120.476 57.5615 120.476C59.1592 120.476 59.1592 122.954 57.5615 122.954Z" fill="white"/>
<path d="M58.8481 127.693C56.3647 127.693 53.8874 127.693 51.41 127.693C47.4366 127.693 43.4632 127.693 39.4898 127.693C38.5802 127.693 37.6707 127.693 36.7611 127.693C35.1634 127.693 35.1634 125.216 36.7611 125.216C39.2385 125.216 41.7218 125.216 44.1992 125.216C48.1726 125.216 52.146 125.216 56.1194 125.216C57.029 125.216 57.9385 125.216 58.8481 125.216C60.4458 125.21 60.4458 127.693 58.8481 127.693Z" fill="white"/>
<path d="M64.8137 154.89C61.4028 154.89 57.9918 154.89 54.5749 154.89C49.1474 154.89 43.714 154.89 38.2865 154.89C37.0538 154.89 35.8151 154.89 34.5824 154.89C32.9847 154.89 32.9847 152.413 34.5824 152.413C37.9933 152.413 41.4042 152.413 44.821 152.413C50.2485 152.413 55.682 152.413 61.1095 152.413C62.3422 152.413 63.581 152.413 64.8137 152.413C66.4114 152.407 66.4114 154.89 64.8137 154.89Z" fill="white"/>
<path d="M65.8312 159.265C62.4204 159.265 59.0035 159.265 55.5926 159.265C50.1531 159.265 44.7076 159.265 39.2682 159.265C38.0175 159.265 36.7668 159.265 35.5102 159.265C33.9125 159.265 33.9125 156.787 35.5102 156.787C38.9211 156.787 42.338 156.787 45.7488 156.787C51.1883 156.787 56.6338 156.787 62.0733 156.787C63.3239 156.787 64.5746 156.787 65.8312 156.787C67.429 156.781 67.429 159.265 65.8312 159.265Z" fill="white"/>
<path d="M66.7944 163.998C63.0364 163.998 59.2785 163.998 55.5205 163.998C54.9939 163.998 54.4673 163.998 53.9347 163.998C52.337 163.998 52.337 161.521 53.9347 161.521C57.6927 161.521 61.4506 161.521 65.2086 161.521C65.7352 161.521 66.2618 161.521 66.7944 161.521C68.3921 161.521 68.3921 163.998 66.7944 163.998Z" fill="white"/>
<path d="M104.027 183.949C103.04 183.949 102.053 183.949 101.065 183.949C98.4681 183.949 95.8651 183.949 93.268 183.949C89.5998 183.949 85.9316 183.949 82.2574 183.949C78.0446 183.949 73.8319 183.949 69.6132 183.949C65.4363 183.949 61.2535 183.949 57.0767 183.949C53.4563 183.949 49.842 183.949 46.2216 183.949C43.7084 183.949 41.1951 183.949 38.6758 183.949C37.4132 183.949 36.1027 184.027 34.846 183.859C30.7709 183.32 27.6652 180.233 26.8095 176.265C26.5522 175.063 26.2889 173.86 26.0316 172.663C25.5289 170.341 25.0322 168.025 24.5296 165.704C23.8414 162.514 23.1533 159.325 22.4651 156.135C21.6513 152.365 20.8374 148.595 20.0296 144.825C19.1439 140.726 18.2643 136.627 17.3787 132.528C16.4811 128.363 15.5835 124.198 14.6859 120.034C13.8302 116.066 12.9744 112.099 12.1187 108.131C11.3647 104.625 10.6047 101.118 9.85076 97.6114C9.25236 94.8288 8.64796 92.0463 8.04956 89.2577C7.6606 87.4565 7.27167 85.6613 6.8887 83.8601C6.6254 82.6334 6.26035 81.3648 6.40995 80.1022C6.78694 76.8888 9.48576 74.4592 12.7231 74.4233C12.9984 74.4173 13.2736 74.4233 13.5489 74.4233C15.4399 74.4233 17.3248 74.4233 19.2158 74.4233C22.4531 74.4233 25.6845 74.4233 28.9218 74.4233C32.9311 74.4233 36.9465 74.4233 40.9558 74.4233C45.2104 74.4233 49.465 74.4233 53.7196 74.4233C57.6751 74.4233 61.6365 74.4233 65.5919 74.4233C68.7096 74.4233 71.8213 74.4233 74.9389 74.4233C76.6683 74.4233 78.4037 74.4233 80.1331 74.4233C80.8572 74.4233 81.5633 74.4533 82.2813 74.567C85.3152 75.0397 88.038 77.182 89.2587 79.9885C89.7554 81.1314 89.9708 82.3103 90.2341 83.513C90.6231 85.3322 91.018 87.1454 91.407 88.9645C92.0114 91.765 92.6158 94.5595 93.2142 97.3601C93.9741 100.879 94.7281 104.391 95.488 107.91C96.3438 111.883 97.1995 115.857 98.0552 119.824C98.9528 123.989 99.8504 128.154 100.748 132.319C101.634 136.412 102.513 140.511 103.399 144.604C104.213 148.368 105.021 152.126 105.834 155.89C106.517 159.055 107.199 162.221 107.881 165.386C108.378 167.696 108.874 170 109.371 172.31C109.628 173.495 109.88 174.68 110.137 175.87C110.305 176.66 110.418 177.456 110.322 178.264C109.957 181.489 107.271 183.907 104.027 183.949C102.43 183.973 102.43 181.489 104.027 181.471C106.451 181.436 108.312 179.203 107.833 176.846C107.791 176.654 107.749 176.463 107.707 176.271C107.42 174.925 107.127 173.584 106.84 172.238C106.319 169.827 105.799 167.409 105.278 164.997C104.584 161.79 103.896 158.577 103.201 155.369C102.388 151.587 101.574 147.811 100.76 144.029C99.8803 139.948 99.0007 135.867 98.121 131.792C97.2354 127.687 96.3498 123.576 95.4642 119.471C94.6204 115.557 93.7767 111.644 92.9329 107.73C92.1909 104.284 91.4488 100.837 90.7068 97.396C90.1204 94.6732 89.534 91.9505 88.9475 89.2278C88.5706 87.4865 88.1995 85.7451 87.8225 84.0037C87.5593 82.771 87.3438 81.5264 86.7514 80.4672C85.5127 78.2651 83.1909 76.9366 80.7016 76.9187C80.4143 76.9187 80.1271 76.9187 79.8399 76.9187C77.9549 76.9187 76.0699 76.9187 74.1849 76.9187C70.9895 76.9187 67.8 76.9187 64.6045 76.9187C60.6491 76.9187 56.6937 76.9187 52.7442 76.9187C48.5255 76.9187 44.3008 76.9187 40.082 76.9187C36.1386 76.9187 32.1951 76.9187 28.2516 76.9187C25.116 76.9187 21.9804 76.9187 18.8448 76.9187C17.0436 76.9187 15.2483 76.9187 13.4472 76.9187C13.1121 76.9187 12.777 76.9067 12.4419 76.9247C10.162 77.0563 8.49245 79.3482 8.94125 81.5443C9.09085 82.2803 9.25836 83.0164 9.41993 83.7524C9.83282 85.6793 10.2517 87.6121 10.6646 89.539C11.2809 92.3873 11.8913 95.2417 12.5077 98.0901C13.2737 101.633 14.0336 105.175 14.7996 108.718C15.6553 112.685 16.511 116.653 17.3667 120.62C18.2583 124.755 19.1499 128.89 20.0416 133.025C20.9152 137.07 21.7889 141.115 22.6566 145.166C23.4524 148.853 24.2483 152.539 25.0382 156.225C25.7084 159.331 26.3787 162.43 27.0429 165.536C27.5276 167.786 28.0123 170.03 28.497 172.28C28.7423 173.417 28.9877 174.548 29.233 175.685C29.4365 176.624 29.7057 177.432 30.2144 178.24C31.471 180.257 33.727 181.459 36.0848 181.477C37.1499 181.483 38.215 181.477 39.2802 181.477C41.9072 181.477 44.5342 181.477 47.1612 181.477C50.8234 181.477 54.4856 181.477 58.1478 181.477C62.3127 181.477 66.4836 181.477 70.6484 181.477C74.7714 181.477 78.9004 181.477 83.0234 181.477C86.6138 181.477 90.2102 181.477 93.8006 181.477C96.3139 181.477 98.8211 181.477 101.334 181.477C102.238 181.477 103.142 181.477 104.039 181.477C105.625 181.471 105.625 183.949 104.027 183.949Z" fill="white"/>
<path d="M43.6786 253.687V253.669H43.6846C44.0257 252.604 44.9592 251.73 46.3475 251.73H222.487C226.101 251.73 229.674 252.484 232.983 253.944L385.587 321.288C386.796 321.821 387.317 322.91 387.263 323.969L387.269 331.838C387.808 333.489 386.748 335.56 384.6 335.56H208.461C204.846 335.56 201.274 334.806 197.965 333.346L45.3602 266.002C44.1514 265.469 43.6367 264.386 43.6846 263.333L43.6786 255.452C43.4931 254.877 43.4991 254.255 43.6786 253.687Z" fill="#C7C7C7"/>
<path d="M384.067 326.015C378.754 326.051 373.44 326.081 368.126 326.117C355.183 326.195 342.233 326.261 329.29 326.321C313.27 326.392 297.245 326.458 281.226 326.494C266.541 326.524 251.856 326.548 237.178 326.494C228.273 326.464 219.345 326.524 210.441 326.183C200.974 325.818 192.405 321.623 183.89 317.865C173.681 313.359 163.478 308.859 153.27 304.353C138.759 297.95 124.241 291.547 109.73 285.139C96.0147 279.089 82.3053 273.039 68.5899 266.983C60.9603 263.614 53.3247 260.245 45.6951 256.882C45.336 256.72 44.977 256.565 44.612 256.403C44.1273 256.188 44.5461 255.476 45.0308 255.691C50.3985 258.061 55.7722 260.431 61.1398 262.8C73.802 268.389 86.4642 273.978 99.1264 279.562C113.913 286.084 128.699 292.613 143.486 299.135C155.197 304.305 166.907 309.47 178.618 314.64C188.109 318.829 197.935 324.13 208.203 325.226C210.519 325.471 212.883 325.435 215.21 325.477C219.764 325.561 224.324 325.597 228.878 325.626C242.605 325.71 256.333 325.704 270.06 325.686C286.169 325.662 302.272 325.609 318.381 325.543C332.419 325.483 346.458 325.411 360.49 325.333C368.006 325.291 375.528 325.244 383.044 325.196C383.385 325.196 383.726 325.19 384.061 325.19C384.6 325.184 384.6 326.009 384.067 326.015Z" fill="#2A222E"/>
<path d="M194.685 182.626C194.751 179.784 194.889 176.936 195.152 174.099C195.774 167.523 197.139 160.904 199.879 154.903C201.154 152.102 202.716 149.439 204.649 146.98C207.377 143.491 210.866 140.529 214.995 138.847C218.855 137.28 223.337 137.046 227.25 138.554C228.459 139.021 231.469 140.224 231.978 141.54C232.696 143.365 231.457 146.453 230.607 148.069C221.5 165.369 225.174 178.258 227.101 193.9C229.165 210.638 230.511 213.767 236.208 244.8C236.747 247.733 236.938 250.784 236.364 253.711C234.329 264.039 222.307 262.639 214.337 262.998C212.296 263.094 210.184 263.171 208.287 262.423C200.149 259.204 198.952 244.519 197.731 237.32C195.972 226.956 195.158 216.448 194.823 205.94C194.655 200.68 194.607 195.42 194.613 190.154C194.613 187.641 194.625 185.134 194.685 182.626Z" fill="#FFE9D4"/>
<path d="M101.885 235.824C101.747 232.79 101.64 229.757 101.532 226.723C101.359 221.9 101.604 217.082 105.35 213.606C109.287 209.95 114.817 208.334 119.915 207.083C126.426 205.491 133.164 205.09 139.86 204.696C157.925 203.636 175.991 202.535 194.045 201.368C198.336 201.093 206.881 198.759 210.256 202.428C212.637 205.013 213.493 208.621 214.875 211.763C218.376 219.703 221.153 227.961 223.169 236.399C225.072 244.37 226.64 253.04 223.696 260.981C222.936 263.028 221.811 264.991 220.261 266.54C218.514 268.294 216.311 269.449 213.918 270.041C211.285 270.693 208.58 270.795 205.881 270.891C202.865 270.998 199.844 271.106 196.828 271.208C184.71 271.627 172.586 271.992 160.457 272.105C154.419 272.165 148.381 272.159 142.337 272.07C136.383 271.98 130.405 271.89 124.463 271.513C119.185 271.178 113.817 270.262 109.467 267.049C103.686 262.782 103.507 256.517 102.849 249.893C102.382 245.219 102.095 240.522 101.885 235.824Z" fill="#FFE9D4"/>
<path d="M99.3237 220.29C99.3955 220.236 99.4673 220.182 99.5511 220.134C118.323 208.519 134.755 226.346 135.521 244.878C135.832 252.346 133.127 269.359 123.972 271.286C118.802 272.375 114.386 267.929 112.584 263.572C110.681 258.959 110.628 253.872 108.378 249.342C105.595 243.741 92.107 226.035 99.3237 220.29Z" fill="#308565"/>
<path d="M220.626 194.152C220.811 181.256 223.307 168.109 229.674 156.769C235.131 147.051 243.503 138.644 253.813 134.192C263.926 129.823 275.553 129.644 285.678 134.114C290.633 136.298 295.031 139.649 298.352 143.934C302.116 148.793 304.456 154.567 306.078 160.462C307.849 166.918 308.932 173.579 309.83 180.203C310.787 187.306 311.421 194.445 311.798 201.602C312.175 208.759 312.301 215.933 312.265 223.096C312.235 229.709 312.325 236.411 311.433 242.981C310.979 246.338 310.189 249.749 308.848 252.897C309.602 253.687 309.967 254.871 309.381 256.116C301.428 272.997 283.817 283.421 265.273 283.308C256.147 283.254 246.776 280.8 239.757 274.756C233.139 269.066 229.5 260.55 227.645 252.197C226.305 246.159 225.838 239.995 225.359 233.844C222.714 220.769 220.434 207.52 220.626 194.152Z" fill="#FFC069"/>
<path d="M209.932 184.667C209.986 182.674 210.082 180.682 210.226 178.689C210.806 170.622 212.332 162.652 214.839 154.962C216.676 149.331 219.531 144.083 223.935 140.044C228.345 135.999 234.239 132.959 240.349 133.025C242.713 133.049 245.394 133.695 246.884 135.682C249.894 139.697 246.357 144.58 243.951 147.841C230.236 166.422 230.529 189.472 234.078 211.278C236.154 224.054 238.554 236.776 240.983 249.486C242.198 255.841 243.425 262.196 244.628 268.557C244.957 270.304 246.872 275.283 244.765 276.492C242.599 277.736 240.002 273.835 238.883 272.423C219.411 247.732 209.1 216.071 209.932 184.667Z" fill="#308565"/>
<path d="M194.685 182.626C201.513 181.059 206.611 174.943 206.611 167.63C206.611 162.341 203.942 157.679 199.879 154.902C197.139 160.904 195.774 167.523 195.152 174.099C194.889 176.936 194.751 179.778 194.685 182.626Z" fill="#FCE2CC"/>
<path d="M202.728 76.7751C203.308 74.6388 204.068 72.7359 204.607 71.6707C209.801 61.4081 220.47 61.0371 230.374 64.1428C235.987 65.9081 241.409 67.8888 247.255 68.7206C253.795 69.6481 260.474 69.2651 266.954 70.7312C273.573 72.2272 280.562 74.9021 285.241 80.0244C293.027 88.5457 289.694 101.693 297.616 109.831C301.721 114.05 307.029 116.916 310.668 121.619C313.396 125.15 314.808 129.5 315.299 133.893C315.503 135.694 316.382 145.436 314.641 146.585C312.535 147.979 310.183 148.978 307.676 149.439C303.433 150.211 299.059 148.278 297.844 143.856C297.724 143.407 297.652 142.946 297.616 142.474C292.949 144.395 287.767 145.268 283.123 145.202C272.968 145.065 262.765 139.458 259.193 129.782C256.734 129.662 254.454 127.723 255.573 124.809C257.823 118.944 261.503 110.328 256.662 104.709C254.466 102.159 250.66 101.824 247.692 100.657C246.076 100.023 244.55 99.2331 243.216 98.2218C232.468 91.9565 226.233 68.2 213.547 81.4247C212.296 82.7292 211.357 84.3209 210.094 85.6195C208.831 86.918 207.078 87.9413 205.289 87.6541C201.034 86.9779 201.477 81.3529 202.728 76.7751Z" fill="#632727"/>
<path d="M179.647 94.1168C180.587 93.0038 181.622 91.9446 182.753 90.9692C192.046 82.9027 205.415 82.2385 216.527 86.6009C225.569 90.1494 237.77 97.4499 243.102 105.756C244.544 108 245.238 110.603 245.136 113.266C245.041 115.791 244.329 118.256 243.443 120.608C243.162 121.356 242.851 122.098 242.539 122.834C242.545 123.091 242.462 123.361 242.234 123.6C242.222 123.612 242.21 123.618 242.204 123.63C242.138 123.774 242.079 123.923 242.019 124.067C241.797 124.563 241.349 124.923 240.786 124.809C239.146 125.922 237.202 126.538 235.251 126.933C232.235 127.538 229.159 127.873 226.119 128.315C222.96 128.776 219.8 129.243 216.641 129.692C213.637 130.123 210.603 130.512 207.563 130.512C202.075 130.5 196.636 128.932 192.052 125.916C189.844 129.704 186.164 132.929 181.586 132.869C178.911 132.839 176.434 131.535 174.872 129.53C174.196 129.506 173.52 129.129 173.322 128.363C170.372 116.868 171.838 103.362 179.647 94.1168Z" fill="#632727"/>
<path d="M228.058 106.145C230.709 107.3 264.734 128.507 271.705 133.079C275.08 136.208 272.681 140.696 270.622 143.82C267.666 148.314 263.507 152.461 258.235 154.023C252.503 155.722 246.728 153.353 241.642 150.803C240.565 150.265 239.499 149.708 238.44 149.14C236.43 148.069 234.437 146.944 232.468 145.777C231.774 145.364 231.092 144.981 230.452 144.592C230.194 144.652 229.931 144.634 229.716 144.472C229.099 144.005 228.519 143.509 227.968 142.976C222.858 138.087 221.673 130.715 221.865 123.504C221.972 119.441 221.99 114.277 224.51 109.897C225.485 108.197 226.221 105.349 228.058 106.145Z" fill="#FF9B87"/>
<path d="M234.814 129.446C235.927 128.082 237.369 126.311 239.356 126.634C241.384 126.963 242.437 129.171 242.994 130.918C243.61 132.857 243.742 134.934 243.527 136.95C243.138 140.505 241.564 143.7 239.81 146.77C239.362 147.56 238.925 148.38 238.44 149.14C236.429 148.069 234.437 146.944 232.468 145.777C231.774 145.364 231.092 144.981 230.451 144.592C230.194 144.652 229.931 144.634 229.715 144.472C229.099 144.005 228.519 143.509 227.968 142.976C228.417 140.271 229.452 137.591 230.41 135.891C231.69 133.611 233.168 131.457 234.814 129.446Z" fill="#2A222E"/>
<path d="M186.942 109.956C194.925 97.7251 203.787 94.2783 216.03 99.239C216.778 97.5934 218.214 96.2709 220.159 95.7384C223.702 94.7749 227.131 97.2403 228.435 100.46C229.267 102.518 229.273 104.673 228.788 106.761C231.529 108.969 238.895 114.438 240.828 116.946C244.382 121.589 243.946 124.037 242.372 129.722C241.283 133.623 239.918 137.471 237.788 140.936C235.418 144.807 232.947 148.733 228.387 150.223C223.642 151.773 219.561 150.875 215.204 149.074C214.313 148.703 213.385 148.332 212.44 147.943C211.656 147.626 210.854 147.303 210.04 146.974C207.91 146.118 205.72 145.196 203.542 144.197C202.877 143.886 202.207 143.575 201.549 143.251C200.562 142.767 199.586 142.264 198.629 141.738C197.318 141.019 196.044 140.247 194.823 139.428C189.461 135.825 185.183 131.176 183.884 124.755C182.849 119.657 184.123 114.265 186.942 109.956Z" fill="#FF9B87"/>
<path d="M199.85 123.426C200.891 122.068 202.393 121.212 204.11 121.081C204.577 121.045 205.086 121.075 205.493 121.326C206.079 121.691 206.229 122.355 206.001 122.936C205.977 123.175 205.876 123.402 205.684 123.576C204.93 124.258 204.176 124.94 203.422 125.622C203.039 125.97 202.65 126.317 202.267 126.664C201.944 126.957 201.615 127.286 201.208 127.454C201.112 127.495 201.011 127.525 200.909 127.549C200.897 127.555 200.891 127.561 200.879 127.561C200.58 127.657 200.281 127.639 200.011 127.543C199.778 127.472 199.562 127.352 199.371 127.16C199.006 126.801 198.85 126.221 198.898 125.718C198.982 124.904 199.353 124.079 199.85 123.426Z" fill="#2A222E"/>
<path d="M194.799 135.107C194.536 135.837 194.434 136.657 194.458 137.423C194.482 138.111 194.608 138.781 194.817 139.422C196.038 140.241 197.312 141.013 198.623 141.731C198.737 141.522 198.796 141.277 198.808 141.025C198.832 140.523 198.707 139.99 198.641 139.499C198.509 138.53 198.383 137.555 198.252 136.579C198.132 135.64 198.168 134.383 197.24 133.839C196.666 133.497 195.996 133.629 195.493 134.036C195.158 134.299 194.943 134.706 194.799 135.107Z" fill="#2A222E"/>
<path d="M221.655 104.26C220.56 102.195 220.052 99.8553 220.219 97.5216C220.255 96.995 221.087 96.989 221.045 97.5216C220.889 99.7117 221.338 101.902 222.368 103.841C222.619 104.307 221.907 104.726 221.655 104.26Z" fill="#2A222E"/>
<path d="M208.419 125.533C208.994 125.491 209.568 125.73 210.083 125.952C210.693 126.215 211.285 126.514 211.842 126.885C212.363 127.238 212.955 127.633 213.248 128.214C214.403 130.476 211.555 130.535 210.25 129.943C209.478 129.59 208.736 129.165 208.042 128.68C206.821 127.813 206.396 125.682 208.419 125.533Z" fill="#2A222E"/>
<path d="M203.38 137.878C203.458 137.89 203.53 137.908 203.608 137.926C204.595 138.189 205.51 139.075 206.288 139.721C206.779 140.134 207.12 140.81 206.923 141.456C206.659 142.324 205.75 142.527 204.948 142.348C204.415 142.228 203.937 141.965 203.458 141.702C202.913 141.402 202.357 141.091 201.944 140.618C200.837 139.35 201.8 137.632 203.38 137.878Z" fill="#2A222E"/>
<path d="M217.832 139.685C217.149 140.654 216.024 141.109 214.852 141.091C213.475 141.067 212.243 140.361 211.165 139.565C208.431 137.543 205.81 135.358 203.135 133.258C201.567 132.025 200.005 130.793 198.437 129.56C198.018 129.231 198.611 128.65 199.024 128.974C202.183 131.457 205.337 133.946 208.497 136.43C209.927 137.555 211.333 138.883 212.955 139.727C214.235 140.391 216.162 140.612 217.113 139.266C217.425 138.835 218.137 139.248 217.832 139.685Z" fill="#2A222E"/>
<path d="M221.368 137.405C222.338 135.227 221.721 132.528 219.974 130.93C219.579 130.571 220.165 129.991 220.56 130.344C222.607 132.205 223.205 135.311 222.08 137.818C221.865 138.309 221.153 137.884 221.368 137.405Z" fill="#2A222E"/>
<path d="M216.85 136.31C221.003 136.31 224.552 134.7 226.197 131.636C228.998 126.418 225.234 118.92 217.802 114.929C214.223 113.008 210.334 112.164 206.851 112.565C203.314 112.972 200.61 114.6 199.233 117.155C196.433 122.373 200.197 129.871 207.629 133.862C210.705 135.508 213.93 136.31 216.85 136.31ZM208.58 113.295C211.453 113.295 214.534 114.109 217.407 115.659C224.438 119.435 228.052 126.43 225.467 131.247C222.882 136.065 215.055 136.914 208.024 133.132C200.992 129.356 197.378 122.361 199.963 117.544C201.202 115.234 203.679 113.762 206.947 113.385C207.479 113.325 208.03 113.295 208.58 113.295Z" fill="#2A222E"/>
<path d="M202.195 156.033C202.614 156.033 203.027 156.015 203.44 155.979C206.989 155.686 209.741 154.136 211.195 151.629C212.643 149.116 212.608 145.962 211.088 142.737C209.592 139.565 206.833 136.699 203.314 134.67C199.796 132.642 195.942 131.684 192.441 131.971C188.893 132.265 186.14 133.815 184.686 136.322C183.238 138.835 183.274 141.989 184.794 145.214C186.29 148.386 189.048 151.252 192.567 153.281C195.673 155.076 199.048 156.033 202.195 156.033ZM193.692 132.749C196.696 132.749 199.927 133.665 202.901 135.388C206.276 137.333 208.915 140.074 210.34 143.09C211.74 146.058 211.788 148.942 210.477 151.216C209.167 153.484 206.641 154.884 203.374 155.16C200.041 155.435 196.355 154.519 192.986 152.568C189.611 150.624 186.972 147.883 185.548 144.867C184.147 141.899 184.1 139.015 185.41 136.741C186.721 134.473 189.246 133.073 192.513 132.797C192.902 132.767 193.291 132.749 193.692 132.749Z" fill="#2A222E"/>
<path d="M204.003 131.092C203.021 131.918 202.267 132.995 201.854 134.216C201.782 134.425 201.567 134.569 201.346 134.503C201.142 134.449 200.987 134.21 201.058 133.994C201.519 132.642 202.327 131.427 203.422 130.505C203.596 130.362 203.841 130.338 204.009 130.505C204.146 130.655 204.17 130.948 204.003 131.092Z" fill="#2A222E"/>
<path d="M179.947 99.1912C183.561 94.5596 189.3 91.4658 195.05 90.4905C202.147 89.2877 209.759 91.2385 215.246 95.924C215.653 96.271 216.066 96.654 216.258 97.1567C217.102 99.3468 212.673 103.984 211.309 105.397C208.921 107.874 206.037 109.885 202.854 111.207C197.342 113.487 191.053 113.792 185.356 111.991C182.687 111.147 179.612 109.783 178.379 107.072C177.146 104.361 178.211 101.417 179.947 99.1912Z" fill="#632727"/>
<path d="M180.647 95.7384C181.054 94.8588 183.322 96.271 184.375 97.5217C188.121 101.998 186.409 105.935 186.14 111.016C186.032 113.128 186.499 115.192 187.301 117.137C188.294 119.549 189.766 121.715 191.418 123.72C192.998 125.641 195.774 126.999 194.224 129.548C189.784 136.831 185.464 144.197 181.054 151.498C180.539 152.353 180.006 153.227 179.228 153.855C177.014 155.65 174.663 153.849 172.951 152.305C171.898 151.354 170.905 150.343 169.977 149.277C166.225 144.969 163.461 139.697 162.862 133.958C161.552 121.308 171.192 113.93 176.805 103.811C177.834 101.944 179.252 98.7723 180.647 95.7384Z" fill="#632727"/>
<path d="M265.117 130.224C265.189 128.076 265.458 125.94 265.895 123.834C265.985 123.409 266.476 123.026 266.918 123.056C276.194 123.69 285.337 125.766 293.96 129.255C294.056 129.291 294.14 129.345 294.223 129.399C299.262 129.273 304.313 129.5 309.315 130.075C318.668 131.146 328.745 133.426 336.961 138.165C345.59 143.15 349.211 150.295 351.137 159.714C352.388 165.823 352.693 172.071 352.274 178.282C351.532 189.281 348.834 200.285 348.834 211.32C348.558 217.86 349.312 224.174 350.354 230.618C351.269 236.273 352.209 242.042 351.64 247.781C350.647 257.888 345.483 266.69 335.435 269.915C328.368 272.183 320.146 271.944 313.181 269.377C306.568 266.941 299.872 265.81 294.977 260.263C278.509 241.605 271.532 216.406 270.012 192.009C269.551 184.631 269.3 177.199 269.773 169.815C269.988 166.41 270.485 163.065 270.892 159.684C271.245 156.728 271.275 153.7 270.371 150.839C269.533 148.194 267.954 145.849 267.062 143.222C265.638 139.063 264.974 134.617 265.117 130.224Z" fill="#308565"/>
<path d="M292.153 131.517C285.822 139.099 281.106 148.009 278.36 157.499C277.588 160.162 276.977 162.867 276.523 165.602C276.433 166.128 275.637 165.901 275.727 165.38C277.372 155.531 281.088 146.046 286.558 137.692C288.096 135.347 289.771 133.091 291.572 130.936C291.908 130.524 292.488 131.11 292.153 131.517Z" fill="#2A222E"/>
<path d="M112.351 275.834H210.997C214.671 275.834 218.304 276.558 221.697 277.97L255.171 291.913C256.542 292.481 256.135 294.522 254.651 294.522H156.004C152.33 294.522 148.698 293.798 145.305 292.385L111.83 278.443C110.46 277.874 110.867 275.834 112.351 275.834Z" fill="white"/>
<path d="M156.854 292.23C155.777 291.769 154.693 291.314 153.616 290.854C151.007 289.746 148.404 288.633 145.795 287.526C142.654 286.192 139.512 284.858 136.376 283.517C133.66 282.362 130.943 281.207 128.226 280.052C127.323 279.669 126.425 279.286 125.521 278.903C125.102 278.724 124.63 278.58 124.235 278.359C124.217 278.347 124.199 278.341 124.181 278.335C123.69 278.125 124.115 277.413 124.6 277.623C125.677 278.084 126.76 278.538 127.837 278.999C130.446 280.106 133.049 281.219 135.658 282.326C138.8 283.661 141.942 284.995 145.077 286.336C147.794 287.49 150.511 288.645 153.227 289.8C154.131 290.183 155.029 290.566 155.932 290.949C156.351 291.129 156.824 291.272 157.219 291.494C157.237 291.506 157.255 291.512 157.273 291.518C157.757 291.727 157.338 292.439 156.854 292.23Z" fill="#493E4F"/>
<path d="M170.204 291.655C166.578 290.111 162.945 288.568 159.319 287.024C153.58 284.582 147.836 282.141 142.097 279.699C140.781 279.137 139.464 278.58 138.148 278.018C137.657 277.808 138.082 277.096 138.567 277.306C142.193 278.85 145.825 280.393 149.451 281.937C155.19 284.379 160.935 286.82 166.673 289.262C167.99 289.824 169.306 290.381 170.623 290.943C171.114 291.147 170.689 291.859 170.204 291.655Z" fill="#493E4F"/>
<path d="M186.977 291.901C183.482 290.417 179.982 288.927 176.487 287.443C170.922 285.073 165.357 282.709 159.792 280.34C158.523 279.801 157.261 279.262 155.992 278.724C155.501 278.514 155.926 277.802 156.411 278.012C159.905 279.502 163.406 280.986 166.901 282.47C172.466 284.84 178.031 287.203 183.596 289.573C184.865 290.111 186.127 290.65 187.396 291.189C187.881 291.398 187.456 292.11 186.977 291.901Z" fill="#493E4F"/>
<path d="M202.225 290.848C198.784 289.387 195.349 287.921 191.908 286.461C186.451 284.139 180.987 281.818 175.53 279.496C174.279 278.963 173.028 278.431 171.778 277.898C171.287 277.689 171.712 276.977 172.197 277.186C175.637 278.646 179.072 280.112 182.513 281.572C187.971 283.894 193.434 286.216 198.891 288.538C200.142 289.07 201.393 289.603 202.643 290.135C203.128 290.339 202.703 291.051 202.225 290.848Z" fill="#493E4F"/>
<path d="M83.3281 264.123H128.759C130.5 264.123 132.229 264.476 133.833 265.17L153.682 273.715C154.669 274.14 154.364 278.778 153.293 278.778H107.863C106.121 278.778 104.392 278.425 102.788 277.73L82.9391 269.185C81.9457 268.76 82.2509 264.123 83.3281 264.123Z" fill="#493E4F"/>
<path d="M152.617 274.613C150.48 274.613 148.35 274.613 146.214 274.613C141.558 274.613 136.909 274.613 132.253 274.613C127.28 274.613 122.314 274.613 117.341 274.613C114.307 274.613 111.279 274.613 108.245 274.613C107.378 274.613 106.504 274.619 105.642 274.517C103.979 274.326 102.471 273.62 100.957 272.943C98.3895 271.788 95.8583 270.556 93.327 269.323C93.1355 269.227 92.9441 269.137 92.7526 269.042C92.2739 268.808 92.6927 268.096 93.1714 268.33C95.2479 269.347 97.3364 270.352 99.4308 271.334C100.891 272.022 102.363 272.752 103.889 273.278C105.199 273.727 106.528 273.787 107.904 273.787C110.609 273.787 113.308 273.787 116.012 273.787C120.854 273.787 125.689 273.787 130.53 273.787C135.311 273.787 140.092 273.787 144.873 273.787C147.399 273.787 149.93 273.727 152.455 273.787C152.503 273.787 152.557 273.787 152.605 273.787C153.143 273.781 153.149 274.613 152.617 274.613Z" fill="#2A222E"/>
<path d="M92.4893 265.134H126.455C127.837 265.134 129.207 265.415 130.482 265.966L142.695 271.226C143.497 271.573 143.252 272.764 142.384 272.77L112.213 272.919C109.286 272.931 106.39 272.351 103.703 271.19C99.9933 269.586 94.9846 267.276 92.2978 266.026C91.843 265.804 91.9927 265.134 92.4893 265.134Z" fill="white"/>
<path d="M299.95 163.741C301.745 147.752 313.516 136.268 327.692 135.077C329.541 134.916 331.432 134.934 333.347 135.149C337.105 135.556 340.959 136.687 344.771 138.644C358.001 145.43 365.87 159.229 370.43 172.837C375.648 188.401 381.028 203.912 386.94 219.237C392.858 234.586 399.812 250.802 401.409 267.318C402.445 278.018 400.595 289.393 394.127 297.98C377.054 320.636 343.699 311.696 333.174 287.903C332.414 286.204 331.725 284.451 331.085 282.691C326.238 269.401 323.809 255.237 320.051 241.605C315.7 225.831 310.44 210.404 305.438 194.84C302.236 184.936 298.765 174.279 299.95 163.741Z" fill="#FFE9D4"/>
<path d="M196.091 244.687C199.329 241.677 203.912 243.197 207.437 244.711C211.59 246.494 215.934 247.81 220.416 248.445C222.69 248.762 224.97 248.9 227.262 248.941C229.602 248.983 231.947 248.971 234.275 249.265C239.475 249.929 245.477 252.46 245.884 258.36C246.028 260.419 245.854 262.597 244.735 264.332C241.289 269.682 233.647 268.054 228.728 266.439C226.442 265.685 224.156 264.925 221.87 264.171C217.281 262.651 212.691 261.137 208.095 259.617C204.241 258.342 199.706 257.367 196.732 254.405C194.23 251.91 193.255 247.326 196.091 244.687Z" fill="#FF9B87"/>
<path d="M178.756 251.61C179.845 249.653 181.736 248.217 183.764 247.338C185.895 246.41 188.186 246.003 190.502 245.908C192.86 245.812 195.403 245.908 197.665 246.62C200.035 247.374 202.369 249.169 202.817 251.754C203.5 255.649 199.574 258.121 196.492 259.318C192.656 260.808 188.42 261.286 184.351 260.658C182.22 260.329 179.875 259.641 178.624 257.756C177.379 255.871 177.708 253.495 178.756 251.61Z" fill="#FF9B87"/>
<path d="M205.055 216.897C201.357 231.863 197.659 246.829 193.967 261.795C193.692 262.914 192.429 265.266 190.706 267.48C190.544 267.683 190.215 267.606 190.161 267.354C189.617 264.829 189.335 262.172 189.688 260.736C193.387 245.77 197.085 230.804 200.777 215.838C201.459 213.079 205.738 214.132 205.055 216.897Z" fill="#493E4F"/>
<path d="M176.721 276.743C176.793 276.061 176.667 275.397 176.296 274.344C175.991 273.482 175.782 272.584 175.698 271.675C175.542 269.903 175.89 268.12 176.739 266.552C177.056 265.972 177.188 265.062 177.308 264.422C177.517 263.327 177.29 263.142 177.05 261.909C176.458 258.857 176.296 252.957 179.695 251.413C181.886 250.419 184.477 250.958 186.774 251.12C189.695 251.323 192.609 251.533 195.529 251.736C208.03 252.017 220.632 253.525 233.103 254.423C235.077 254.566 237.058 254.704 239.033 254.848C240.529 254.961 242.097 255.129 243.437 255.865C245.274 254.596 248.488 262.513 249.014 263.848C250.588 267.875 251.384 272.189 251.42 276.51C251.498 285.085 248.147 293.271 242.928 299.985C240.918 302.576 238.566 304.479 235.287 305.155C232.091 305.814 228.806 305.419 225.575 305.353C221.56 305.275 217.544 305.191 213.529 305.113C209.514 305.036 205.498 304.952 201.483 304.874C197.528 304.796 193.548 304.76 189.665 303.935C183.268 302.564 176.332 300.907 176.973 292.738C177.104 291.069 177.176 289.896 176.584 288.328C175.967 286.689 175.393 284.971 175.363 283.2C175.339 281.752 175.62 280.286 176.099 278.921C176.446 277.976 176.661 277.348 176.721 276.743Z" fill="#FF9B87"/>
<path d="M217.413 253.741C212.967 253.495 208.551 252.981 204.122 252.526C200.125 252.119 196.104 251.76 192.083 251.874C189.862 251.939 187.648 252.155 185.464 252.592C184.944 252.693 184.722 251.897 185.243 251.796C193.333 250.18 201.639 251.473 209.741 252.292C212.291 252.55 214.846 252.777 217.407 252.915C217.939 252.945 217.945 253.77 217.413 253.741Z" fill="#2A222E"/>
<path d="M178.648 264.177C180.515 266.457 183.585 267.617 186.487 267.073C187.008 266.977 187.229 267.773 186.709 267.869C183.525 268.467 180.12 267.276 178.062 264.763C177.727 264.356 178.307 263.77 178.648 264.177Z" fill="#2A222E"/>
<path d="M177.9 276.893C179.492 279.215 182.478 280.465 185.249 279.963C185.769 279.867 185.991 280.663 185.47 280.758C182.311 281.327 179.007 279.957 177.188 277.312C176.883 276.869 177.601 276.456 177.9 276.893Z" fill="#2A222E"/>
<path d="M177.966 289.166C179.947 291.44 183.059 292.631 186.051 292.182C186.571 292.104 186.793 292.9 186.272 292.978C182.987 293.468 179.57 292.26 177.386 289.746C177.033 289.352 177.613 288.765 177.966 289.166Z" fill="#2A222E"/>
<path d="M245.531 278.466C245.555 277.796 245.591 277.114 245.633 276.444C245.974 269.927 246.686 263.369 248.069 257.002C249.295 251.377 251.378 245.59 255.614 241.503C260.312 236.973 266.841 235.824 273.13 235.537C297.377 234.412 322.031 233.712 346.296 234.436C360.993 234.873 378.52 236.028 390.518 245.536C403.228 255.608 407.944 278.293 400.141 292.69C396.807 298.836 391.733 305.407 385.043 308.022C377.078 311.133 368.282 311.391 359.85 311.678C331.33 312.659 302.727 314.766 274.261 312.282C266.828 311.66 256.728 312.366 250.905 306.885C248.703 304.832 247.363 302.038 246.609 299.153C245.831 296.161 245.633 293.044 245.513 289.962C245.412 287.233 245.382 284.504 245.442 281.776C245.454 280.675 245.49 279.568 245.531 278.466Z" fill="#FFE9D4"/>
<path d="M320.224 234.939C326.058 236.854 331.653 239.469 336.865 242.718C342.071 245.967 346.901 249.833 351.191 254.213C353.615 256.685 355.859 259.324 357.923 262.1C358.24 262.525 357.522 262.938 357.211 262.519C353.609 257.672 349.408 253.274 344.758 249.42C340.085 245.548 334.944 242.239 329.493 239.582C326.423 238.086 323.252 236.8 320.002 235.741C319.506 235.573 319.721 234.771 320.224 234.939Z" fill="#2A222E"/>
<path d="M240.026 262.465C240.373 256.726 241.462 250.347 245.16 250.006C247.841 249.761 253.927 248.582 255.118 252.053C255.381 252.819 255.339 253.657 255.297 254.464C254.483 269.371 253.675 284.45 255.71 299.291C256.057 301.84 256.159 304.826 253.245 305.664C250.707 306.388 247.62 305.335 245.244 304.467C242.234 303.366 240.409 301.08 240.14 297.855C239.398 288.849 239.284 279.795 239.799 270.777C239.876 269.263 239.81 265.984 240.026 262.465Z" fill="#308565"/>
<path d="M52.7505 270.669C53.8934 260.078 58.1121 249.941 64.7544 241.623C71.7677 232.826 82.1081 225.436 93.5076 224.138C104.309 222.905 115.385 228.721 120.424 238.385C123.452 244.196 124.242 251.652 120.448 257.325C118.97 259.533 116.785 261.31 114.242 262.076C109.892 263.381 105.553 262.555 101.496 265.056C98.5701 266.857 96.4458 269.64 95.1293 272.788C92.3766 279.37 92.7716 287.299 94.9917 293.977C96.3141 297.95 99.6053 304.317 94.6805 307.256C92.3527 308.644 89.277 308.261 87.0988 306.771C86.5004 306.364 85.9618 305.891 85.4592 305.377C83.8195 306.19 81.8747 306.346 80.0077 305.933C77.7756 305.43 75.9505 304.072 74.5562 302.331C72.9824 303.001 71.1454 303.031 69.4519 302.474C66.9147 301.643 65.1195 299.602 63.9047 297.304C61.8223 297.017 59.8655 296.018 58.2618 294.641C56.0237 292.72 54.6175 290.01 53.7917 287.215C52.9719 284.432 52.6488 281.488 52.5111 278.604C52.3855 275.959 52.4692 273.302 52.7505 270.669Z" fill="#FF9B87"/>
<path d="M84.9264 304.874C79.3014 295.311 76.7462 284.02 77.6079 272.961C77.8533 269.843 78.3619 266.756 79.1398 263.728C79.2714 263.213 80.0673 263.429 79.9356 263.949C77.2189 274.505 77.8652 285.827 81.6411 296.041C82.7183 298.962 84.0586 301.774 85.6384 304.455C85.9137 304.916 85.1956 305.335 84.9264 304.874Z" fill="#2A222E"/>
<path d="M73.9037 302.037C69.0387 292.086 66.9144 280.848 67.7761 269.802C68.0155 266.696 68.4942 263.602 69.2063 260.568C69.326 260.048 70.1218 260.269 70.0022 260.79C67.5367 271.381 67.9795 282.589 71.193 292.972C72.1145 295.94 73.2574 298.83 74.6218 301.625C74.8492 302.097 74.1371 302.516 73.9037 302.037Z" fill="#2A222E"/>
<path d="M63.2164 296.951C59.1294 287.353 57.9027 276.653 59.644 266.367C60.1407 263.441 60.8827 260.562 61.8581 257.756C62.0316 257.259 62.8334 257.469 62.6539 257.977C59.2789 267.671 58.7943 278.305 61.2058 288.28C61.888 291.099 62.7975 293.863 63.9345 296.532C64.132 297.023 63.4199 297.442 63.2164 296.951Z" fill="#2A222E"/>
<path d="M99.6531 272.345C100.676 268.234 101.592 264.099 102.394 259.946C102.807 257.828 103.19 255.697 103.549 253.567C103.866 251.676 104.081 249.731 104.722 247.906C105.877 244.621 108.653 241.802 112.387 242.413C119.789 243.621 121.71 252.909 121.692 259.06C121.668 267.671 117.952 279.005 109.724 283.176C106.81 284.654 103.339 284.696 100.712 282.589C99.4078 281.542 98.6538 280.022 98.5521 278.359C98.4205 276.336 99.1684 274.284 99.6531 272.345Z" fill="#FF9B87"/>
<path d="M101.55 264.47C102.208 262.292 102.388 259.988 102.041 257.738C101.963 257.217 102.759 256.996 102.836 257.516C103.207 259.916 103.046 262.363 102.346 264.685C102.19 265.2 101.394 264.984 101.55 264.47Z" fill="#2A222E"/>
</svg>
