<svg width="24" height="24" viewBox="0 0 24 24" fill="none" xmlns="http://www.w3.org/2000/svg">
<path d="M0.99999 4H2.84524C3.27748 3.99429 3.70087 4.12273 4.05708 4.36764C4.41329 4.61254 4.68481 4.96187 4.83424 5.3675L8.07199 14.6325C8.22153 15.0381 8.49311 15.3874 8.84935 15.6323C9.20559 15.8772 9.62898 16.0057 10.0612 16H18.6697C19.0802 16.0046 19.4831 15.8888 19.8284 15.6669C20.1738 15.445 20.4466 15.1268 20.613 14.7515L22.8442 9.5015C23.4032 8.1865 22.3887 6.75 20.9 6.75H9.74999" stroke="#404040" stroke-width="1.2" stroke-linecap="round" stroke-linejoin="round"/>
<path d="M17.875 20C17.2537 20 16.75 19.4963 16.75 18.875C16.75 18.2537 17.2537 17.75 17.875 17.75C18.4963 17.75 19 18.2537 19 18.875C19 19.4963 18.4963 20 17.875 20Z" stroke="#404040" stroke-width="1.2" stroke-linecap="round" stroke-linejoin="round"/>
<path d="M10.625 20C10.0037 20 9.5 19.4963 9.5 18.875C9.5 18.2537 10.0037 17.75 10.625 17.75C11.2463 17.75 11.75 18.2537 11.75 18.875C11.75 19.4963 11.2463 20 10.625 20Z" stroke="#404040" stroke-width="1.2" stroke-linecap="round" stroke-linejoin="round"/>
</svg>
