<svg width="1440" height="492" viewBox="0 0 1440 492" fill="none" xmlns="http://www.w3.org/2000/svg">
<g opacity="0.51">
<path d="M-242.598 2.48663C-166.224 -3.41102 -100.415 5.49815 -45.1704 21.8108C-15.2371 30.72 13.5957 41.5114 43.0889 53.1812C51.6727 56.5692 60.2565 60.0827 68.8403 63.3452C136.63 89.3199 201.779 120.941 263.627 155.574C285.197 167.62 306.986 180.545 329.656 192.842C359.149 208.653 390.183 223.585 424.959 234.377C525.103 265.371 606.539 256.587 695.239 241.905C749.163 232.996 803.747 219.57 864.054 210.41C904.992 204.261 942.189 203.884 976.964 207.523C1057.08 216.056 1127.07 246.925 1198.82 274.531C1271.01 302.513 1320.32 326.104 1410.78 327.358C1517.74 328.864 1600.28 331.625 1673.79 375.92" stroke="#1358EB" stroke-opacity="0.3" stroke-miterlimit="10" stroke-linecap="round" stroke-linejoin="round"/>
<path d="M-240.397 13.9052C-165.344 9.13693 -98.8741 17.2933 -43.8496 32.602C-13.9163 40.8838 14.9165 50.9223 44.4096 61.8392C52.9935 64.9762 61.5773 68.2388 70.1611 71.3758C138.612 95.7192 203.54 126.713 265.388 161.346C286.958 173.392 308.527 186.317 331.197 198.489C360.47 214.299 391.064 229.232 425.619 240.149C524.003 271.393 604.779 264.115 693.258 250.689C747.182 242.533 801.546 229.232 861.413 219.82C901.911 213.421 938.667 212.668 973.003 215.679C1052.24 222.832 1122.45 251.567 1194.42 278.546C1266.61 305.901 1315.47 330.37 1405.05 332.126C1510.48 334.26 1594.34 336.142 1667.41 379.935" stroke="#1358EB" stroke-opacity="0.3" stroke-miterlimit="10" stroke-linecap="round" stroke-linejoin="round"/>
<path d="M-238.196 25.1987C-164.464 21.4342 -97.3337 29.0886 -42.5293 43.268C-12.596 50.9224 16.2368 60.3335 45.5099 70.4975C54.0937 73.5091 62.6775 76.5206 71.2614 79.4067C140.372 102.119 205.301 132.611 266.928 167.118C288.278 179.039 309.847 191.964 332.297 204.135C361.35 219.821 391.724 234.878 425.839 245.921C522.682 277.417 602.578 271.645 690.837 259.347C744.761 251.818 799.125 238.894 858.331 229.232C898.389 222.707 934.926 221.452 968.821 223.836C1047.18 229.357 1117.61 256.336 1189.8 282.561C1262.21 309.163 1310.41 334.511 1399.33 336.895C1503.44 339.655 1588.4 340.785 1661.03 383.95" stroke="#1358EB" stroke-opacity="0.3" stroke-miterlimit="10" stroke-linecap="round" stroke-linejoin="round"/>
<path d="M-235.995 36.6175C-163.583 33.9823 -95.5727 40.8838 -41.2085 53.9339C-11.2752 61.0863 17.5576 69.6191 46.8306 79.0302C55.4145 81.7908 63.9983 84.6769 72.8022 87.312C142.573 108.393 207.502 138.383 268.689 172.639C290.039 184.56 311.388 197.359 333.838 209.531C362.671 225.216 392.825 240.274 426.499 251.442C521.802 283.063 600.817 278.797 688.636 267.88C742.56 261.104 796.704 248.43 855.47 238.392C895.088 231.741 931.184 229.984 964.639 231.741C1042.11 235.882 1112.76 260.602 1185.18 286.326C1257.81 312.175 1305.35 338.526 1393.39 341.412C1496.18 344.8 1582.45 345.051 1654.21 387.715" stroke="#1358EB" stroke-opacity="0.3" stroke-miterlimit="10" stroke-linecap="round" stroke-linejoin="round"/>
<path d="M-233.794 48.0361C-162.703 46.4048 -94.0323 52.8043 -39.6682 64.7251C-9.95494 71.2501 18.8779 79.03 48.371 87.6882C56.9548 90.1979 65.5386 92.833 74.3425 95.3426C144.774 114.792 209.703 144.28 270.67 178.411C291.799 190.332 313.149 203.006 335.379 215.178C363.991 230.737 393.925 245.921 427.159 257.214C520.701 289.086 599.056 286.326 686.655 276.663C740.799 270.64 794.503 258.092 852.829 247.928C892.006 241.027 927.662 238.768 960.897 240.023C1037.49 242.658 1108.14 265.37 1180.99 290.466C1253.85 315.563 1300.73 342.918 1387.89 346.306C1489.35 350.321 1576.73 349.819 1648.04 391.855" stroke="#1358EB" stroke-opacity="0.3" stroke-miterlimit="10" stroke-linecap="round" stroke-linejoin="round"/>
<path d="M-231.593 59.3295C-161.822 58.8276 -92.4914 64.4743 -38.3474 75.3911C-8.63415 81.2888 20.1987 88.4412 49.6918 96.3466C58.2756 98.7307 66.8594 101.115 75.6633 103.374C146.755 121.192 211.464 150.178 272.431 184.184C293.56 195.979 314.69 208.778 336.699 220.824C365.092 236.259 394.585 251.442 427.38 262.861C519.381 294.984 597.075 293.729 684.234 285.196C738.378 279.926 792.082 267.629 849.747 257.088C888.485 250.061 923.7 247.301 956.495 247.928C1032.21 249.183 1103.08 269.887 1176.15 294.231C1249.23 318.7 1295.45 346.808 1381.72 350.823C1481.87 355.466 1570.35 354.086 1641.22 395.62" stroke="#1358EB" stroke-opacity="0.3" stroke-miterlimit="10" stroke-linecap="round" stroke-linejoin="round"/>
<path d="M-229.392 70.7485C-160.942 71.2504 -90.7304 76.3951 -37.0266 86.0572C-7.31335 91.4529 21.5195 97.727 51.0126 104.879C59.5964 107.013 68.1802 109.271 76.9841 111.279C148.956 127.466 213.445 155.95 273.972 189.83C295.101 201.626 316.01 214.299 338.02 226.346C366.193 241.78 395.466 256.963 427.82 268.633C518.28 301.007 595.095 301.133 682.033 293.98C736.177 289.463 789.661 277.291 846.887 266.625C884.963 259.473 919.959 256.21 952.533 256.085C1027.37 255.834 1098.46 274.53 1171.75 298.246C1245.04 321.962 1290.6 351.074 1376 355.591C1474.61 360.862 1564.41 358.728 1634.84 399.636" stroke="#1358EB" stroke-opacity="0.3" stroke-miterlimit="10" stroke-linecap="round" stroke-linejoin="round"/>
<path d="M-227.191 82.0418C-160.062 83.673 -89.19 88.0649 -35.7063 96.7231C-5.99304 101.491 22.8398 107.013 52.3329 113.412C60.9167 115.294 69.5006 117.302 78.3045 119.059C150.717 133.74 215.205 161.723 275.512 195.477C296.421 207.147 317.331 219.821 339.12 231.867C367.293 247.301 396.126 262.484 428.26 274.28C516.96 306.905 593.113 308.536 679.832 302.638C733.976 298.874 787.46 286.953 843.805 275.911C881.442 268.507 915.997 264.868 948.131 264.115C1022.3 262.484 1093.4 279.048 1166.91 302.136C1240.42 325.099 1285.32 355.09 1370.06 360.234C1467.34 366.132 1558.24 363.12 1628.01 403.525" stroke="#1358EB" stroke-opacity="0.3" stroke-miterlimit="10" stroke-linecap="round" stroke-linejoin="round"/>
<path d="M-224.99 93.4604C-159.401 96.0955 -87.6492 99.9854 -34.3855 107.389C-4.67227 111.53 24.1605 116.298 53.4336 122.07C62.0174 123.701 70.6012 125.584 79.4051 127.089C152.918 140.014 217.186 167.494 277.273 201.124C298.182 212.793 318.872 225.341 340.661 237.388C368.614 252.822 397.226 268.005 428.921 279.926C516.079 312.802 591.573 315.939 677.851 311.171C732.215 308.159 785.259 296.489 841.164 285.196C878.36 277.667 912.476 273.526 944.39 272.146C1017.68 269.009 1088.77 283.565 1162.73 306.026C1236.46 328.362 1280.7 359.23 1364.56 364.877C1460.52 371.402 1552.74 367.637 1621.85 407.415" stroke="#1358EB" stroke-opacity="0.3" stroke-miterlimit="10" stroke-linecap="round" stroke-linejoin="round"/>
<path d="M-222.789 104.754C-158.52 108.518 -85.8882 111.655 -33.0647 118.055C-3.57158 121.694 25.4813 125.709 54.7544 130.603C63.3382 132.109 72.1421 133.74 80.946 134.995C155.119 146.163 219.168 173.267 279.034 206.77C299.723 218.44 320.413 230.988 341.982 242.909C369.714 258.343 397.887 273.526 429.361 285.573C514.979 318.574 589.592 323.343 675.43 319.829C729.795 317.57 782.618 306.026 838.083 294.482C874.839 286.827 908.514 282.185 939.988 280.177C1012.4 275.534 1083.71 288.208 1157.89 309.916C1231.62 331.499 1275.42 363.246 1358.39 369.52C1453.04 376.672 1546.36 372.029 1615.03 411.431" stroke="#1358EB" stroke-opacity="0.3" stroke-miterlimit="10" stroke-linecap="round" stroke-linejoin="round"/>
<path d="M-220.588 116.173C-157.64 121.066 -84.3478 123.45 -31.7444 128.846C-2.2513 131.858 26.8016 135.12 56.0746 139.387C64.6585 140.641 73.4624 142.022 82.2663 143.151C157.32 152.688 221.148 179.29 280.795 212.668C301.484 224.212 322.173 236.76 343.522 248.681C371.035 263.99 398.987 279.299 430.021 291.596C513.658 324.723 587.611 330.997 673.229 328.738C727.593 327.358 780.417 315.939 835.221 304.144C871.537 296.364 904.772 291.219 936.026 288.584C1007.56 282.561 1079.09 293.101 1153.48 314.182C1227.44 335.138 1270.57 367.763 1352.67 374.539C1445.77 382.319 1540.41 376.923 1608.42 415.697" stroke="#1358EB" stroke-opacity="0.3" stroke-miterlimit="10" stroke-linecap="round" stroke-linejoin="round"/>
<path d="M-218.387 127.466C-156.76 133.364 -82.5868 135.246 -30.4236 139.387C-0.930521 141.771 28.1224 144.281 57.3954 147.794C66.1993 148.798 74.7831 150.053 83.5871 150.931C159.521 158.711 223.129 184.937 282.556 218.189C303.245 229.734 323.714 242.156 344.843 254.077C372.135 269.386 399.868 284.695 430.461 297.117C512.778 330.621 586.07 338.401 671.248 337.397C725.613 336.769 778.216 325.602 832.58 313.43C868.456 305.399 901.471 299.878 932.064 296.615C1002.72 289.086 1074.25 297.619 1149.08 318.073C1223.25 338.275 1265.73 371.779 1347.17 379.182C1438.95 387.464 1534.69 381.315 1602.26 419.587" stroke="#1358EB" stroke-opacity="0.3" stroke-miterlimit="10" stroke-linecap="round" stroke-linejoin="round"/>
<path d="M-216.187 138.885C-155.88 145.912 -81.0464 147.041 -29.1033 150.179C0.389768 151.935 29.4427 153.817 58.7157 156.453C67.5196 157.205 76.1034 158.209 84.9074 158.962C161.722 164.985 224.89 190.834 284.316 223.962C304.785 235.38 325.254 247.929 346.384 259.724C373.456 274.907 400.968 290.216 431.121 302.89C511.897 336.519 584.309 345.93 669.267 346.055C723.851 346.181 776.015 335.138 829.939 322.841C865.374 314.685 897.949 308.662 928.322 304.772C998.093 295.862 1069.85 302.388 1144.9 322.088C1219.29 341.538 1261.11 376.045 1341.67 383.951C1432.13 392.86 1528.97 385.958 1596.1 423.603" stroke="#1358EB" stroke-opacity="0.3" stroke-miterlimit="10" stroke-linecap="round" stroke-linejoin="round"/>
<path d="M-214.206 150.178C-155.219 158.209 -79.5057 158.711 -28.0028 160.844C1.49033 162.099 30.3232 163.103 59.5962 165.11C68.4001 165.738 76.9839 166.491 85.7878 166.993C163.482 171.259 226.43 196.732 285.417 229.733C305.886 241.152 326.135 253.575 347.044 265.37C373.896 280.554 401.188 295.862 430.901 308.661C510.137 342.541 581.668 353.458 666.406 354.839C720.99 355.717 773.153 344.926 826.417 332.252C861.413 323.97 893.547 317.445 923.48 312.928C992.371 302.513 1064.34 307.03 1139.62 325.978C1214.23 344.8 1255.39 380.06 1335.06 388.593C1424.2 398.13 1522.37 390.35 1588.84 427.492" stroke="#1358EB" stroke-opacity="0.3" stroke-miterlimit="10" stroke-linecap="round" stroke-linejoin="round"/>
<path d="M-212.004 161.597C-154.339 170.757 -77.9648 170.506 -26.682 171.51C2.81111 172.138 31.6439 172.388 60.917 173.643C69.7209 174.02 78.3047 174.522 87.1086 174.898C165.684 177.408 228.411 202.504 287.178 235.38C307.647 246.799 327.676 259.096 348.585 270.892C375.217 286.075 402.069 301.384 431.562 314.308C509.256 348.314 580.128 360.862 664.205 363.497C718.79 365.128 770.733 354.588 823.556 341.663C858.111 333.256 889.806 326.103 919.519 320.959C987.529 309.163 1059.5 311.547 1135.21 329.868C1209.83 347.937 1250.33 384.076 1329.34 393.236C1416.94 403.4 1516.42 394.867 1582.23 431.382" stroke="#1358EB" stroke-opacity="0.3" stroke-miterlimit="10" stroke-linecap="round" stroke-linejoin="round"/>
<path d="M-209.803 172.89C-153.458 183.054 -76.2038 182.176 -25.3612 182.176C4.1319 182.176 32.9647 181.674 62.2377 182.176C71.0416 182.302 79.8456 182.678 88.4294 182.803C167.665 183.556 230.393 208.276 288.939 241.027C309.188 252.32 329.216 264.617 349.906 276.413C376.317 291.471 402.949 306.905 432.002 319.955C507.936 354.211 578.147 368.265 662.004 372.03C716.809 374.539 768.532 363.999 820.695 350.823C854.59 342.291 886.064 334.636 915.337 328.864C982.467 315.688 1054.66 315.939 1130.59 333.632C1205.43 351.074 1245.26 388.091 1323.4 397.753C1409.68 408.419 1510.26 399.134 1575.63 435.147" stroke="#1358EB" stroke-opacity="0.3" stroke-miterlimit="10" stroke-linecap="round" stroke-linejoin="round"/>
<path d="M-207.603 184.31C-152.578 195.603 -74.6634 193.972 -24.0409 192.968C5.45221 192.34 34.285 191.085 63.5581 190.96C72.362 190.835 81.1659 190.96 89.9698 190.835C170.085 189.705 232.373 214.174 290.699 246.799C310.948 258.093 330.757 270.39 351.226 282.06C377.638 297.117 403.829 312.552 432.442 325.727C506.835 360.109 576.166 375.92 659.803 380.814C714.608 384.076 766.111 373.787 817.834 360.36C851.288 351.576 882.322 343.546 911.375 337.146C977.625 322.465 1050.04 320.833 1126.19 337.773C1201.24 354.462 1240.42 392.358 1317.9 402.647C1402.85 413.941 1504.54 403.902 1569.47 439.288" stroke="#1358EB" stroke-opacity="0.3" stroke-miterlimit="10" stroke-linecap="round" stroke-linejoin="round"/>
<path d="M-205.402 195.728C-151.698 208.026 -73.123 205.767 -22.7206 203.634C6.77248 202.379 35.6053 200.497 64.8783 199.493C73.6822 199.242 82.4862 199.116 91.2901 198.74C172.286 195.728 234.354 219.946 292.46 252.321C312.488 263.488 332.297 275.786 352.766 287.455C378.958 302.388 404.93 317.822 433.102 331.248C505.954 365.881 574.625 383.198 657.822 389.346C712.626 393.362 763.909 383.323 814.972 369.52C847.987 360.611 878.58 352.078 907.193 345.051C972.562 328.99 1044.97 325.225 1121.57 341.538C1196.84 357.599 1235.36 396.248 1311.95 407.165C1395.59 419.085 1498.38 408.168 1562.86 443.052" stroke="#1358EB" stroke-opacity="0.3" stroke-miterlimit="10" stroke-linecap="round" stroke-linejoin="round"/>
<path d="M-203.201 207.021C-150.817 220.448 -71.3621 217.436 -21.3998 214.299C7.87318 212.417 36.9261 209.782 66.1991 208.025C75.003 207.523 83.8069 207.147 92.6109 206.645C174.487 201.751 236.335 225.718 294.221 257.967C314.249 269.135 333.838 281.306 354.087 292.976C380.059 307.909 405.81 323.343 433.543 336.895C504.854 371.653 572.644 390.601 655.621 397.879C710.426 402.773 761.708 392.86 812.111 378.806C844.685 369.771 874.839 360.736 903.231 353.082C967.72 335.514 1040.35 329.742 1117.39 345.427C1192.66 360.736 1230.74 400.263 1306.45 411.807C1388.77 424.23 1492.65 412.685 1556.48 446.942" stroke="#1358EB" stroke-opacity="0.3" stroke-miterlimit="10" stroke-linecap="round" stroke-linejoin="round"/>
<path d="M-201 218.44C-150.157 232.996 -69.8212 229.232 -20.0791 225.091C9.19394 222.581 38.2469 219.193 67.2998 216.809C76.1037 216.056 84.9076 215.554 93.7115 214.801C176.468 208.025 238.096 231.616 295.981 263.739C316.01 274.907 335.599 286.953 355.628 298.623C381.159 313.555 406.691 328.99 433.983 342.793C503.754 377.802 570.664 398.381 653.2 406.788C708.225 412.435 759.067 402.647 809.03 388.342C841.164 379.182 870.877 369.646 898.83 361.364C962.438 342.416 1035.29 334.636 1112.54 349.568C1188.04 364.25 1225.45 404.655 1300.29 416.701C1381.28 429.751 1486.49 417.328 1549.66 451.083" stroke="#1358EB" stroke-opacity="0.3" stroke-miterlimit="10" stroke-linecap="round" stroke-linejoin="round"/>
<path d="M-198.799 229.734C-149.277 245.293 -68.0607 240.901 -18.7588 235.631C10.5143 232.494 39.5672 228.353 68.6201 225.216C77.424 224.212 86.2279 223.459 95.0319 222.581C178.669 214.048 240.076 237.388 297.522 269.511C317.331 280.553 336.919 292.725 356.728 304.269C382.26 319.076 407.351 334.511 434.423 348.439C502.653 383.574 568.903 405.784 650.999 415.446C706.024 421.846 756.866 412.309 806.168 397.753C837.862 388.468 867.355 378.429 894.868 369.52C957.816 349.066 1030.67 339.279 1108.36 353.584C1184.08 367.512 1220.83 408.796 1294.79 421.469C1374.24 435.147 1480.77 421.971 1543.5 455.098" stroke="#1358EB" stroke-opacity="0.3" stroke-miterlimit="10" stroke-linecap="round" stroke-linejoin="round"/>
<path d="M-196.598 241.152C-148.396 257.716 -66.5198 252.697 -17.2179 246.423C12.0551 242.658 41.108 237.764 70.1609 234C78.9649 232.871 87.9889 231.867 96.5727 230.737C180.65 220.197 242.057 243.411 299.283 275.283C319.092 286.326 338.46 298.372 358.269 309.916C383.58 324.723 408.451 340.157 435.083 354.211C501.773 389.472 567.142 413.439 649.018 424.23C704.043 431.508 754.665 422.097 803.527 407.164C834.781 397.628 863.834 387.213 890.906 377.551C952.753 355.717 1025.83 343.922 1103.74 357.474C1179.67 370.775 1215.77 412.811 1289.06 426.112C1367.2 440.291 1474.83 426.363 1536.89 458.988" stroke="#1358EB" stroke-opacity="0.3" stroke-miterlimit="10" stroke-linecap="round" stroke-linejoin="round"/>
<path d="M-194.396 252.446C-147.516 270.139 -64.9789 264.367 -16.1172 257.089C13.1558 252.697 42.2087 247.05 71.2616 242.533C80.0655 241.152 89.0896 239.898 97.8935 238.643C182.631 226.22 244.038 249.183 301.044 280.93C320.633 291.847 340.001 303.893 359.59 315.437C384.681 330.244 409.332 345.679 435.524 359.858C500.673 395.369 565.161 420.842 646.818 432.763C701.842 440.794 752.465 431.633 800.666 416.45C831.48 406.788 860.092 395.871 886.944 385.582C947.911 362.368 1020.98 348.565 1099.12 361.489C1175.05 374.163 1210.71 416.952 1283.12 430.88C1359.93 445.687 1468.66 431.006 1530.29 463.004" stroke="#1358EB" stroke-opacity="0.3" stroke-miterlimit="10" stroke-linecap="round" stroke-linejoin="round"/>
<path d="M-192.196 263.865C-146.636 282.687 -63.2184 276.162 -14.7969 267.755C14.4761 262.735 43.3089 256.336 72.582 251.066C81.3859 249.434 90.4099 247.929 99.2138 246.548C184.612 232.118 245.799 254.955 302.584 286.577C322.173 297.494 341.322 309.54 360.91 320.959C385.781 335.64 410.212 351.2 435.964 365.505C499.572 401.142 563.18 428.371 644.616 441.421C699.861 450.33 750.043 441.17 797.805 425.736C828.178 415.948 856.351 404.529 882.762 393.613C943.069 369.018 1016.14 353.082 1094.72 365.254C1170.87 377.174 1205.87 420.842 1277.4 435.398C1352.89 450.707 1462.72 435.398 1523.91 466.768" stroke="#1358EB" stroke-opacity="0.3" stroke-miterlimit="10" stroke-linecap="round" stroke-linejoin="round"/>
<path d="M-189.995 275.158C-145.755 294.984 -61.6781 287.706 -13.4766 278.42C15.7964 272.774 44.8493 265.747 73.9023 259.723C82.7062 257.841 91.7302 256.21 100.534 254.453C186.812 238.141 247.78 260.727 304.345 292.223C323.933 303.14 342.862 315.061 362.23 326.48C386.881 341.161 411.092 356.595 436.404 371.277C498.471 407.039 561.199 435.9 642.415 450.205C697.66 459.867 747.622 450.957 794.943 435.272C824.876 425.359 852.609 413.438 878.8 401.894C938.227 375.794 1011.52 357.85 1090.31 369.394C1166.69 380.688 1201.24 425.108 1271.67 440.291C1345.85 456.102 1457 440.04 1517.52 470.909" stroke="#1358EB" stroke-opacity="0.3" stroke-miterlimit="10" stroke-linecap="round" stroke-linejoin="round"/>
<path d="M-187.794 286.577C-144.875 307.532 -60.1372 299.501 -12.1558 289.212C17.1172 282.812 46.1701 275.032 75.223 268.256C84.0269 266.249 93.0509 264.241 101.855 262.359C188.573 244.038 249.761 266.374 306.106 297.87C325.474 308.661 344.403 320.582 363.771 332.001C388.422 346.557 412.193 362.116 437.064 376.923C497.811 412.937 559.438 443.429 640.214 458.737C695.459 469.278 745.421 460.494 792.082 444.432C821.575 434.394 848.867 421.971 874.619 409.799C933.165 382.319 1006.68 362.367 1085.69 373.159C1162.29 383.699 1196.18 428.998 1265.73 444.809C1338.58 461.247 1450.83 444.432 1510.7 474.673" stroke="#1358EB" stroke-opacity="0.3" stroke-miterlimit="10" stroke-linecap="round" stroke-linejoin="round"/>
<path d="M-185.593 297.87C-143.994 319.829 -58.5963 311.171 -10.615 299.752C18.438 292.851 47.4909 284.318 76.5438 276.789C85.3477 274.53 94.3717 272.397 103.176 270.264C190.555 250.061 251.522 272.146 307.647 303.517C327.015 314.308 345.724 326.103 364.872 337.522C389.303 352.078 412.853 367.512 437.284 382.57C496.491 418.709 557.238 450.832 637.793 467.396C693.038 478.689 742.78 470.156 789.001 453.844C818.054 443.68 844.906 430.755 870.437 417.956C928.103 388.97 1001.62 367.01 1081.07 377.049C1157.88 386.836 1191.12 433.014 1260.01 449.452C1331.54 466.392 1444.89 448.824 1504.32 478.563" stroke="#1358EB" stroke-opacity="0.3" stroke-miterlimit="10" stroke-linecap="round" stroke-linejoin="round"/>
<path d="M-183.392 309.289C-143.114 332.378 -56.8358 322.967 -9.29467 310.544C19.7583 303.015 48.8112 293.729 77.8641 285.573C86.668 283.063 95.692 280.679 104.496 278.421C192.535 256.21 253.502 278.17 309.407 309.414C328.776 320.206 347.264 332.001 366.192 343.42C390.403 357.976 413.734 373.41 437.724 388.593C495.39 424.858 555.256 458.738 635.592 476.43C690.837 488.602 740.579 480.195 785.919 463.506C814.532 453.091 841.164 439.79 866.035 426.363C922.82 395.997 996.553 371.904 1076.23 381.315C1153.04 390.475 1185.84 437.406 1253.85 454.471C1324.06 471.913 1438.51 453.718 1497.5 482.83" stroke="#1358EB" stroke-opacity="0.3" stroke-miterlimit="10" stroke-linecap="round" stroke-linejoin="round"/>
<path d="M-181.191 320.582C-142.234 344.675 -55.2954 334.511 -7.97439 321.084C29.6623 310.418 67.9594 296.615 105.816 286.2C224.889 253.7 294.22 304.395 367.733 348.69C448.729 397.628 520.04 457.984 633.611 484.712C723.411 505.793 798.024 470.658 862.293 434.017C918.197 402.145 992.15 376.045 1072.05 384.829C1149.08 393.236 1181.21 441.044 1248.34 458.612C1317.23 476.681 1432.79 457.608 1491.11 486.343" stroke="#1358EB" stroke-opacity="0.3" stroke-miterlimit="10" stroke-linecap="round" stroke-linejoin="round"/>
</g>
</svg>
