<svg width="38" height="35" viewBox="0 0 38 35" fill="none" xmlns="http://www.w3.org/2000/svg">
<path d="M14.2327 0L8.15273 26.004L7.04727 19.9598C9.25818 19.9598 11.0545 20.6627 12.4364 22.0683C13.8182 23.3802 14.5091 25.1606 14.5091 27.4096C14.5091 29.6586 13.8182 31.486 12.4364 32.8916C11.0545 34.2972 9.3503 35 7.32364 35C5.11273 35 3.31636 34.2972 1.93455 32.8916C0.644848 31.3922 0 29.5649 0 27.4096C0 26.5663 0.0460606 25.8166 0.138182 25.1606C0.230303 24.5047 0.414546 23.7082 0.690909 22.7711C0.967273 21.834 1.33576 20.7095 1.79636 19.3976L7.6 0H14.2327ZM37.7236 0L31.6436 26.004L30.5382 19.9598C32.7491 19.9598 34.5455 20.6627 35.9273 22.0683C37.3091 23.3802 38 25.1606 38 27.4096C38 29.6586 37.3091 31.486 35.9273 32.8916C34.5455 34.2972 32.8412 35 30.8145 35C28.6036 35 26.8073 34.2972 25.4255 32.8916C24.1358 31.3922 23.4909 29.5649 23.4909 27.4096C23.4909 26.5663 23.537 25.8166 23.6291 25.1606C23.7212 24.5047 23.9055 23.7082 24.1818 22.7711C24.4582 21.834 24.8267 20.7095 25.2873 19.3976L31.0909 0H37.7236Z" fill="black"/>
</svg>
