<svg xmlns="http://www.w3.org/2000/svg" xmlns:xlink="http://www.w3.org/1999/xlink" width="16" height="16" version="1.1" style=""><rect id="backgroundrect" width="100%" height="100%" x="0" y="0" fill="none" stroke="none"/>

<g class="currentLayer" style=""><title>Layer 1</title><g id="surface1" class="selected" fill-opacity="1" fill="#6782e1">
<path style="stroke: none; fill-rule: nonzero; fill-opacity: 1;" d="M 4.445312 0.570312 L 15.238281 0.570312 C 15.652344 0.570312 15.992188 1.066406 15.992188 1.671875 L 15.992188 13.378906 C 15.992188 13.597656 15.945312 13.816406 15.859375 13.996094 C 15.84375 14.054688 15.820312 14.109375 15.789062 14.152344 C 15.769531 14.183594 15.746094 14.207031 15.71875 14.226562 C 15.585938 14.390625 15.414062 14.480469 15.238281 14.484375 L 8.851562 14.484375 C 8.898438 14.207031 8.917969 13.921875 8.90625 13.636719 L 15.046875 13.636719 L 11.039062 7.46875 L 9.714844 9.121094 C 9.605469 9.25 9.453125 9.25 9.34375 9.121094 L 7.957031 7.46875 L 6.695312 9.316406 C 6.523438 9.144531 6.328125 9.023438 6.121094 8.960938 L 7.507812 6.933594 L 4.941406 3.867188 C 4.929688 3.648438 4.898438 3.429688 4.851562 3.21875 L 4.75 2.554688 L 9.523438 8.25 L 14.996094 1.421875 L 4.578125 1.421875 Z M 2.28125 5.902344 C 2.402344 6.882812 2.609375 7.835938 2.898438 8.742188 C 3.234375 9.773438 3.695312 10.710938 4.25 11.515625 C 4.289062 11.574219 4.347656 11.605469 4.402344 11.601562 C 4.496094 11.582031 4.582031 11.539062 4.664062 11.472656 C 4.757812 11.394531 4.851562 11.308594 4.9375 11.214844 C 5.34375 10.796875 5.847656 10.28125 6.273438 10.863281 C 6.285156 10.875 6.289062 10.886719 6.300781 10.898438 L 7.660156 13.09375 C 7.667969 13.101562 7.671875 13.109375 7.675781 13.121094 C 7.835938 13.4375 7.871094 13.851562 7.777344 14.21875 C 7.671875 14.640625 7.496094 15.015625 7.265625 15.316406 C 6.980469 15.691406 6.617188 15.921875 6.234375 15.972656 C 5.875 16.023438 5.511719 15.996094 5.15625 15.898438 C 4.625 15.765625 4.121094 15.457031 3.6875 14.996094 C 3.207031 14.480469 2.777344 13.875 2.402344 13.203125 L 2.371094 13.144531 C 2.175781 12.804688 1.960938 12.4375 1.761719 12.027344 C 0.976562 10.375 0.425781 8.507812 0.140625 6.539062 C -0.0820312 4.871094 -0.0351562 3.207031 0.445312 1.832031 C 0.703125 1.070312 1.101562 0.460938 1.613281 0.175781 C 2.0625 -0.0742188 2.589844 -0.078125 3.191406 0.296875 C 3.257812 0.339844 3.308594 0.425781 3.320312 0.53125 L 3.808594 3.691406 C 3.898438 4.003906 3.855469 4.367188 3.699219 4.617188 C 3.546875 4.847656 3.355469 5.011719 3.140625 5.09375 C 3.070312 5.140625 2.984375 5.179688 2.894531 5.222656 C 2.601562 5.363281 2.261719 5.527344 2.28125 5.917969 Z M 11.476562 6.917969 L 15.410156 12.957031 L 15.410156 2.015625 L 11.476562 6.921875 Z M 11.476562 6.917969 " id="svg_1" fill="#6782e1"/>
</g></g></svg>