<svg width="36" height="36" viewBox="0 0 36 36" fill="none" xmlns="http://www.w3.org/2000/svg">
<g clip-path="url(#clip0_629_3683)">
<path d="M34.5933 33.9506C34.6169 33.9641 34.6374 33.9767 34.6549 33.9883C34.6374 33.9999 34.6169 34.0125 34.5933 34.026C34.4095 34.131 34.1111 34.2462 33.688 34.3632C32.8484 34.5953 31.6135 34.8091 30.0643 34.9902C26.9715 35.3518 22.6873 35.5766 17.9471 35.5766C13.2069 35.5766 8.92265 35.3518 5.82988 34.9902C4.28065 34.8091 3.04581 34.5953 2.20618 34.3632C1.78307 34.2462 1.48466 34.131 1.30089 34.026C1.27724 34.0125 1.25681 33.9999 1.23925 33.9883C1.25681 33.9767 1.27724 33.9641 1.30089 33.9506C1.48466 33.8456 1.78307 33.7304 2.20618 33.6135C3.04581 33.3814 4.28065 33.1676 5.82988 32.9865C8.92265 32.6248 13.2069 32.4001 17.9471 32.4001C22.6873 32.4001 26.9715 32.6248 30.0643 32.9865C31.6135 33.1676 32.8484 33.3814 33.688 33.6135C34.1111 33.7304 34.4095 33.8456 34.5933 33.9506Z" fill="#CAE9FA" stroke="#1F2024" stroke-width="0.847059"/>
<g filter="url(#filter0_ii_629_3683)">
<path d="M0.847168 13.7648C0.847168 12.3614 1.98489 11.2236 3.38834 11.2236H23.7178C25.1212 11.2236 26.2589 12.3614 26.2589 13.7648V30.706C26.2589 32.1094 25.1212 33.2472 23.7178 33.2472H3.38835C1.98489 33.2472 0.847168 32.1094 0.847168 30.706V13.7648Z" fill="#8A7DD8"/>
</g>
<path d="M0.847168 13.7648C0.847168 12.3614 1.98489 11.2236 3.38834 11.2236H23.7178C25.1212 11.2236 26.2589 12.3614 26.2589 13.7648V30.706C26.2589 32.1094 25.1212 33.2472 23.7178 33.2472H3.38835C1.98489 33.2472 0.847168 32.1094 0.847168 30.706V13.7648Z" stroke="#1F2024" stroke-width="0.847059"/>
<g filter="url(#filter1_i_629_3683)">
<path d="M11.4353 13.7648C11.4353 12.3614 12.573 11.2236 13.9765 11.2236H32.6118C34.0152 11.2236 35.1529 12.3614 35.1529 13.7648V30.706C35.1529 32.1094 34.0152 33.2472 32.6118 33.2472H13.9765C12.573 33.2472 11.4353 32.1094 11.4353 30.706V13.7648Z" fill="#AEA5EE"/>
</g>
<path d="M11.4353 13.7648C11.4353 12.3614 12.573 11.2236 13.9765 11.2236H32.6118C34.0152 11.2236 35.1529 12.3614 35.1529 13.7648V30.706C35.1529 32.1094 34.0152 33.2472 32.6118 33.2472H13.9765C12.573 33.2472 11.4353 32.1094 11.4353 30.706V13.7648Z" stroke="#1F2024" stroke-width="0.847059"/>
<path d="M24.9882 11.647H29.0118L23.0824 32.8234H19.0588L24.9882 11.647Z" fill="white" fill-opacity="0.5"/>
<path d="M23.4001 11.647H24.0354L18.106 32.8234H17.4707L23.4001 11.647Z" fill="white" fill-opacity="0.5"/>
<path d="M26.5235 30.2825C27.196 30.2825 27.7485 29.7351 27.6766 29.0665C27.3364 25.9042 25.6933 23.506 23.7176 23.506C21.742 23.506 20.0989 25.9042 19.7587 29.0665C19.6868 29.7351 20.2393 30.2825 20.9117 30.2825H26.5235Z" fill="#1F2024"/>
<path d="M26.2588 30.2825C26.2588 28.996 25.0263 27.9531 23.5059 27.9531C21.9855 27.9531 20.7529 28.996 20.7529 30.2825H26.2588Z" fill="#FF3979"/>
<path d="M32.5646 17.8942C30.6587 19.3765 26.5293 17.3118 26.1587 14.6118" stroke="#1F2024" stroke-width="1.27059" stroke-linecap="round"/>
<path d="M13.9364 17.8942C15.8423 19.3765 19.9717 17.3118 20.3423 14.6118" stroke="#1F2024" stroke-width="1.27059" stroke-linecap="round"/>
<circle cx="5.29419" cy="23.7175" r="3.81176" fill="#1F2024" fill-opacity="0.16"/>
<g filter="url(#filter2_i_629_3683)">
<circle cx="5.18823" cy="22.553" r="3.81176" fill="#AEA5EE"/>
</g>
<circle cx="5.18823" cy="22.553" r="3.81176" stroke="#1F2024" stroke-width="0.847059"/>
<path d="M6.24707 20.0117C6.63252 20.2169 6.96203 20.549 7.20001 20.9647" stroke="white" stroke-width="0.847059" stroke-linecap="round" stroke-linejoin="round"/>
<g filter="url(#filter3_i_629_3683)">
<circle cx="3.07047" cy="22.5529" r="2.54118" fill="#CAE9FA"/>
</g>
<circle cx="3.07047" cy="22.5529" r="2.54118" stroke="#1F2024" stroke-width="0.847059"/>
<rect x="17.894" y="6.0354" width="0.211765" height="3.91765" fill="#AEA5EE" stroke="#1F2024" stroke-width="0.847059"/>
<circle cx="18.0001" cy="5.92952" r="1.27059" fill="white"/>
<path d="M13.3411 6.98817C13.3411 4.41517 15.4269 2.32935 17.9999 2.32935C20.5729 2.32935 22.6587 4.41517 22.6587 6.98817V9.95287H13.3411V6.98817Z" fill="white" fill-opacity="0.5" stroke="#1F2024" stroke-width="0.847059"/>
<g filter="url(#filter4_i_629_3683)">
<path d="M12.0706 10.7999C12.0706 10.3321 12.4498 9.95288 12.9176 9.95288H23.0823C23.5501 9.95288 23.9294 10.3321 23.9294 10.7999V11.2235H12.0706V10.7999Z" fill="#AEA5EE"/>
</g>
<path d="M12.0706 10.7999C12.0706 10.3321 12.4498 9.95288 12.9176 9.95288H23.0823C23.5501 9.95288 23.9294 10.3321 23.9294 10.7999V11.2235H12.0706V10.7999Z" stroke="#1F2024" stroke-width="0.847059"/>
<path d="M15.5646 21.5999C15.5646 20.8982 16.1335 20.3293 16.8352 20.3293H17.6823C18.384 20.3293 18.9529 20.8982 18.9529 21.5999V32.8234H15.5646V21.5999Z" fill="#CAE9FA" stroke="#1F2024" stroke-width="0.847059"/>
<path d="M28.1647 21.5999C28.1647 20.8982 28.7336 20.3293 29.4353 20.3293H30.2824C30.9841 20.3293 31.553 20.8982 31.553 21.5999V32.5058H28.1647V21.5999Z" fill="#CAE9FA" stroke="#1F2024" stroke-width="0.847059"/>
<path d="M19.7999 21.4941C18.8469 19.7471 15.5116 19.8 14.7175 21.4941" stroke="#1F2024" stroke-width="1.05882" stroke-linecap="round"/>
<path d="M32.4 21.4941C31.447 19.7471 28.1117 19.8 27.3176 21.4941" stroke="#1F2024" stroke-width="1.05882" stroke-linecap="round"/>
<rect x="15.9883" y="31.553" width="2.54118" height="2.85882" fill="#CAE9FA"/>
<rect x="28.5881" y="31.553" width="2.54118" height="2.85882" fill="#CAE9FA"/>
</g>
<defs>
<filter id="filter0_ii_629_3683" x="0.423584" y="10.8" width="26.2588" height="22.8706" filterUnits="userSpaceOnUse" color-interpolation-filters="sRGB">
<feFlood flood-opacity="0" result="BackgroundImageFix"/>
<feBlend mode="normal" in="SourceGraphic" in2="BackgroundImageFix" result="shape"/>
<feColorMatrix in="SourceAlpha" type="matrix" values="0 0 0 0 0 0 0 0 0 0 0 0 0 0 0 0 0 0 127 0" result="hardAlpha"/>
<feOffset dy="-16"/>
<feComposite in2="hardAlpha" operator="arithmetic" k2="-1" k3="1"/>
<feColorMatrix type="matrix" values="0 0 0 0 0 0 0 0 0 0 0 0 0 0 0 0 0 0 0.25 0"/>
<feBlend mode="normal" in2="shape" result="effect1_innerShadow_629_3683"/>
<feColorMatrix in="SourceAlpha" type="matrix" values="0 0 0 0 0 0 0 0 0 0 0 0 0 0 0 0 0 0 127 0" result="hardAlpha"/>
<feOffset dy="16"/>
<feComposite in2="hardAlpha" operator="arithmetic" k2="-1" k3="1"/>
<feColorMatrix type="matrix" values="0 0 0 0 1 0 0 0 0 1 0 0 0 0 1 0 0 0 0.25 0"/>
<feBlend mode="normal" in2="effect1_innerShadow_629_3683" result="effect2_innerShadow_629_3683"/>
</filter>
<filter id="filter1_i_629_3683" x="11.0117" y="10.8" width="24.5647" height="22.8706" filterUnits="userSpaceOnUse" color-interpolation-filters="sRGB">
<feFlood flood-opacity="0" result="BackgroundImageFix"/>
<feBlend mode="normal" in="SourceGraphic" in2="BackgroundImageFix" result="shape"/>
<feColorMatrix in="SourceAlpha" type="matrix" values="0 0 0 0 0 0 0 0 0 0 0 0 0 0 0 0 0 0 127 0" result="hardAlpha"/>
<feOffset dx="-24" dy="8"/>
<feComposite in2="hardAlpha" operator="arithmetic" k2="-1" k3="1"/>
<feColorMatrix type="matrix" values="0 0 0 0 1 0 0 0 0 1 0 0 0 0 1 0 0 0 0.25 0"/>
<feBlend mode="normal" in2="shape" result="effect1_innerShadow_629_3683"/>
</filter>
<filter id="filter2_i_629_3683" x="0.952881" y="18.3176" width="8.4707" height="8.4707" filterUnits="userSpaceOnUse" color-interpolation-filters="sRGB">
<feFlood flood-opacity="0" result="BackgroundImageFix"/>
<feBlend mode="normal" in="SourceGraphic" in2="BackgroundImageFix" result="shape"/>
<feColorMatrix in="SourceAlpha" type="matrix" values="0 0 0 0 0 0 0 0 0 0 0 0 0 0 0 0 0 0 127 0" result="hardAlpha"/>
<feOffset dx="12" dy="-8"/>
<feComposite in2="hardAlpha" operator="arithmetic" k2="-1" k3="1"/>
<feColorMatrix type="matrix" values="0 0 0 0 0 0 0 0 0 0 0 0 0 0 0 0 0 0 0.25 0"/>
<feBlend mode="normal" in2="shape" result="effect1_innerShadow_629_3683"/>
</filter>
<filter id="filter3_i_629_3683" x="0.105713" y="19.5881" width="5.92944" height="5.92944" filterUnits="userSpaceOnUse" color-interpolation-filters="sRGB">
<feFlood flood-opacity="0" result="BackgroundImageFix"/>
<feBlend mode="normal" in="SourceGraphic" in2="BackgroundImageFix" result="shape"/>
<feColorMatrix in="SourceAlpha" type="matrix" values="0 0 0 0 0 0 0 0 0 0 0 0 0 0 0 0 0 0 127 0" result="hardAlpha"/>
<feOffset dx="12" dy="-8"/>
<feComposite in2="hardAlpha" operator="arithmetic" k2="-1" k3="1"/>
<feColorMatrix type="matrix" values="0 0 0 0 0 0 0 0 0 0 0 0 0 0 0 0 0 0 0.25 0"/>
<feBlend mode="normal" in2="shape" result="effect1_innerShadow_629_3683"/>
</filter>
<filter id="filter4_i_629_3683" x="11.647" y="9.5293" width="12.7061" height="2.11768" filterUnits="userSpaceOnUse" color-interpolation-filters="sRGB">
<feFlood flood-opacity="0" result="BackgroundImageFix"/>
<feBlend mode="normal" in="SourceGraphic" in2="BackgroundImageFix" result="shape"/>
<feColorMatrix in="SourceAlpha" type="matrix" values="0 0 0 0 0 0 0 0 0 0 0 0 0 0 0 0 0 0 127 0" result="hardAlpha"/>
<feOffset dx="-24" dy="8"/>
<feComposite in2="hardAlpha" operator="arithmetic" k2="-1" k3="1"/>
<feColorMatrix type="matrix" values="0 0 0 0 1 0 0 0 0 1 0 0 0 0 1 0 0 0 0.25 0"/>
<feBlend mode="normal" in2="shape" result="effect1_innerShadow_629_3683"/>
</filter>
<clipPath id="clip0_629_3683">
<rect width="36" height="36" fill="white"/>
</clipPath>
</defs>
</svg>
