<svg width="84" height="84" viewBox="0 0 84 84" fill="none" xmlns="http://www.w3.org/2000/svg">
<g clip-path="url(#clip0_120_3110)" filter="url(#filter0_d_120_3110)">
<path d="M42 69C59.6731 69 74 54.6731 74 37C74 19.3269 59.6731 5 42 5C24.3269 5 10 19.3269 10 37C10 54.6731 24.3269 69 42 69Z" fill="#14BE6B"/>
<path d="M55.1419 27.547C54.6132 27.0234 53.7561 27.0234 53.2273 27.547L37.0074 43.6101L30.7727 37.4358C30.244 36.9121 29.3869 36.9122 28.8581 37.4358C28.3294 37.9593 28.3294 38.8082 28.8581 39.3318L36.0501 46.4541C36.5786 46.9776 37.4364 46.9773 37.9647 46.4541L55.1419 29.4431C55.6707 28.9195 55.6706 28.0706 55.1419 27.547Z" fill="white" stroke="white" stroke-width="2.8"/>
</g>
<defs>
<filter id="filter0_d_120_3110" x="0" y="0" width="84" height="84" filterUnits="userSpaceOnUse" color-interpolation-filters="sRGB">
<feFlood flood-opacity="0" result="BackgroundImageFix"/>
<feColorMatrix in="SourceAlpha" type="matrix" values="0 0 0 0 0 0 0 0 0 0 0 0 0 0 0 0 0 0 127 0" result="hardAlpha"/>
<feOffset dy="5"/>
<feGaussianBlur stdDeviation="5"/>
<feComposite in2="hardAlpha" operator="out"/>
<feColorMatrix type="matrix" values="0 0 0 0 0.0784314 0 0 0 0 0.745098 0 0 0 0 0.419608 0 0 0 0.25 0"/>
<feBlend mode="normal" in2="BackgroundImageFix" result="effect1_dropShadow_120_3110"/>
<feBlend mode="normal" in="SourceGraphic" in2="effect1_dropShadow_120_3110" result="shape"/>
</filter>
<clipPath id="clip0_120_3110">
<rect width="64" height="64" fill="white" transform="translate(10 5)"/>
</clipPath>
</defs>
</svg>
