<svg width="24" height="24" viewBox="0 0 24 24" fill="none" xmlns="http://www.w3.org/2000/svg">
<path d="M13.1295 7.29L20.3235 15.513C21.1725 16.4805 20.4825 18 19.194 18L4.80598 18C4.51762 18.0002 4.23529 17.9174 3.99281 17.7613C3.75034 17.6052 3.55799 17.3825 3.43881 17.12C3.31962 16.8574 3.27866 16.566 3.32081 16.2807C3.36296 15.9955 3.48645 15.7284 3.67648 15.5115L10.8705 7.2915C11.0113 7.13039 11.1849 7.00126 11.3797 6.91278C11.5745 6.8243 11.786 6.77853 12 6.77853C12.2139 6.77853 12.4254 6.8243 12.6202 6.91278C12.8151 7.00126 12.9887 7.13039 13.1295 7.2915V7.29Z" fill="#6782E1"/>
</svg>
