<svg width="99" height="103" viewBox="0 0 99 103" fill="none" xmlns="http://www.w3.org/2000/svg">
<path d="M95.2764 35.8134L97.9919 39.8867" stroke="#6782E1" stroke-opacity="0.4" stroke-linecap="round"/>
<path d="M92.9009 17.8231L97.6531 20.8781" stroke="#6782E1" stroke-opacity="0.4" stroke-linecap="round"/>
<path d="M93.2397 1.52999L97.9919 4.58496" stroke="#6782E1" stroke-opacity="0.4" stroke-linecap="round"/>
<path d="M94.2578 61.2712L97.6522 58.5557" stroke="#6782E1" stroke-opacity="0.4" stroke-linecap="round"/>
<path d="M93.2402 94.8763L97.653 94.8763" stroke="#6782E1" stroke-opacity="0.4" stroke-linecap="round"/>
<path d="M92.8999 78.2438L97.9915 78.2438" stroke="#6782E1" stroke-opacity="0.4" stroke-linecap="round"/>
<path d="M3.96631 101.665L6.00296 90.1239" stroke="#6782E1" stroke-opacity="0.4" stroke-linecap="round"/>
<path d="M4.30566 82.9961C4.30566 82.453 5.88972 75.0758 6.68175 71.4551" stroke="#6782E1" stroke-opacity="0.4" stroke-linecap="round"/>
<path d="M4.30615 63.6473C4.30615 63.1042 6.5691 56.8585 7.70057 53.8035" stroke="#6782E1" stroke-opacity="0.4" stroke-linecap="round"/>
<path d="M2.94824 45.3179L9.39763 35.4741" stroke="#6782E1" stroke-opacity="0.4" stroke-linecap="round"/>
<path d="M0.911621 25.9695L9.39766 19.5201" stroke="#6782E1" stroke-opacity="0.4" stroke-linecap="round"/>
<path d="M0.911621 7.63989L11.0949 1.86938" stroke="#6782E1" stroke-opacity="0.4" stroke-linecap="round"/>
<path d="M24.8042 101.326L23.5754 89.6711" stroke="#6782E1" stroke-opacity="0.4" stroke-linecap="round"/>
<path d="M45.0449 99.9681L41.2246 90.6658" stroke="#6782E1" stroke-opacity="0.4" stroke-linecap="round"/>
<path d="M64.1318 99.3988L58.2617 91.2337" stroke="#6782E1" stroke-opacity="0.4" stroke-linecap="round"/>
<path d="M64.1685 80.9594L58.2983 72.7942" stroke="#6782E1" stroke-opacity="0.4" stroke-linecap="round"/>
<path d="M58.9561 44.9105L64.4588 36.4934" stroke="#6782E1" stroke-opacity="0.4" stroke-linecap="round"/>
<path d="M56.9194 25.0936L65.7548 20.2912" stroke="#6782E1" stroke-opacity="0.4" stroke-linecap="round"/>
<path d="M56.9199 5.12L66.6933 2.75189" stroke="#6782E1" stroke-opacity="0.4" stroke-linecap="round"/>
<path d="M74.5703 3.56653L84.4556 5.41269" stroke="#6782E1" stroke-opacity="0.4" stroke-linecap="round"/>
<path d="M74.5703 22.7469L84.4067 20.6558" stroke="#6782E1" stroke-opacity="0.4" stroke-linecap="round"/>
<path d="M75.2495 42.2975L83.1967 36.1355" stroke="#6782E1" stroke-opacity="0.4" stroke-linecap="round"/>
<path d="M77.3198 55.0929L83.1193 63.3084" stroke="#6782E1" stroke-opacity="0.4" stroke-linecap="round"/>
<path d="M76.4106 74.6106L85.4955 78.9227" stroke="#6782E1" stroke-opacity="0.4" stroke-linecap="round"/>
<path d="M63.0146 64.6661L62.2733 54.6373" stroke="#6782E1" stroke-opacity="0.4" stroke-linecap="round"/>
<path d="M85.5054 97.4869L76.4063 93.205" stroke="#6782E1" stroke-opacity="0.4" stroke-linecap="round"/>
<path d="M24.2378 82.9955C24.1464 82.4601 24.4669 74.9216 24.6386 71.2192" stroke="#6782E1" stroke-opacity="0.4" stroke-linecap="round"/>
<path d="M44.2446 82.317C44.0105 81.827 42.2588 74.4878 41.4122 70.8794" stroke="#6782E1" stroke-opacity="0.4" stroke-linecap="round"/>
<path d="M22.5278 64.666C22.4402 64.13 23.6654 57.6009 24.2889 54.4034" stroke="#6782E1" stroke-opacity="0.4" stroke-linecap="round"/>
<path d="M42.2153 64.666C42.1277 64.13 43.3529 57.6009 43.9764 54.4034" stroke="#6782E1" stroke-opacity="0.4" stroke-linecap="round"/>
<path d="M21.2783 45.318L27.7277 35.4742" stroke="#6782E1" stroke-opacity="0.4" stroke-linecap="round"/>
<path d="M39.9473 44.9784L46.3967 35.1346" stroke="#6782E1" stroke-opacity="0.4" stroke-linecap="round"/>
<path d="M20.6533 25.2905L27.9486 17.5197" stroke="#6782E1" stroke-opacity="0.4" stroke-linecap="round"/>
<path d="M38.5898 25.6063L47.3442 19.5262" stroke="#6782E1" stroke-opacity="0.4" stroke-linecap="round"/>
<path d="M19.2417 7.63989L29.425 1.86938" stroke="#6782E1" stroke-opacity="0.4" stroke-linecap="round"/>
<path d="M37.2319 4.43713L46.7363 2.20888" stroke="#6782E1" stroke-opacity="0.4" stroke-linecap="round"/>
</svg>
