<svg width="84" height="84" viewBox="0 0 84 84" fill="none" xmlns="http://www.w3.org/2000/svg">
<g clip-path="url(#clip0_120_3210)" filter="url(#filter0_d_120_3210)">
<path d="M41.9999 5C35.6709 5 29.484 6.87677 24.2216 10.393C18.9593 13.9092 14.8578 18.9069 12.4357 24.7541C10.0137 30.6014 9.38004 37.0355 10.6148 43.2429C11.8495 49.4503 14.8972 55.1521 19.3725 59.6274C23.8478 64.1027 29.5496 67.1504 35.757 68.3851C41.9644 69.6198 48.3985 68.9861 54.2458 66.5641C60.093 64.1421 65.0907 60.0406 68.6069 54.7782C72.1231 49.5159 73.9999 43.329 73.9999 37C73.9999 28.5131 70.6285 20.3737 64.6273 14.3726C58.6261 8.37142 50.4868 5 41.9999 5ZM38.0266 21C38.0266 19.9391 38.448 18.9217 39.1981 18.1716C39.9483 17.4214 40.9657 17 42.0266 17C43.0874 17 44.1048 17.4214 44.855 18.1716C45.6051 18.9217 46.0266 19.9391 46.0266 21V39.3733C46.0266 39.8986 45.9231 40.4188 45.7221 40.9041C45.5211 41.3894 45.2264 41.8303 44.855 42.2018C44.4835 42.5732 44.0426 42.8678 43.5573 43.0688C43.072 43.2699 42.5518 43.3733 42.0266 43.3733C41.5013 43.3733 40.9811 43.2699 40.4958 43.0688C40.0105 42.8678 39.5696 42.5732 39.1981 42.2018C38.8267 41.8303 38.5321 41.3894 38.331 40.9041C38.13 40.4188 38.0266 39.8986 38.0266 39.3733V21ZM41.9999 57C41.0927 57 40.2059 56.731 39.4517 56.227C38.6974 55.723 38.1095 55.0067 37.7624 54.1686C37.4152 53.3305 37.3244 52.4082 37.5014 51.5185C37.6783 50.6288 38.1152 49.8115 38.7566 49.1701C39.3981 48.5286 40.2153 48.0918 41.1051 47.9148C41.9948 47.7378 42.917 47.8286 43.7551 48.1758C44.5932 48.523 45.3096 49.1108 45.8136 49.8651C46.3176 50.6194 46.5866 51.5062 46.5866 52.4133C46.5866 53.6298 46.1033 54.7964 45.2431 55.6566C44.383 56.5168 43.2163 57 41.9999 57Z" fill="#FF5C5C"/>
</g>
<defs>
<filter id="filter0_d_120_3210" x="0" y="0" width="84" height="84" filterUnits="userSpaceOnUse" color-interpolation-filters="sRGB">
<feFlood flood-opacity="0" result="BackgroundImageFix"/>
<feColorMatrix in="SourceAlpha" type="matrix" values="0 0 0 0 0 0 0 0 0 0 0 0 0 0 0 0 0 0 127 0" result="hardAlpha"/>
<feOffset dy="5"/>
<feGaussianBlur stdDeviation="5"/>
<feComposite in2="hardAlpha" operator="out"/>
<feColorMatrix type="matrix" values="0 0 0 0 0.933333 0 0 0 0 0.243137 0 0 0 0 0.243137 0 0 0 0.25 0"/>
<feBlend mode="normal" in2="BackgroundImageFix" result="effect1_dropShadow_120_3210"/>
<feBlend mode="normal" in="SourceGraphic" in2="effect1_dropShadow_120_3210" result="shape"/>
</filter>
<clipPath id="clip0_120_3210">
<rect width="64" height="64" fill="white" transform="translate(10 5)"/>
</clipPath>
</defs>
</svg>
