<svg width="121" height="110" viewBox="0 0 121 110" fill="none" xmlns="http://www.w3.org/2000/svg">
<path fill-rule="evenodd" clip-rule="evenodd" d="M19.1683 66.9565H17.2733L15.8908 68.2501L4.79208 78.6346V8.96739C4.79208 6.96276 6.66343 4.78261 9.58416 4.78261H86.2574C89.1782 4.78261 91.0495 6.96276 91.0495 8.96739V14.3478H34.7426C29.4713 14.3478 25.1584 18.6522 25.1584 23.913V66.9565H19.1683ZM25.1584 71.7391H19.1683L4.79208 85.1902L0 89.6739V83.1183V8.96739C0 4.03533 4.31287 0 9.58416 0H86.2574C91.5287 0 95.8416 4.03533 95.8416 8.96739V14.3478H111.416C116.687 14.3478 121 18.6522 121 23.913V81.3043C121 86.5652 116.687 90.8696 111.416 90.8696H44.3267L25.1584 110V71.7391ZM70.56 66.8818V65.0136C70.56 63.1205 70.7324 61.4765 71.0773 60.0815C71.4223 58.6368 72.0382 57.2917 72.9253 56.0462C73.8122 54.8007 75.0441 53.5054 76.6209 52.1603C78.5919 50.4664 80.1195 49.0466 81.2036 47.9008C82.3369 46.755 83.1253 45.659 83.5688 44.6128C84.0123 43.5167 84.2341 42.1966 84.2341 40.6522C84.2341 38.1613 83.421 36.2432 81.7949 34.8981C80.2181 33.5031 77.9268 32.8057 74.9209 32.8057C72.4571 32.8057 70.289 33.1295 68.4165 33.7772C66.5932 34.375 64.844 35.0724 63.1686 35.8696L61.099 31.0122C63.0208 30.0159 65.1396 29.1939 67.4556 28.5462C69.8208 27.8488 72.4571 27.5 75.3644 27.5C79.9963 27.5 83.5688 28.6708 86.0819 31.0122C88.595 33.3039 89.8515 36.4923 89.8515 40.5774C89.8515 42.8193 89.4819 44.7374 88.7428 46.3315C88.0529 47.9257 87.0427 49.3954 85.7123 50.7405C84.4312 52.0357 82.9036 53.4307 81.1297 54.9253C79.405 56.37 78.0991 57.6404 77.2122 58.7364C76.3745 59.7826 75.8078 60.8537 75.5121 61.9497C75.2658 63.0458 75.1427 64.341 75.1427 65.8356V66.8818H70.56ZM68.9338 76.5965C68.9338 74.9026 69.3034 73.7319 70.0426 73.0842C70.831 72.3868 71.8412 72.038 73.0731 72.038C74.2064 72.038 75.1672 72.3868 75.9557 73.0842C76.7934 73.7319 77.2122 74.9026 77.2122 76.5965C77.2122 78.2405 76.7934 79.4361 75.9557 80.1834C75.1672 80.9307 74.2064 81.3043 73.0731 81.3043C71.8412 81.3043 70.831 80.9307 70.0426 80.1834C69.3034 79.4361 68.9338 78.2405 68.9338 76.5965Z" fill="#6782E1"/>
</svg>
