<svg xmlns="http://www.w3.org/2000/svg" xmlns:xlink="http://www.w3.org/1999/xlink" height="61.1" preserveAspectRatio="xMidYMid meet" version="1.0" viewBox="19.6 19.6 61.0 61.1" width="61.0" zoomAndPan="magnify"><g id="change1_1"><path d="M55.1,35.7c0,0.1,0,0.1-0.1,0.2c0,0,0,0,0,0L54.7,36c0,0-0.1-0.1-0.2,0c-0.1,0.1-0.1,0.1-0.1,0.2s0,0.1,0,0.1s0.1,0,0,0.1 c-0.1,0-0.2-0.1-0.3,0c-0.1,0.1-0.2,0.2-0.1,0.2c0,0.1,0.1,0.1,0.1,0.2c0,0.1,0.1,0.1-0.1,0.2c-0.1,0.1-0.2,0.1-0.1,0.2 s0.1,0.1,0.1,0.2s0.3,0,0.3,0s0.1-0.1,0.1-0.1s0.2-0.1,0.2-0.1c0.1,0,0.2-0.1,0.3-0.1s0.1-0.1,0.1-0.1s0-0.2,0-0.3 c0,0,0.1-0.1,0.1-0.2c0,0,0.1-0.1,0.1-0.1c0,0,0.1-0.1,0.1-0.1s0-0.1,0.1-0.1s0.2-0.1,0.2,0c0.1,0.1,0-0.1,0.1,0.1 c0.1,0.2,0.1,0.2,0.1,0.3c0,0.1,0.1,0.1,0,0.2c0,0.1-0.1,0.1-0.2,0.2s0-0.1-0.1,0s0,0.2,0,0.2c0,0.1,0.2,0.1,0,0.1 c-0.2,0-0.1-0.1-0.2,0s0.1,0.2,0.1,0.2c0,0,0.2,0,0.2,0c0,0,0,0.1,0.1,0.1c0,0,0,0-0.2,0.1c-0.1,0.1-0.2,0.2-0.3,0.2 c0,0.1,0.1,0,0.2,0c0.1,0,0.2-0.1,0.2-0.2c0.1,0,0.1-0.1,0.2-0.1s0,0,0.1,0c0.1,0,0.3,0,0.3,0c0.1,0,0.1,0,0.2-0.1 c0.1,0,0.1,0,0.2-0.1c0.1,0,0.2-0.2,0.2-0.2c0,0,0.1-0.1,0.1-0.2c0.1-0.1-0.1-0.2-0.1-0.3c-0.1,0-0.2-0.1-0.2-0.2 c0-0.1-0.3-0.3-0.4-0.3c-0.1-0.1-0.1-0.2-0.1-0.2l-0.1-0.3c0,0-0.1-0.2-0.1-0.2c0.1,0,0.2-0.1,0.2-0.2c0-0.1,0.1-0.2-0.1-0.2 c-0.2,0-0.1,0.1-0.2,0c0-0.1,0.1-0.1,0.1-0.3c0-0.1-0.3,0-0.3,0c0,0-0.2,0.2-0.3,0.2s0,0,0,0s-0.1,0.1-0.1,0.1s-0.2,0-0.2,0 s-0.1,0-0.1,0.1c0,0,0.2,0.2,0.2,0.2s0.1,0,0.1,0.1C55.1,35.5,55.1,35.5,55.1,35.7C55.1,35.7,55.1,35.6,55.1,35.7z" fill="inherit"/><path d="M52.2,30.4c0.1-0.2,0.2-0.7,0.5-0.8c0.3-0.2,0.6-0.5,0.7-0.8c0.1-0.3,0.4-0.5,0.7-0.6c0.3-0.1,0.6-0.6,0.3-0.6 c-0.4,0-0.6-0.1-0.9,0c-0.3,0.1-2.5,0.1-2.7,0.1c-0.1,0-0.2,0-0.2,0c-1,0-1.4-0.2-1.7,0c-0.3,0.3-0.6,0.4-1.1,0.3 c-0.5-0.1-0.5-0.3-1.3-0.2c-0.2,0-0.3,0-0.4,0.1c-0.3-0.3-0.3-0.5-0.7-0.3s-0.5,0.3-0.8,0.2c-0.3,0-0.5,0-0.7,0c-0.2,0-0.2,0-0.6,0 c-0.4,0-0.5-0.1-0.8,0c-0.3,0.1-0.1,0.3-0.6,0.3c-0.5,0-0.7-0.1-1,0c-0.3,0.1-0.7,0.1-0.9,0.2c-0.2,0.2-0.3,0.1,0,0.3 c0.3,0.2,0.7,0.1,0.9,0.2c0.2,0.1,0.5,0.2,0,0.2s-0.9-0.1-1,0c-0.1,0.1-0.8,0.1-0.3,0.2c0.5,0.2,1.5,0.2,1.7,0.2c0.2,0,0.5,0,0.5,0 s0.2,0.2,0.3,0s0.3-0.3,0.6-0.4c0.4-0.2,0.6-0.6,1-0.5c0.4,0.2,0.2,0,0.6,0.1l0,0c-0.3,0.1-0.6,0.2-0.6,0.2s-0.2,0.1,0.3,0.4 c0.4,0.3,1.3,0.4,1.5,0.5c0.2,0.1,0.6,0.2,0.6,0.5c0,0.3,0.1,0.3-0.2,0.6c-0.3,0.3-0.3,0.3-0.4,0.6C45,31.9,45,32,44.9,32.4 c-0.1,0.4-0.4,0.4,0,0.8s0.5,0.8,0.6,0.9c0.2,0.1,0.8-0.2,0.9,0s0.7-0.4,0.7-0.5s0.1-0.5,0.4-0.6c0.3-0.1,1-0.4,1.1-0.4 s0.1,0,0.7-0.3c0.6-0.3,1.1-0.7,1.4-0.8c0.3-0.1,0.8-0.3,1-0.4C51.9,31.2,52.1,30.6,52.2,30.4z" fill="inherit"/><path d="M38,28.9c0.1,0,0.2,0.1,0.3,0.1s0.1,0,0.1,0c0,0,0.1-0.1,0.1-0.2c0,0-0.1-0.2-0.1-0.2c-0.3-0.1-0.4-0.1-0.5,0 C37.8,28.6,37.9,28.8,38,28.9z" fill="inherit"/><path d="M39,29c0.1,0,0.1,0,0.2,0s0.1,0.1,0.2,0s0.1-0.3,0-0.3c-0.1,0-0.2-0.1-0.3,0c-0.1,0-0.1,0.1-0.1,0.1c0,0,0,0.1,0,0.1 c-0.1,0-0.2,0.1-0.2,0.1C38.8,28.9,38.9,29,39,29z" fill="inherit"/><path d="M38.4,29.5c-0.2,0-0.2,0.1-0.2,0s0-0.2-0.1-0.2s-0.2,0-0.2,0c-0.1,0-0.1,0.1-0.1,0.1c-0.1,0-0.2,0-0.3,0s-0.2,0.1-0.3,0.1 c-0.1,0-0.2-0.1-0.2,0s0.1,0.2,0.2,0.3c0.1,0.1,0.2,0.1,0.3,0.2c0.1,0,0.2,0.1,0.3,0c0.1,0,0.1-0.2,0.2-0.2c0.1,0,0.1,0,0.2,0.1 c0.2,0,0.2,0.1,0.3,0s0.3,0,0.2-0.1S38.6,29.5,38.4,29.5z" fill="inherit"/><path d="M41.3,29.7c-0.1-0.1-0.1-0.2-0.4-0.1c-0.3,0-0.4,0-0.6,0c-0.2,0-0.2,0-0.4,0s-0.3,0-0.4,0c-0.1,0-0.1-0.1-0.2-0.1 c-0.1,0-0.1,0-0.2-0.1s-0.3-0.1-0.4-0.1c-0.2,0-0.2,0.1-0.2,0.1c0.1,0,0.3,0,0.4,0.1s0.2,0,0.1,0.1s-0.1,0-0.1,0.1 c0,0.1-0.2,0.1-0.1,0.2c0.1,0,0.3,0,0.4,0.1s0.1,0,0.3,0c0.2,0,0.3,0.1,0.4,0.1s0.5,0,0.6,0c0.1,0,0.3-0.1,0.3-0.1s0.2,0,0.3-0.1 C41.2,29.8,41.4,29.7,41.3,29.7z" fill="inherit"/><path d="M36.4,29.4c0-0.1-0.1-0.3-0.3-0.2s-0.1,0-0.3,0.1s-0.4,0.1-0.4,0.1c-0.3-0.1-0.3-0.1-0.3-0.2s0.1-0.1,0-0.2 C35.1,29,35.1,29,35,29s-0.3-0.1-0.5,0c-0.1,0.1-0.1-0.1-0.2,0.1s-0.3,0.2-0.4,0.2c-0.1,0-0.1,0-0.3,0c-0.2,0-0.3,0-0.3,0.1 c0,0,0,0.1,0.2,0.2c0.1,0,0.4,0.1,0.5,0.1s0.3,0.1,0.3,0.1c0.1,0,0.1,0.1,0.3,0.1c0.2,0,0.6-0.1,0.7-0.1c0.1,0,0.3-0.1,0.5,0 c0.1,0,0.3,0,0.4,0c0.1-0.1,0.2-0.2,0.3-0.2C36.4,29.6,36.4,29.5,36.4,29.4z" fill="inherit"/><path d="M37.3,30c-0.5,0-0.9,0-0.9,0.1s0.2,0.2,0,0.2c-0.2,0-0.2-0.1-0.3,0s-0.1,0.3,0,0.3s0.9,0,0.9,0s0.2-0.1,0.2-0.2 C37.3,30.5,37.5,30,37.3,30z" fill="inherit"/><path d="M45.3,56.4c-0.4-0.3-0.2-0.4-0.6-0.6c-0.4-0.2-0.3-0.3-0.7-0.4c-0.4-0.1-0.4-0.5-0.8-0.4c-0.4,0.1-0.7-0.2-1-0.3 c-0.3-0.1-0.9-0.6-1-0.9c-0.2-0.3-0.5-0.8-0.9-1.1c-0.4-0.3,0.2,0.1-0.4-0.3c-0.6-0.3-0.6-0.3-1-0.5s-0.6-0.7-0.6-0.7 s0.2,0-0.5-0.2c-0.7-0.3-0.8-0.5-1.1-0.5s0.4-0.3-0.7,0c-1.1,0.3-1.2,0.1-1.6,0.5c0,0,0.3-0.1,0,0.2s-0.1-0.1-0.3,0.2 c-0.2,0.3,0.1,0-0.2,0.3c-0.3,0.3-0.3,0.2-0.3,0.5c-0.1,0.3,0.2,0.2,0,0.7c-0.2,0.5-0.2,0.8-0.2,0.9c0,0.1,0.4,0.1,0,0.5 c-0.4,0.3-0.2,0-0.4,0.3c-0.2,0.3-0.3,0.5-0.4,0.9c-0.2,0.4-0.3,0.2,0,0.8c0.3,0.5,0.7,0.1,0.5,0.8c-0.3,0.7-0.4,0.9-0.1,1.3 c0.3,0.4,0.9,0.5,1.1,0.7s0.3,0.3,0.5,0.5s0.7,0.5,0.8,0.7c0.1,0.2,0.3,0.5,0.4,0.7c0.1,0.2-0.3-0.1,0,0.5s-0.2,1.9,0,2.3 c0.2,0.4-0.1,0.4,0.1,0.9c0.2,0.5-0.2,0.3,0,1s0.6,1.2,0.6,1.5s-0.1,0.9,0,1c0.1,0.1-0.1,0.6,0,1s1.2,2.1,1.5,2.4 c0.3,0.3,0.5,0.5,0.7,0.7s1.6,0.3,1.5,0c-0.2-0.3-0.9-1.2-0.9-1.2s-0.2-0.4-0.2-0.5c0-0.2,0.1-1.1,0.1-1.4c0-0.3,0-1.1,0-1.1 s0.2-0.2,0.4-0.3c0.2-0.1,0.6-0.5,0.6-0.5l0.4-0.1c0,0-0.2-0.4,0-0.6c0.2-0.2,0.4-0.7,0.4-0.7l0.6-0.3c0,0,0.4-0.7,0.5-0.9 c0.1-0.2,0.4-0.9,0.4-0.9s-0.1-0.2,0-0.4c0.1-0.2,0.3-0.7,0.3-0.7s-0.3-0.1,0-0.2c0.3-0.1,0.8-0.4,0.8-0.4s0.8-0.1,0.9-0.8 c0.1-0.7,0.3-0.6,0.3-1.4c0-0.8,0-1.1,0-1.1l0.4-0.9C45,58.2,45.8,56.7,45.3,56.4z" fill="inherit"/><path d="M80.6,48.4c-0.1-1.5-0.3-3.1-0.6-4.5c-0.4-2-1-3.9-1.8-5.7c-0.8-1.8-1.7-3.6-2.8-5.2c-0.7-1.1-1.5-2.1-2.3-3 c-0.4-0.5-0.9-1-1.4-1.5c-1.4-1.4-2.9-2.6-4.5-3.7c-1.6-1.1-3.4-2.1-5.2-2.8c-1.8-0.8-3.8-1.4-5.7-1.8c-2-0.4-4.1-0.6-6.2-0.6 c-2.1,0-4.2,0.2-6.2,0.6c-2,0.4-3.9,1-5.7,1.8c-1.8,0.8-3.6,1.7-5.2,2.8c-1.6,1.1-3.1,2.4-4.5,3.7c-0.8,0.8-1.6,1.7-2.3,2.6 c-0.5,0.6-1,1.3-1.4,2c-0.4,0.6-0.8,1.2-1.1,1.8c-0.6,1.1-1.2,2.3-1.7,3.4c-0.8,1.8-1.4,3.8-1.8,5.7c-0.4,2-0.6,4.1-0.6,6.2 c0,2.1,0.2,4.2,0.6,6.2c0.4,2,1,3.9,1.8,5.7c0.8,1.8,1.7,3.6,2.8,5.2c1.1,1.6,2.4,3.1,3.7,4.5c1.4,1.4,2.9,2.6,4.5,3.7 c1.6,1.1,3.4,2.1,5.2,2.8c1.8,0.8,3.8,1.4,5.7,1.8c2,0.4,4.1,0.6,6.2,0.6c2.1,0,4.2-0.2,6.2-0.6c2-0.4,3.9-1,5.7-1.8 c1.8-0.8,3.6-1.7,5.2-2.8c1.6-1.1,3.1-2.4,4.5-3.7s2.6-2.9,3.7-4.5c1.1-1.6,2.1-3.4,2.8-5.2c0.8-1.8,1.4-3.8,1.8-5.7 c0.4-2,0.6-4.1,0.6-6.2C80.6,49.5,80.6,48.9,80.6,48.4z M79.4,50c-0.2-0.2-0.2-0.4-0.1-0.5c0,0,0.1-0.1,0.1-0.1 C79.4,49.6,79.4,49.8,79.4,50z M50,79.4c-16.2,0-29.4-13.2-29.4-29.4c0-4.8,1.1-9.3,3.2-13.2c0.2,0,0.6-0.2,0.6-0.2 s0.3,0.3,0.1,0.6c-0.2,0.3-0.1,0.2-0.2,0.6c-0.2,0.5-0.2,1.7-0.2,1.8s-0.2,0.4-0.3,0.7c-0.2,0.2-0.9,1.1-0.9,1.5 c-0.1,0.4-0.2,1,0.1,1.5s0.4,0.5,0.5,0.9c0,0.3,0.1,0.4,0.1,1.2c0,0.8-0.1,0.9,0.2,1.3c0.3,0.4,0.4,0.6,0.6,0.7 c0.2,0.2,0.4,0,0.4,0s-0.1-0.5-0.2-0.6c-0.1-0.1-0.2-0.5-0.2-0.6s0-0.6,0-0.6s0-0.2,0.1-0.2c0.1,0,0.4,0.4,0.4,0.4s0,0.1,0.2,0.3 c0.2,0.2,0.3,0.4,0.4,0.5c0,0.1,0.2,0.3,0.2,0.5c0.1,0.2,0.2,0.3,0.2,0.3s0,0.4,0,0.7c0,0.3,0.3,0.5,0.6,0.8 c0.3,0.3,0.6,0.4,0.9,0.5c0.3,0.2,1.2,0.2,1.2,0.2s0.3-0.1,0.5,0s0.6,0.4,0.6,0.4s0.8,0.4,1.1,0.6s0.4-0.1,0.5,0.2 c0.2,0.3,0.4,0.5,0.5,0.7c0.1,0.2,0.8,0,0.8,0s-0.3-0.5-0.5-0.6c-0.2-0.1-0.3-0.5-0.3-0.6s0.2-0.7,0.1-0.8c-0.1,0-0.5-0.3-0.7-0.3 c-0.2,0-0.4,0-0.5,0c-0.1,0,0-0.4,0.1-0.5s0.5-1,0.4-1s0-0.2-0.4-0.1c-0.3,0.1-0.5,0.4-0.7,0.5c-0.2,0.1-0.4,0.2-0.7,0.2 c-0.3,0-0.6,0-0.7-0.2C28.4,48,28.2,47,28.2,47s0.1-0.6,0.2-0.9c0.1-0.3,0.7-1,0.9-1.1c0.3,0,0.7-0.2,1.1-0.2s0.7-0.1,0.9,0 c0.3,0.1,0.9-0.2,1.2,0c0.2,0.2,0.4,0.3,0.4,0.5c0,0.2-0.1,0.5,0,0.7c0.2,0.2,0.5,0.5,0.5,0.2s0-1,0-1.1c0-0.1,0.2-0.7,0.4-0.8 s0.3-0.7,0.6-0.8c0.3-0.2,1.2-0.6,1.2-0.6S36,42.2,36,42s0.9-1.1,0.9-1.1c0.1,0,0.8-0.1,1-0.3c0.2-0.2,0.3-0.6,0.5-0.8 c0.2-0.2,0.5-0.3,0.8-0.3c0.3,0,1.1-0.3,1.1-0.3s0-0.3-0.3-0.5c-0.3-0.2-0.2-0.8,0-0.9c0.2-0.1,0.6-0.3,0.8-0.2 c0.2,0.1,0.6,0.4,0.6,0.7s0.1,0.4,0.4,0.4c0.3,0.1,0.6,0,0.6-0.2s0-0.7-0.2-0.8c-0.1-0.1-0.4-0.5-0.3-0.6c0.1-0.1,0.4,0,0.3-0.7 S42,35.2,42,35.2s0.1-1.4-0.3-1.2c-0.4,0.1-0.3,0.2-0.7,0.4c-0.4,0.3-0.4,0.7-0.6,0.2c-0.3-0.5-0.4-1-0.4-1s0.1-0.2-0.3-0.2 s-0.4,0.2-0.6,0.2c-0.2,0-0.2,0-0.6,0.5c-0.3,0.5-0.6,1.3-0.8,1.4c-0.2,0.1-0.7,0.4-0.9,0.5c-0.2,0.2-1-0.4-1.4-0.5 c-0.4-0.1-1.4-1.1-1.2-1.2c0.2-0.2,0.3-0.7,0.9-0.9s1.5-0.6,1.6-0.6c0.1,0,1-0.3,1-0.3s-0.5-0.3-0.4-0.5c0.1-0.2,0.4-0.8,0.4-0.8 s0-0.4,0.1-0.4c0,0,0.2-0.1,0.5-0.1c0,0.1,0,0.1,0,0.1c0,0.1,0,0.1,0.1,0.2c0,0.1,0,0.1,0.1,0.2c0.1,0.1,0,0.4-0.2,0.5s0,0-0.1,0.1 S37.9,32,38,32.1c0,0.1,0.1,0.1,0.1,0.2s0,0.3-0.1,0.4c-0.1,0.1-0.1,0-0.2,0.1s-0.2,0.2-0.2,0.2c0,0.1,0.1,0.2,0.2,0.2 c0.1,0,0.1-0.2,0.2-0.2c0.2,0,0.2,0.1,0.3,0.1c0.1,0,0.3,0.1,0.2,0c-0.1-0.1-0.1-0.4-0.1-0.5c0,0-0.1-0.2,0.1-0.3 c0.2-0.1,0.2-0.1,0.3-0.2c0.2-0.1,0.3-0.2,0.3-0.3c0-0.1,0.1-0.4,0.2-0.4c0,0,0-0.1,0.2-0.2s0.3-0.2,0.4-0.1s0.4,0.1,0.5,0.2 c0.1,0.1,0.3,0.3,0.2,0.4c0,0.1-0.1,0.2-0.2,0.3c-0.1,0.2-0.5,0.4-0.8,0.5c-0.4,0.1-0.4,0.1-0.5,0.2s0.4,0.3,0.5,0.3 c0.1,0,0.3,0,0.4,0.1c0.1,0.1,0.3,0.3,0.5,0.4s0.5,0.1,0.6,0.2s0.2-0.3,0.2-0.4c0-0.1-0.1-0.3,0.1-0.2s0.1,0.1,0.3,0.1 c0.2,0,0.1-0.9,0.2-0.9s1.1,0,1.1,0s0.1-0.1,0.1-0.1s-0.1-0.2-0.2-0.3c0,0-0.2-0.2-0.2-0.2c0,0-0.2-0.2-0.2-0.3 c0,0-0.4-0.1-0.4-0.1s0.1-0.3,0.1-0.4c0,0,0-0.2-0.2-0.2c-0.2,0-0.3-0.1-0.3-0.1s-0.2-0.2-0.2-0.2s0-0.1-0.2-0.2S41.1,30,40.9,30 c-0.2,0-0.6,0.1-0.6,0.1c-0.1,0-0.1,0-0.3,0c-0.2,0-0.5-0.2-0.5-0.1c-0.1,0-0.1,0-0.3,0c-0.1,0-0.2,0.1-0.3,0.2 c0-0.1-0.1-0.2-0.3-0.3c-0.2-0.2-0.2,0-0.6,0.1c-0.3,0.1-0.4,0-0.4,0.1c-0.1,0.1,0,0.2,0,0.2c0,0.1,0.2-0.1,0,0.1s-0.4,0.4-0.5,0.4 c-0.1,0-0.3,0.1-0.3,0.2s0.1,0.1,0.1,0.3c-0.1,0.1,0,0.2-0.1,0.2c-0.1,0.1,0.4,0-0.1,0.1s-0.5,0.2-0.9,0.2s-0.5-0.1-0.8-0.1 c-0.1,0-0.2,0-0.3,0c0-0.1-0.1-0.3,0-0.3s0.2,0,0.3,0c0.1,0,0.2,0.1,0.2,0c0-0.1,0-0.2,0.1-0.2s0.3,0,0.2-0.2 c-0.1-0.2-0.1-0.3-0.1-0.4s0.1-0.4,0.2-0.4c0,0,0.2-0.2,0.2-0.2s-0.3,0-0.5,0.1s-0.4,0.1-0.5,0.2c-0.2,0-0.3,0-0.4,0 c-0.1,0-0.2,0-0.2-0.1c-0.1,0-0.3-0.3-0.5-0.3c-0.1,0-0.1-0.1-0.4-0.1c-0.2,0-0.2-0.1-0.4-0.1c-0.3,0-0.2,0-0.4,0.1 C32,30,32,30.1,31.9,30.1c-0.1,0.1-0.1,0.2-0.3,0.3s-0.4,0-0.4,0.1s0.1,0.2,0.1,0.3c0.1,0.1,0.3,0.2,0.3,0.2s0.4-0.2,0.5-0.2 c0.1,0,0.4-0.2,0.4-0.1c0.1,0.1,0.1,0.1,0.1,0.2c-0.1,0.1-0.2,0.2-0.2,0.3c-0.1,0.1-0.1,0.1-0.1,0.3c0,0.1-0.1,0.1-0.1,0.3 c0,0,0,0,0,0c-0.3-0.1-0.3-0.1-0.5-0.1c-0.2,0-0.3-0.1-0.4-0.1s0.1,0-0.4-0.1c-0.5-0.1-0.6-0.2-0.8-0.2c-0.3,0-0.5,0-0.6,0.1 c-0.1,0.1-1.2,0.2-1.2,0.2s-0.1-0.2-0.5-0.2c-0.1,0-0.1,0-0.2,0C32.9,24.7,41,20.6,50,20.6c8.9,0,16.8,4,22.2,10.2 c-0.1,0.2-0.1,0.2-0.5,0c-0.6-0.4-1.2-0.8-1.4-0.5c-0.2,0.4-0.2,0.7-0.5,0.8s-0.2,0-0.8,0.2c-0.6,0.2-1,0.3-1.2,0.4 c-0.2,0.1-0.8,0.2-1.6,0.2s-0.2-0.5-1.2-0.4s-1.3,0.3-1.6,0.1s-0.7-0.5-0.9-0.5s-0.6,0.1-0.7,0.2c-0.2,0.2-0.3,0-1.1,0.2 c-0.8,0.2-0.8,0.2-1.1,0.5c-0.4,0.4-0.3,0.3-0.4,0.6c-0.2,0.4,0.2,0.4-0.4,0.7c-0.6,0.3-0.9,0.2-1,0.6s-0.3,0.6,0,0.8 s0.5,0.2,0.7,0.2c0.2,0,0.6-0.3,0.7-0.4c0.2-0.1,0.6-0.1,0.6,0.2s-0.2,0.5,0,0.8c0.2,0.3,0.4,0.4,0.5,0.2s0.2-0.4,0.3-0.5 c0.1-0.2,0.3-0.2,0.5-0.4c0.2-0.2,0.5-0.4,0.2-0.6c-0.3-0.2-0.6-0.4-0.6-0.4s0.4-0.5,0.5-0.6c0.2-0.1,0.7-0.4,0.9-0.4 c0.2,0,0.2,0,0.2,0s0.3,0.2,0,0.4c-0.3,0.2-0.4-0.4-0.3,0.2c0.1,0.5,0.3,0.6,0.4,0.9c0.1,0.3-0.2,0.4-0.4,0.7 c-0.2,0.3-0.1,0.3-0.2,0.6s-0.2,0.8-0.2,0.8s-0.2,0.3-0.6,0.3c-0.4,0-0.5-0.1-0.7-0.1s-0.4-0.2-0.6-0.2c-0.2,0-0.5-0.1-0.5-0.1 s0.1-0.5-0.1-0.6s-0.4-0.3-0.4-0.3s-0.1,0.4-0.1,0.5c0,0.2-0.1,0.4-0.1,0.4s-0.8,0.2-0.8,0.3s0,0.3-0.2,0.6 c-0.2,0.3,0.2-0.2-0.2,0.3c-0.5,0.4-1.3,0.7-1.3,0.7s-0.4-0.1-0.4,0.1s0.1,0.5,0.3,0.6s0.1-0.3,0.2,0.1c0.1,0.4,0,0.3,0.1,0.6 c0.1,0.3,0.1,0.3,0.1,0.3s0.2,0.1-0.5,0s-0.1-0.5-0.7-0.1s-0.3-0.2-0.6,0.4c-0.3,0.6,0,1,0,1l-0.1,0.3c0,0,0.2,0.2,0,0.3 c-0.2,0.2-0.2,0.2-0.2,0.2s0.3,0.4,0.5,0.4s-0.1-0.3,0.2,0c0.2,0.3,0.3,0.5,0.6,0.5s0.7,0,0.8-0.2c0.1-0.2,0.1-0.4,0.4-0.5 c0.3-0.1,0.6-0.5,0.6-0.5l0.2-0.6c0,0,0.4-0.5,0.5-0.4c0.1,0.2,0.2,0.2,0.5-0.2c0.4-0.4,0.5-0.6,0.6-0.7c0.2-0.1,0.2-0.1,0.2-0.1 s0,0,0.1,0l0,0c0,0.1,0.1,0.1,0.1,0.2c0.1,0.1,0.1,0.2,0.2,0.3s0.1,0.1,0.2,0.2c0.1,0.1,0.1,0.1,0.2,0.2s0.3,0.2,0.4,0.2 c0.1,0.1,0.3,0.2,0.4,0.3c0.1,0.1,0.3,0.6,0.3,0.7c0,0-0.1,0.1-0.2,0.2s-0.2-0.1-0.4,0s-0.3-0.1-0.3,0c-0.1,0.1,0,0.2,0.1,0.3 c0.1,0.1,0.1,0,0.2,0.1s0.1,0.1,0.2,0.1c0.1,0,0.2,0,0.2-0.2c0.1-0.1,0.1-0.3,0.1-0.3c0,0,0,0,0.1-0.1s0.1-0.1,0.2-0.1 s0.2-0.3,0.2-0.3c0,0-0.1-0.2-0.2-0.2c0,0-0.2-0.2,0-0.2c0.2,0,0.2,0,0.3,0.1s0.2-0.2,0-0.3c-0.2-0.1-0.3-0.1-0.4-0.2 c-0.1-0.1-0.2-0.1-0.3-0.2s-0.1-0.2-0.2-0.2c-0.2-0.1-0.3-0.1-0.4-0.1c-0.1-0.1-0.1-0.4-0.2-0.4c-0.1-0.1-0.1-0.1-0.2-0.2 c0,0,0-0.1-0.1-0.1c0,0,0.1,0,0.1,0c0.2,0,0.2-0.2,0.4,0.1s0.3,0.5,0.5,0.6c0.2,0.2,0.7,0.4,0.7,0.4s0.2,0.2,0.2,0.4 c0,0.2-0.2,0.3,0.1,0.5s-0.1-0.2,0.3,0.2c0.3,0.4,0.2,0.5,0.3,0.7c0.1,0.2,0.4,0.4,0.4,0.4l0.6-0.2c0,0-0.2-0.4-0.2-0.6 c0-0.2,0.2-0.4,0.2-0.4l0.5,0.3c0,0-0.1,0.1,0.1,0.3c0.1,0.2-0.2,0,0.1,0.2c0.3,0.2,0.8,0.2,0.8,0.2s0.2-0.1,0.5,0.1 c0.3,0.1-0.1,0.1,0.3,0.1c0.4,0.1,0.8,0.1,0.9,0.3c0.1,0.2,0.3,0.3,0.1,0.5s0.2-0.4-0.2,0.2c-0.4,0.6-0.3,0.7-0.4,0.8 c-0.2,0.2-0.4,0.4-0.4,0.4s-0.2,0.1-0.5,0.1c-0.3,0-0.5,0.1-0.7,0.1c-0.2,0-0.5,0.1-0.8,0c-0.3-0.1-0.6-0.3-0.6-0.3 s-0.3-0.1-0.6-0.1c-0.3,0.1-0.3,0.1-0.3,0.1s-0.4,0.2-0.8,0.1c-0.4-0.1-0.6-0.3-0.8-0.4s-0.5-0.1-0.6-0.3s-0.3-0.7-0.3-0.7 s-0.2-0.4-0.4-0.4c-0.2,0-0.5-0.3-0.8,0s-0.3,0.3-0.8,0.4c-0.5,0.1-0.9,0.2-0.9,0.2s-0.2,0-0.6,0c-0.4,0-0.1,0-0.4,0 s-0.5-0.3-0.8,0.1c-0.3,0.3-0.9,0.7-1,0.9c-0.1,0.2-0.4,0.4-0.4,0.7c-0.1,0.3,0,0.7,0,0.7s-0.7,0.5-0.8,0.6 c-0.2,0.2-0.3,0.2-0.5,0.5c-0.2,0.3-0.4,0.9-0.4,1.4c0,0.5,0.3,0.4,0,1c-0.3,0.6-0.4,0.8-0.4,1c0,0.2-0.4,0.1,0,0.6 c0.4,0.6,0.5,0.6,0.8,0.9c0.3,0.4,0.5,0.5,0.7,0.8s1,0.7,1,0.7s0.8-0.4,1.1-0.4c0.3,0.1,0.4,0,0.6,0.1c0.2,0.1,0.6,0.1,0.9,0.1 c0.3,0,0.2-0.2,0.6-0.2s0.7,0.1,1,0.3c0.3,0.2,1,0.7,0.9,1c-0.1,0.3-0.3,1-0.3,1.5c0.1,0.5,0.2,0.6,0.4,0.9 c0.2,0.3,0.4,0.5,0.6,0.8c0.2,0.3,0.4,1.3,0.6,1.4c0.4,0.2-0.5,0.8-0.5,1s-0.1,0.4,0,0.7c0.1,0.4,0.4,0.6,0.2,1s0.3,0.8,0.3,1 s0,0.4,0,0.8s0.1,0.9,0.3,1.2s0.3,2,0.9,2c0.6-0.1,1.1-0.3,1.5-0.4s0.8-0.4,1.1-0.7c0.4-0.4,0.7-0.5,0.8-0.7 c0.1-0.2,0.3-0.4,0.4-0.9c0.2-0.5,0.5-1.3,0.6-1.2c0.2,0.2,0.5-0.1,0.5-0.7c0-0.7-0.3-0.9,0-1c0.3-0.1,0.6-0.3,0.8-0.5 c0.3-0.2,0.7-0.7,0.7-0.8s0.1-0.6,0-1.2s0.1-1.1,0-1.3c-0.1-0.2,0.1-1.1,0-1.2c-0.1-0.2-0.1-0.4,0.3-0.7c0.4-0.3,0.6-0.7,0.9-1 c0.3-0.3,0.8-0.4,1-0.8s0.4-1.2,0.4-1.4c0-0.2,0.3-0.5-0.5-0.4c-0.8,0.1-0.9,0.3-1.3,0c-0.4-0.4-0.9-0.8-0.9-0.9 c-0.1-0.2-0.2-0.9-0.7-1.3c-0.5-0.4-0.7-0.6-1-1c-0.3-0.5-0.4-0.9-0.5-1.1s-0.4-0.8-0.3-1c0.1-0.2,0.6-0.5,0.6-0.5s0.6,0.6,0.9,1 s0.7,0.6,0.8,1.1s0.2,0.7,0.3,1.3s0.6,1.1,0.6,1.1s0.2,0.2,0.4,0.3c0.2,0.1,1-0.1,1.1-0.2c0.2-0.1,1.1-0.6,1.2-0.8 c0.1-0.2,0.4-0.5,0.6-0.5c0.2-0.1,0.8-0.4,0.8-0.4s0.4-0.6,0.3-0.7c-0.1-0.2-0.2-0.2-0.5-0.5s-0.4-0.6-0.5-0.7 c-0.2-0.1-2-0.6-2.1-0.8s-0.1-0.3-0.1-0.3s1.1,0.3,1.5,0.3s-0.1-0.3,0.4,0c0.4,0.3,0.8,0.3,1,0.3c0.2,0,0.1,0.1,0.4,0.3 c0.4,0.2,1.3,0.2,1.6,0.2s0.6-0.1,0.8,0.3s0.2,0.4,0.5,0.7c0.3,0.4,0.4,0.3,0.6,0.6c0.2,0.3,0.3,0.4,0.4,0.7 c0.1,0.3,0.4,1.3,0.5,1.5c0.1,0.2,0.2,0.5,0.3,1c0.2,0.5,0.4,0.8,0.6,0.9c0.2,0.1,0.5,0.2,0.8-0.1c0.1-0.1,0.2,0,0.3,0 C78.3,67.2,65.6,79.4,50,79.4z" fill="inherit"/></g></svg>