<svg width="180" height="53" viewBox="0 0 180 53" fill="none" xmlns="http://www.w3.org/2000/svg">
<path d="M173.333 52.8613H6.66667C3.00167 52.8613 0 49.9347 0 46.3613V7.36133C0 3.78796 3.00167 0.861331 6.66667 0.861331H173.333C176.998 0.861331 180 3.78796 180 7.36133V46.3613C180 49.9347 176.998 52.8613 173.333 52.8613Z" fill="black"/>
<path d="M173.333 1.90295C176.42 1.90295 178.932 4.35183 178.932 7.36133V46.3613C178.932 49.3708 176.42 51.8197 173.333 51.8197H6.66667C3.58 51.8197 1.06833 49.3708 1.06833 46.3613V7.36133C1.06833 4.35183 3.58 1.90295 6.66667 1.90295H173.333ZM173.333 0.861331H6.66667C3.00167 0.861331 0 3.78796 0 7.36133V46.3613C0 49.9347 3.00167 52.8613 6.66667 52.8613H173.333C176.998 52.8613 180 49.9347 180 46.3613V7.36133C180 3.78796 176.998 0.861331 173.333 0.861331Z" fill="#A6A6A6"/>
<path d="M13.9133 10.6618C13.5216 11.0615 13.2949 11.6839 13.2949 12.4899V41.2394C13.2949 42.0454 13.5216 42.6678 13.9133 43.0675L14.0099 43.1553L30.5332 27.0515V26.6713L14.0099 10.5675L13.9133 10.6618Z" fill="url(#paint0_linear_384_940)"/>
<path d="M36.0349 32.4219L30.5332 27.0513V26.671L36.0415 21.3004L36.1649 21.3703L42.6882 24.9891C44.5499 26.0161 44.5499 27.7061 42.6882 28.7396L36.1649 32.352L36.0349 32.4219Z" fill="url(#paint1_linear_384_940)"/>
<path d="M36.1647 32.352L30.5331 26.8612L13.9131 43.0673C14.5314 43.701 15.5398 43.7774 16.6864 43.1437L36.1647 32.352Z" fill="url(#paint2_linear_384_940)"/>
<path d="M36.1647 21.3705L16.6864 10.5788C15.5398 9.95158 14.5314 10.028 13.9131 10.6617L30.5331 26.8613L36.1647 21.3705Z" fill="url(#paint3_linear_384_940)"/>
<path d="M63.2234 14.1785C63.2234 15.264 62.8901 16.1334 62.2334 16.7818C61.4784 17.5504 60.4951 17.9371 59.2901 17.9371C58.1384 17.9371 57.155 17.5439 56.3484 16.7688C55.54 15.9823 55.1367 15.017 55.1367 13.8616C55.1367 12.7063 55.54 11.741 56.3484 10.961C57.155 10.1794 58.1384 9.78613 59.2901 9.78613C59.8634 9.78613 60.41 9.90151 60.9317 10.116C61.4517 10.3321 61.875 10.6246 62.1817 10.9854L61.4851 11.6711C60.95 11.0553 60.2217 10.7514 59.2901 10.7514C58.4501 10.7514 57.7217 11.0374 57.1034 11.6143C56.4917 12.1928 56.185 12.9419 56.185 13.8616C56.185 14.7814 56.4917 15.537 57.1034 16.1155C57.7217 16.6859 58.4501 16.9784 59.2901 16.9784C60.1817 16.9784 60.9317 16.6859 61.5234 16.109C61.9134 15.7271 62.1351 15.2006 62.1934 14.5279H59.2901V13.5886H63.1634C63.2101 13.7918 63.2234 13.9884 63.2234 14.1785Z" fill="white" stroke="white" stroke-width="0.16" stroke-miterlimit="10"/>
<path d="M69.3685 10.922H65.7302V13.392H69.0102V14.3312H65.7302V16.8012H69.3685V17.7583H64.7002V9.96484H69.3685V10.922Z" fill="white" stroke="white" stroke-width="0.16" stroke-miterlimit="10"/>
<path d="M73.705 17.7583H72.675V10.922H70.4434V9.96484H75.9384V10.922H73.705V17.7583Z" fill="white" stroke="white" stroke-width="0.16" stroke-miterlimit="10"/>
<path d="M79.915 17.7583V9.96484H80.9434V17.7583H79.915Z" fill="white" stroke="white" stroke-width="0.16" stroke-miterlimit="10"/>
<path d="M85.5019 17.7583H84.4802V10.922H82.2402V9.96484H87.7419V10.922H85.5019V17.7583Z" fill="white" stroke="white" stroke-width="0.16" stroke-miterlimit="10"/>
<path d="M98.1451 16.7558C97.3568 17.5439 96.3801 17.9371 95.2151 17.9371C94.0434 17.9371 93.0668 17.5439 92.2784 16.7558C91.4918 15.9693 91.1001 15.004 91.1001 13.8616C91.1001 12.7193 91.4918 11.754 92.2784 10.9675C93.0668 10.1794 94.0434 9.78613 95.2151 9.78613C96.3734 9.78613 97.3501 10.1794 98.1384 10.974C98.9318 11.767 99.3234 12.7258 99.3234 13.8616C99.3234 15.004 98.9318 15.9693 98.1451 16.7558ZM93.0401 16.1025C93.6334 16.6859 94.3551 16.9784 95.2151 16.9784C96.0684 16.9784 96.7968 16.6859 97.3834 16.1025C97.9751 15.5191 98.2751 14.77 98.2751 13.8616C98.2751 12.9533 97.9751 12.2041 97.3834 11.6208C96.7968 11.0374 96.0684 10.7449 95.2151 10.7449C94.3551 10.7449 93.6334 11.0374 93.0401 11.6208C92.4484 12.2041 92.1484 12.9533 92.1484 13.8616C92.1484 14.77 92.4484 15.5191 93.0401 16.1025Z" fill="white" stroke="white" stroke-width="0.16" stroke-miterlimit="10"/>
<path d="M100.769 17.7583V9.96484H102.019L105.905 16.0261H105.95L105.905 14.5278V9.96484H106.934V17.7583H105.86L101.79 11.3981H101.745L101.79 12.9028V17.7583H100.769Z" fill="white" stroke="white" stroke-width="0.16" stroke-miterlimit="10"/>
<path d="M90.8469 29.1396C87.7152 29.1396 85.1569 31.4634 85.1569 34.6695C85.1569 37.8496 87.7152 40.1977 90.8469 40.1977C93.9852 40.1977 96.5435 37.8496 96.5435 34.6695C96.5435 31.4634 93.9852 29.1396 90.8469 29.1396ZM90.8469 38.0202C89.1285 38.0202 87.6502 36.6374 87.6502 34.6695C87.6502 32.6756 89.1285 31.3171 90.8469 31.3171C92.5652 31.3171 94.0502 32.6756 94.0502 34.6695C94.0502 36.6374 92.5652 38.0202 90.8469 38.0202ZM78.4319 29.1396C75.2935 29.1396 72.7419 31.4634 72.7419 34.6695C72.7419 37.8496 75.2935 40.1977 78.4319 40.1977C81.5685 40.1977 84.1219 37.8496 84.1219 34.6695C84.1219 31.4634 81.5685 29.1396 78.4319 29.1396ZM78.4319 38.0202C76.7119 38.0202 75.2285 36.6374 75.2285 34.6695C75.2285 32.6756 76.7119 31.3171 78.4319 31.3171C80.1502 31.3171 81.6285 32.6756 81.6285 34.6695C81.6285 36.6374 80.1502 38.0202 78.4319 38.0202ZM63.6585 30.8345V33.1842H69.4135C69.2452 34.4972 68.7952 35.4625 68.1052 36.1352C67.2652 36.9477 65.9569 37.8496 63.6585 37.8496C60.1169 37.8496 57.3435 35.0627 57.3435 31.6096C57.3435 28.1565 60.1169 25.3696 63.6585 25.3696C65.5735 25.3696 66.9669 26.0992 67.9952 27.045L69.6935 25.3891C68.2552 24.0501 66.3419 23.0215 63.6585 23.0215C58.8019 23.0215 54.7202 26.8744 54.7202 31.6096C54.7202 36.3449 58.8019 40.1977 63.6585 40.1977C66.2835 40.1977 68.2552 39.3592 69.8052 37.7862C71.3935 36.2376 71.8885 34.0601 71.8885 32.3019C71.8885 31.7559 71.8419 31.2537 71.7585 30.8345H63.6585ZM124.069 32.6561C123.6 31.4195 122.155 29.1396 119.212 29.1396C116.295 29.1396 113.867 31.3805 113.867 34.6695C113.867 37.7667 116.27 40.1977 119.492 40.1977C122.097 40.1977 123.6 38.6491 124.219 37.7472L122.285 36.4911C121.64 37.4109 120.762 38.0202 119.492 38.0202C118.23 38.0202 117.325 37.4564 116.745 36.3449L124.33 33.285L124.069 32.6561ZM116.335 34.4972C116.27 32.3652 118.034 31.2732 119.297 31.2732C120.287 31.2732 121.127 31.7559 121.407 32.4465L116.335 34.4972ZM110.17 39.8614H112.664V23.6114H110.17V39.8614ZM106.087 30.3714H106.004C105.444 29.7246 104.375 29.1396 103.022 29.1396C100.182 29.1396 97.5852 31.5706 97.5852 34.6874C97.5852 37.7862 100.182 40.1977 103.022 40.1977C104.375 40.1977 105.444 39.6079 106.004 38.9416H106.087V39.7346C106.087 41.8487 104.929 42.9846 103.06 42.9846C101.537 42.9846 100.592 41.9121 100.202 41.0102L98.0335 41.8926C98.6585 43.3584 100.314 45.1621 103.06 45.1621C105.984 45.1621 108.45 43.4851 108.45 39.4047V29.476H106.087V30.3714ZM103.235 38.0202C101.517 38.0202 100.079 36.6179 100.079 34.6874C100.079 32.739 101.517 31.3171 103.235 31.3171C104.929 31.3171 106.264 32.739 106.264 34.6874C106.264 36.6179 104.929 38.0202 103.235 38.0202ZM135.742 23.6114H129.779V39.8614H132.265V33.7042H135.742C138.504 33.7042 141.212 31.7559 141.212 28.657C141.212 25.5597 138.497 23.6114 135.742 23.6114ZM135.807 31.4439H132.265V25.8717H135.807C137.664 25.8717 138.724 27.3749 138.724 28.657C138.724 29.9147 137.664 31.4439 135.807 31.4439ZM151.179 29.1087C149.382 29.1087 147.514 29.8822 146.745 31.5966L148.952 32.4985C149.427 31.5966 150.3 31.3041 151.224 31.3041C152.514 31.3041 153.822 32.0597 153.842 33.3939V33.5645C153.392 33.311 152.429 32.9356 151.244 32.9356C148.867 32.9356 146.445 34.2112 146.445 36.5919C146.445 38.7694 148.392 40.1717 150.58 40.1717C152.254 40.1717 153.177 39.4356 153.757 38.5792H153.842V39.8354H156.244V33.6019C156.244 30.7207 154.037 29.1087 151.179 29.1087ZM150.879 38.0137C150.065 38.0137 148.932 37.6205 148.932 36.6374C148.932 35.3796 150.345 34.897 151.569 34.897C152.664 34.897 153.177 35.1326 153.842 35.443C153.647 36.9477 152.319 38.0137 150.879 38.0137ZM164.994 29.4646L162.135 36.509H162.05L159.095 29.4646H156.414L160.854 39.3089L158.32 44.7867H160.919L167.76 29.4646H164.994ZM142.579 39.8614H145.072V23.6114H142.579V39.8614Z" fill="white"/>
<defs>
<linearGradient id="paint0_linear_384_940" x1="29.0662" y1="41.5388" x2="7.25605" y2="19.1694" gradientUnits="userSpaceOnUse">
<stop stop-color="#00A0FF"/>
<stop offset="0.0066" stop-color="#00A1FF"/>
<stop offset="0.2601" stop-color="#00BEFF"/>
<stop offset="0.5122" stop-color="#00D2FF"/>
<stop offset="0.7604" stop-color="#00DFFF"/>
<stop offset="1" stop-color="#00E3FF"/>
</linearGradient>
<linearGradient id="paint1_linear_384_940" x1="45.1124" y1="26.8593" x2="12.8499" y2="26.8593" gradientUnits="userSpaceOnUse">
<stop stop-color="#FFE000"/>
<stop offset="0.4087" stop-color="#FFBD00"/>
<stop offset="0.7754" stop-color="#FFA500"/>
<stop offset="1" stop-color="#FF9C00"/>
</linearGradient>
<linearGradient id="paint2_linear_384_940" x1="33.1024" y1="23.8762" x2="3.52611" y2="-6.45843" gradientUnits="userSpaceOnUse">
<stop stop-color="#FF3A44"/>
<stop offset="1" stop-color="#C31162"/>
</linearGradient>
<linearGradient id="paint3_linear_384_940" x1="9.72949" y1="52.6323" x2="22.9366" y2="39.0866" gradientUnits="userSpaceOnUse">
<stop stop-color="#32A071"/>
<stop offset="0.0685" stop-color="#2DA771"/>
<stop offset="0.4762" stop-color="#15CF74"/>
<stop offset="0.8009" stop-color="#06E775"/>
<stop offset="1" stop-color="#00F076"/>
</linearGradient>
</defs>
</svg>
