<svg width="204" height="36" viewBox="0 0 204 36" fill="none" xmlns="http://www.w3.org/2000/svg">
<path fill-rule="evenodd" clip-rule="evenodd" d="M0.337518 26.8988H0.21069C-0.022356 25.0544 0.0165419 23.1518 0.0550573 21.268C0.069488 20.5621 0.0838649 19.8589 0.0838649 19.1624C0.0838649 18.4414 0.0631023 17.7095 0.0422387 16.9739C-0.00204114 15.4129 -0.0467763 13.8359 0.105552 12.3137C0.504199 8.32892 4.04243 6.40392 7.26049 4.6531C7.75474 4.3842 8.24144 4.11941 8.70804 3.8519C9.30761 3.50817 9.91359 3.11962 10.5292 2.7249C12.4213 1.51167 14.4043 0.240187 16.5713 0.0331359C19.1226 -0.210651 21.0402 0.929778 23.1289 2.17193C23.2255 2.22937 23.3224 2.28702 23.4198 2.34477C25.4345 3.53927 27.466 4.71698 29.5075 5.86323C31.4701 6.96522 33.1283 8.04768 34.1201 10.1577C35.0525 12.1411 34.9145 14.7668 34.7889 17.1588C34.7475 17.947 34.7074 18.7099 34.7074 19.416C34.7074 20.0436 34.7302 20.6921 34.7534 21.3501C34.8619 24.4308 34.9777 27.7217 32.7932 30.0688C31.887 31.0426 30.6546 31.7182 29.4645 32.3706C29.1348 32.5513 28.8083 32.7303 28.4929 32.9133C28.0095 33.1939 27.5254 33.4923 27.0384 33.7926C25.8609 34.5184 24.6661 35.2549 23.4198 35.7765C24.7398 28.9697 24.8831 21.361 23.2137 14.5966C22.6627 12.3638 21.4132 7.97501 18.22 8.70287C15.876 9.23719 14.7772 11.8677 14.2589 13.9624C13.7501 16.0193 13.3758 18.1083 13.0016 20.1961C12.5985 22.4455 12.1956 24.6936 11.6251 26.8988H11.4983C11.3885 26.367 11.282 25.8193 11.1737 25.2621C10.6039 22.3301 9.98303 19.1354 8.55915 16.6258C7.71106 15.131 5.87437 13.9597 4.26926 15.0966C3.06809 15.9473 2.52515 17.4318 2.10991 18.7818C1.72221 20.0426 1.50314 21.3492 1.28427 22.6547C1.04333 24.0917 0.802641 25.5274 0.337518 26.8988ZM17.0362 20.6089C17.5517 17.9001 18.066 15.197 18.6845 12.4991C19.3549 13.4399 19.4455 14.9942 19.5221 16.3075C19.5431 16.6686 19.5631 17.0116 19.5938 17.3185C20.0224 21.6061 19.9214 25.8477 19.4392 30.1279C19.2909 31.4431 18.9213 32.7305 18.5569 33.9999L18.5398 34.0596C18.5218 34.1224 18.5038 34.1902 18.485 34.2611C18.3628 34.7226 18.2061 35.3143 17.7696 35.505C16.5 36.0596 14.4131 35.0124 13.3579 34.3896C12.0719 33.6309 10.7748 32.8907 9.47773 32.1505C7.5892 31.0728 5.70056 29.995 3.84588 28.8596L5.8751 20.1087H6.00193C6.47042 23.2925 7.27183 27.6371 9.00719 30.3816C10.3164 32.4523 12.369 33.0762 14.077 31.0156C15.3217 29.5142 15.7376 27.3401 16.1065 25.4112C16.1544 25.1608 16.2015 24.9146 16.2495 24.6745C16.5208 23.3178 16.7786 21.9626 17.0362 20.6089Z" fill="white"/>
<path d="M53.0759 11.6948H56.6059C56.9398 11.6948 57.1068 11.8618 57.1068 12.1957V26.5301C57.1068 26.864 56.9398 27.031 56.6059 27.031H54.6501C54.3162 27.031 54.1492 26.864 54.1492 26.5301V15.2248H54.0538L51.621 23.2148C51.5256 23.5328 51.3269 23.6918 51.0248 23.6918H49.0213C48.7192 23.6918 48.5204 23.5328 48.425 23.2148L45.9445 15.2009H45.8491V26.5301C45.8491 26.7209 45.8173 26.8561 45.7537 26.9356C45.6901 26.9992 45.555 27.031 45.3482 27.031H43.3925C43.0586 27.031 42.8916 26.864 42.8916 26.5301V12.1957C42.8916 11.8618 43.0586 11.6948 43.3925 11.6948H46.9463C47.1689 11.6948 47.3199 11.8061 47.3994 12.0287L49.9276 20.4481H50.0707L52.6228 12.0287C52.6705 11.8061 52.8215 11.6948 53.0759 11.6948Z" fill="white"/>
<path d="M65.3254 24.4074H67.0189C67.5277 24.4074 67.8854 24.304 68.0921 24.0973C68.3148 23.8747 68.4261 23.509 68.4261 23.0002V15.7256C68.4261 15.2168 68.3148 14.859 68.0921 14.6523C67.8854 14.4297 67.5277 14.3184 67.0189 14.3184H65.3254C64.8166 14.3184 64.4589 14.4297 64.2522 14.6523C64.0454 14.859 63.9421 15.2168 63.9421 15.7256V23.0002C63.9421 23.509 64.0454 23.8747 64.2522 24.0973C64.4589 24.304 64.8166 24.4074 65.3254 24.4074ZM67.5197 27.031H64.8484C63.5923 27.031 62.6223 26.6971 61.9386 26.0292C61.2549 25.3614 60.913 24.3994 60.913 23.1433V15.5825C60.913 14.3264 61.2549 13.3644 61.9386 12.6966C62.6223 12.0287 63.5923 11.6948 64.8484 11.6948H67.5197C68.7759 11.6948 69.7458 12.0287 70.4295 12.6966C71.1133 13.3644 71.4551 14.3264 71.4551 15.5825V23.1433C71.4551 24.3994 71.1133 25.3614 70.4295 26.0292C69.7458 26.6971 68.7759 27.031 67.5197 27.031Z" fill="white"/>
<path d="M81.5621 27.031H78.9624C77.7062 27.031 76.7363 26.6971 76.0526 26.0292C75.3689 25.3614 75.027 24.3994 75.027 23.1433V15.5825C75.027 14.3264 75.3689 13.3644 76.0526 12.6966C76.7363 12.0287 77.7062 11.6948 78.9624 11.6948H81.5621C82.8024 11.6948 83.7644 12.0367 84.4481 12.7204C85.1477 13.3882 85.4975 14.3423 85.4975 15.5825V16.7035C85.4975 17.0533 85.3226 17.2282 84.9728 17.2282H82.9693C82.6354 17.2282 82.4685 17.0533 82.4685 16.7035V15.7256C82.4685 15.2168 82.3572 14.859 82.1346 14.6523C81.9279 14.4297 81.5701 14.3184 81.0613 14.3184H79.4394C78.9465 14.3184 78.5887 14.4297 78.3661 14.6523C78.1594 14.859 78.0561 15.2168 78.0561 15.7256V23.0002C78.0561 23.509 78.1594 23.8747 78.3661 24.0973C78.5887 24.304 78.9465 24.4074 79.4394 24.4074H81.0613C81.5701 24.4074 81.9279 24.304 82.1346 24.0973C82.3572 23.8747 82.4685 23.509 82.4685 23.0002V22.0223C82.4685 21.6725 82.6354 21.4976 82.9693 21.4976H84.9728C85.3226 21.4976 85.4975 21.6725 85.4975 22.0223V23.1433C85.4975 24.3835 85.1477 25.3455 84.4481 26.0292C83.7644 26.6971 82.8024 27.031 81.5621 27.031Z" fill="white"/>
<path d="M91.5816 27.031H89.5543C89.2203 27.031 89.0534 26.864 89.0534 26.5301V12.1957C89.0534 11.8618 89.2203 11.6948 89.5543 11.6948H91.5816C91.9155 11.6948 92.0824 11.8618 92.0824 12.1957V18.9932H92.1301C92.2574 18.6116 92.5038 18.1187 92.8695 17.5144L96.4949 12.1957C96.7016 11.8618 97.0116 11.6948 97.4251 11.6948H99.7624C99.9374 11.6948 100.041 11.7505 100.073 11.8618C100.12 11.9572 100.08 12.0844 99.9533 12.2434L95.4216 18.5162L100.478 26.4347C100.589 26.6255 100.605 26.7766 100.526 26.8879C100.462 26.9833 100.319 27.031 100.096 27.031H98.3552C97.7987 27.031 97.4251 26.864 97.2342 26.5301L93.5851 20.6866L92.0824 22.4516V26.5301C92.0824 26.864 91.9155 27.031 91.5816 27.031Z" fill="white"/>
<path d="M109.604 27.031H107.004C105.748 27.031 104.778 26.6971 104.094 26.0292C103.41 25.3614 103.069 24.3994 103.069 23.1433V15.5825C103.069 14.3264 103.41 13.3644 104.094 12.6966C104.778 12.0287 105.748 11.6948 107.004 11.6948H109.604C110.844 11.6948 111.806 12.0367 112.49 12.7204C113.189 13.3882 113.539 14.3423 113.539 15.5825V16.7035C113.539 17.0533 113.364 17.2282 113.014 17.2282H111.011C110.677 17.2282 110.51 17.0533 110.51 16.7035V15.7256C110.51 15.2168 110.399 14.859 110.176 14.6523C109.969 14.4297 109.612 14.3184 109.103 14.3184H107.481C106.988 14.3184 106.63 14.4297 106.408 14.6523C106.201 14.859 106.098 15.2168 106.098 15.7256V23.0002C106.098 23.509 106.201 23.8747 106.408 24.0973C106.63 24.304 106.988 24.4074 107.481 24.4074H109.103C109.612 24.4074 109.969 24.304 110.176 24.0973C110.399 23.8747 110.51 23.509 110.51 23.0002V22.0223C110.51 21.6725 110.677 21.4976 111.011 21.4976H113.014C113.364 21.4976 113.539 21.6725 113.539 22.0223V23.1433C113.539 24.3835 113.189 25.3455 112.49 26.0292C111.806 26.6971 110.844 27.031 109.604 27.031Z" fill="white"/>
<path d="M125.395 27.031H117.596C117.262 27.031 117.095 26.864 117.095 26.5301V12.1957C117.095 11.8618 117.262 11.6948 117.596 11.6948H125.395C125.713 11.6948 125.872 11.8618 125.872 12.1957V13.8176C125.872 14.1515 125.713 14.3184 125.395 14.3184H120.41C120.219 14.3184 120.124 14.4059 120.124 14.5808V17.6814C120.124 17.8563 120.219 17.9438 120.41 17.9438H124.489C124.823 17.9438 124.99 18.1107 124.99 18.4446V20.0665C124.99 20.4004 124.823 20.5674 124.489 20.5674H120.41C120.219 20.5674 120.124 20.6548 120.124 20.8297V24.145C120.124 24.3199 120.219 24.4074 120.41 24.4074H125.395C125.713 24.4074 125.872 24.5743 125.872 24.9082V26.5301C125.872 26.864 125.713 27.031 125.395 27.031Z" fill="white"/>
<path d="M131.99 27.031H129.963C129.629 27.031 129.462 26.864 129.462 26.5301V12.1957C129.462 11.8618 129.629 11.6948 129.963 11.6948H135.639C136.88 11.6948 137.85 12.0367 138.549 12.7204C139.249 13.4041 139.599 14.3661 139.599 15.6064V17.4667C139.599 19.2635 138.891 20.4561 137.476 21.0444V21.1398L140.028 26.4585C140.171 26.8402 140.036 27.031 139.623 27.031H137.691C137.404 27.031 137.198 26.9992 137.071 26.9356C136.943 26.872 136.84 26.7368 136.76 26.5301L134.375 21.3783H132.777C132.587 21.3783 132.491 21.4658 132.491 21.6407V26.5301C132.491 26.864 132.324 27.031 131.99 27.031ZM132.753 18.9455H135.091C135.6 18.9455 135.973 18.8421 136.212 18.6354C136.45 18.4128 136.57 18.063 136.57 17.586V15.7256C136.57 15.2327 136.45 14.8749 136.212 14.6523C135.973 14.4297 135.6 14.3184 135.091 14.3184H132.753C132.579 14.3184 132.491 14.4059 132.491 14.5808V18.6831C132.491 18.8581 132.579 18.9455 132.753 18.9455Z" fill="white"/>
<path d="M148.206 27.031H146.202C145.853 27.031 145.678 26.864 145.678 26.5301V14.5808C145.678 14.4059 145.59 14.3184 145.415 14.3184H142.696C142.362 14.3184 142.195 14.1515 142.195 13.8176V12.1957C142.195 11.8618 142.362 11.6948 142.696 11.6948H151.712C152.046 11.6948 152.213 11.8618 152.213 12.1957V13.8176C152.213 14.1515 152.046 14.3184 151.712 14.3184H148.993C148.802 14.3184 148.707 14.4059 148.707 14.5808V26.5301C148.707 26.864 148.54 27.031 148.206 27.031Z" fill="white"/>
<path d="M158.136 12.1957V26.5301C158.136 26.864 157.97 27.031 157.636 27.031H155.608C155.274 27.031 155.107 26.864 155.107 26.5301V12.1957C155.107 11.8618 155.274 11.6948 155.608 11.6948H157.636C157.97 11.6948 158.136 11.8618 158.136 12.1957Z" fill="white"/>
<path d="M164.829 27.031H162.802C162.468 27.031 162.301 26.864 162.301 26.5301V12.1957C162.301 11.8618 162.468 11.6948 162.802 11.6948H170.41C170.728 11.6948 170.887 11.8618 170.887 12.1957V13.8176C170.887 14.1515 170.728 14.3184 170.41 14.3184H165.616C165.425 14.3184 165.33 14.4059 165.33 14.5808V18.2777C165.33 18.4685 165.425 18.5639 165.616 18.5639H169.695C170.029 18.5639 170.196 18.7308 170.196 19.0648V20.6628C170.196 21.0126 170.029 21.1875 169.695 21.1875H165.616C165.425 21.1875 165.33 21.2749 165.33 21.4499V26.5301C165.33 26.864 165.163 27.031 164.829 27.031Z" fill="white"/>
<path d="M177.141 12.1957V26.5301C177.141 26.864 176.974 27.031 176.64 27.031H174.613C174.279 27.031 174.112 26.864 174.112 26.5301V12.1957C174.112 11.8618 174.279 11.6948 174.613 11.6948H176.64C176.974 11.6948 177.141 11.8618 177.141 12.1957Z" fill="white"/>
<path d="M189.605 27.031H181.806C181.472 27.031 181.305 26.864 181.305 26.5301V12.1957C181.305 11.8618 181.472 11.6948 181.806 11.6948H189.605C189.923 11.6948 190.082 11.8618 190.082 12.1957V13.8176C190.082 14.1515 189.923 14.3184 189.605 14.3184H184.62C184.43 14.3184 184.334 14.4059 184.334 14.5808V17.6814C184.334 17.8563 184.43 17.9438 184.62 17.9438H188.699C189.033 17.9438 189.2 18.1107 189.2 18.4446V20.0665C189.2 20.4004 189.033 20.5674 188.699 20.5674H184.62C184.43 20.5674 184.334 20.6548 184.334 20.8297V24.145C184.334 24.3199 184.43 24.4074 184.62 24.4074H189.605C189.923 24.4074 190.082 24.5743 190.082 24.9082V26.5301C190.082 26.864 189.923 27.031 189.605 27.031Z" fill="white"/>
<path d="M196.964 24.4074H199.563C200.072 24.4074 200.43 24.304 200.637 24.0973C200.859 23.8747 200.971 23.509 200.971 23.0002V15.7256C200.971 15.2168 200.859 14.859 200.637 14.6523C200.43 14.4297 200.072 14.3184 199.563 14.3184H196.964C196.789 14.3184 196.701 14.4059 196.701 14.5808V24.145C196.701 24.3199 196.789 24.4074 196.964 24.4074ZM193.672 26.5301V12.1957C193.672 11.8618 193.839 11.6948 194.173 11.6948H200.064C201.305 11.6948 202.267 12.0367 202.95 12.7204C203.65 13.3882 204 14.3423 204 15.5825V23.1433C204 24.3835 203.65 25.3455 202.95 26.0292C202.267 26.6971 201.305 27.031 200.064 27.031H194.173C193.839 27.031 193.672 26.864 193.672 26.5301Z" fill="white"/>
</svg>
