<svg width="330" height="330" viewBox="0 0 330 330" fill="none" xmlns="http://www.w3.org/2000/svg">
<path d="M265.122 286.612C275.682 279.161 284.33 269.319 290.36 257.888C328.086 187.209 319.565 82.9884 246.913 38.2866C213.332 17.6286 165 4.55397 128.7 25.773C99.264 42.9792 81.2196 75.3786 66.2904 104.854C56.9118 123.42 49.1832 143.345 37.62 160.69C22.6248 183.183 6.11821 213.226 22.7832 239.362C45.4938 274.963 88.3872 291.218 127.281 301.924C169.481 313.533 216.935 315.183 255.915 292.532C259.07 290.697 262.139 288.724 265.122 286.612Z" fill="#BECBFA"/>
<path opacity="0.7" d="M265.122 286.612C275.682 279.161 284.33 269.319 290.36 257.888C328.086 187.209 319.565 82.9884 246.913 38.2866C213.332 17.6286 165 4.55397 128.7 25.773C99.264 42.9792 81.2196 75.3786 66.2904 104.854C56.9118 123.42 49.1832 143.345 37.62 160.69C22.6248 183.183 6.11821 213.226 22.7832 239.362C45.4938 274.963 88.3872 291.218 127.281 301.924C169.481 313.533 216.935 315.183 255.915 292.532C259.07 290.697 262.139 288.724 265.122 286.612Z" fill="white"/>
<g opacity="0.3">
<path d="M298.32 53.1102H230.34V142.388H298.32V53.1102Z" stroke="black" stroke-width="0.66" stroke-miterlimit="10"/>
<path d="M285.846 69.4914H242.814V126.007H285.846V69.4914Z" stroke="black" stroke-width="0.66" stroke-miterlimit="10"/>
</g>
<path d="M214.414 43.1046H34.4322V203.313H214.414V43.1046Z" fill="#263238" stroke="#263238" stroke-width="0.66" stroke-miterlimit="10"/>
<path d="M211.002 39.204H31.02V199.412H211.002V39.204Z" fill="white" stroke="#263238" stroke-width="0.66" stroke-linecap="round" stroke-linejoin="round"/>
<path d="M175.956 103.858H184.906V94.908H175.956V103.858Z" fill="white" stroke="#263238" stroke-width="0.66" stroke-linecap="round" stroke-linejoin="round"/>
<path d="M187.671 103.858H196.621V94.908H187.671V103.858Z" fill="white" stroke="#263238" stroke-width="0.66" stroke-linecap="round" stroke-linejoin="round"/>
<path d="M172.379 99.924H126.911" stroke="#263238" stroke-width="0.66" stroke-linecap="round" stroke-linejoin="round"/>
<path d="M175.956 124.984H184.906V116.035H175.956V124.984Z" fill="white" stroke="#263238" stroke-width="0.66" stroke-linecap="round" stroke-linejoin="round"/>
<path d="M187.671 124.984H196.621V116.035H187.671V124.984Z" fill="white" stroke="#263238" stroke-width="0.66" stroke-linecap="round" stroke-linejoin="round"/>
<path d="M172.379 121.044H126.911" stroke="#263238" stroke-width="0.66" stroke-linecap="round" stroke-linejoin="round"/>
<path d="M175.956 146.111H184.906V137.161H175.956V146.111Z" fill="white" stroke="#263238" stroke-width="0.66" stroke-linecap="round" stroke-linejoin="round"/>
<path d="M187.671 146.111H196.621V137.161H187.671V146.111Z" fill="white" stroke="#263238" stroke-width="0.66" stroke-linecap="round" stroke-linejoin="round"/>
<path d="M172.379 142.171H126.911" stroke="#263238" stroke-width="0.66" stroke-linecap="round" stroke-linejoin="round"/>
<path d="M90.3936 103.858H99.3432V94.908H90.3936V103.858Z" fill="white" stroke="#263238" stroke-width="0.66" stroke-linecap="round" stroke-linejoin="round"/>
<path d="M102.115 103.858H111.065V94.908H102.115V103.858Z" fill="white" stroke="#263238" stroke-width="0.66" stroke-linecap="round" stroke-linejoin="round"/>
<path d="M86.8164 99.924H41.349" stroke="#263238" stroke-width="0.66" stroke-linecap="round" stroke-linejoin="round"/>
<path d="M90.3936 124.984H99.3432V116.035H90.3936V124.984Z" fill="white" stroke="#263238" stroke-width="0.66" stroke-linecap="round" stroke-linejoin="round"/>
<path d="M102.115 124.984H111.065V116.035H102.115V124.984Z" fill="white" stroke="#263238" stroke-width="0.66" stroke-linecap="round" stroke-linejoin="round"/>
<path d="M86.8164 121.044H41.349" stroke="#263238" stroke-width="0.66" stroke-linecap="round" stroke-linejoin="round"/>
<path d="M90.3936 146.111H99.3432V137.161H90.3936V146.111Z" fill="white" stroke="#263238" stroke-width="0.66" stroke-linecap="round" stroke-linejoin="round"/>
<path d="M102.115 146.111H111.065V137.161H102.115V146.111Z" fill="white" stroke="#263238" stroke-width="0.66" stroke-linecap="round" stroke-linejoin="round"/>
<path d="M86.8164 142.171H41.349" stroke="#263238" stroke-width="0.66" stroke-linecap="round" stroke-linejoin="round"/>
<path d="M54.0342 176.88H44.1738V186.74H54.0342V176.88Z" fill="white" stroke="#263238" stroke-width="0.66" stroke-linecap="round" stroke-linejoin="round"/>
<path d="M94.2744 176.88H84.414V186.74H94.2744V176.88Z" fill="white" stroke="#263238" stroke-width="0.66" stroke-linecap="round" stroke-linejoin="round"/>
<path d="M136.112 176.88H126.251V186.74H136.112V176.88Z" fill="white" stroke="#263238" stroke-width="0.66" stroke-linecap="round" stroke-linejoin="round"/>
<path d="M105.052 97.9044L106.577 100.967L113.962 93.8322" stroke="#263238" stroke-width="1.32" stroke-linecap="round" stroke-linejoin="round"/>
<path d="M105.052 118.793L106.577 121.849L113.962 114.715" stroke="#263238" stroke-width="1.32" stroke-linecap="round" stroke-linejoin="round"/>
<path d="M92.3142 140.699L93.8454 143.755L101.231 136.62" stroke="#263238" stroke-width="1.32" stroke-linecap="round" stroke-linejoin="round"/>
<path d="M190.12 97.6536L191.644 100.709L199.03 93.5748" stroke="#263238" stroke-width="1.32" stroke-linecap="round" stroke-linejoin="round"/>
<path d="M177.791 119.044L179.315 122.1L186.701 114.972" stroke="#263238" stroke-width="1.32" stroke-linecap="round" stroke-linejoin="round"/>
<path d="M177.791 140.507L179.315 143.563L186.701 136.435" stroke="#263238" stroke-width="1.32" stroke-linecap="round" stroke-linejoin="round"/>
<path d="M211.002 39.204H31.02V64.2312H211.002V39.204Z" fill="#BECBFA" stroke="#263238" stroke-width="0.66" stroke-linecap="round" stroke-linejoin="round"/>
<path d="M211.002 39.204H204.224V199.412H211.002V39.204Z" fill="#DBDBDB" stroke="#263238" stroke-width="0.66" stroke-linecap="round" stroke-linejoin="round"/>
<path d="M211.002 63.2807H204.224V94.2017H211.002V63.2807Z" fill="#949494" stroke="#263238" stroke-width="0.66" stroke-linecap="round" stroke-linejoin="round"/>
<path d="M211.002 39.204H31.02V51.3744H211.002V39.204Z" fill="#DBDBDB" stroke="#263238" stroke-width="0.66" stroke-linecap="round" stroke-linejoin="round"/>
<path d="M111.124 42.7482H40.1478V47.817H111.124V42.7482Z" fill="white" stroke="#263238" stroke-width="0.66" stroke-linecap="round" stroke-linejoin="round"/>
<path d="M200.376 42.9858H206.606" stroke="#263238" stroke-width="0.66" stroke-linecap="round" stroke-linejoin="round"/>
<path d="M200.376 45.6192H206.606" stroke="#263238" stroke-width="0.66" stroke-linecap="round" stroke-linejoin="round"/>
<path d="M200.376 48.2592H206.606" stroke="#263238" stroke-width="0.66" stroke-linecap="round" stroke-linejoin="round"/>
<path d="M85.8916 74.3556C85.8916 72.7914 86.7166 71.9004 88.2214 71.9004C89.7262 71.9004 90.5446 72.7914 90.5446 74.3556V79.4244C90.5446 80.982 89.7262 81.873 88.2214 81.873C86.7166 81.873 85.8916 80.982 85.8916 79.4244V74.3556ZM87.4294 79.5234C87.4294 80.2164 87.733 80.4804 88.2214 80.4804C88.7098 80.4804 89.0134 80.2164 89.0134 79.5234V74.2434C89.0134 73.5438 88.7098 73.2798 88.2214 73.2798C87.733 73.2798 87.4294 73.5438 87.4294 74.2434V79.5234Z" fill="#263238"/>
<path d="M93.924 74.7054V81.7608H92.5446V72.0126H94.4652L96.0426 77.847V72.0126H97.4088V81.7608H95.8314L93.924 74.7054Z" fill="#263238"/>
<path d="M99.4088 72.0126H100.947V80.3682H103.488V81.7608H99.4286L99.4088 72.0126Z" fill="#263238"/>
<path d="M105.488 72.0126H107.019V81.7608H105.488V72.0126Z" fill="#263238"/>
<path d="M110.378 74.7054V81.7608H109.019V72.0126H110.939L112.517 77.847V72.0126H113.876V81.7608H112.319L110.378 74.7054Z" fill="#263238"/>
<path d="M117.408 76.1244H119.513V77.517H117.408V80.3682H120.048V81.7608H115.876V72.0126H120.054V73.4052H117.414L117.408 76.1244Z" fill="#263238"/>
<path d="M129.644 72.0126H134.376V73.4052H132.773V81.7608H131.241V73.4052H129.644V72.0126Z" fill="#263238"/>
<path d="M137.914 76.1244H140.013V77.517H137.914V80.3682H140.554V81.7608H136.376V72.0126H140.554V73.4052H137.914V76.1244Z" fill="#263238"/>
<path d="M144.825 71.9004C146.316 71.9004 147.082 72.7914 147.082 74.3556V74.6592H145.636V74.2566C145.636 73.557 145.359 73.293 144.871 73.293C144.382 73.293 144.105 73.557 144.105 74.2566C144.105 76.2366 147.095 76.6392 147.095 79.4244C147.095 80.982 146.316 81.873 144.811 81.873C143.307 81.873 142.554 80.982 142.554 79.4244V78.8238H144.006V79.5234C144.006 80.2164 144.31 80.4672 144.798 80.4672C145.287 80.4672 145.59 80.2164 145.59 79.5234C145.59 77.5434 142.6 77.1408 142.6 74.3556C142.554 72.7914 143.34 71.9004 144.825 71.9004Z" fill="#263238"/>
<path d="M149.095 72.0126H153.827V73.4052H152.23V81.7608H150.719V73.4052H149.115L149.095 72.0126Z" fill="#263238"/>
<path d="M51.8496 174.504H50.2986L50.0346 172.735H48.18L47.916 174.504H46.4838L48.0414 164.756H50.2854L51.8496 174.504ZM48.3516 171.409H49.83L49.0908 166.478L48.3516 171.409Z" fill="#263238"/>
<path d="M91.443 166.98V167.323C91.443 168.326 91.1394 168.967 90.453 169.303C91.278 169.62 91.5948 170.359 91.5948 171.389V172.187C91.5948 173.692 90.8028 174.497 89.2716 174.497H86.8626V164.756H89.1726C90.7632 164.756 91.443 165.495 91.443 166.98ZM88.3938 166.129V168.703H88.9944C89.562 168.703 89.9118 168.452 89.9118 167.673V167.132C89.9118 166.432 89.6742 166.129 89.133 166.129H88.3938ZM88.3938 170.089V173.085H89.2716C89.7864 173.085 90.0636 172.847 90.0636 172.121V171.277C90.0636 170.366 89.7732 170.089 89.0802 170.089H88.3938Z" fill="#263238"/>
<path d="M133.676 170.867V172.187C133.676 173.752 132.898 174.643 131.393 174.643C129.888 174.643 129.109 173.752 129.109 172.187V167.119C129.109 165.561 129.888 164.67 131.393 164.67C132.898 164.67 133.676 165.561 133.676 167.119V168.069H132.231V166.98C132.231 166.28 131.921 166.016 131.432 166.016C130.944 166.016 130.64 166.28 130.64 166.98V172.26C130.64 172.96 130.951 173.21 131.432 173.21C131.914 173.21 132.231 172.96 132.231 172.26V170.867H133.676Z" fill="#263238"/>
<path d="M42.042 159.562H159.027" stroke="#263238" stroke-width="0.66" stroke-linecap="round" stroke-linejoin="round"/>
<path opacity="0.3" d="M234.188 39.9894H247.104V27.0732H234.188V39.9894Z" stroke="black" stroke-width="0.66" stroke-linecap="round" stroke-linejoin="round"/>
<path opacity="0.3" d="M251.104 39.9894H264.02V27.0732H251.104V39.9894Z" stroke="black" stroke-width="0.66" stroke-linecap="round" stroke-linejoin="round"/>
<path opacity="0.3" d="M236.966 32.1816L239.171 36.5904L245.652 29.4558" stroke="black" stroke-width="1.32" stroke-linecap="round" stroke-linejoin="round"/>
<path opacity="0.3" d="M38.6628 229.489H51.579V216.572H38.6628V229.489Z" stroke="black" stroke-width="0.66" stroke-linecap="round" stroke-linejoin="round"/>
<path opacity="0.3" d="M55.572 229.489H68.4882V216.572H55.572V229.489Z" stroke="black" stroke-width="0.66" stroke-linecap="round" stroke-linejoin="round"/>
<path opacity="0.3" d="M41.4283 221.681L43.6327 226.09L50.1139 218.955" stroke="black" stroke-width="1.32" stroke-linecap="round" stroke-linejoin="round"/>
<path opacity="0.3" d="M99.8514 229.489H112.768V216.572H99.8514V229.489Z" stroke="black" stroke-width="0.66" stroke-linecap="round" stroke-linejoin="round"/>
<path opacity="0.3" d="M116.767 229.489H129.683V216.572H116.767V229.489Z" stroke="black" stroke-width="0.66" stroke-linecap="round" stroke-linejoin="round"/>
<path opacity="0.3" d="M102.623 221.681L104.828 226.09L111.309 218.955" stroke="black" stroke-width="1.32" stroke-linecap="round" stroke-linejoin="round"/>
<g opacity="0.3">
<path d="M119.883 33.5334C124.402 32.803 127.474 28.547 126.744 24.0275C126.013 19.5079 121.757 16.4361 117.238 17.1665C112.718 17.8969 109.647 22.1529 110.377 26.6724C111.107 31.192 115.363 34.2638 119.883 33.5334Z" stroke="black" stroke-width="0.66" stroke-linecap="round" stroke-linejoin="round"/>
<path d="M120.879 28.3471L118.562 25.3507V20.6317" stroke="black" stroke-width="0.66" stroke-linecap="round" stroke-linejoin="round"/>
</g>
<g opacity="0.3">
<path d="M273.293 184.351H272.065L271.854 182.952H270.362L270.151 184.351H269.036L270.277 176.623H272.052L273.293 184.351ZM270.521 181.903H271.689L271.102 177.989L270.521 181.903Z" fill="black"/>
<path d="M290.578 178.398V178.675C290.625 178.983 290.575 179.299 290.436 179.577C290.296 179.856 290.074 180.085 289.799 180.233C290.109 180.374 290.365 180.611 290.528 180.91C290.691 181.209 290.753 181.553 290.704 181.889V182.549C290.734 182.799 290.707 183.051 290.625 183.288C290.542 183.525 290.407 183.74 290.228 183.917C290.05 184.093 289.833 184.227 289.595 184.307C289.357 184.386 289.104 184.411 288.856 184.378H286.948V176.623H288.783C290.037 176.623 290.578 177.203 290.578 178.398ZM288.163 177.738V179.784H288.638C289.087 179.784 289.364 179.586 289.364 178.966V178.537C289.364 177.982 289.179 177.738 288.743 177.738H288.163ZM288.163 180.886V183.262H288.856C289.265 183.262 289.516 183.077 289.516 182.503V181.843C289.516 181.13 289.278 180.906 288.73 180.906L288.163 180.886Z" fill="black"/>
<path d="M308.081 181.5V182.523C308.081 183.764 307.468 184.47 306.273 184.47C305.078 184.47 304.458 183.764 304.458 182.523V178.504C304.458 177.263 305.078 176.557 306.273 176.557C307.468 176.557 308.081 177.263 308.081 178.504V179.256H306.933V178.398C306.933 177.844 306.689 177.639 306.306 177.639C305.923 177.639 305.646 177.844 305.646 178.398V182.576C305.646 183.13 305.89 183.328 306.306 183.328C306.722 183.328 306.933 183.13 306.933 182.576V181.5H308.081Z" fill="black"/>
<path d="M275.708 188.569H266.317V197.96H275.708V188.569Z" stroke="black" stroke-width="0.66" stroke-miterlimit="10"/>
<path d="M293.179 188.569H283.787V197.96H293.179V188.569Z" stroke="black" stroke-width="0.66" stroke-miterlimit="10"/>
<path d="M310.649 188.569H301.257V197.96H310.649V188.569Z" stroke="black" stroke-width="0.66" stroke-miterlimit="10"/>
</g>
<path d="M53.0904 297.37H33.2178" stroke="#263238" stroke-width="0.66" stroke-miterlimit="10"/>
<path d="M312.398 297.37H59.565" stroke="#263238" stroke-width="0.66" stroke-miterlimit="10"/>
<path d="M236.042 297.145L240.293 232.597L243.421 201.907L234.841 192.331L230.538 189.202C230.538 189.202 224.479 194.482 220.183 195.65C215.886 196.819 211.754 198 211.754 198C211.754 198 197.096 225.562 195.914 238.069C194.733 250.576 192.786 296.908 192.786 296.908L194.416 297.145H236.042Z" fill="#FFD0D0" stroke="#263238" stroke-width="0.66" stroke-miterlimit="10"/>
<path d="M215.893 243.929C215.893 243.929 215.16 243.553 216.625 239.778" stroke="#263238" stroke-width="0.66" stroke-miterlimit="10"/>
<path d="M214.17 197.34C214.899 202.555 215.302 207.81 215.378 213.074C215.378 213.074 219.78 211.312 223.298 205.154C225.241 201.85 226.914 198.393 228.301 194.819L214.17 197.34Z" fill="#263238" stroke="#263238" stroke-width="0.66" stroke-miterlimit="10"/>
<path d="M236.042 297.145L239.864 239.111C236.115 241.025 228.716 244.187 220.552 244.325C210.771 244.49 198.66 236.894 198.66 236.894L195.934 237.963C195.934 237.996 195.934 238.036 195.934 238.069C194.759 250.609 192.806 296.908 192.806 296.908L194.436 297.145H236.042Z" fill="white" stroke="#263238" stroke-width="0.66" stroke-miterlimit="10"/>
<path d="M229.68 264.66C229.68 279.609 230.195 293.99 230.34 297.132H259.149C259.545 292.472 262.027 263.472 263.3 253.077C264.693 241.718 273.827 224.809 273.827 218.757C273.827 212.705 275.682 213.662 267.34 209.26C258.997 204.857 240.596 195.353 238.049 194.192C235.501 193.03 232.716 190.232 232.716 190.232C232.716 190.232 233.64 196.027 233.376 211.781C233.112 227.535 229.68 247.757 229.68 264.66Z" fill="#BECBFA"/>
<g opacity="0.2">
<path d="M232.716 190.291C233.06 193.033 233.258 195.791 233.31 198.554V190.852C232.94 190.516 232.716 190.291 232.716 190.291Z" fill="black"/>
<path d="M270.6 228.01V229.99C270.824 229.39 271.049 228.809 271.26 228.235V227.997H271.346C271.432 227.779 271.511 227.555 271.59 227.337H271.26V219.12H273.814C273.814 219.021 273.814 218.915 273.814 218.816C273.814 218.717 273.814 218.579 273.814 218.46H271.26V211.424C271.055 211.299 270.838 211.18 270.6 211.048V218.46H263.67V210.21H269.029L267.788 209.55H263.67V207.372L263.01 207.022V209.53H256.08V203.419L255.42 203.075V209.53H248.49V201.3H251.942L250.661 200.64H248.49V199.525L247.83 199.181V200.64H240.9V195.657C240.669 195.538 240.451 195.426 240.24 195.327V200.64H233.376C233.376 200.858 233.376 201.076 233.376 201.3H240.24V209.55H233.435C233.435 209.768 233.435 209.986 233.435 210.21H240.24V218.46H233.31V215.325C233.178 218.546 232.94 221.925 232.65 225.364V227.344H232.478L232.419 228.004H232.65V236.28H231.66L231.594 236.94H232.683V245.19H230.809L230.749 245.85H232.683V254.1H230.109L230.069 254.76H232.709V263.01H229.786C229.786 263.234 229.786 263.452 229.786 263.67H232.716V271.92H229.805C229.805 272.144 229.805 272.362 229.805 272.58H232.709V280.83H229.937C229.937 281.054 229.937 281.272 229.937 281.49H232.696V297.165H233.356V281.47H240.24V297.145H240.9V281.47H247.83V297.145H248.49V281.47H255.42V297.145H256.08V281.47H260.522C260.522 281.252 260.522 281.035 260.581 280.81H256.08V272.58H261.36C261.36 272.362 261.406 272.144 261.426 271.92H256.08V263.67H262.178C262.178 263.446 262.218 263.234 262.244 263.01H256.08V254.76H263.01V255.638L263.3 253.11C263.393 252.371 263.518 251.605 263.67 250.82V245.85H264.904L265.102 245.19H263.67V236.94H267.96C268.046 236.722 268.125 236.498 268.211 236.28H263.67V228.03L270.6 228.01ZM263.67 219.12H270.6V227.37H263.67V219.12ZM240.24 280.81H233.31V272.58H240.24V280.81ZM240.24 271.9H233.31V263.65H240.24V271.9ZM240.24 262.99H233.31V254.76H240.24V262.99ZM240.24 254.08H233.31V245.83H240.24V254.08ZM240.24 245.17H233.31V236.94H240.24V245.17ZM240.24 236.26H233.31V228.01H240.24V236.26ZM240.24 227.35H233.31V219.12H240.24V227.35ZM247.83 280.81H240.9V272.58H247.83V280.81ZM247.83 271.9H240.9V263.65H247.83V271.9ZM247.83 262.99H240.9V254.76H247.83V262.99ZM247.83 254.08H240.9V245.83H247.83V254.08ZM247.83 245.17H240.9V236.94H247.83V245.17ZM247.83 236.26H240.9V228.01H247.83V236.26ZM247.83 227.35H240.9V219.12H247.83V227.35ZM247.83 218.44H240.9V210.19H247.83V218.44ZM247.83 209.53H240.9V201.3H247.83V209.53ZM255.42 280.81H248.49V272.58H255.42V280.81ZM255.42 271.9H248.49V263.65H255.42V271.9ZM255.42 262.99H248.49V254.76H255.42V262.99ZM255.42 254.08H248.49V245.83H255.42V254.08ZM255.42 245.17H248.49V236.94H255.42V245.17ZM255.42 236.26H248.49V228.01H255.42V236.26ZM255.42 227.35H248.49V219.12H255.42V227.35ZM255.42 218.44H248.49V210.19H255.42V218.44ZM263.01 254.08H256.08V245.83H263.01V254.08ZM263.01 245.17H256.08V236.94H263.01V245.17ZM263.01 236.26H256.08V228.01H263.01V236.26ZM263.01 227.35H256.08V219.12H263.01V227.35ZM263.01 218.44H256.08V210.19H263.01V218.44Z" fill="black"/>
</g>
<path d="M229.68 264.66C229.68 279.609 230.195 293.99 230.34 297.132H259.149C259.545 292.472 262.027 263.472 263.3 253.077C264.693 241.718 273.827 224.809 273.827 218.757C273.827 212.705 275.682 213.662 267.34 209.26C258.997 204.857 240.596 195.353 238.049 194.192C235.501 193.03 232.716 190.232 232.716 190.232C232.716 190.232 233.64 196.027 233.376 211.781C233.112 227.535 229.68 247.757 229.68 264.66Z" stroke="#263238" stroke-width="0.66" stroke-miterlimit="10"/>
<path d="M232.716 190.291C232.716 190.291 233.64 196.086 233.376 211.84C233.323 215.8 233.053 220.077 232.716 224.486C233.508 223.397 236.062 219.919 236.676 219.721C237.369 219.49 241.078 222.968 244.088 223.43C247.097 223.892 248.259 223.892 245.018 220.414C241.778 216.935 240.398 206.745 239.224 199.096C239 197.458 238.64 195.842 238.148 194.264H238.069C235.495 193.076 232.716 190.291 232.716 190.291Z" fill="#263238" stroke="#263238" stroke-width="0.66" stroke-miterlimit="10"/>
<path d="M251.731 261.967C253.862 260.997 255.539 260.159 255.539 260.159L256.324 266.218C256.324 266.218 244.787 271.3 238.339 271.689C231.891 272.078 231.304 272.276 231.304 272.276L231.495 266.416" stroke="#263238" stroke-width="0.66" stroke-miterlimit="10"/>
<path d="M245.956 264.337C247.137 263.941 248.523 263.38 249.876 262.792" stroke="#263238" stroke-width="0.66" stroke-miterlimit="10"/>
<path d="M233.64 265.828C237.014 265.742 240.378 265.436 243.712 264.911" stroke="#263238" stroke-width="0.66" stroke-miterlimit="10"/>
<path d="M256.324 266.218L256.714 270.91" stroke="#263238" stroke-width="0.66" stroke-miterlimit="10"/>
<path d="M167.897 297.145H200.317C200.389 294.604 201.326 262.31 201.96 245.83C202.62 228.67 214.262 202.64 214.262 202.64C214.262 202.64 215.82 198.97 214.17 197.32C212.52 195.67 208.56 196.33 205.59 198.64C202.62 200.95 175.23 212.83 173.58 214.48C171.93 216.13 172.26 221.74 171.6 228.34C170.94 234.94 160.05 280.48 160.05 280.48C160.05 280.48 157.08 281.14 156.09 281.8C155.1 282.46 155.1 284.44 155.1 284.44C155.1 284.44 156.42 284.77 160.38 286.75C164.023 288.572 167.383 295.964 167.897 297.145Z" fill="#BECBFA"/>
<path opacity="0.2" d="M209.88 210.19V213.563C210.104 212.956 210.322 212.368 210.54 211.801V210.19H211.16L211.418 209.53H210.54V201.3H214.698C214.744 201.095 214.797 200.871 214.83 200.64H210.54V196.495C210.322 196.528 210.104 196.561 209.88 196.614V200.64H202.95V200.191L202.29 200.528V200.64H202.066L200.746 201.3H202.29V209.55H195.36V203.874L194.7 204.184V209.53H187.77V207.425L187.11 207.735V209.53H183.275L181.876 210.19H187.11V218.46H180.18V211.002L179.52 211.319V218.46H172.59V216.797C172.219 219.201 171.998 221.625 171.93 224.057V227.357H171.692L171.633 228.017H171.93V236.28H170.155L170.016 236.94H171.93V245.19H168.227C168.181 245.408 168.128 245.632 168.082 245.85H171.93V254.1H166.221C166.168 254.324 166.122 254.542 166.069 254.76H171.93V263.01H165V259.38L164.34 262.231V262.977H164.168L164.017 263.637H164.34V271.92H162.083L161.924 272.58H164.34V280.83H158.737C158.064 281.01 157.403 281.23 156.757 281.49V281.49V285.08C156.955 285.16 157.172 285.252 157.417 285.364V281.49H164.34V290.73C164.571 291.06 164.789 291.39 165 291.727V281.497H171.93V297.172H172.59V281.47H179.52V297.145H180.18V281.47H187.11V297.145H187.77V281.47H194.7V297.145H195.36V281.47H200.779V280.81H195.36V272.58H201.056V271.92H195.36V263.67H201.34V263.01H195.36V254.76H201.637C201.637 254.542 201.637 254.318 201.637 254.1H195.36V245.85H201.96C201.96 245.632 201.96 245.414 201.993 245.19H195.36V236.94H202.29V241.817C202.462 240.412 202.679 238.966 202.95 237.501V236.94H203.056C203.095 236.722 203.141 236.504 203.181 236.28H202.95V228.03H205.161C205.22 227.812 205.286 227.594 205.346 227.37H202.95V219.12H207.9C207.979 218.902 208.052 218.678 208.124 218.46H202.95V210.21L209.88 210.19ZM202.95 201.3H209.88V209.55H202.95V201.3ZM171.93 280.83H165V272.58H171.93V280.83ZM171.93 271.92H165V263.67H171.93V271.92ZM179.52 280.83H172.59V272.58H179.52V280.83ZM179.52 271.92H172.59V263.67H179.52V271.92ZM179.52 263.01H172.59V254.76H179.52V263.01ZM179.52 254.1H172.59V245.85H179.52V254.1ZM179.52 245.19H172.59V236.94H179.52V245.19ZM179.52 236.28H172.59V228.03H179.52V236.28ZM179.52 227.37H172.59V219.12H179.52V227.37ZM187.11 280.83H180.18V272.58H187.11V280.83ZM187.11 271.92H180.18V263.67H187.11V271.92ZM187.11 263.01H180.18V254.76H187.11V263.01ZM187.11 254.1H180.18V245.85H187.11V254.1ZM187.11 245.19H180.18V236.94H187.11V245.19ZM187.11 236.28H180.18V228.03H187.11V236.28ZM187.11 227.37H180.18V219.12H187.11V227.37ZM194.7 280.83H187.77V272.58H194.7V280.83ZM194.7 271.92H187.77V263.67H194.7V271.92ZM194.7 263.01H187.77V254.76H194.7V263.01ZM194.7 254.1H187.77V245.85H194.7V254.1ZM194.7 245.19H187.77V236.94H194.7V245.19ZM194.7 236.28H187.77V228.03H194.7V236.28ZM194.7 227.37H187.77V219.12H194.7V227.37ZM194.7 218.46H187.77V210.21H194.7V218.46ZM202.29 236.28H195.36V228.03H202.29V236.28ZM202.29 227.37H195.36V219.12H202.29V227.37ZM202.29 218.46H195.36V210.21H202.29V218.46Z" fill="black"/>
<path d="M167.897 297.145H200.317C200.389 294.604 201.326 262.31 201.96 245.83C202.62 228.67 214.262 202.64 214.262 202.64C214.262 202.64 215.82 198.97 214.17 197.32C212.52 195.67 208.56 196.33 205.59 198.64C202.62 200.95 175.23 212.83 173.58 214.48C171.93 216.13 172.26 221.74 171.6 228.34C170.94 234.94 160.05 280.48 160.05 280.48C160.05 280.48 157.08 281.14 156.09 281.8C155.1 282.46 155.1 284.44 155.1 284.44C155.1 284.44 156.42 284.77 160.38 286.75C164.023 288.572 167.383 295.964 167.897 297.145Z" stroke="#263238" stroke-width="0.66" stroke-miterlimit="10"/>
<path d="M155.1 284.46C155.1 284.46 156.42 284.79 160.38 286.77C164.34 288.75 167.97 297.33 167.97 297.33H174.365C174.768 296.129 175.751 291.76 171.27 286.44C165.99 280.17 160.05 280.5 160.05 280.5C160.05 280.5 157.08 281.16 156.09 281.82C155.1 282.48 155.1 284.46 155.1 284.46Z" fill="#263238" stroke="#263238" stroke-width="0.66" stroke-miterlimit="10"/>
<path d="M210.184 196.535C208.765 200.29 205.405 208.784 202.62 212.83C198.99 218.11 192.39 222.4 194.7 224.38C197.01 226.36 203.61 220.09 203.61 220.09C203.61 220.09 205.26 224.71 205.59 226.03C205.608 226.09 205.637 226.146 205.676 226.195C208.058 218.178 210.924 210.311 214.256 202.64C214.256 202.64 215.813 198.97 214.163 197.32C213.312 196.462 211.86 196.238 210.184 196.535Z" fill="#263238" stroke="#263238" stroke-width="0.66" stroke-miterlimit="10"/>
<path d="M186.08 228.393C186.27 227.173 186.393 225.944 186.45 224.71" stroke="#263238" stroke-width="0.66" stroke-miterlimit="10"/>
<path d="M180.84 297.97C180.84 297.97 181.83 276.85 181.83 264.64C181.83 255.842 184.226 241.045 185.572 231.983" stroke="#263238" stroke-width="0.66" stroke-miterlimit="10"/>
<path d="M182.49 260.04C182.49 260.04 187.77 261.69 190.41 262.02L198.33 263.01L197.729 270.488C197.729 270.488 197.34 270.27 191.4 268.29C185.46 266.31 181.83 264.66 181.83 264.66" stroke="#263238" stroke-width="0.66" stroke-miterlimit="10"/>
<path d="M197.729 270.468C197.729 270.468 197.34 285.12 197.34 287.1C197.34 289.08 191.4 287.76 191.4 287.76" stroke="#263238" stroke-width="0.66" stroke-miterlimit="10"/>
<path d="M202.468 189.565C202.468 189.565 208.692 198.515 214.262 202.64C219.833 206.765 224.585 200.99 228.301 194.799C232.016 188.608 234.491 184.067 236.346 178.702C238.201 173.336 236.346 164.465 228.921 157.45C221.496 150.434 204.151 140.111 199.822 145.477C195.492 150.843 191.36 162.637 194.245 172.715C195.968 178.774 198.752 184.479 202.468 189.565V189.565Z" fill="#FFD0D0" stroke="#263238" stroke-width="0.66" stroke-miterlimit="10"/>
<path d="M199.848 170.313C202.197 169.609 204.7 169.609 207.049 170.313" stroke="#263238" stroke-width="1.32" stroke-miterlimit="10" stroke-linecap="round"/>
<path d="M205.174 175.837C205.372 176.906 205.121 177.85 204.613 177.943C204.105 178.035 203.544 177.243 203.346 176.167C203.148 175.091 203.399 174.154 203.907 174.062C204.415 173.969 204.976 174.761 205.174 175.837Z" fill="#263238"/>
<path d="M223.535 176.121C223.727 177.19 223.476 178.101 222.974 178.226C222.473 178.352 221.905 177.527 221.707 176.451C221.509 175.375 221.76 174.438 222.268 174.346C222.776 174.253 223.337 175.045 223.535 176.121Z" fill="#263238"/>
<path d="M209.933 190.674C212.318 191.496 214.839 191.845 217.358 191.704C221.694 191.499 225.41 188.404 225.41 188.404" stroke="#263238" stroke-width="0.66" stroke-miterlimit="10"/>
<path d="M200.462 150.038C200.462 150.038 209.629 170.947 210.778 171.521C211.926 172.095 214.216 165.218 214.216 165.218C214.216 165.218 217.364 170.94 221.1 172.663C224.836 174.385 225.971 171.521 225.971 171.521C227.842 172.575 229.66 173.723 231.416 174.959L232.848 176.101L234.28 181.256C234.28 181.256 229.984 195.294 231.416 197.017C232.848 198.739 240.867 196.442 240.867 196.442C240.867 196.442 238.887 199.307 241.441 199.307C243.995 199.307 248.602 199.881 255.189 190.997C261.776 182.114 262.35 167.798 262.35 167.798C262.35 167.798 265.498 171.23 265.789 166.934C266.079 162.637 262.066 155.476 262.066 155.476C262.066 155.476 268.363 161.779 267.795 155.192C267.227 148.606 263.498 141.154 262.066 139.438C260.634 137.722 252.034 132.838 252.034 132.838C252.034 132.838 255.473 132.264 252.899 128.251C250.325 124.238 240.867 123.097 237.428 123.097C233.99 123.097 226.829 124.245 226.829 124.245C226.829 124.245 231.416 115.361 226.545 114.787C221.674 114.213 213.081 123.671 213.081 123.671C213.081 123.671 204.501 116.794 201.907 118.226C199.313 119.658 201.049 121.664 201.049 121.664C201.049 121.664 189.882 122.522 186.727 127.393C183.572 132.264 187.301 135.128 187.301 135.128C187.301 135.128 167.251 148.876 170.399 154.031C173.547 159.185 179.282 154.321 179.282 154.321C179.282 154.321 171.257 174.946 172.405 176.378C173.554 177.811 179.005 175.804 179.005 175.804C179.005 175.804 178.721 192.416 183.018 194.139C187.315 195.862 188.173 192.707 188.173 192.707C188.173 192.707 190.463 194.997 195.624 195.281C200.785 195.565 202.495 189.552 202.495 189.552C202.495 189.552 196.766 176.088 197.056 164.921C197.347 153.754 200.462 150.038 200.462 150.038Z" fill="#263238" stroke="#263238" stroke-width="0.66" stroke-miterlimit="10"/>
<path d="M211.999 174.161C211.999 174.161 209.933 184.892 211.583 187.163C213.233 189.433 219.014 187.163 219.424 185.929" fill="#FFD0D0"/>
<path d="M211.999 174.161C211.999 174.161 209.933 184.892 211.583 187.163C213.233 189.433 219.014 187.163 219.424 185.929" stroke="#263238" stroke-width="0.66" stroke-miterlimit="10"/>
<path d="M203.432 180.767C207.933 180.767 211.583 178.087 211.583 174.781C211.583 171.475 207.933 168.795 203.432 168.795C198.93 168.795 195.281 171.475 195.281 174.781C195.281 178.087 198.93 180.767 203.432 180.767Z" stroke="#263238" stroke-width="0.66" stroke-miterlimit="10"/>
<path d="M223.034 180.358C227.535 180.358 231.185 177.678 231.185 174.372C231.185 171.066 227.535 168.386 223.034 168.386C218.532 168.386 214.883 171.066 214.883 174.372C214.883 177.678 218.532 180.358 223.034 180.358Z" stroke="#263238" stroke-width="0.66" stroke-miterlimit="10"/>
<path d="M211.999 174.161C211.999 174.161 213.649 172.927 214.883 174.372" stroke="#263238" stroke-width="0.66" stroke-miterlimit="10"/>
<path d="M144.085 288.361C144.085 288.361 154.447 285.437 157.634 284.909C160.822 284.381 167.204 290.222 168.267 293.41C169.33 296.597 167.97 297.31 167.97 297.31L146.738 296.604L144.085 288.361Z" fill="#FFD0D0" stroke="#263238" stroke-width="0.66" stroke-miterlimit="10"/>
<path d="M147.84 287.331C147.84 287.331 155.661 290.261 157.615 291.436C159.568 292.611 158.981 294.954 157.813 296.122C156.403 297.3 154.722 298.108 152.922 298.472C151.1 298.576 149.273 298.576 147.451 298.472C145.108 298.274 142.956 298.67 141.002 298.67C139.049 298.67 133.181 298.082 133.181 298.082L131.419 296.908C131.419 296.908 128.119 297.884 125.558 298.888C122.998 299.891 123.796 297.713 125.75 296.149C127.703 294.584 132.594 290.677 133.379 290.288C134.165 289.898 144.131 286.988 144.131 286.988L147.84 287.331Z" fill="#FFD0D0" stroke="#263238" stroke-width="0.66" stroke-miterlimit="10"/>
<path d="M150.77 288.11C150.77 288.11 145.682 285.767 144.316 285.767C142.949 285.767 133.175 289.067 131.809 290.063C130.442 291.06 129.07 300.425 130.046 301.013C131.023 301.6 131.809 299.838 132.026 298.67C132.244 297.502 134.963 291.238 134.963 291.238L132.983 301.211C132.983 301.211 133.769 302.768 134.548 301.402C135.326 300.036 140.217 290.651 140.606 290.063C141.119 289.519 141.713 289.058 142.369 288.697C142.369 288.697 141.392 293 140.606 297.106C139.821 301.211 140.415 302.386 141.59 302.577C142.765 302.768 143.345 300.036 143.933 298.67C144.52 297.304 147.061 289.476 147.061 289.476" fill="#FFD0D0"/>
<path d="M150.77 288.11C150.77 288.11 145.682 285.767 144.316 285.767C142.949 285.767 133.175 289.067 131.809 290.063C130.442 291.06 129.07 300.425 130.046 301.013C131.023 301.6 131.809 299.838 132.026 298.67C132.244 297.502 134.963 291.238 134.963 291.238L132.983 301.211C132.983 301.211 133.769 302.768 134.548 301.402C135.326 300.036 140.217 290.651 140.606 290.063C141.119 289.519 141.713 289.058 142.369 288.697C142.369 288.697 141.392 293 140.606 297.106C139.821 301.211 140.415 302.386 141.59 302.577C142.765 302.768 143.345 300.036 143.933 298.67C144.52 297.304 147.061 289.476 147.061 289.476" stroke="#263238" stroke-width="0.66" stroke-miterlimit="10"/>
<path d="M156.42 292.024C156.42 292.024 150.559 298.082 149.774 299.449C148.988 300.815 148.995 301.013 151.147 301.013C153.298 301.013 159.944 296.71 160.525 296.122C161.106 295.535 160.921 293.779 159.548 292.604C159.111 292.265 158.599 292.035 158.055 291.934C157.511 291.833 156.95 291.863 156.42 292.024V292.024Z" fill="#FFD0D0" stroke="#263238" stroke-width="0.66" stroke-miterlimit="10"/>
<path d="M193.024 291.35C193.024 291.35 185.203 293.878 183.282 295.31C181.361 296.743 178.589 298.32 179.19 298.802C179.791 299.284 181.718 298.802 182.318 298.32C182.919 297.838 185.684 297.356 185.684 297.356C185.684 297.356 188.932 295.429 191.459 293.872C193.987 292.314 195.908 290.624 193.024 291.35Z" fill="#FFD0D0" stroke="#263238" stroke-width="0.66" stroke-miterlimit="10"/>
<path d="M236.194 278.111C236.194 278.111 214.414 282.071 206.534 284.836C198.653 287.602 195.518 289.529 191.578 292.314C187.638 295.099 179.652 300.359 180.84 301.283C182.028 302.207 186.166 298.967 186.866 298.274C187.565 297.581 192.654 295.495 192.654 295.495L196.06 293.753C196.06 293.753 190.931 300.069 189.083 301.673C187.235 303.277 188.483 304.28 189.875 303.818C191.268 303.356 193.895 300.59 193.895 300.59L202.363 295.02C202.363 295.02 198.884 299.891 197.261 301.277C195.637 302.663 199.115 303.831 199.815 302.669C200.515 301.508 203.986 298.498 203.986 298.498C203.986 298.498 209.774 295.489 211.167 294.327C212.56 293.165 216.031 289.925 216.031 289.925L241.982 292.01C241.982 292.01 243.606 291.086 242.682 285.754C241.758 280.421 236.194 278.111 236.194 278.111Z" fill="#FFD0D0" stroke="#263238" stroke-width="0.66" stroke-miterlimit="10"/>
<path d="M253.803 237.098L266.548 268.62L245.923 275.801L251.717 292.717C251.717 292.717 266.528 292.756 278.117 292.057C289.707 291.357 297.838 284.368 295.984 276.032C294.129 267.696 287.179 255.638 281.615 241.27C276.052 226.901 277.774 218.335 275.227 213.932C272.679 209.53 265.492 208.369 265.492 208.369L261.532 207.709" fill="#BECBFA"/>
<path opacity="0.2" d="M294.03 284.797V281.497H295.753C295.825 281.279 295.885 281.061 295.937 280.837H294.03V272.58H295.02C294.947 272.369 294.868 272.144 294.796 271.92H294.03V269.907C293.819 269.359 293.601 268.798 293.37 268.237V271.92H286.44V263.67H291.416C291.317 263.452 291.225 263.234 291.126 263.01H286.44V254.76H287.364C287.258 254.542 287.159 254.324 287.06 254.1H286.44V252.721C286.222 252.232 285.998 251.744 285.78 251.249V254.1H278.85V245.85H283.47C283.378 245.632 283.285 245.414 283.199 245.19H278.85V236.94H280.084C280.012 236.722 279.946 236.498 279.88 236.28H278.85V232.518C278.599 231.475 278.381 230.479 278.19 229.522V236.28H271.26V228.03H277.913L277.794 227.37H271.26V219.12H276.679L276.58 218.46H271.26V210.368C270.681 210.058 270.086 209.778 269.478 209.53H263.67V208.052L263.01 207.933V209.53H261.063L260.885 210.19H263.01V218.46H258.72L258.548 219.12H263.017V227.37H256.37L256.192 228.03H263.01V236.28H256.08V228.452L255.42 230.954V236.234H254.021L253.849 236.894H255.42V241.072L256.08 242.702V236.94H263.01V245.19H257.07L257.334 245.85H263.01V254.1H260.7L260.971 254.76H263.043V259.888L263.703 261.518V254.76H270.6V263.01H264.271L264.541 263.67H270.6V271.92H263.67V269.636L263.01 269.867V271.92H257.11L255.209 272.58H255.42V280.83H248.49V274.89L247.83 275.121V280.797H247.639L248.49 283.279V281.457H255.42V292.677H256.08V281.457H263.01V292.591H263.67V281.47H270.6V292.38H271.26V281.47H278.19V292.03L278.85 291.977V281.47H285.78V290.525L286.44 290.275V281.47H293.37V285.615C293.601 285.344 293.825 285.074 294.03 284.797ZM263.01 280.837H256.08V272.58H263.01V280.837ZM270.6 280.837H263.67V272.58H270.6V280.837ZM270.6 254.107H263.67V245.857H270.6V254.107ZM270.6 245.197H263.67V236.94H270.6V245.197ZM270.6 236.287H263.67V228.037H270.6V236.287ZM270.6 227.377H263.67V219.12H270.6V227.377ZM270.6 218.467H263.67V210.217H270.6V218.467ZM278.19 280.837H271.26V272.58H278.19V280.837ZM278.19 271.927H271.26V263.677H278.19V271.927ZM278.19 263.017H271.26V254.76H278.19V263.017ZM278.19 254.107H271.26V245.857H278.19V254.107ZM278.19 245.197H271.26V236.94H278.19V245.197ZM285.78 280.837H278.85V272.58H285.78V280.837ZM285.78 271.927H278.85V263.677H285.78V271.927ZM285.78 263.017H278.85V254.76H285.78V263.017ZM286.44 280.837V272.58H293.37V280.83L286.44 280.837Z" fill="#263238"/>
<path d="M253.803 237.098L266.548 268.62L245.923 275.801L251.717 292.717C251.717 292.717 266.528 292.756 278.117 292.057C289.707 291.357 297.838 284.368 295.984 276.032C294.129 267.696 287.179 255.638 281.615 241.27C276.052 226.901 277.774 218.335 275.227 213.932C272.679 209.53 265.492 208.369 265.492 208.369L261.532 207.709" stroke="#263238" stroke-width="0.66" stroke-miterlimit="10"/>
<path d="M278.956 265.412C274.751 266.191 270.605 267.261 266.548 268.613C266.548 268.613 275.352 262.819 280.216 262.357" stroke="#263238" stroke-width="0.66" stroke-miterlimit="10"/>
<path d="M284.856 265.135C283.943 265.004 283.017 264.973 282.097 265.043" stroke="#263238" stroke-width="0.66" stroke-miterlimit="10"/>
<path d="M251.948 273.24C251.948 273.24 256.634 277.721 258.02 281.193C259.406 284.665 258.898 294.096 257.974 295.02C257.05 295.944 239.804 295.832 236.966 292.288C236.227 291.364 241.289 289.232 238.742 284.13C236.194 279.028 235.033 278.573 235.033 278.573C235.033 278.573 232.947 277.411 236.887 274.864C240.827 272.316 249.863 270.468 251.948 273.24Z" fill="#263238" stroke="#263238" stroke-width="0.66" stroke-miterlimit="10"/>
<path d="M293.033 308.972H275.926L273.788 275.154H295.172L293.033 308.972Z" fill="#263238" stroke="#263238" stroke-width="0.66" stroke-linejoin="round"/>
<path d="M296.122 275.207H272.844V280.13H296.122V275.207Z" fill="white" stroke="#263238" stroke-width="0.66" stroke-linejoin="round"/>
<path d="M296.122 275.392H272.844L275.167 272.474H293.792L296.122 275.392Z" fill="white" stroke="#263238" stroke-width="0.66" stroke-linejoin="round"/>
<path d="M293.66 299.053L294.512 285.582H274.448L275.299 299.053H293.66Z" fill="white" stroke="#263238" stroke-width="0.66" stroke-linejoin="round"/>
<path d="M194.449 311.223L215.53 305.653V308.504L194.449 314.411V311.223Z" fill="#263238" stroke="#263238" stroke-width="0.66" stroke-linejoin="round"/>
<path d="M215.53 305.653H105.316L84.0114 311.223H194.449L215.53 305.653Z" fill="white" stroke="#263238" stroke-width="0.66" stroke-linejoin="round"/>
<path d="M194.449 247.533H84.0114V314.411H194.449V247.533Z" fill="white" stroke="#263238" stroke-width="0.66" stroke-linejoin="round"/>
<path d="M194.449 257.209C170.425 258.35 156.116 280.493 134.858 295.33C115.48 308.86 91.5486 311.17 84.0378 311.533V314.411H194.449V257.209Z" fill="#263238" stroke="#263238" stroke-width="0.66" stroke-linejoin="round"/>
<path d="M194.449 311.223H84.0114V314.411H194.449V311.223Z" fill="white" stroke="#263238" stroke-width="0.66" stroke-miterlimit="10"/>
<path d="M51.315 289.159C51.315 289.159 42.1146 274.441 49.5 266.158C56.8854 257.875 68.8182 261.862 71.28 269.531C73.7418 277.2 68.5212 290.083 68.5212 290.083L51.315 289.159Z" fill="#BECBFA" stroke="#263238" stroke-width="0.66" stroke-linecap="round" stroke-linejoin="round"/>
<path d="M51.6186 272.29C50.0874 272.29 44.2596 270.145 42.4182 267.386C40.5768 264.627 40.26 258.489 45.4872 258.489C50.7144 258.489 52.5426 267.689 52.5426 267.689L52.8462 271.062" fill="#BECBFA"/>
<path d="M51.6186 272.29C50.0874 272.29 44.2596 270.145 42.4182 267.386C40.5768 264.627 40.26 258.489 45.4872 258.489C50.7144 258.489 52.5426 267.689 52.5426 267.689L52.8462 271.062" stroke="#263238" stroke-width="0.66" stroke-linecap="round" stroke-linejoin="round"/>
<path d="M56.3376 266.561C54.9648 265.901 50.7078 261.36 50.292 258.067C49.8762 254.773 52.3446 249.15 57.0108 251.467C61.677 253.783 59.2152 262.852 59.2152 262.852L57.981 266.006" fill="#BECBFA"/>
<path d="M56.3376 266.561C54.9648 265.901 50.7078 261.36 50.292 258.067C49.8762 254.773 52.3446 249.15 57.0108 251.467C61.677 253.783 59.2152 262.852 59.2152 262.852L57.981 266.006" stroke="#263238" stroke-width="0.66" stroke-linecap="round" stroke-linejoin="round"/>
<path d="M61.908 268.105C61.1424 266.785 60.1128 260.654 61.5912 257.684C63.0696 254.714 68.244 251.401 70.8312 255.928C73.4184 260.456 66.3498 266.62 66.3498 266.62L63.5712 268.561" fill="#BECBFA"/>
<path d="M61.908 268.105C61.1424 266.785 60.1128 260.654 61.5912 257.684C63.0696 254.714 68.244 251.401 70.8312 255.928C73.4184 260.456 66.3498 266.62 66.3498 266.62L63.5712 268.561" stroke="#263238" stroke-width="0.66" stroke-linecap="round" stroke-linejoin="round"/>
<path d="M63.7362 279.101C63.4854 277.583 64.6338 271.484 67.0362 269.201C69.4386 266.917 75.4512 265.604 76.3158 270.745C77.1804 275.887 68.3958 279.233 68.3958 279.233L65.0958 280.091" fill="#BECBFA"/>
<path d="M63.7362 279.101C63.4854 277.583 64.6338 271.484 67.0362 269.201C69.4386 266.917 75.4512 265.604 76.3158 270.745C77.1804 275.887 68.3958 279.233 68.3958 279.233L65.0958 280.091" stroke="#263238" stroke-width="0.66" stroke-linecap="round" stroke-linejoin="round"/>
<path d="M43.0914 263.683L44.1276 265.313" stroke="white" stroke-width="0.66" stroke-linecap="round" stroke-linejoin="round"/>
<path d="M46.0548 267.683L47.6784 269.009" stroke="white" stroke-width="0.66" stroke-linecap="round" stroke-linejoin="round"/>
<path d="M44.2794 260.575L45.903 262.944" stroke="white" stroke-width="0.66" stroke-linecap="round" stroke-linejoin="round"/>
<path d="M48.1272 264.871L49.9026 268.125" stroke="white" stroke-width="0.66" stroke-linecap="round" stroke-linejoin="round"/>
<path d="M52.2654 257.024L52.8593 258.799" stroke="white" stroke-width="0.66" stroke-linecap="round" stroke-linejoin="round"/>
<path d="M54.3378 262.053L55.374 263.538" stroke="white" stroke-width="0.66" stroke-linecap="round" stroke-linejoin="round"/>
<path d="M53.8956 253.473L55.2288 256.43" stroke="white" stroke-width="0.66" stroke-linecap="round" stroke-linejoin="round"/>
<path d="M48.7146 274.342L49.1634 277.002" stroke="white" stroke-width="0.66" stroke-linecap="round" stroke-linejoin="round"/>
<path d="M50.0478 279.517L50.6418 281.741" stroke="white" stroke-width="0.66" stroke-linecap="round" stroke-linejoin="round"/>
<path d="M51.5262 274.487L52.1202 277.444" stroke="white" stroke-width="0.66" stroke-linecap="round" stroke-linejoin="round"/>
<path d="M53.4533 279.517L53.8955 281.741" stroke="white" stroke-width="0.66" stroke-linecap="round" stroke-linejoin="round"/>
<path d="M54.4896 270.64L55.374 274.784" stroke="white" stroke-width="0.66" stroke-linecap="round" stroke-linejoin="round"/>
<path d="M56.562 278.777L56.7072 280.705" stroke="white" stroke-width="0.66" stroke-linecap="round" stroke-linejoin="round"/>
<path d="M58.1856 269.306L58.9248 273.154" stroke="white" stroke-width="0.66" stroke-linecap="round" stroke-linejoin="round"/>
<path d="M58.9248 277.154L59.2218 281.147" stroke="white" stroke-width="0.66" stroke-linecap="round" stroke-linejoin="round"/>
<path d="M62.4822 270.785V274.045" stroke="white" stroke-width="0.66" stroke-linecap="round" stroke-linejoin="round"/>
<path d="M62.0334 278.19L62.1852 280.705" stroke="white" stroke-width="0.66" stroke-linecap="round" stroke-linejoin="round"/>
<path d="M66.1782 255.394L65.439 257.176" stroke="white" stroke-width="0.66" stroke-linecap="round" stroke-linejoin="round"/>
<path d="M65.142 259.241L64.4028 261.763" stroke="white" stroke-width="0.66" stroke-linecap="round" stroke-linejoin="round"/>
<path d="M69.432 258.799L68.2506 261.169" stroke="white" stroke-width="0.66" stroke-linecap="round" stroke-linejoin="round"/>
<path d="M65.736 263.835L64.4028 265.313" stroke="white" stroke-width="0.66" stroke-linecap="round" stroke-linejoin="round"/>
<path d="M62.9244 258.654L62.4822 260.575" stroke="white" stroke-width="0.66" stroke-linecap="round" stroke-linejoin="round"/>
<path d="M69.4319 269.306L67.8083 271.973" stroke="white" stroke-width="0.66" stroke-linecap="round" stroke-linejoin="round"/>
<path d="M66.7722 273.596L65.8812 275.966" stroke="white" stroke-width="0.66" stroke-linecap="round" stroke-linejoin="round"/>
<path d="M68.1054 277.154L70.7652 275.669" stroke="white" stroke-width="0.66" stroke-linecap="round" stroke-linejoin="round"/>
<path d="M72.3954 269.306L71.0622 271.531" stroke="white" stroke-width="0.66" stroke-linecap="round" stroke-linejoin="round"/>
<path d="M73.7286 271.821L71.9532 273.154" stroke="white" stroke-width="0.66" stroke-linecap="round" stroke-linejoin="round"/>
<path d="M71.8145 284.024H46.6553V309.184H71.8145V284.024Z" fill="#263238" stroke="#263238" stroke-width="0.66" stroke-linecap="round" stroke-linejoin="round"/>
</svg>
