<svg width="54" height="53" viewBox="0 0 54 53" fill="none" xmlns="http://www.w3.org/2000/svg">
<circle cx="26.9515" cy="26.2172" r="26.2172" fill="white"/>
<path d="M36.0469 15H17.292C16.4326 15 15.7344 15.708 15.7344 16.5771V35.2979C15.7344 36.167 16.4326 36.875 17.292 36.875H36.0469C36.9062 36.875 37.6094 36.167 37.6094 35.2979V16.5771C37.6094 15.708 36.9062 15 36.0469 15ZM22.3457 33.75H19.1035V23.3105H22.3506V33.75H22.3457ZM20.7246 21.8848C19.6846 21.8848 18.8447 21.04 18.8447 20.0049C18.8447 18.9697 19.6846 18.125 20.7246 18.125C21.7598 18.125 22.6045 18.9697 22.6045 20.0049C22.6045 21.0449 21.7646 21.8848 20.7246 21.8848ZM34.499 33.75H31.2568V28.6719C31.2568 27.4609 31.2324 25.9033 29.5723 25.9033C27.8828 25.9033 27.624 27.2217 27.624 28.584V33.75H24.3818V23.3105H27.4922V24.7363H27.5361C27.9707 23.916 29.0303 23.0518 30.6074 23.0518C33.8887 23.0518 34.499 25.2148 34.499 28.0273V33.75Z" fill="#052142"/>
</svg>
