<svg width="54" height="54" viewBox="0 0 54 54" fill="none" xmlns="http://www.w3.org/2000/svg">
<circle cx="27.0844" cy="27" r="26.2172" fill="white"/>
<path fill-rule="evenodd" clip-rule="evenodd" d="M32.7346 15.2474H20.53C17.1598 15.2474 14.4277 17.9795 14.4277 21.3497V33.5543C14.4277 36.9244 17.1598 39.6565 20.53 39.6565H32.7346C36.1047 39.6565 38.8368 36.9244 38.8368 33.5543V21.3497C38.8368 17.9795 36.1047 15.2474 32.7346 15.2474ZM27.2214 23.7775C26.4596 23.6646 25.6816 23.7947 24.998 24.1494C24.3144 24.5041 23.7601 25.0653 23.4139 25.7532C23.0676 26.4411 22.9471 27.2206 23.0694 27.981C23.1918 28.7413 23.5508 29.4437 24.0953 29.9883C24.6399 30.5328 25.3423 30.8918 26.1026 31.0141C26.863 31.1365 27.6425 31.016 28.3304 30.6697C29.0183 30.3235 29.5795 29.7692 29.9342 29.0856C30.2889 28.402 30.419 27.624 30.3061 26.8622C30.1908 26.0852 29.8288 25.3658 29.2733 24.8103C28.7178 24.2548 27.9984 23.8927 27.2214 23.7775ZM23.8738 21.9828C25.0131 21.3916 26.3098 21.1747 27.5794 21.363C28.8745 21.5551 30.0735 22.1585 30.9993 23.0843C31.9251 24.0101 32.5285 25.2091 32.7206 26.5042C32.9089 27.7738 32.692 29.0705 32.1008 30.2098C31.5097 31.3491 30.5743 32.273 29.4278 32.85C28.2813 33.4271 26.9821 33.628 25.7148 33.424C24.4476 33.2201 23.2769 32.6218 22.3694 31.7142C21.4618 30.8066 20.8635 29.636 20.6595 28.3687C20.4556 27.1015 20.6565 25.8022 21.2335 24.6558C21.8106 23.5093 22.7345 22.5739 23.8738 21.9828ZM33.3435 19.5192C32.6695 19.5192 32.123 20.0656 32.123 20.7396C32.123 21.4137 32.6695 21.9601 33.3435 21.9601H33.3557C34.0297 21.9601 34.5762 21.4137 34.5762 20.7396C34.5762 20.0656 34.0297 19.5192 33.3557 19.5192H33.3435Z" fill="#052142"/>
</svg>
