<svg width="21" height="21" viewBox="0 0 21 21" fill="none" xmlns="http://www.w3.org/2000/svg">
<path d="M19.3231 0.0833976H1.67725C1.47889 0.0806428 1.28193 0.116989 1.09763 0.19036C0.913319 0.263731 0.74527 0.37269 0.603077 0.511014C0.460883 0.649339 0.347331 0.814319 0.268904 0.996533C0.190478 1.17875 0.148713 1.37462 0.145996 1.57298V19.4271C0.148713 19.6255 0.190478 19.8214 0.268904 20.0036C0.347331 20.1858 0.460883 20.3508 0.603077 20.4891C0.74527 20.6274 0.913319 20.7364 1.09763 20.8098C1.28193 20.8831 1.47889 20.9195 1.67725 20.9167H19.3231C19.5214 20.9195 19.7184 20.8831 19.9027 20.8098C20.087 20.7364 20.2551 20.6274 20.3972 20.4891C20.5394 20.3508 20.653 20.1858 20.7314 20.0036C20.8098 19.8214 20.8516 19.6255 20.8543 19.4271V1.57298C20.8516 1.37462 20.8098 1.17875 20.7314 0.996533C20.653 0.814319 20.5394 0.649339 20.3972 0.511014C20.2551 0.37269 20.087 0.263731 19.9027 0.19036C19.7184 0.116989 19.5214 0.0806428 19.3231 0.0833976V0.0833976ZM6.42725 17.5209H3.30225V8.1459H6.42725V17.5209ZM4.86475 6.8334C4.43377 6.8334 4.02044 6.66219 3.7157 6.35745C3.41095 6.0527 3.23975 5.63937 3.23975 5.2084C3.23975 4.77742 3.41095 4.3641 3.7157 4.05935C4.02044 3.7546 4.43377 3.5834 4.86475 3.5834C5.0936 3.55744 5.32535 3.58012 5.54482 3.64994C5.7643 3.71976 5.96656 3.83516 6.13835 3.98857C6.31014 4.14197 6.44759 4.32994 6.5417 4.54015C6.63581 4.75036 6.68445 4.97808 6.68445 5.2084C6.68445 5.43871 6.63581 5.66643 6.5417 5.87664C6.44759 6.08686 6.31014 6.27482 6.13835 6.42823C5.96656 6.58164 5.7643 6.69703 5.54482 6.76685C5.32535 6.83667 5.0936 6.85935 4.86475 6.8334V6.8334ZM17.6981 17.5209H14.5731V12.4896C14.5731 11.2292 14.1252 10.4063 12.9897 10.4063C12.6384 10.4089 12.2962 10.5191 12.0094 10.7221C11.7225 10.9251 11.5048 11.2112 11.3856 11.5417C11.3041 11.7866 11.2687 12.0444 11.2814 12.3021V17.5105H8.15641C8.15641 17.5105 8.15641 8.98965 8.15641 8.13548H11.2814V9.4584C11.5653 8.9658 11.9782 8.55998 12.4756 8.28465C12.9731 8.00932 13.5362 7.87491 14.1043 7.8959C16.1877 7.8959 17.6981 9.23965 17.6981 12.1251V17.5209Z" fill="#6782E1"/>
</svg>
