<svg width="23" height="23" viewBox="0 0 23 23" fill="none" xmlns="http://www.w3.org/2000/svg">
<path d="M15.9062 17.0937C15.6771 16.8229 15.5625 16.5154 15.5625 16.1712C15.5625 15.8279 15.6771 15.5417 15.9062 15.3125L18.2187 13H9.25C8.89583 13 8.59917 12.88 8.36 12.64C8.12 12.4008 8 12.1042 8 11.75C8 11.3958 8.12 11.0987 8.36 10.8587C8.59917 10.6196 8.89583 10.5 9.25 10.5H18.2187L15.9062 8.1875C15.6562 7.9375 15.5312 7.64083 15.5312 7.2975C15.5312 6.95333 15.6562 6.65625 15.9062 6.40625C16.1354 6.15625 16.4221 6.03125 16.7663 6.03125C17.1096 6.03125 17.3958 6.14583 17.625 6.375L22.125 10.875C22.25 11 22.3388 11.1354 22.3913 11.2812C22.4429 11.4271 22.4688 11.5833 22.4688 11.75C22.4688 11.9167 22.4429 12.0729 22.3913 12.2188C22.3388 12.3646 22.25 12.5 22.125 12.625L17.625 17.125C17.3542 17.3958 17.0575 17.5154 16.735 17.4837C16.4117 17.4529 16.1354 17.3229 15.9062 17.0937V17.0937ZM3 23C2.3125 23 1.72375 22.7554 1.23375 22.2663C0.744583 21.7763 0.5 21.1875 0.5 20.5V3C0.5 2.3125 0.744583 1.72375 1.23375 1.23375C1.72375 0.744583 2.3125 0.5 3 0.5H10.5C10.8542 0.5 11.1513 0.619583 11.3913 0.85875C11.6304 1.09875 11.75 1.39583 11.75 1.75C11.75 2.10417 11.6304 2.40083 11.3913 2.64C11.1513 2.88 10.8542 3 10.5 3H3V20.5H10.5C10.8542 20.5 11.1513 20.62 11.3913 20.86C11.6304 21.0992 11.75 21.3958 11.75 21.75C11.75 22.1042 11.6304 22.4008 11.3913 22.64C11.1513 22.88 10.8542 23 10.5 23H3Z" fill="black" fill-opacity="0.75"/>
</svg>
