<svg width="40" height="40" viewBox="0 0 40 40" fill="none" xmlns="http://www.w3.org/2000/svg">
<g clip-path="url(#clip0_390_3704)">
<rect width="40" height="40" fill="white"/>
<g filter="url(#filter0_d_390_3704)">
<path d="M2.01912 28.1766H2.15103C3.07426 25.4546 3.14733 22.4891 3.99445 19.7345C4.42632 18.3303 4.99102 16.7864 6.24032 15.9015C7.90975 14.7191 9.82005 15.9374 10.7021 17.4921C12.4645 20.5982 13.0441 24.7135 13.759 28.1766H13.8909C15.035 23.7543 15.531 19.166 16.6303 14.722C17.1693 12.5433 18.3122 9.80735 20.7501 9.25162C24.0713 8.4946 25.3708 13.0593 25.9439 15.3815C27.6802 22.417 27.5312 30.3306 26.1583 37.4102C27.9907 36.6433 29.7162 35.4296 31.4347 34.4322C32.9467 33.5548 34.7036 32.7672 35.9073 31.4738C38.6646 28.5112 37.8982 24.1029 37.8982 20.394C37.8982 17.431 38.5766 13.5075 37.2874 10.7647C36.2558 8.57018 34.5312 7.44434 32.4899 6.29819C30.3666 5.10601 28.2537 3.88111 26.1583 2.63874C23.8664 1.27982 21.8116 -0.0308048 19.0353 0.234476C16.0482 0.519886 13.3973 2.74993 10.857 4.20626C7.21182 6.29608 2.38807 8.22616 1.90977 13.0072C1.67669 15.3363 1.88721 17.789 1.88721 20.1302C1.88721 22.7883 1.68592 25.5397 2.01912 28.1766Z" fill="#6782E1"/>
<path d="M21.1458 15.9092C20.181 20.1176 19.4599 24.338 18.6132 28.5724C18.1785 30.7461 17.8163 33.4034 16.3537 35.1677C14.5772 37.3108 12.4424 36.6619 11.0807 34.5082C9.27579 31.6538 8.44226 27.1351 7.955 23.8237H7.82309L5.71255 32.9253C8.96647 34.9172 12.3209 36.7387 15.6057 38.6769C16.7032 39.3246 18.8737 40.4138 20.1942 39.8369C20.7179 39.6082 20.8544 38.8243 20.9953 38.3336C21.38 36.9933 21.7741 35.6337 21.9307 34.2444C22.4322 29.7927 22.5373 25.3811 22.0915 20.9217C21.9435 19.4416 22.0348 17.1568 21.1458 15.9092Z" fill="#6782E1"/>
<path d="M22.333 29.7597V31.0788H22.4649L22.333 29.7597Z" fill="#6782E1"/>
<path d="M9.53784 30.4192L9.66975 30.5511L9.53784 30.4192ZM18.1119 30.4192L18.2438 30.5511L18.1119 30.4192Z" fill="#6782E1"/>
<path d="M36.5791 30.4192L36.711 30.5511L36.5791 30.4192ZM9.58182 30.639L9.62588 30.7269L9.58182 30.639ZM18.1559 30.639L18.1999 30.7269L18.1559 30.639Z" fill="#6782E1"/>
<path d="M36.5791 30.5513L36.711 30.6832L36.5791 30.5513ZM6.24017 30.6832L6.37208 30.8151L6.24017 30.6832ZM9.71371 30.7712L9.75777 30.859L9.71371 30.7712ZM18.0239 30.7712L18.068 30.859L18.0239 30.7712Z" fill="#6782E1"/>
<path d="M22.2011 30.683V31.4744H22.333L22.2011 30.683ZM36.4472 30.683L36.5791 30.8149L36.4472 30.683Z" fill="#6782E1"/>
<path d="M36.3153 30.8146L36.4472 30.9465L36.3153 30.8146ZM6.24017 30.9465L6.37208 31.0784L6.24017 30.9465Z" fill="#6782E1"/>
<path d="M9.66983 30.9465L9.80174 31.0784L9.66983 30.9465ZM18.024 31.0345L18.068 31.1223L18.024 31.0345Z" fill="#6782E1"/>
<path d="M36.3152 30.9465L36.4471 31.0784L36.3152 30.9465ZM6.15216 31.1664L6.19622 31.2542L6.15216 31.1664Z" fill="#6782E1"/>
<path d="M26.8179 31.0786V31.8701H26.9498L26.8179 31.0786ZM36.1833 31.0786L36.3152 31.2105L36.1833 31.0786ZM9.84561 31.2985L9.88967 31.3864L9.84561 31.2985ZM17.8481 31.2105V31.6062H17.98L17.8481 31.2105Z" fill="#6782E1"/>
<path d="M17.98 31.2108L18.1119 31.3427L17.98 31.2108Z" fill="#6782E1"/>
<path d="M22.2011 31.4741V31.8698H22.333L22.2011 31.4741Z" fill="#6782E1"/>
<path d="M17.8481 31.6062L17.98 31.7381L17.8481 31.6062ZM35.6557 31.6062L35.7876 31.7381L35.6557 31.6062ZM5.97635 31.7381L6.10826 31.87L5.97635 31.7381ZM35.5238 31.7381L35.6557 31.87L35.5238 31.7381Z" fill="#6782E1"/>
<path d="M17.7162 31.8702L17.8481 32.0021L17.7162 31.8702ZM22.2011 31.8702V32.5298H22.333L22.2011 31.8702Z" fill="#6782E1"/>
<path d="M5.84442 32.0019L5.97633 32.1338L5.84442 32.0019ZM17.7162 32.0019L17.8481 32.1338L17.7162 32.0019ZM35.26 32.0019L35.3919 32.1338L35.26 32.0019Z" fill="#6782E1"/>
<path d="M17.7162 32.134L17.8481 32.2659L17.7162 32.134Z" fill="#6782E1"/>
<path d="M17.5842 32.2656L17.7161 32.3975L17.5842 32.2656Z" fill="#6782E1"/>
<path d="M17.5842 32.3975L17.7161 32.5294L17.5842 32.3975Z" fill="#6782E1"/>
<path d="M22.0692 32.3975V33.0571H22.2011L22.0692 32.3975Z" fill="#6782E1"/>
<path d="M34.8643 32.3975L34.9962 32.5294L34.8643 32.3975ZM5.58069 32.5294L5.7126 32.6613L5.58069 32.5294ZM10.1975 32.5294L10.3294 32.6613L10.1975 32.5294Z" fill="#6782E1"/>
<path d="M17.4524 32.6613L17.5843 32.7932L17.4524 32.6613ZM26.686 32.6613V33.1889H26.8179L26.686 32.6613Z" fill="#6782E1"/>
<path d="M17.4524 32.7934L17.5843 32.9253L17.4524 32.7934Z" fill="#6782E1"/>
<path d="M33.9409 32.9251L34.0728 33.057L33.9409 32.9251ZM5.84442 33.057L5.97633 33.1889L5.84442 33.057Z" fill="#6782E1"/>
<path d="M17.3204 33.0572L17.4523 33.1891L17.3204 33.0572Z" fill="#6782E1"/>
<path d="M22.1131 33.1451L22.1571 33.2329L22.1131 33.1451Z" fill="#6782E1"/>
<path d="M33.6771 33.0572L33.809 33.1891L33.6771 33.0572ZM6.10825 33.1891L6.24015 33.321L6.10825 33.1891Z" fill="#6782E1"/>
<path d="M17.3204 33.1891L17.4523 33.3211L17.3204 33.1891Z" fill="#6782E1"/>
<path d="M33.5452 33.1891L33.6771 33.3211L33.5452 33.1891ZM6.24017 33.3211L6.37208 33.453L6.24017 33.3211Z" fill="#6782E1"/>
<path d="M17.1886 33.3212L17.3205 33.4531L17.1886 33.3212ZM22.1131 33.4092L22.1572 33.4971L22.1131 33.4092Z" fill="#6782E1"/>
<path d="M33.2814 33.3212L33.4133 33.4531L33.2814 33.3212ZM6.50403 33.4531L6.63594 33.585L6.50403 33.4531Z" fill="#6782E1"/>
<path d="M17.1886 33.4529L17.3205 33.5848L17.1886 33.4529Z" fill="#6782E1"/>
<path d="M33.0176 33.4529L33.1495 33.5848L33.0176 33.4529ZM6.76785 33.5848L6.89976 33.7167L6.76785 33.5848Z" fill="#6782E1"/>
<path d="M17.0566 33.585L17.1885 33.7169L17.0566 33.585Z" fill="#6782E1"/>
<path d="M17.1886 33.585L17.3205 33.7169L17.1886 33.585ZM21.9373 33.585V34.1127H22.0692L21.9373 33.585Z" fill="#6782E1"/>
<path d="M17.0566 33.7167L17.1885 33.8486L17.0566 33.7167Z" fill="#6782E1"/>
<path d="M32.49 33.7167L32.6219 33.8486L32.49 33.7167ZM7.29547 33.8486L7.42738 33.9805L7.29547 33.8486Z" fill="#6782E1"/>
<path d="M17.0566 33.8486L17.1885 33.9805L17.0566 33.8486Z" fill="#6782E1"/>
<path d="M32.358 33.8486L32.4899 33.9805L32.358 33.8486ZM7.42734 33.9805L7.55925 34.1124L7.42734 33.9805Z" fill="#6782E1"/>
<path d="M10.9009 34.0687L10.945 34.1565L10.9009 34.0687ZM16.9248 33.9807L17.0567 34.1126L16.9248 33.9807ZM32.0942 33.9807L32.2261 34.1126L32.0942 33.9807Z" fill="#6782E1"/>
<path d="M7.82306 34.1124L7.95497 34.2443L7.82306 34.1124ZM16.9247 34.1124L17.0566 34.2443L16.9247 34.1124Z" fill="#6782E1"/>
<path d="M21.9373 34.1124L22.0692 34.2443L21.9373 34.1124ZM31.8304 34.1124L31.9623 34.2443L31.8304 34.1124Z" fill="#6782E1"/>
<path d="M16.7928 34.2445L16.9248 34.3764L16.7928 34.2445ZM21.9812 34.3325L22.0253 34.4203L21.9812 34.3325Z" fill="#6782E1"/>
<path d="M31.6985 34.2445L31.8304 34.3764L31.6985 34.2445ZM8.08688 34.3764L8.21879 34.5083L8.08688 34.3764Z" fill="#6782E1"/>
<path d="M16.7928 34.3762L16.9248 34.5081L16.7928 34.3762Z" fill="#6782E1"/>
<path d="M31.4347 34.3762L31.5666 34.5081L31.4347 34.3762ZM8.35071 34.5081L8.48262 34.64L8.35071 34.5081Z" fill="#6782E1"/>
<path d="M16.6609 34.5083L16.7928 34.6402L16.6609 34.5083Z" fill="#6782E1"/>
<path d="M31.1708 34.5083L31.3027 34.6402L31.1708 34.5083ZM8.6145 34.6402L8.74641 34.7721L8.6145 34.6402Z" fill="#6782E1"/>
<path d="M11.1208 34.6401L11.2527 34.772L11.1208 34.6401ZM16.6609 34.6401L16.7928 34.772L16.6609 34.6401ZM21.8493 34.7281L21.8933 34.816L21.8493 34.7281Z" fill="#6782E1"/>
<path d="M16.529 34.7718L16.6609 34.9037L16.529 34.7718Z" fill="#6782E1"/>
<path d="M30.7751 34.7718L30.907 34.9037L30.7751 34.7718ZM9.01022 34.9037L9.14213 35.0356L9.01022 34.9037ZM21.8493 34.9917L21.8933 35.0795L21.8493 34.9917ZM26.4221 34.9037V35.2994H26.554L26.4221 34.9037ZM30.5113 34.9037L30.6432 35.0356L30.5113 34.9037ZM9.27404 35.0356L9.40595 35.1675L9.27404 35.0356Z" fill="#6782E1"/>
<path d="M11.3846 35.0361L11.5165 35.168L11.3846 35.0361ZM16.3971 35.0361L16.529 35.168L16.3971 35.0361Z" fill="#6782E1"/>
<path d="M30.2474 35.0361L30.3793 35.168L30.2474 35.0361ZM9.53784 35.168L9.66975 35.2999L9.53784 35.168Z" fill="#6782E1"/>
<path d="M16.2652 35.1677L16.3971 35.2996L16.2652 35.1677ZM29.9837 35.1677L30.1156 35.2996L29.9837 35.1677Z" fill="#6782E1"/>
<path d="M30.1156 35.1677L30.2475 35.2996L30.1156 35.1677ZM9.66983 35.2996L9.80174 35.4315L9.66983 35.2996ZM11.6485 35.2996L12.1761 35.8272L11.6485 35.2996ZM16.1333 35.2996L16.2652 35.4315L16.1333 35.2996Z" fill="#6782E1"/>
<path d="M29.8518 35.2996L29.9837 35.4315L29.8518 35.2996ZM9.93362 35.4315L10.0655 35.5634L9.93362 35.4315Z" fill="#6782E1"/>
<path d="M16.0014 35.4317L16.1333 35.5636L16.0014 35.4317Z" fill="#6782E1"/>
<path d="M21.6735 35.4317L21.8054 35.5636L21.6735 35.4317ZM26.4222 35.4317V35.8275H26.5541L26.4222 35.4317ZM29.456 35.4317L29.588 35.5636L29.456 35.4317Z" fill="#6782E1"/>
<path d="M29.5879 35.4317L29.7198 35.5636L29.5879 35.4317ZM10.1974 35.5636L10.3293 35.6955L10.1974 35.5636Z" fill="#6782E1"/>
<path d="M15.8695 35.5634L16.0014 35.6953L15.8695 35.5634ZM21.7174 35.6514L21.7615 35.7393L21.7174 35.6514Z" fill="#6782E1"/>
<path d="M15.7375 35.6956L15.8694 35.8275L15.7375 35.6956ZM26.2902 35.6956V36.0913H26.4221L26.2902 35.6956Z" fill="#6782E1"/>
<path d="M29.1922 35.6956L29.3241 35.8275L29.1922 35.6956ZM10.5932 35.8275L10.7251 35.9594L10.5932 35.8275Z" fill="#6782E1"/>
<path d="M15.6057 35.8272L15.7376 35.9591L15.6057 35.8272Z" fill="#6782E1"/>
<path d="M28.9284 35.8272L29.0603 35.9591L28.9284 35.8272ZM10.857 35.9591L10.9889 36.091L10.857 35.9591Z" fill="#6782E1"/>
<path d="M15.4737 35.9593L15.6056 36.0912L15.4737 35.9593ZM21.5415 35.9593L21.6734 36.0912L21.5415 35.9593Z" fill="#6782E1"/>
<path d="M28.6646 35.9593L28.7965 36.0912L28.6646 35.9593ZM11.1208 36.0912L11.2527 36.2231L11.1208 36.0912Z" fill="#6782E1"/>
<path d="M15.2099 36.0912L15.3418 36.2231L15.2099 36.0912ZM21.5415 36.0912L21.6734 36.2231L21.5415 36.0912ZM26.2902 36.0912L26.4221 36.2231L26.2902 36.0912Z" fill="#6782E1"/>
<path d="M28.5327 36.0912L28.6646 36.2231L28.5327 36.0912ZM11.2527 36.2231L11.3846 36.355L11.2527 36.2231Z" fill="#6782E1"/>
<path d="M21.5416 36.2229L21.6735 36.3548L21.5416 36.2229Z" fill="#6782E1"/>
<path d="M28.2689 36.2229L28.4008 36.3548L28.2689 36.2229ZM11.5165 36.3548L11.6484 36.4867L11.5165 36.3548Z" fill="#6782E1"/>
<path d="M14.6823 36.355L14.8142 36.4869L14.6823 36.355ZM27.8731 36.355L28.005 36.4869L27.8731 36.355Z" fill="#6782E1"/>
<path d="M28.137 36.355L28.2689 36.4869L28.137 36.355ZM11.7803 36.4869L12.0442 36.7507L11.7803 36.4869Z" fill="#6782E1"/>
<path d="M11.9122 36.4871L12.0441 36.619L11.9122 36.4871ZM13.2313 36.4871V36.619H14.4185L13.2313 36.4871ZM21.4096 36.4871L21.5415 36.619L21.4096 36.4871Z" fill="#6782E1"/>
<path d="M12.0442 36.6188L12.1761 36.7507L12.0442 36.6188ZM21.4096 36.6188L21.5416 36.7507L21.4096 36.6188Z" fill="#6782E1"/>
<path d="M27.6093 36.6188L27.7412 36.7507L27.6093 36.6188ZM12.1761 36.7507L12.308 36.8826L12.1761 36.7507Z" fill="#6782E1"/>
<path d="M21.4536 36.8387L21.4976 36.9266L21.4536 36.8387Z" fill="#6782E1"/>
<path d="M27.3455 36.7507L27.4774 36.8826L27.3455 36.7507ZM12.4399 36.8826L12.5718 37.0145L12.4399 36.8826Z" fill="#6782E1"/>
<path d="M12.5717 36.8823L12.7037 37.0142L12.5717 36.8823ZM26.2022 36.9703L26.2463 37.0582L26.2022 36.9703Z" fill="#6782E1"/>
<path d="M27.0817 36.8823L27.2136 37.0142L27.0817 36.8823ZM12.7037 37.0142L12.8356 37.1461L12.7037 37.0142Z" fill="#6782E1"/>
<path d="M21.2777 37.0144L21.4096 37.1463L21.2777 37.0144ZM26.8179 37.0144L26.9498 37.1463L26.8179 37.0144Z" fill="#6782E1"/>
<path d="M21.2777 37.1466L21.4096 37.2785L21.2777 37.1466Z" fill="#6782E1"/>
<path d="M26.686 37.1466L26.8179 37.2785L26.686 37.1466ZM13.0994 37.2785L13.2313 37.4104L13.0994 37.2785Z" fill="#6782E1"/>
<path d="M21.3217 37.3663L21.3657 37.4542L21.3217 37.3663Z" fill="#6782E1"/>
<path d="M26.4222 37.2782L26.5541 37.4101L26.4222 37.2782ZM13.3633 37.4101L13.4952 37.542L13.3633 37.4101Z" fill="#6782E1"/>
<path d="M13.7589 37.5423L13.8908 37.6742L13.7589 37.5423ZM21.1458 37.5423L21.2777 37.6742L21.1458 37.5423Z" fill="#6782E1"/>
<path d="M13.8909 37.6739L14.0228 37.8058L13.8909 37.6739ZM21.1458 37.6739L21.2777 37.8058L21.1458 37.6739Z" fill="#6782E1"/>
<path d="M21.1898 37.8941L21.2338 37.982L21.1898 37.8941ZM14.2866 37.938L14.4185 38.0699L14.2866 37.938Z" fill="#6782E1"/>
<path d="M21.0578 38.0258L21.1019 38.1136L21.0578 38.0258Z" fill="#6782E1"/>
<path d="M21.0578 38.2898L21.1018 38.3776L21.0578 38.2898ZM14.9461 38.3337V38.4656L15.4737 38.7294V38.5975L14.9461 38.3337Z" fill="#6782E1"/>
<path d="M15.078 38.3333L15.2099 38.4653L15.078 38.3333ZM15.3419 38.4653L15.4738 38.5972L15.3419 38.4653ZM20.882 38.4653L21.0139 38.5972L20.882 38.4653Z" fill="#6782E1"/>
<path d="M20.882 38.5976L21.0139 38.7295L20.882 38.5976ZM15.6057 38.7295L15.7376 38.8614L15.6057 38.7295Z" fill="#6782E1"/>
<path d="M15.7375 38.7293L15.8694 38.8612L15.7375 38.7293Z" fill="#6782E1"/>
<path d="M15.8695 38.8609L16.0014 38.9928L15.8695 38.8609Z" fill="#6782E1"/>
<path d="M16.0014 38.8609L16.1333 38.9928L16.0014 38.8609ZM20.7501 38.8609L20.882 38.9928L20.7501 38.8609Z" fill="#6782E1"/>
<path d="M16.1333 38.993L16.2652 39.125L16.1333 38.993Z" fill="#6782E1"/>
<path d="M20.7501 38.993L20.882 39.125L20.7501 38.993Z" fill="#6782E1"/>
<path d="M16.3972 39.1249L16.5291 39.2568L16.3972 39.1249Z" fill="#6782E1"/>
<path d="M16.529 39.2571L16.6609 39.389L16.529 39.2571Z" fill="#6782E1"/>
<path d="M16.749 39.3007L16.8368 39.3447L16.749 39.3007Z" fill="#6782E1"/>
<path d="M20.6182 39.2571L20.7501 39.389L20.6182 39.2571Z" fill="#6782E1"/>
<path d="M16.7928 39.3887L16.9248 39.5206L16.7928 39.3887Z" fill="#6782E1"/>
<path d="M16.9247 39.3887L17.0567 39.5206L16.9247 39.3887Z" fill="#6782E1"/>
<path d="M17.0566 39.3887L17.1885 39.5206L17.0566 39.3887Z" fill="#6782E1"/>
<path d="M17.1886 39.5208L17.3205 39.6528L17.1886 39.5208Z" fill="#6782E1"/>
<path d="M17.3204 39.5208L17.4523 39.6528L17.3204 39.5208Z" fill="#6782E1"/>
<path d="M17.4524 39.5208L17.5843 39.6528L17.4524 39.5208ZM20.4863 39.5208L20.6182 39.6528L20.4863 39.5208Z" fill="#6782E1"/>
<path d="M17.6723 39.6965L17.7602 39.7406L17.6723 39.6965Z" fill="#6782E1"/>
<path d="M17.8481 39.6525L17.98 39.7844L17.8481 39.6525Z" fill="#6782E1"/>
<path d="M17.98 39.6525L18.1119 39.7844L17.98 39.6525Z" fill="#6782E1"/>
<path d="M20.4863 39.6525L20.6182 39.7844L20.4863 39.6525ZM18.1119 39.7844V39.9163H18.5077L18.1119 39.7844Z" fill="#6782E1"/>
<path d="M18.5076 39.7844L18.6395 39.9163L18.5076 39.7844Z" fill="#6782E1"/>
<path d="M18.7275 39.8283L18.8154 39.8724L18.7275 39.8283ZM20.3544 39.7844L20.4863 39.9163L20.3544 39.7844Z" fill="#6782E1"/>
</g>
</g>
<defs>
<filter id="filter0_d_390_3704" x="0.799988" y="-0.799988" width="40.2766" height="43.8" filterUnits="userSpaceOnUse" color-interpolation-filters="sRGB">
<feFlood flood-opacity="0" result="BackgroundImageFix"/>
<feColorMatrix in="SourceAlpha" type="matrix" values="0 0 0 0 0 0 0 0 0 0 0 0 0 0 0 0 0 0 127 0" result="hardAlpha"/>
<feOffset dx="1" dy="1"/>
<feGaussianBlur stdDeviation="1"/>
<feColorMatrix type="matrix" values="0 0 0 0 0 0 0 0 0 0 0 0 0 0 0 0 0 0 0.25 0"/>
<feBlend mode="normal" in2="BackgroundImageFix" result="effect1_dropShadow_390_3704"/>
<feBlend mode="normal" in="SourceGraphic" in2="effect1_dropShadow_390_3704" result="shape"/>
</filter>
<clipPath id="clip0_390_3704">
<rect width="40" height="40" fill="white"/>
</clipPath>
</defs>
</svg>
