<svg width="257" height="45" viewBox="0 0 257 45" fill="none" xmlns="http://www.w3.org/2000/svg">
<path fill-rule="evenodd" clip-rule="evenodd" d="M0.424534 33.8336H0.265008C-0.0281196 31.5137 0.0208066 29.1207 0.0692518 26.7511C0.0874028 25.8633 0.105486 24.9788 0.105486 24.1027C0.105486 23.1959 0.079371 22.2752 0.0531284 21.3501C-0.00256736 19.3866 -0.0588359 17.4029 0.132765 15.4884C0.634188 10.4762 5.08462 8.05493 9.13234 5.85273C9.75401 5.5145 10.3662 5.18145 10.9531 4.84497C11.7072 4.41262 12.4694 3.9239 13.2437 3.42742C15.6237 1.9014 18.1179 0.30211 20.8436 0.0416788C24.0527 -0.26496 26.4647 1.16949 29.0919 2.73188C29.2133 2.80413 29.3353 2.87665 29.4578 2.94928C31.9918 4.45174 34.5471 5.93308 37.1149 7.37485C39.5836 8.76094 41.6692 10.1225 42.9168 12.7765C44.0894 15.2713 43.916 18.5739 43.7579 21.5826C43.7058 22.574 43.6554 23.5335 43.6554 24.4217C43.6554 25.2111 43.6842 26.0267 43.7133 26.8544C43.8497 30.7294 43.9954 34.8687 41.2477 37.821C40.1079 39.0458 38.5577 39.8956 37.0608 40.7162C36.6461 40.9435 36.2355 41.1686 35.8388 41.3988C35.2307 41.7518 34.6218 42.1271 34.0092 42.5047C32.5282 43.4177 31.0253 44.3441 29.4578 45.0002C31.1181 36.4384 31.2983 26.8681 29.1985 18.3598C28.5054 15.5514 26.9339 10.0311 22.9174 10.9466C19.9691 11.6187 18.5869 14.9273 17.9351 17.5621C17.2951 20.1493 16.8242 22.7768 16.3536 25.403C15.8465 28.2322 15.3397 31.0599 14.6222 33.8336H14.4627C14.3246 33.1648 14.1907 32.4758 14.0545 31.775C13.3377 28.0871 12.5568 24.0688 10.7658 20.9122C9.69908 19.032 7.38885 17.5586 5.36993 18.9887C3.85908 20.0587 3.17616 21.926 2.65388 23.624C2.16622 25.2098 1.89067 26.8533 1.61537 28.4954C1.31232 30.3029 1.00957 32.1087 0.424534 33.8336ZM21.4284 25.9221C22.0767 22.515 22.7237 19.1151 23.5016 15.7216C24.3449 16.9049 24.4588 18.8599 24.5551 20.5118C24.5816 20.9661 24.6067 21.3974 24.6453 21.7835C25.1845 27.1765 25.0574 32.5116 24.4509 37.8953C24.2644 39.5495 23.7995 41.1689 23.3412 42.7654L23.3196 42.8406C23.2969 42.9196 23.2744 43.0049 23.2507 43.0941C23.097 43.6746 22.8998 44.4189 22.3508 44.6586C20.7539 45.3563 18.129 44.0391 16.8017 43.2558C15.1842 42.3014 13.5528 41.3704 11.9213 40.4393C9.54584 39.0838 7.17027 37.7281 4.83741 36.3001L7.38979 25.293H7.54932C8.13859 29.2977 9.14662 34.7624 11.3294 38.2143C12.9761 40.8189 15.5579 41.6037 17.7063 39.0119C19.2719 37.1234 19.7949 34.3888 20.259 31.9625C20.3192 31.6476 20.3784 31.3379 20.4388 31.0359C20.78 29.3294 21.1044 27.6249 21.4284 25.9221Z" fill="#6782E1"/>
<path d="M66.76 13.71H71.2C71.62 13.71 71.83 13.92 71.83 14.34V32.37C71.83 32.79 71.62 33 71.2 33H68.74C68.32 33 68.11 32.79 68.11 32.37V18.15H67.99L64.93 28.2C64.81 28.6 64.56 28.8 64.18 28.8H61.66C61.28 28.8 61.03 28.6 60.91 28.2L57.79 18.12H57.67V32.37C57.67 32.61 57.63 32.78 57.55 32.88C57.47 32.96 57.3 33 57.04 33H54.58C54.16 33 53.95 32.79 53.95 32.37V14.34C53.95 13.92 54.16 13.71 54.58 13.71H59.05C59.33 13.71 59.52 13.85 59.62 14.13L62.8 24.72H62.98L66.19 14.13C66.25 13.85 66.44 13.71 66.76 13.71Z" fill="#6782E1"/>
<path d="M82.1676 29.7H84.2976C84.9376 29.7 85.3876 29.57 85.6476 29.31C85.9276 29.03 86.0676 28.57 86.0676 27.93V18.78C86.0676 18.14 85.9276 17.69 85.6476 17.43C85.3876 17.15 84.9376 17.01 84.2976 17.01H82.1676C81.5276 17.01 81.0776 17.15 80.8176 17.43C80.5576 17.69 80.4276 18.14 80.4276 18.78V27.93C80.4276 28.57 80.5576 29.03 80.8176 29.31C81.0776 29.57 81.5276 29.7 82.1676 29.7ZM84.9276 33H81.5676C79.9876 33 78.7676 32.58 77.9076 31.74C77.0476 30.9 76.6176 29.69 76.6176 28.11V18.6C76.6176 17.02 77.0476 15.81 77.9076 14.97C78.7676 14.13 79.9876 13.71 81.5676 13.71H84.9276C86.5076 13.71 87.7276 14.13 88.5876 14.97C89.4476 15.81 89.8776 17.02 89.8776 18.6V28.11C89.8776 29.69 89.4476 30.9 88.5876 31.74C87.7276 32.58 86.5076 33 84.9276 33Z" fill="#6782E1"/>
<path d="M102.59 33H99.3203C97.7403 33 96.5203 32.58 95.6603 31.74C94.8003 30.9 94.3703 29.69 94.3703 28.11V18.6C94.3703 17.02 94.8003 15.81 95.6603 14.97C96.5203 14.13 97.7403 13.71 99.3203 13.71H102.59C104.15 13.71 105.36 14.14 106.22 15C107.1 15.84 107.54 17.04 107.54 18.6V20.01C107.54 20.45 107.32 20.67 106.88 20.67H104.36C103.94 20.67 103.73 20.45 103.73 20.01V18.78C103.73 18.14 103.59 17.69 103.31 17.43C103.05 17.15 102.6 17.01 101.96 17.01H99.9203C99.3003 17.01 98.8503 17.15 98.5703 17.43C98.3103 17.69 98.1803 18.14 98.1803 18.78V27.93C98.1803 28.57 98.3103 29.03 98.5703 29.31C98.8503 29.57 99.3003 29.7 99.9203 29.7H101.96C102.6 29.7 103.05 29.57 103.31 29.31C103.59 29.03 103.73 28.57 103.73 27.93V26.7C103.73 26.26 103.94 26.04 104.36 26.04H106.88C107.32 26.04 107.54 26.26 107.54 26.7V28.11C107.54 29.67 107.1 30.88 106.22 31.74C105.36 32.58 104.15 33 102.59 33Z" fill="#6782E1"/>
<path d="M115.193 33H112.643C112.223 33 112.013 32.79 112.013 32.37V14.34C112.013 13.92 112.223 13.71 112.643 13.71H115.193C115.613 13.71 115.823 13.92 115.823 14.34V22.89H115.883C116.043 22.41 116.353 21.79 116.813 21.03L121.373 14.34C121.633 13.92 122.023 13.71 122.543 13.71H125.483C125.703 13.71 125.833 13.78 125.873 13.92C125.933 14.04 125.883 14.2 125.723 14.4L120.023 22.29L126.383 32.25C126.523 32.49 126.543 32.68 126.443 32.82C126.363 32.94 126.183 33 125.903 33H123.713C123.013 33 122.543 32.79 122.303 32.37L117.713 25.02L115.823 27.24V32.37C115.823 32.79 115.613 33 115.193 33Z" fill="#6782E1"/>
<path d="M137.861 33H134.591C133.011 33 131.791 32.58 130.931 31.74C130.071 30.9 129.641 29.69 129.641 28.11V18.6C129.641 17.02 130.071 15.81 130.931 14.97C131.791 14.13 133.011 13.71 134.591 13.71H137.861C139.421 13.71 140.631 14.14 141.491 15C142.371 15.84 142.811 17.04 142.811 18.6V20.01C142.811 20.45 142.591 20.67 142.151 20.67H139.631C139.211 20.67 139.001 20.45 139.001 20.01V18.78C139.001 18.14 138.861 17.69 138.581 17.43C138.321 17.15 137.871 17.01 137.231 17.01H135.191C134.571 17.01 134.121 17.15 133.841 17.43C133.581 17.69 133.451 18.14 133.451 18.78V27.93C133.451 28.57 133.581 29.03 133.841 29.31C134.121 29.57 134.571 29.7 135.191 29.7H137.231C137.871 29.7 138.321 29.57 138.581 29.31C138.861 29.03 139.001 28.57 139.001 27.93V26.7C139.001 26.26 139.211 26.04 139.631 26.04H142.151C142.591 26.04 142.811 26.26 142.811 26.7V28.11C142.811 29.67 142.371 30.88 141.491 31.74C140.631 32.58 139.421 33 137.861 33Z" fill="#6782E1"/>
<path d="M157.724 33H147.914C147.494 33 147.284 32.79 147.284 32.37V14.34C147.284 13.92 147.494 13.71 147.914 13.71H157.724C158.124 13.71 158.324 13.92 158.324 14.34V16.38C158.324 16.8 158.124 17.01 157.724 17.01H151.454C151.214 17.01 151.094 17.12 151.094 17.34V21.24C151.094 21.46 151.214 21.57 151.454 21.57H156.584C157.004 21.57 157.214 21.78 157.214 22.2V24.24C157.214 24.66 157.004 24.87 156.584 24.87H151.454C151.214 24.87 151.094 24.98 151.094 25.2V29.37C151.094 29.59 151.214 29.7 151.454 29.7H157.724C158.124 29.7 158.324 29.91 158.324 30.33V32.37C158.324 32.79 158.124 33 157.724 33Z" fill="#6782E1"/>
<path d="M166.019 33H163.469C163.049 33 162.839 32.79 162.839 32.37V14.34C162.839 13.92 163.049 13.71 163.469 13.71H170.609C172.169 13.71 173.389 14.14 174.269 15C175.149 15.86 175.589 17.07 175.589 18.63V20.97C175.589 23.23 174.699 24.73 172.919 25.47V25.59L176.129 32.28C176.309 32.76 176.139 33 175.619 33H173.189C172.829 33 172.569 32.96 172.409 32.88C172.249 32.8 172.119 32.63 172.019 32.37L169.019 25.89H167.009C166.769 25.89 166.649 26 166.649 26.22V32.37C166.649 32.79 166.439 33 166.019 33ZM166.979 22.83H169.919C170.559 22.83 171.029 22.7 171.329 22.44C171.629 22.16 171.779 21.72 171.779 21.12V18.78C171.779 18.16 171.629 17.71 171.329 17.43C171.029 17.15 170.559 17.01 169.919 17.01H166.979C166.759 17.01 166.649 17.12 166.649 17.34V22.5C166.649 22.72 166.759 22.83 166.979 22.83Z" fill="#6782E1"/>
<path d="M186.416 33H183.896C183.456 33 183.236 32.79 183.236 32.37V17.34C183.236 17.12 183.126 17.01 182.906 17.01H179.486C179.066 17.01 178.856 16.8 178.856 16.38V14.34C178.856 13.92 179.066 13.71 179.486 13.71H190.826C191.246 13.71 191.456 13.92 191.456 14.34V16.38C191.456 16.8 191.246 17.01 190.826 17.01H187.406C187.166 17.01 187.046 17.12 187.046 17.34V32.37C187.046 32.79 186.836 33 186.416 33Z" fill="#6782E1"/>
<path d="M198.906 14.34V32.37C198.906 32.79 198.696 33 198.276 33H195.726C195.306 33 195.096 32.79 195.096 32.37V14.34C195.096 13.92 195.306 13.71 195.726 13.71H198.276C198.696 13.71 198.906 13.92 198.906 14.34Z" fill="#6782E1"/>
<path d="M207.325 33H204.775C204.355 33 204.145 32.79 204.145 32.37V14.34C204.145 13.92 204.355 13.71 204.775 13.71H214.345C214.745 13.71 214.945 13.92 214.945 14.34V16.38C214.945 16.8 214.745 17.01 214.345 17.01H208.315C208.075 17.01 207.955 17.12 207.955 17.34V21.99C207.955 22.23 208.075 22.35 208.315 22.35H213.445C213.865 22.35 214.075 22.56 214.075 22.98V24.99C214.075 25.43 213.865 25.65 213.445 25.65H208.315C208.075 25.65 207.955 25.76 207.955 25.98V32.37C207.955 32.79 207.745 33 207.325 33Z" fill="#6782E1"/>
<path d="M222.81 14.34V32.37C222.81 32.79 222.6 33 222.18 33H219.63C219.21 33 219 32.79 219 32.37V14.34C219 13.92 219.21 13.71 219.63 13.71H222.18C222.6 13.71 222.81 13.92 222.81 14.34Z" fill="#6782E1"/>
<path d="M238.488 33H228.678C228.258 33 228.048 32.79 228.048 32.37V14.34C228.048 13.92 228.258 13.71 228.678 13.71H238.488C238.888 13.71 239.088 13.92 239.088 14.34V16.38C239.088 16.8 238.888 17.01 238.488 17.01H232.218C231.978 17.01 231.858 17.12 231.858 17.34V21.24C231.858 21.46 231.978 21.57 232.218 21.57H237.348C237.768 21.57 237.978 21.78 237.978 22.2V24.24C237.978 24.66 237.768 24.87 237.348 24.87H232.218C231.978 24.87 231.858 24.98 231.858 25.2V29.37C231.858 29.59 231.978 29.7 232.218 29.7H238.488C238.888 29.7 239.088 29.91 239.088 30.33V32.37C239.088 32.79 238.888 33 238.488 33Z" fill="#6782E1"/>
<path d="M247.744 29.7H251.014C251.654 29.7 252.104 29.57 252.364 29.31C252.644 29.03 252.784 28.57 252.784 27.93V18.78C252.784 18.14 252.644 17.69 252.364 17.43C252.104 17.15 251.654 17.01 251.014 17.01H247.744C247.524 17.01 247.414 17.12 247.414 17.34V29.37C247.414 29.59 247.524 29.7 247.744 29.7ZM243.604 32.37V14.34C243.604 13.92 243.814 13.71 244.234 13.71H251.644C253.204 13.71 254.414 14.14 255.274 15C256.154 15.84 256.594 17.04 256.594 18.6V28.11C256.594 29.67 256.154 30.88 255.274 31.74C254.414 32.58 253.204 33 251.644 33H244.234C243.814 33 243.604 32.79 243.604 32.37Z" fill="#6782E1"/>
</svg>
