<svg width="16" height="16" viewBox="0 0 16 16" fill="none" xmlns="http://www.w3.org/2000/svg">
<path d="M11.2708 12.0625C11.1181 11.8819 11.0417 11.6769 11.0417 11.4475C11.0417 11.2186 11.1181 11.0278 11.2708 10.875L12.8125 9.33333H6.83333C6.59722 9.33333 6.39944 9.25333 6.24 9.09333C6.08 8.93389 6 8.73611 6 8.5C6 8.26389 6.08 8.06583 6.24 7.90583C6.39944 7.74639 6.59722 7.66667 6.83333 7.66667H12.8125L11.2708 6.125C11.1042 5.95833 11.0208 5.76056 11.0208 5.53167C11.0208 5.30222 11.1042 5.10417 11.2708 4.9375C11.4236 4.77083 11.6147 4.6875 11.8442 4.6875C12.0731 4.6875 12.2639 4.76389 12.4167 4.91667L15.4167 7.91667C15.5 8 15.5592 8.09028 15.5942 8.1875C15.6286 8.28472 15.6458 8.38889 15.6458 8.5C15.6458 8.61111 15.6286 8.71528 15.5942 8.8125C15.5592 8.90972 15.5 9 15.4167 9.08333L12.4167 12.0833C12.2361 12.2639 12.0383 12.3436 11.8233 12.3225C11.6078 12.3019 11.4236 12.2153 11.2708 12.0625ZM2.66667 16C2.20833 16 1.81583 15.8369 1.48917 15.5108C1.16306 15.1842 1 14.7917 1 14.3333V2.66667C1 2.20833 1.16306 1.81583 1.48917 1.48917C1.81583 1.16306 2.20833 1 2.66667 1H7.66667C7.90278 1 8.10083 1.07972 8.26083 1.23917C8.42028 1.39917 8.5 1.59722 8.5 1.83333C8.5 2.06944 8.42028 2.26722 8.26083 2.42667C8.10083 2.58667 7.90278 2.66667 7.66667 2.66667H2.66667V14.3333H7.66667C7.90278 14.3333 8.10083 14.4133 8.26083 14.5733C8.42028 14.7328 8.5 14.9306 8.5 15.1667C8.5 15.4028 8.42028 15.6006 8.26083 15.76C8.10083 15.92 7.90278 16 7.66667 16H2.66667Z" fill="#6782E1"/>
</svg>
