<svg width="36" height="36" viewBox="0 0 36 36" fill="none" xmlns="http://www.w3.org/2000/svg">
<g filter="url(#filter0_ii_629_3910)">
<path d="M0.847168 13.7648C0.847168 12.3614 1.98489 11.2236 3.38834 11.2236H23.7178C25.1212 11.2236 26.2589 12.3614 26.2589 13.7648V30.706C26.2589 32.1094 25.1212 33.2472 23.7178 33.2472H3.38835C1.98489 33.2472 0.847168 32.1094 0.847168 30.706V13.7648Z" fill="#8A7DD8"/>
</g>
<path d="M0.847168 13.7648C0.847168 12.3614 1.98489 11.2236 3.38834 11.2236H23.7178C25.1212 11.2236 26.2589 12.3614 26.2589 13.7648V30.706C26.2589 32.1094 25.1212 33.2472 23.7178 33.2472H3.38835C1.98489 33.2472 0.847168 32.1094 0.847168 30.706V13.7648Z" stroke="#1F2024" stroke-width="0.847059"/>
<g filter="url(#filter1_i_629_3910)">
<path d="M11.4351 13.7648C11.4351 12.3614 12.5728 11.2236 13.9762 11.2236H32.6115C34.015 11.2236 35.1527 12.3614 35.1527 13.7648V30.706C35.1527 32.1094 34.015 33.2472 32.6115 33.2472H13.9762C12.5728 33.2472 11.4351 32.1094 11.4351 30.706V13.7648Z" fill="#AEA5EE"/>
</g>
<path d="M11.4351 13.7648C11.4351 12.3614 12.5728 11.2236 13.9762 11.2236H32.6115C34.015 11.2236 35.1527 12.3614 35.1527 13.7648V30.706C35.1527 32.1094 34.015 33.2472 32.6115 33.2472H13.9762C12.5728 33.2472 11.4351 32.1094 11.4351 30.706V13.7648Z" stroke="#1F2024" stroke-width="0.847059"/>
<path d="M24.988 11.647H29.0115L23.0821 32.8234H19.0586L24.988 11.647Z" fill="white" fill-opacity="0.5"/>
<path d="M23.4001 11.647H24.0354L18.106 32.8234H17.4707L23.4001 11.647Z" fill="white" fill-opacity="0.5"/>
<g filter="url(#filter2_d_629_3910)">
<path fill-rule="evenodd" clip-rule="evenodd" d="M5.13943 15.3723C4.34999 15.3723 3.71002 16.0123 3.71002 16.8017V18.2267L2.31438 17.7732C1.56358 17.5293 0.757168 17.9401 0.513217 18.6909C0.269266 19.4417 0.680153 20.2482 1.43096 20.4921L2.8485 20.9527L1.97747 22.1516C1.51345 22.7902 1.65503 23.6841 2.29371 24.1482C2.93238 24.6122 3.82629 24.4706 4.29031 23.8319L5.09671 22.722L5.9281 23.8663C6.39212 24.505 7.28603 24.6466 7.9247 24.1826C8.56338 23.7185 8.70496 22.8246 8.24093 22.1859L7.36755 20.9838L8.77834 20.5254C9.52915 20.2815 9.94003 19.4751 9.69608 18.7243C9.45213 17.9735 8.64572 17.5626 7.89492 17.8065L6.56884 18.2374V16.8017C6.56884 16.0123 5.92887 15.3723 5.13943 15.3723Z" fill="#91DCCC"/>
<path d="M3.71002 18.2267L3.57914 18.6295C3.70808 18.6714 3.84928 18.649 3.95897 18.5693C4.06865 18.4896 4.13355 18.3623 4.13355 18.2267H3.71002ZM2.31438 17.7732L2.44526 17.3704L2.31438 17.7732ZM0.513217 18.6909L0.916018 18.8218L0.513217 18.6909ZM1.43096 20.4921L1.30008 20.8949H1.30008L1.43096 20.4921ZM2.8485 20.9527L3.19114 21.2016C3.27083 21.092 3.29319 20.9508 3.2513 20.8218C3.2094 20.6929 3.10831 20.5918 2.97938 20.5499L2.8485 20.9527ZM1.97747 22.1516L1.63483 21.9026L1.63483 21.9026L1.97747 22.1516ZM4.29031 23.8319L3.94767 23.583L4.29031 23.8319ZM5.09671 22.722L5.43935 22.4731C5.35967 22.3634 5.23229 22.2985 5.09671 22.2985C4.96114 22.2985 4.83376 22.3634 4.75407 22.4731L5.09671 22.722ZM5.9281 23.8663L6.27074 23.6174L5.9281 23.8663ZM8.24093 22.1859L7.89829 22.4349L8.24093 22.1859ZM7.36755 20.9838L7.23667 20.581C7.10773 20.6229 7.00664 20.724 6.96475 20.853C6.92285 20.9819 6.94522 21.1231 7.0249 21.2328L7.36755 20.9838ZM8.77834 20.5254L8.90922 20.9282L8.77834 20.5254ZM9.69608 18.7243L10.0989 18.5934V18.5934L9.69608 18.7243ZM7.89492 17.8065L8.0258 18.2093L7.89492 17.8065ZM6.56884 18.2374H6.14532C6.14532 18.373 6.21022 18.5004 6.3199 18.58C6.42958 18.6597 6.57078 18.6821 6.69972 18.6402L6.56884 18.2374ZM4.13355 16.8017C4.13355 16.2462 4.5839 15.7958 5.13943 15.7958V14.9488C4.11608 14.9488 3.28649 15.7784 3.28649 16.8017H4.13355ZM4.13355 18.2267V16.8017H3.28649V18.2267H4.13355ZM3.8409 17.8239L2.44526 17.3704L2.1835 18.176L3.57914 18.6295L3.8409 17.8239ZM2.44526 17.3704C1.47199 17.0542 0.42665 17.5868 0.110417 18.5601L0.916018 18.8218C1.08769 18.2935 1.65516 18.0043 2.1835 18.176L2.44526 17.3704ZM0.110417 18.5601C-0.205816 19.5333 0.326815 20.5787 1.30008 20.8949L1.56184 20.0893C1.03349 19.9176 0.744349 19.3502 0.916018 18.8218L0.110417 18.5601ZM1.30008 20.8949L2.71762 21.3555L2.97938 20.5499L1.56184 20.0893L1.30008 20.8949ZM2.50586 20.7038L1.63483 21.9026L2.32012 22.4005L3.19114 21.2016L2.50586 20.7038ZM1.63483 21.9026C1.03332 22.7305 1.21685 23.8893 2.04476 24.4908L2.54265 23.8055C2.09321 23.479 1.99358 22.8499 2.32012 22.4005L1.63483 21.9026ZM2.04476 24.4908C2.87267 25.0923 4.03144 24.9088 4.63295 24.0809L3.94767 23.583C3.62113 24.0324 2.99209 24.1321 2.54265 23.8055L2.04476 24.4908ZM4.63295 24.0809L5.43935 22.971L4.75407 22.4731L3.94767 23.583L4.63295 24.0809ZM4.75407 22.971L5.58545 24.1153L6.27074 23.6174L5.43935 22.4731L4.75407 22.971ZM5.58545 24.1153C6.18697 24.9432 7.34574 25.1267 8.17365 24.5252L7.67576 23.8399C7.22632 24.1664 6.59727 24.0668 6.27074 23.6174L5.58545 24.1153ZM8.17365 24.5252C9.00156 23.9237 9.18509 22.7649 8.58358 21.937L7.89829 22.4349C8.22483 22.8843 8.12519 23.5134 7.67576 23.8399L8.17365 24.5252ZM8.58358 21.937L7.71019 20.7349L7.0249 21.2328L7.89829 22.4349L8.58358 21.937ZM7.49842 21.3866L8.90922 20.9282L8.64746 20.1226L7.23667 20.581L7.49842 21.3866ZM8.90922 20.9282C9.88249 20.612 10.4151 19.5667 10.0989 18.5934L9.29328 18.8551C9.46495 19.3835 9.17581 19.951 8.64746 20.1226L8.90922 20.9282ZM10.0989 18.5934C9.78265 17.6201 8.73731 17.0875 7.76404 17.4037L8.0258 18.2093C8.55414 18.0377 9.12161 18.3268 9.29328 18.8551L10.0989 18.5934ZM7.76404 17.4037L6.43797 17.8346L6.69972 18.6402L8.0258 18.2093L7.76404 17.4037ZM6.14532 16.8017V18.2374H6.99237V16.8017H6.14532ZM5.13943 15.7958C5.69497 15.7958 6.14532 16.2462 6.14532 16.8017H6.99237C6.99237 15.7784 6.16278 14.9488 5.13943 14.9488V15.7958Z" fill="#1F2024"/>
<g filter="url(#filter3_i_629_3910)">
<circle cx="4.77415" cy="20.1369" r="1.1262" fill="#EDB146"/>
</g>
<circle cx="4.77415" cy="20.1369" r="1.1262" stroke="#1F2024" stroke-width="0.847059"/>
</g>
<g filter="url(#filter4_i_629_3910)">
<path d="M6.14111 6.14111L10.2055 11.2235H6.41506L6.14111 6.14111Z" fill="#E79834"/>
</g>
<path d="M6.14111 6.14111L10.2055 11.2235H6.41506L6.14111 6.14111Z" stroke="#1F2024" stroke-width="0.847059" stroke-linejoin="round"/>
<g filter="url(#filter5_i_629_3910)">
<path d="M10.9851 4.44702L14.7448 11.2235H9.3584L10.9851 4.44702Z" fill="#E79834"/>
</g>
<path d="M10.9851 4.44702L14.7448 11.2235H9.3584L10.9851 4.44702Z" stroke="#1F2024" stroke-width="0.847059" stroke-linejoin="round"/>
<g filter="url(#filter6_i_629_3910)">
<path d="M16.5221 2.75293L19.2843 11.2235H13.8979L16.5221 2.75293Z" fill="#E79834"/>
</g>
<path d="M16.5221 2.75293L19.2843 11.2235H13.8979L16.5221 2.75293Z" stroke="#1F2024" stroke-width="0.847059" stroke-linejoin="round"/>
<g filter="url(#filter7_i_629_3910)">
<path d="M22.6571 0.635254L23.8234 11.2235H18.437L22.6571 0.635254Z" fill="#E79834"/>
</g>
<path d="M22.6571 0.635254L23.8234 11.2235H18.437L22.6571 0.635254Z" stroke="#1F2024" stroke-width="0.847059" stroke-linejoin="round"/>
<path d="M19.7517 22.1401C18.5067 20.7775 16.3237 20.6735 14.9738 22.1442C14.7366 22.4027 14.1819 22.3667 13.9234 22.1295C13.6079 21.8399 13.7588 21.0177 14.1715 20.6212C15.2003 19.6326 16.4988 19.3766 17.6925 19.58C18.8698 19.7806 19.9759 20.4297 20.7082 21.304C20.756 21.3603 20.7923 21.4228 20.8173 21.4884C20.8491 21.5718 20.8624 21.6601 20.8579 21.7474C20.8493 21.913 20.7763 22.0747 20.6426 22.192C20.5862 22.2415 20.5235 22.2793 20.4573 22.3054C20.3673 22.3411 20.2712 22.3551 20.1768 22.3482C20.0187 22.3365 19.8652 22.2661 19.7517 22.1401Z" fill="#1F2024"/>
<path d="M26.3069 22.1401C27.5519 20.7775 29.7349 20.6735 31.0847 22.1442C31.322 22.4027 31.8767 22.3667 32.1352 22.1295C32.4507 21.8399 32.2997 21.0177 31.8871 20.6212C30.8583 19.6326 29.5598 19.3766 28.3661 19.58C27.1888 19.7806 26.0827 20.4297 25.3504 21.304C25.3026 21.3603 25.2663 21.4228 25.2413 21.4884C25.2095 21.5718 25.1962 21.6601 25.2007 21.7474C25.2093 21.913 25.2823 22.0747 25.416 22.192C25.4724 22.2415 25.5351 22.2793 25.6013 22.3054C25.6913 22.3411 25.7874 22.3551 25.8818 22.3482C26.0399 22.3365 26.1934 22.2661 26.3069 22.1401Z" fill="#1F2024"/>
<path d="M19.0586 25.0941C21.2118 27.2935 24.7035 27.1285 26.6821 25.0941" stroke="#1F2024" stroke-width="1.27059" stroke-linecap="round"/>
<defs>
<filter id="filter0_ii_629_3910" x="0.423828" y="10.8" width="26.2588" height="22.8706" filterUnits="userSpaceOnUse" color-interpolation-filters="sRGB">
<feFlood flood-opacity="0" result="BackgroundImageFix"/>
<feBlend mode="normal" in="SourceGraphic" in2="BackgroundImageFix" result="shape"/>
<feColorMatrix in="SourceAlpha" type="matrix" values="0 0 0 0 0 0 0 0 0 0 0 0 0 0 0 0 0 0 127 0" result="hardAlpha"/>
<feOffset dy="-16"/>
<feComposite in2="hardAlpha" operator="arithmetic" k2="-1" k3="1"/>
<feColorMatrix type="matrix" values="0 0 0 0 0 0 0 0 0 0 0 0 0 0 0 0 0 0 0.25 0"/>
<feBlend mode="normal" in2="shape" result="effect1_innerShadow_629_3910"/>
<feColorMatrix in="SourceAlpha" type="matrix" values="0 0 0 0 0 0 0 0 0 0 0 0 0 0 0 0 0 0 127 0" result="hardAlpha"/>
<feOffset dy="16"/>
<feComposite in2="hardAlpha" operator="arithmetic" k2="-1" k3="1"/>
<feColorMatrix type="matrix" values="0 0 0 0 1 0 0 0 0 1 0 0 0 0 1 0 0 0 0.25 0"/>
<feBlend mode="normal" in2="effect1_innerShadow_629_3910" result="effect2_innerShadow_629_3910"/>
</filter>
<filter id="filter1_i_629_3910" x="11.0117" y="10.8" width="24.5645" height="22.8706" filterUnits="userSpaceOnUse" color-interpolation-filters="sRGB">
<feFlood flood-opacity="0" result="BackgroundImageFix"/>
<feBlend mode="normal" in="SourceGraphic" in2="BackgroundImageFix" result="shape"/>
<feColorMatrix in="SourceAlpha" type="matrix" values="0 0 0 0 0 0 0 0 0 0 0 0 0 0 0 0 0 0 127 0" result="hardAlpha"/>
<feOffset dx="-24" dy="8"/>
<feComposite in2="hardAlpha" operator="arithmetic" k2="-1" k3="1"/>
<feColorMatrix type="matrix" values="0 0 0 0 1 0 0 0 0 1 0 0 0 0 1 0 0 0 0.25 0"/>
<feBlend mode="normal" in2="shape" result="effect1_innerShadow_629_3910"/>
</filter>
<filter id="filter2_d_629_3910" x="0.019043" y="14.9487" width="10.1709" height="10.4628" filterUnits="userSpaceOnUse" color-interpolation-filters="sRGB">
<feFlood flood-opacity="0" result="BackgroundImageFix"/>
<feColorMatrix in="SourceAlpha" type="matrix" values="0 0 0 0 0 0 0 0 0 0 0 0 0 0 0 0 0 0 127 0" result="hardAlpha"/>
<feOffset dy="0.423529"/>
<feColorMatrix type="matrix" values="0 0 0 0 0 0 0 0 0 0 0 0 0 0 0 0 0 0 0.25 0"/>
<feBlend mode="normal" in2="BackgroundImageFix" result="effect1_dropShadow_629_3910"/>
<feBlend mode="normal" in="SourceGraphic" in2="effect1_dropShadow_629_3910" result="shape"/>
</filter>
<filter id="filter3_i_629_3910" x="3.22461" y="18.5872" width="3.09912" height="3.09961" filterUnits="userSpaceOnUse" color-interpolation-filters="sRGB">
<feFlood flood-opacity="0" result="BackgroundImageFix"/>
<feBlend mode="normal" in="SourceGraphic" in2="BackgroundImageFix" result="shape"/>
<feColorMatrix in="SourceAlpha" type="matrix" values="0 0 0 0 0 0 0 0 0 0 0 0 0 0 0 0 0 0 127 0" result="hardAlpha"/>
<feOffset dx="12" dy="-8"/>
<feComposite in2="hardAlpha" operator="arithmetic" k2="-1" k3="1"/>
<feColorMatrix type="matrix" values="0 0 0 0 0 0 0 0 0 0 0 0 0 0 0 0 0 0 0.25 0"/>
<feBlend mode="normal" in2="shape" result="effect1_innerShadow_629_3910"/>
</filter>
<filter id="filter4_i_629_3910" x="5.71777" y="5.71753" width="4.91113" height="5.92944" filterUnits="userSpaceOnUse" color-interpolation-filters="sRGB">
<feFlood flood-opacity="0" result="BackgroundImageFix"/>
<feBlend mode="normal" in="SourceGraphic" in2="BackgroundImageFix" result="shape"/>
<feColorMatrix in="SourceAlpha" type="matrix" values="0 0 0 0 0 0 0 0 0 0 0 0 0 0 0 0 0 0 127 0" result="hardAlpha"/>
<feOffset dx="1.90588" dy="-1.27059"/>
<feComposite in2="hardAlpha" operator="arithmetic" k2="-1" k3="1"/>
<feColorMatrix type="matrix" values="0 0 0 0 0 0 0 0 0 0 0 0 0 0 0 0 0 0 0.25 0"/>
<feBlend mode="normal" in2="shape" result="effect1_innerShadow_629_3910"/>
</filter>
<filter id="filter5_i_629_3910" x="8.93506" y="4.02344" width="6.2334" height="7.62354" filterUnits="userSpaceOnUse" color-interpolation-filters="sRGB">
<feFlood flood-opacity="0" result="BackgroundImageFix"/>
<feBlend mode="normal" in="SourceGraphic" in2="BackgroundImageFix" result="shape"/>
<feColorMatrix in="SourceAlpha" type="matrix" values="0 0 0 0 0 0 0 0 0 0 0 0 0 0 0 0 0 0 127 0" result="hardAlpha"/>
<feOffset dx="1.90588" dy="-1.27059"/>
<feComposite in2="hardAlpha" operator="arithmetic" k2="-1" k3="1"/>
<feColorMatrix type="matrix" values="0 0 0 0 0 0 0 0 0 0 0 0 0 0 0 0 0 0 0.25 0"/>
<feBlend mode="normal" in2="shape" result="effect1_innerShadow_629_3910"/>
</filter>
<filter id="filter6_i_629_3910" x="13.4746" y="2.32935" width="6.2334" height="9.31763" filterUnits="userSpaceOnUse" color-interpolation-filters="sRGB">
<feFlood flood-opacity="0" result="BackgroundImageFix"/>
<feBlend mode="normal" in="SourceGraphic" in2="BackgroundImageFix" result="shape"/>
<feColorMatrix in="SourceAlpha" type="matrix" values="0 0 0 0 0 0 0 0 0 0 0 0 0 0 0 0 0 0 127 0" result="hardAlpha"/>
<feOffset dx="1.90588" dy="-1.27059"/>
<feComposite in2="hardAlpha" operator="arithmetic" k2="-1" k3="1"/>
<feColorMatrix type="matrix" values="0 0 0 0 0 0 0 0 0 0 0 0 0 0 0 0 0 0 0.25 0"/>
<feBlend mode="normal" in2="shape" result="effect1_innerShadow_629_3910"/>
</filter>
<filter id="filter7_i_629_3910" x="18.0137" y="0.21167" width="6.2334" height="11.4353" filterUnits="userSpaceOnUse" color-interpolation-filters="sRGB">
<feFlood flood-opacity="0" result="BackgroundImageFix"/>
<feBlend mode="normal" in="SourceGraphic" in2="BackgroundImageFix" result="shape"/>
<feColorMatrix in="SourceAlpha" type="matrix" values="0 0 0 0 0 0 0 0 0 0 0 0 0 0 0 0 0 0 127 0" result="hardAlpha"/>
<feOffset dx="1.90588" dy="-1.27059"/>
<feComposite in2="hardAlpha" operator="arithmetic" k2="-1" k3="1"/>
<feColorMatrix type="matrix" values="0 0 0 0 0 0 0 0 0 0 0 0 0 0 0 0 0 0 0.25 0"/>
<feBlend mode="normal" in2="shape" result="effect1_innerShadow_629_3910"/>
</filter>
</defs>
</svg>
