<svg xmlns="http://www.w3.org/2000/svg" xmlns:xlink="http://www.w3.org/1999/xlink" height="126.1" preserveAspectRatio="xMidYMid meet" version="1.0" viewBox="0.0 -0.1 122.0 126.1" width="122.0" zoomAndPan="magnify"><g id="change1_1"><path d="M108.41,80.09c0-0.266-0.105-0.52-0.293-0.707l-61.45-61.38c-0.391-0.39-1.023-0.39-1.414,0 c-1.011,1.011-2.355,1.567-3.788,1.567c-1.432,0-2.777-0.557-3.788-1.567c-0.391-0.391-1.023-0.39-1.414,0l-23.229,23.2 c-0.188,0.188-0.293,0.442-0.293,0.707c0,0.266,0.105,0.52,0.293,0.708c1.854,1.855,2.096,4.749,0.573,6.882 c-0.284,0.398-0.239,0.943,0.106,1.289l50.68,50.629c0,0.001,0,0.001,0.001,0.001l10.9,10.88c0.346,0.345,0.888,0.389,1.283,0.108 c2.144-1.514,5.043-1.273,6.897,0.572c0.194,0.194,0.45,0.291,0.705,0.291c0.256,0,0.512-0.098,0.707-0.292l23.23-23.199 c0.188-0.188,0.293-0.442,0.293-0.708c0-0.265-0.105-0.52-0.293-0.707c-2.086-2.086-2.086-5.48,0-7.566 C108.305,80.61,108.41,80.355,108.41,80.09z M77.998,66.979c0,4.28-1.668,8.302-4.694,11.323c-0.001,0.001-0.001,0.001-0.002,0.002 c-3.021,3.026-7.043,4.694-11.323,4.694c-4.279,0-8.304-1.668-11.331-4.695c-6.242-6.241-6.242-16.405,0-22.655 c3.125-3.122,7.229-4.682,11.331-4.682s8.204,1.561,11.324,4.681C76.33,58.675,77.998,62.699,77.998,66.979z" fill="inherit"/><path d="M121.869,18.156c-0.131-0.23-0.349-0.4-0.604-0.47L76.194,5.294L74.85,0.719c-0.155-0.529-0.709-0.834-1.241-0.678 L45.837,8.184l-3.661-3.661c-0.391-0.391-1.023-0.391-1.414,0l-7.275,7.275l-11.818,3.462c-0.255,0.074-0.469,0.247-0.597,0.48 c-0.127,0.232-0.156,0.506-0.082,0.761l1.763,6.011l-22.46,22.44C0.105,45.141,0,45.395,0,45.661c0,0.266,0.105,0.52,0.293,0.708 l41.691,41.644l5.026,17.119c0,0.001,0.001,0.002,0.002,0.004l3.89,13.218c0.128,0.436,0.526,0.718,0.959,0.718 c0.093,0,0.188-0.013,0.282-0.04l16.148-4.742l11.432,11.419c0.195,0.195,0.451,0.293,0.707,0.293s0.512-0.098,0.707-0.292 l40.471-40.42c0.188-0.188,0.293-0.442,0.293-0.708s-0.105-0.521-0.293-0.708l-13.757-13.743l14.113-51.214 C122.034,18.66,122.001,18.387,121.869,18.156z M73.212,2.241L87.04,49.339l-5.913-5.907l-8.668-29.494 c-0.155-0.529-0.708-0.831-1.239-0.678c-1.286,0.376-2.639,0.229-3.815-0.412c-1.176-0.641-2.03-1.699-2.404-2.979 c-0.074-0.254-0.247-0.469-0.48-0.597s-0.509-0.158-0.761-0.082L50.68,13.026l-3.231-3.231L73.212,2.241z M23.191,16.899 l7.331-2.148l-6.156,6.151L23.191,16.899z M52.537,116.829l-3.607-12.257c0-0.001,0-0.002,0-0.003l-3.997-13.612l21.744,21.72 L52.537,116.829z M80.43,123.587L2.415,45.661l32.274-32.245c0.008-0.008,0.019-0.01,0.028-0.018l6.753-6.753l8.213,8.213 c0.009,0.009,0.022,0.012,0.032,0.021l69.771,69.702L80.43,123.587z M106.426,67.784l-0.2,0.723l-3.097-3.094l10.155-36.847 c0.07-0.256,0.037-0.529-0.095-0.76c-0.131-0.23-0.349-0.4-0.604-0.47c-1.236-0.34-2.268-1.142-2.903-2.259 c-0.635-1.116-0.798-2.409-0.458-3.641c0.07-0.256,0.037-0.529-0.095-0.76c-0.131-0.231-0.348-0.4-0.604-0.471l-28.92-7.96 c-0.5-0.136-1.008,0.14-1.189,0.617l-1.56-5.313l42.914,11.799L106.426,67.784z" fill="inherit"/><path d="M68.485,59.06l-1.756,1.793c-0.7-0.44-1.505-0.684-2.349-0.684c-1.16,0-2.292,0.468-3.106,1.283 c-0.821,0.821-1.293,1.958-1.293,3.118c0,1.159,0.472,2.296,1.293,3.117c0.449,0.449,0.707,1.066,0.707,1.692 c0,0.635-0.253,1.241-0.712,1.708c-0.893,0.906-2.504,0.906-3.396,0c-0.453-0.459-0.702-1.066-0.702-1.708 c0-0.633,0.254-1.25,0.697-1.691c0.391-0.391,0.391-1.023,0.001-1.415c-0.391-0.391-1.024-0.39-1.415-0.001 c-0.815,0.815-1.283,1.947-1.283,3.107c0,0.832,0.239,1.626,0.668,2.32l-1.787,1.795c-0.39,0.392-0.388,1.024,0.003,1.415 c0.195,0.194,0.451,0.291,0.706,0.291c0.257,0,0.513-0.099,0.709-0.294l1.78-1.787c0.688,0.43,1.482,0.671,2.322,0.671 c1.188,0,2.298-0.461,3.123-1.299c0.83-0.844,1.287-1.948,1.287-3.111c0-1.152-0.472-2.285-1.293-3.106 c-0.449-0.449-0.707-1.07-0.707-1.703c0-0.633,0.258-1.254,0.708-1.704c0.888-0.892,2.47-0.91,3.417,0.022 c0.916,0.938,0.906,2.456-0.022,3.385c-0.391,0.391-0.391,1.023,0,1.414s1.023,0.391,1.414,0c1.45-1.45,1.664-3.682,0.629-5.401 l1.789-1.827c0.386-0.395,0.38-1.028-0.016-1.414C69.507,58.66,68.874,58.665,68.485,59.06z" fill="inherit"/></g></svg>