<svg width="43" height="43" viewBox="0 0 43 43" fill="none" xmlns="http://www.w3.org/2000/svg">
<path d="M4.84129 21.7551C4.84129 12.5571 12.4316 5.06938 21.7556 5.06938C31.0796 5.06938 38.6699 12.5571 38.6699 21.7551C38.6699 30.9531 31.0796 38.4408 21.7556 38.4408C12.4316 38.4408 4.84129 30.9531 4.84129 21.7551ZM0.612716 21.7551C0.612715 33.2682 10.0847 42.6122 21.7556 42.6122C33.4264 42.6122 42.8984 33.2682 42.8984 21.7551C42.8984 10.2419 33.4264 0.897949 21.7556 0.897948C10.0847 0.897948 0.612716 10.2419 0.612716 21.7551ZM21.7556 19.6694L13.2984 19.6694L13.2984 23.8408L21.7556 23.8408L21.7556 30.0979L30.2127 21.7551L21.7556 13.4122L21.7556 19.6694Z" fill="#A6A6A6"/>
</svg>
