<svg width="379" height="379" viewBox="0 0 379 379" fill="none" xmlns="http://www.w3.org/2000/svg">
<path d="M341.024 302.056H315.919V302.245H341.024V302.056Z" fill="#EBEBEB"/>
<path d="M251.065 304.117H244.478V304.307H251.065V304.117Z" fill="#EBEBEB"/>
<path d="M315.161 295.021H300.615V295.211H315.161V295.021Z" fill="#EBEBEB"/>
<path d="M72.5027 296.295H39.7647V296.484H72.5027V296.295Z" fill="#EBEBEB"/>
<path d="M84.0546 296.295H79.2565V296.484H84.0546V296.295Z" fill="#EBEBEB"/>
<path d="M170.664 299.494H99.6543V299.683H170.664V299.494Z" fill="#EBEBEB"/>
<path d="M180.707 256.053H34.3374C31.9497 256.053 30.0092 254.112 30.0092 251.724V45.9805C30.0092 43.5928 31.9497 41.6523 34.3374 41.6523H180.707C183.095 41.6523 185.035 43.5928 185.035 45.9805V251.724C185.035 254.112 183.095 256.053 180.707 256.053ZM34.3374 41.8418C32.0558 41.8418 30.1987 43.6989 30.1987 45.9805V251.724C30.1987 254.006 32.0558 255.863 34.3374 255.863H180.707C182.989 255.863 184.846 254.006 184.846 251.724V45.9805C184.846 43.6989 182.989 41.8418 180.707 41.8418H34.3374Z" fill="#EBEBEB"/>
<path d="M344.663 256.053H198.293C195.905 256.053 193.965 254.112 193.965 251.724V45.9805C193.965 43.5928 195.905 41.6523 198.293 41.6523H344.663C347.05 41.6523 348.991 43.5928 348.991 45.9805V251.724C348.991 254.112 347.05 256.053 344.663 256.053ZM198.293 41.8418C196.011 41.8418 194.154 43.6989 194.154 45.9805V251.724C194.154 254.006 196.011 255.863 198.293 255.863H344.663C346.944 255.863 348.801 254.006 348.801 251.724V45.9805C348.801 43.6989 346.944 41.8418 344.663 41.8418H198.293Z" fill="#EBEBEB"/>
<path d="M379 289.859H0V290.049H379V289.859Z" fill="#EBEBEB"/>
<path d="M324.697 215.576H202.212V281.491H324.697V215.576Z" fill="#E6E6E6"/>
<path d="M212.035 284.228H204.334V290.041H212.035V284.228Z" fill="#E6E6E6"/>
<path d="M334.051 210.671H326.349V290.049H334.051V210.671Z" fill="#E6E6E6"/>
<path d="M324.386 210.671H322.332H204.334H202.28H200.226V290.049H204.334V285.6H322.34V290.049H326.448V210.671H324.386ZM322.34 245.426H265.391V217.857H322.34V245.426ZM204.334 217.857H261.283V278.414H204.334V217.857ZM265.391 278.414V249.534H322.34V278.421H265.391V278.414Z" fill="#F0F0F0"/>
<path d="M261.283 220.821H208.185V278.414H261.283V220.821Z" fill="#F5F5F5"/>
<path d="M258.88 247.889C258.88 249.254 257.773 250.353 256.416 250.353C255.052 250.353 253.953 249.246 253.953 247.889C253.953 246.525 255.059 245.426 256.416 245.426C257.773 245.426 258.88 246.532 258.88 247.889Z" fill="#FAFAFA"/>
<path d="M256.409 250.36C255.416 250.36 254.559 249.769 254.173 248.92C254.029 249.231 253.945 249.579 253.945 249.943C253.945 251.308 255.052 252.407 256.409 252.407C257.773 252.407 258.872 251.3 258.872 249.943C258.872 249.579 258.789 249.231 258.645 248.92C258.258 249.769 257.409 250.36 256.409 250.36Z" fill="#E0E0E0"/>
<path d="M228.78 278.414H241.446L247.495 220.821H234.828L228.78 278.414Z" fill="#FAFAFA"/>
<path d="M244.69 278.414H247.207L253.263 220.821H250.739L244.69 278.414Z" fill="#FAFAFA"/>
<path d="M278.224 220.76H273.206V245.395H278.224V220.76Z" fill="#FAFAFA"/>
<path d="M299.031 220.76H294.013V245.395H299.031V220.76Z" fill="#F5F5F5"/>
<path d="M283.242 222.496H278.224V245.403H283.242V222.496Z" fill="#F5F5F5"/>
<path d="M294.013 222.496H288.995V245.403H294.013V222.496Z" fill="#FAFAFA"/>
<path d="M288.995 220.76H285.751V245.395H288.995V220.76Z" fill="#EBEBEB"/>
<path d="M285.751 222.496H283.242V245.403H285.751V222.496Z" fill="#FAFAFA"/>
<path d="M304.049 220.76H299.031V245.395H304.049V220.76Z" fill="#EBEBEB"/>
<path d="M309.067 222.496H304.049V245.403H309.067V222.496Z" fill="#E6E6E6"/>
<path d="M319.831 222.496H314.813V245.403H319.831V222.496Z" fill="#E6E6E6"/>
<path d="M314.82 220.76H311.576V245.395H314.82V220.76Z" fill="#FAFAFA"/>
<path d="M311.576 222.496H309.067V245.403H311.576V222.496Z" fill="#EBEBEB"/>
<path d="M322.339 221.344H319.831V245.396H322.339V221.344Z" fill="#EBEBEB"/>
<path d="M317.329 278.416H322.347V253.781H317.329V278.416Z" fill="#EBEBEB"/>
<path d="M296.516 278.416H301.534V253.781H296.516V278.416Z" fill="#FAFAFA"/>
<path d="M312.311 278.411H317.329V255.504H312.311V278.411Z" fill="#FAFAFA"/>
<path d="M301.535 278.411H306.553V255.504H301.535V278.411Z" fill="#EBEBEB"/>
<path d="M306.551 278.416H309.795V253.781H306.551V278.416Z" fill="#FAFAFA"/>
<path d="M309.802 278.411H312.311V255.504H309.802V278.411Z" fill="#F5F5F5"/>
<path d="M291.498 278.416H296.516V253.781H291.498V278.416Z" fill="#EBEBEB"/>
<path d="M286.48 278.411H291.498V255.504H286.48V278.411Z" fill="#F5F5F5"/>
<path d="M275.711 278.411H280.729V255.504H275.711V278.411Z" fill="#E6E6E6"/>
<path d="M280.728 278.416H283.972V253.781H280.728V278.416Z" fill="#FAFAFA"/>
<path d="M269.96 278.416H273.204V253.781H269.96V278.416Z" fill="#FAFAFA"/>
<path d="M283.971 278.411H286.48V255.504H283.971V278.411Z" fill="#EBEBEB"/>
<path d="M273.202 278.416H275.711V254.364H273.202V278.416Z" fill="#EBEBEB"/>
<path d="M154.617 218.615L165.411 201.181L158.505 220.487L178.873 218.054L159.468 224.694L174.067 239.104L156.777 228.075L154.617 248.465L152.457 228.075L135.167 239.104L149.766 224.694L130.368 218.054L150.728 220.487L143.823 201.181L154.617 218.615Z" fill="#F0F0F0"/>
<path d="M229.272 92.2107L237.944 78.1953L232.395 93.7116L248.76 91.7559L233.168 97.0922L244.902 108.667L231.008 99.8059L229.272 116.194L227.536 99.8059L213.642 108.667L225.376 97.0922L209.784 91.7559L226.149 93.7116L220.601 78.1953L229.272 92.2107Z" fill="#F0F0F0"/>
<path d="M185.846 321.172C267.015 321.172 332.815 317.331 332.815 312.592C332.815 307.853 267.015 304.011 185.846 304.011C104.678 304.011 38.8778 307.853 38.8778 312.592C38.8778 317.331 104.678 321.172 185.846 321.172Z" fill="#F5F5F5"/>
<path d="M184.914 142.193L163.933 149.834C163.569 149.963 163.167 149.781 163.038 149.417L152.813 121.363C152.684 120.999 152.866 120.598 153.23 120.469L166.154 115.762L178.069 121.371L185.331 141.299C185.46 141.663 185.278 142.064 184.914 142.193Z" fill="#407BFF"/>
<path opacity="0.5" d="M184.914 142.193L163.933 149.834C163.569 149.963 163.167 149.781 163.038 149.417L152.813 121.363C152.684 120.999 152.866 120.598 153.23 120.469L166.154 115.762L178.069 121.371L185.331 141.299C185.46 141.663 185.278 142.064 184.914 142.193Z" fill="white"/>
<path opacity="0.1" d="M178.039 121.303L169.33 124.479L166.154 115.762L178.039 121.303Z" fill="black"/>
<path d="M175.145 123.845L159.626 129.5L163.21 139.336L178.729 133.68L175.145 123.845Z" fill="#407BFF"/>
<path opacity="0.7" d="M175.145 123.845L159.626 129.5L163.21 139.336L178.729 133.68L175.145 123.845Z" fill="white"/>
<path d="M166.32 134.371L164.175 138.979L170.929 136.516L166.32 134.371Z" fill="#407BFF"/>
<path opacity="0.2" d="M166.32 134.371L164.175 138.979L170.929 136.516L166.32 134.371Z" fill="white"/>
<path d="M169.413 137.069L178.714 133.681L178.388 132.787L172.65 130.111L169.413 137.069Z" fill="#407BFF"/>
<path opacity="0.4" d="M169.413 137.069L178.714 133.681L178.388 132.787L172.65 130.111L169.413 137.069Z" fill="white"/>
<path d="M168.761 130.134C169.095 131.051 168.625 132.059 167.707 132.392C166.79 132.726 165.782 132.256 165.449 131.339C165.115 130.422 165.585 129.413 166.502 129.08C167.412 128.746 168.428 129.216 168.761 130.134Z" fill="white"/>
<path d="M201.348 159.536C196.981 152.813 187.969 150.903 181.245 155.261L180.26 153.737C187.817 148.826 197.967 150.986 202.871 158.543L201.348 159.536Z" fill="#407BFF"/>
<path d="M183.633 158.938L182.648 157.414C188.181 153.821 195.602 155.398 199.195 160.931L197.671 161.916C194.624 157.232 188.325 155.89 183.633 158.938Z" fill="#407BFF"/>
<g opacity="0.6">
<path d="M201.348 159.536C196.981 152.813 187.969 150.903 181.245 155.261L180.26 153.737C187.817 148.826 197.967 150.986 202.871 158.543L201.348 159.536Z" fill="white"/>
</g>
<g opacity="0.6">
<path d="M183.633 158.938L182.648 157.414C188.181 153.821 195.602 155.398 199.195 160.931L197.671 161.916C194.624 157.232 188.325 155.89 183.633 158.938Z" fill="white"/>
</g>
<path d="M194.313 164.099C192.464 161.257 188.651 160.446 185.809 162.295L184.823 160.772C188.507 158.384 193.449 159.43 195.837 163.114L194.313 164.099Z" fill="#407BFF"/>
<path d="M192.449 165.312C191.266 163.5 188.833 162.977 187.021 164.16L186.642 164.41L189.03 168.079L192.706 165.691L192.449 165.312Z" fill="#407BFF"/>
<path d="M205.721 158.126C205.289 160.165 203.28 161.469 201.234 161.037C199.195 160.605 197.891 158.596 198.323 156.55C198.755 154.511 200.764 153.207 202.81 153.639C204.849 154.078 206.153 156.087 205.721 158.126Z" fill="#407BFF"/>
<path opacity="0.8" d="M204.546 156.277L204.016 155.473L202.159 156.678L200.953 154.821L200.15 155.344L201.355 157.201L199.498 158.407L200.021 159.218L201.878 158.005L203.083 159.862L203.894 159.339L202.689 157.482L204.546 156.277Z" fill="white"/>
<path d="M189.091 199.892C188.636 199.892 188.264 199.521 188.264 199.066V191.956C188.264 191.501 188.636 191.13 189.091 191.13C189.545 191.13 189.917 191.501 189.917 191.956V199.066C189.917 199.521 189.545 199.892 189.091 199.892Z" fill="#407BFF"/>
<path d="M189.091 215.06C188.636 215.06 188.264 214.688 188.264 214.234V207.124C188.264 206.669 188.636 206.297 189.091 206.297C189.545 206.297 189.917 206.669 189.917 207.124V214.234C189.917 214.688 189.545 215.06 189.091 215.06Z" fill="#407BFF"/>
<path d="M200.226 203.925H193.116C192.661 203.925 192.289 203.553 192.289 203.099C192.289 202.644 192.661 202.272 193.116 202.272H200.226C200.68 202.272 201.052 202.644 201.052 203.099C201.059 203.553 200.688 203.925 200.226 203.925Z" fill="#407BFF"/>
<path d="M185.058 203.925H177.948C177.493 203.925 177.122 203.553 177.122 203.099C177.122 202.644 177.493 202.272 177.948 202.272H185.058C185.513 202.272 185.884 202.644 185.884 203.099C185.884 203.553 185.513 203.925 185.058 203.925Z" fill="#407BFF"/>
<path d="M191.35 200.832C191.024 200.506 191.024 199.983 191.35 199.657L196.375 194.632C196.701 194.306 197.224 194.306 197.55 194.632C197.876 194.958 197.876 195.481 197.55 195.807L192.524 200.832C192.198 201.15 191.675 201.15 191.35 200.832Z" fill="#407BFF"/>
<g opacity="0.5">
<path d="M200.226 203.925H193.116C192.661 203.925 192.289 203.553 192.289 203.099C192.289 202.644 192.661 202.272 193.116 202.272H200.226C200.68 202.272 201.052 202.644 201.052 203.099C201.059 203.553 200.688 203.925 200.226 203.925Z" fill="white"/>
</g>
<g opacity="0.5">
<path d="M191.35 200.832C191.024 200.506 191.024 199.983 191.35 199.657L196.375 194.632C196.701 194.306 197.224 194.306 197.55 194.632C197.876 194.958 197.876 195.481 197.55 195.807L192.524 200.832C192.198 201.15 191.675 201.15 191.35 200.832Z" fill="white"/>
</g>
<path d="M180.624 211.558C180.298 211.232 180.298 210.709 180.624 210.383L185.649 205.358C185.975 205.032 186.498 205.032 186.824 205.358C187.15 205.684 187.15 206.207 186.824 206.533L181.799 211.558C181.473 211.877 180.95 211.877 180.624 211.558Z" fill="#407BFF"/>
<path d="M196.375 211.558L191.35 206.533C191.024 206.207 191.024 205.684 191.35 205.358C191.675 205.032 192.198 205.032 192.524 205.358L197.55 210.383C197.876 210.709 197.876 211.232 197.55 211.558C197.224 211.877 196.701 211.877 196.375 211.558Z" fill="#407BFF"/>
<g opacity="0.3">
<path d="M189.091 215.06C188.636 215.06 188.264 214.688 188.264 214.234V207.124C188.264 206.669 188.636 206.297 189.091 206.297C189.545 206.297 189.917 206.669 189.917 207.124V214.234C189.917 214.688 189.545 215.06 189.091 215.06Z" fill="white"/>
</g>
<g opacity="0.3">
<path d="M196.375 211.558L191.35 206.533C191.024 206.207 191.024 205.684 191.35 205.358C191.675 205.032 192.198 205.032 192.524 205.358L197.55 210.383C197.876 210.709 197.876 211.232 197.55 211.558C197.224 211.877 196.701 211.877 196.375 211.558Z" fill="white"/>
</g>
<path d="M185.649 200.832L180.624 195.807C180.298 195.481 180.298 194.958 180.624 194.632C180.95 194.306 181.473 194.306 181.799 194.632L186.824 199.657C187.15 199.983 187.15 200.506 186.824 200.832C186.498 201.15 185.975 201.15 185.649 200.832Z" fill="#407BFF"/>
<g opacity="0.7">
<path d="M189.091 199.892C188.636 199.892 188.264 199.521 188.264 199.066V191.956C188.264 191.501 188.636 191.13 189.091 191.13C189.545 191.13 189.917 191.501 189.917 191.956V199.066C189.917 199.521 189.545 199.892 189.091 199.892Z" fill="white"/>
</g>
<g opacity="0.7">
<path d="M185.649 200.832L180.624 195.807C180.298 195.481 180.298 194.958 180.624 194.632C180.95 194.306 181.473 194.306 181.799 194.632L186.824 199.657C187.15 199.983 187.15 200.506 186.824 200.832C186.498 201.15 185.975 201.15 185.649 200.832Z" fill="white"/>
</g>
<path d="M151.987 150.751C151.001 155.375 146.461 158.323 141.837 157.346C137.213 156.36 134.265 151.82 135.242 147.196C136.228 142.572 140.768 139.623 145.392 140.601C150.023 141.587 152.972 146.127 151.987 150.751Z" fill="#407BFF"/>
<path opacity="0.6" d="M151.987 150.751C151.001 155.375 146.461 158.323 141.837 157.346C137.213 156.36 134.265 151.82 135.242 147.196C136.228 142.572 140.768 139.623 145.392 140.601C150.023 141.587 152.972 146.127 151.987 150.751Z" fill="white"/>
<path opacity="0.8" d="M149.334 146.567L148.144 144.74L143.937 147.469L141.208 143.262L139.381 144.452L142.11 148.651L137.911 151.38L139.093 153.214L143.3 150.478L146.029 154.685L147.855 153.495L145.127 149.295L149.334 146.567Z" fill="white"/>
<path d="M168.617 217.16C164.562 218.024 161.977 222.003 162.841 226.058C163.705 230.114 173.415 239.718 173.415 239.718C173.415 239.718 178.38 226.998 177.516 222.943C176.652 218.888 172.672 216.303 168.617 217.16ZM170.732 227.089C169.299 227.393 167.897 226.483 167.594 225.05C167.291 223.618 168.2 222.215 169.633 221.912C171.065 221.609 172.468 222.519 172.771 223.951C173.074 225.384 172.157 226.786 170.732 227.089Z" fill="#407BFF"/>
<path opacity="0.5" d="M168.617 217.16C164.562 218.024 161.977 222.003 162.841 226.058C163.705 230.114 173.415 239.718 173.415 239.718C173.415 239.718 178.38 226.998 177.516 222.943C176.652 218.888 172.672 216.303 168.617 217.16ZM170.732 227.089C169.299 227.393 167.897 226.483 167.594 225.05C167.291 223.618 168.2 222.215 169.633 221.912C171.065 221.609 172.468 222.519 172.771 223.951C173.074 225.384 172.157 226.786 170.732 227.089Z" fill="white"/>
<path d="M231.63 153.237C227.173 155.739 214.855 153.662 211.467 149.826C209.587 147.704 211.042 140.283 213.362 138.638C217.531 135.674 230.561 137.88 233.525 142.049C235.162 144.369 234.101 151.85 231.63 153.237Z" fill="#407BFF"/>
<path opacity="0.4" d="M231.63 153.237C227.173 155.739 214.855 153.662 211.467 149.826C209.587 147.704 211.042 140.283 213.362 138.638C217.531 135.674 230.561 137.88 233.525 142.049C235.162 144.369 234.101 151.85 231.63 153.237Z" fill="white"/>
<path d="M227.438 146.628L218.592 149.758L220.116 140.761L227.438 146.628Z" fill="white"/>
<path d="M238.459 287.865L230.622 298.765L225.513 295.809L230.978 283.605L238.459 287.865Z" fill="#B28F8F"/>
<path d="M227.597 291.497L232.691 296.143C232.873 296.31 232.918 296.59 232.797 296.803L230.015 301.646C229.727 302.147 229.037 302.245 228.613 301.843C226.862 300.191 226.096 299.296 223.853 297.25C222.473 295.992 217.508 291.716 215.606 289.981C213.748 288.283 215.173 286.138 216.106 286.676C220.298 289.101 224.573 291.08 226.604 291.095C226.976 291.11 227.324 291.254 227.597 291.497Z" fill="#263238"/>
<path d="M224.686 289.897C224.792 290.708 225.99 291.481 226.695 291.868C226.756 291.898 226.832 291.898 226.885 291.853C226.938 291.807 226.96 291.739 226.945 291.671C226.831 291.254 226.21 289.162 225.475 288.965C225.353 288.935 225.171 288.927 224.99 289.109C224.952 289.147 224.921 289.177 224.891 289.215C224.717 289.42 224.648 289.647 224.686 289.897ZM225.027 289.852C225.005 289.67 225.073 289.503 225.232 289.352C225.3 289.283 225.353 289.283 225.391 289.291C225.74 289.382 226.202 290.435 226.49 291.345C225.619 290.814 225.081 290.269 225.027 289.852Z" fill="#6782E1"/>
<path d="M226.612 291.769C226.634 291.83 226.688 291.875 226.748 291.883C226.809 291.891 226.869 291.875 226.915 291.822C226.96 291.762 228.052 290.344 227.923 289.427C227.885 289.185 227.771 288.988 227.582 288.851C227.279 288.639 227.059 288.737 226.953 288.821C226.915 288.851 226.885 288.881 226.847 288.919C226.377 289.48 226.392 291.125 226.612 291.769ZM227.15 289.094C227.18 289.071 227.233 289.033 227.377 289.132C227.491 289.215 227.559 289.321 227.574 289.473C227.65 289.988 227.195 290.807 226.854 291.307C226.741 290.534 226.847 289.321 227.15 289.094Z" fill="#6782E1"/>
<path d="M229.932 285.766C236.087 271.47 241.938 253.619 247.146 240.771C254.18 223.413 278.959 190.675 278.959 190.675L280.756 188.5L302.071 187.31V195.162C302.071 195.162 264.345 239.104 260.108 250.875C255.476 263.746 245.622 278.527 236.708 290.663L229.932 285.766Z" fill="#6782E1"/>
<path d="M237.193 290.367L235.912 291.686C235.912 291.686 228.961 286.827 229.022 286.744C229.075 286.66 229.924 285.038 229.924 285.038L237.193 290.367Z" fill="#6782E1"/>
<path opacity="0.4" d="M237.193 290.367L235.912 291.686C235.912 291.686 228.961 286.827 229.022 286.744C229.075 286.66 229.924 285.038 229.924 285.038L237.193 290.367Z" fill="white"/>
<path opacity="0.2" d="M278.156 224.33C282.165 205.478 289.397 195.033 289.397 195.033L293.225 197.807L294.445 204.22C289.89 209.685 283.886 217 278.156 224.33Z" fill="black"/>
<path d="M300.358 295.514L299.039 308.877H293.134L291.747 295.574L300.358 295.514Z" fill="#B28F8F"/>
<path d="M292.512 307.218L299.402 307.081C299.653 307.074 299.872 307.248 299.933 307.491L301.252 312.918C301.388 313.479 300.956 314.025 300.373 314.025C297.962 314.032 296.795 313.911 293.763 313.972C291.898 314.009 285.349 314.335 282.772 314.381C280.255 314.434 279.808 311.895 280.862 311.637C285.569 310.507 290.034 308.991 291.519 307.604C291.792 307.362 292.148 307.225 292.512 307.218Z" fill="#263238"/>
<path d="M289.298 308.059C289.935 308.575 291.33 308.302 292.11 308.105C292.179 308.089 292.224 308.029 292.239 307.961C292.247 307.892 292.217 307.824 292.156 307.786C291.785 307.566 289.897 306.475 289.23 306.839C289.116 306.899 288.988 307.021 288.972 307.278C288.972 307.331 288.972 307.377 288.972 307.422C288.995 307.688 289.101 307.908 289.298 308.059ZM289.518 307.794C289.374 307.68 289.313 307.513 289.321 307.294C289.329 307.195 289.359 307.165 289.397 307.142C289.715 306.975 290.776 307.415 291.61 307.87C290.61 308.082 289.844 308.059 289.518 307.794Z" fill="#6782E1"/>
<path d="M291.989 308.089C292.042 308.12 292.11 308.112 292.164 308.082C292.217 308.044 292.247 307.991 292.239 307.922C292.232 307.847 292.05 306.065 291.315 305.489C291.117 305.338 290.905 305.277 290.67 305.307C290.306 305.36 290.215 305.588 290.193 305.717C290.185 305.762 290.185 305.808 290.185 305.861C290.238 306.588 291.383 307.778 291.989 308.089ZM290.534 305.777C290.541 305.739 290.549 305.671 290.723 305.648C290.86 305.633 290.989 305.664 291.102 305.762C291.512 306.088 291.747 306.99 291.845 307.589C291.231 307.111 290.473 306.149 290.534 305.777Z" fill="#6782E1"/>
<path d="M302.033 252.482C303.768 263.45 302.025 285.205 300.251 300.896L292.141 300.699C290.193 284.402 287.153 261.336 285.804 249.867C283.606 231.266 288.51 188.082 288.51 188.082L310.666 187.62C310.666 187.62 310.689 191.289 309.575 196.959C306.3 213.582 300.577 243.265 302.033 252.482Z" fill="#6782E1"/>
<path d="M300.691 300.57L300.395 302.381C300.395 302.381 291.913 302.351 291.913 302.252C291.913 302.154 291.686 300.342 291.686 300.342L300.691 300.57Z" fill="#6782E1"/>
<path opacity="0.4" d="M300.691 300.57L300.395 302.381C300.395 302.381 291.913 302.351 291.913 302.252C291.913 302.154 291.686 300.342 291.686 300.342L300.691 300.57Z" fill="white"/>
<path d="M281.203 145.854L276.223 156.315C275.374 158.043 274.54 159.779 273.668 161.447C273.229 162.28 272.789 163.114 272.342 163.91C272.122 164.319 271.895 164.706 271.667 165.085L271.341 165.631C271.273 165.707 271.265 165.775 271.174 165.873C270.871 166.26 270.295 166.76 269.659 167.23C269.014 167.708 268.256 168.155 267.483 168.594C265.929 169.474 264.231 170.27 262.503 171.028C259.039 172.521 255.393 173.916 251.777 175.204L252.634 178.979C256.651 178.448 260.555 177.66 264.481 176.508C266.437 175.924 268.393 175.272 270.356 174.408C271.334 173.969 272.319 173.499 273.32 172.908C274.32 172.309 275.336 171.626 276.359 170.565C276.609 170.323 276.875 169.974 277.117 169.671L277.602 168.996C277.921 168.557 278.224 168.117 278.504 167.685C279.096 166.813 279.619 165.941 280.149 165.07C281.195 163.326 282.173 161.575 283.113 159.809C285 156.277 286.714 152.73 288.328 149.061L281.203 145.854Z" fill="#B28F8F"/>
<path d="M292.785 145.316C293.816 150.501 281.127 165.684 281.127 165.684L272.107 160.582C272.107 160.582 274.775 152.949 279.209 146.582C283.879 139.874 291.64 139.555 292.785 145.316Z" fill="#263238"/>
<path opacity="0.2" d="M292.853 145.96C290.678 144.907 286.38 145.816 283.007 150.084C279.679 154.314 277.815 161.477 277.284 163.508L281.127 165.676C281.127 165.684 292.952 151.623 292.853 145.96Z" fill="black"/>
<path d="M252.247 175.106L248.647 174.787C246.759 174.621 245.122 176.084 245.084 177.986C245.039 180.51 247.745 182.132 249.951 180.904C251.057 180.29 252.156 179.563 253.043 178.744L252.247 175.106Z" fill="#B28F8F"/>
<path d="M286.327 141.413C286.327 141.413 279.141 157.27 280.392 189.614C290.056 189.561 305.694 187.999 310.393 187.977C311.364 183.489 311.379 165.547 318.731 144.361C319.361 142.542 318.193 140.594 316.283 140.329C314.358 140.063 311.894 139.783 309.461 139.684C305.391 139.518 299.478 139.427 295.825 139.76C291.004 140.207 286.327 141.413 286.327 141.413Z" fill="#263238"/>
<path d="M313.183 125.244C310.848 129.375 307.293 136.94 309.453 139.684C304.564 141.382 303.101 145.566 297.416 144.778C294.877 144.429 294.483 141.981 295.468 139.874C300.85 138.759 301.995 135.197 302.26 131.99L313.183 125.244Z" fill="#B28F8F"/>
<path opacity="0.2" d="M300.971 136.41C301.813 135.045 302.131 133.484 302.253 131.998L307.824 128.557L309.908 132.074C309.916 132.074 306.816 137.107 300.971 136.41Z" fill="black"/>
<path d="M301.79 110.736C297.113 111.774 297.053 121.97 298.819 123.304C302.116 125.805 307.589 109.447 301.79 110.736Z" fill="#263238"/>
<path d="M314.305 121.636C312.902 127.299 312.372 130.679 308.938 133.09C303.776 136.713 297.197 132.794 296.878 126.829C296.59 121.462 298.932 113.109 304.951 111.858C310.886 110.623 315.707 115.974 314.305 121.636Z" fill="#B28F8F"/>
<path d="M319.762 117.99C319.292 121.379 313.842 129.648 311.477 128.996C309.112 128.345 310.121 120.719 312.197 116.217C310.09 115.148 292.838 114.162 298.728 109.705C298.728 109.705 294.961 102.982 301.881 106.302C301.881 106.302 304.064 97.6759 307.543 105.453C307.543 105.453 312.091 99.3889 313.607 107.257C313.607 107.257 318.117 104.93 317.867 110.676C317.867 110.676 323.423 110.759 319.573 114.549C319.588 114.541 324.515 116.823 319.762 117.99Z" fill="#263238"/>
<path d="M315.73 128.42C314.676 129.588 313.183 130.156 311.894 130.202C309.954 130.27 309.438 128.42 310.356 126.829C311.182 125.396 313.19 123.63 314.957 124.32C316.7 124.994 316.935 127.079 315.73 128.42Z" fill="#B28F8F"/>
<path d="M304.428 122.091C304.345 122.554 304.026 122.887 303.723 122.834C303.42 122.781 303.238 122.357 303.329 121.887C303.412 121.424 303.731 121.091 304.034 121.144C304.337 121.204 304.511 121.629 304.428 122.091Z" fill="#263238"/>
<path d="M299.16 121.128C299.076 121.591 298.758 121.924 298.455 121.871C298.152 121.818 297.97 121.394 298.061 120.924C298.144 120.461 298.462 120.128 298.766 120.181C299.069 120.234 299.243 120.658 299.16 121.128Z" fill="#263238"/>
<path d="M301.601 121.841C301.601 121.841 300.047 124.335 298.644 125.419C299.327 126.336 300.797 126.245 300.797 126.245L301.601 121.841Z" fill="#8E7272"/>
<path d="M301.631 128.413C301.563 128.39 301.525 128.322 301.532 128.254C301.548 128.178 301.616 128.125 301.692 128.14C303.738 128.511 304.951 127.261 304.966 127.245C305.019 127.192 305.11 127.185 305.163 127.238C305.216 127.291 305.224 127.382 305.171 127.435C305.118 127.488 303.837 128.807 301.646 128.405C301.639 128.413 301.631 128.413 301.631 128.413Z" fill="#263238"/>
<path d="M306.922 120.408C306.854 120.386 306.793 120.34 306.755 120.264C306.202 119.165 305.209 119.036 305.171 119.029C305.019 119.014 304.913 118.87 304.928 118.718C304.943 118.567 305.08 118.46 305.231 118.476C305.284 118.483 306.558 118.642 307.255 120.014C307.324 120.151 307.27 120.318 307.134 120.386C307.066 120.424 306.99 120.424 306.922 120.408Z" fill="#263238"/>
<path d="M298.144 118.885C298.114 118.877 298.091 118.862 298.061 118.847C297.939 118.756 297.909 118.582 298 118.46C298.91 117.217 300.198 117.278 300.251 117.278C300.403 117.285 300.524 117.422 300.517 117.573C300.509 117.725 300.38 117.846 300.221 117.839C300.176 117.839 299.175 117.808 298.447 118.794C298.379 118.885 298.25 118.923 298.144 118.885Z" fill="#263238"/>
<path d="M303.852 112.828C303.852 112.828 299.736 113.268 300.395 114.943C301.055 116.618 307.824 114.246 307.824 114.246L303.852 112.828Z" fill="#263238"/>
<path d="M308.301 113.685C308.301 113.685 304.185 114.124 304.845 115.799C305.504 117.475 312.273 115.102 312.273 115.102L308.301 113.685Z" fill="#263238"/>
<path d="M339.986 306.823C339.925 306.808 337.264 305.906 308.263 305.906C304.117 305.906 300.608 304.299 297.818 301.123C284.674 286.16 295.84 239.126 299.493 211.027C300.456 203.644 301.214 197.815 301.214 195.283C301.214 193.313 300.539 191.819 299.152 190.705C294.225 186.748 281.809 188.393 277.443 189.363L276.625 185.664C277.337 185.505 294.187 181.859 301.525 187.756C303.837 189.606 305.004 192.145 305.004 195.291C305.004 198.065 304.269 203.705 303.253 211.52C299.918 237.186 288.662 284.955 300.668 298.629C302.73 300.979 305.216 302.124 308.263 302.124C337.962 302.124 340.531 303.071 340.827 303.139L339.986 306.823Z" fill="#407BFF"/>
<g opacity="0.7">
<path d="M339.986 306.823C339.925 306.808 337.264 305.906 308.263 305.906C304.117 305.906 300.608 304.299 297.818 301.123C284.674 286.16 295.84 239.126 299.493 211.027C300.456 203.644 301.214 197.815 301.214 195.283C301.214 193.313 300.539 191.819 299.152 190.705C294.225 186.748 281.809 188.393 277.443 189.363L276.625 185.664C277.337 185.505 294.187 181.859 301.525 187.756C303.837 189.606 305.004 192.145 305.004 195.291C305.004 198.065 304.269 203.705 303.253 211.52C299.918 237.186 288.662 284.955 300.668 298.629C302.73 300.979 305.216 302.124 308.263 302.124C337.962 302.124 340.531 303.071 340.827 303.139L339.986 306.823Z" fill="white"/>
</g>
<path d="M231.349 170.035V183.853V190.857V204.675L283.439 196.512C285.933 196.117 287.767 193.972 287.767 191.448V190.857V183.853V183.262C287.767 180.738 285.933 178.592 283.439 178.198L231.349 170.035Z" fill="#407BFF"/>
<path opacity="0.4" d="M231.349 170.035V183.853V190.857V204.675L283.439 196.512C285.933 196.117 287.767 193.972 287.767 191.448V190.857V183.853V183.262C287.767 180.738 285.933 178.592 283.439 178.198L231.349 170.035Z" fill="white"/>
<path opacity="0.2" d="M283.431 192.032L231.342 200.195V204.668L283.431 196.504C285.925 196.11 287.76 193.965 287.76 191.44V190.849V186.968C287.76 189.492 285.925 191.638 283.431 192.032Z" fill="#263238"/>
<path d="M229.719 164.88H209.822V186.006H258.167V175.182L229.719 164.88Z" fill="#407BFF"/>
<path opacity="0.6" d="M229.719 164.88H209.822V186.006H258.167V175.182L229.719 164.88Z" fill="white"/>
<path d="M238.262 208.617L209.822 198.316V164.88L238.262 175.182V208.617Z" fill="#407BFF"/>
<path opacity="0.4" d="M238.262 208.617L209.822 198.316V164.88L238.262 175.182V208.617Z" fill="white"/>
<path d="M258.167 175.182H238.262V208.617H258.167V175.182Z" fill="#407BFF"/>
<path opacity="0.2" d="M258.167 175.182H238.262V208.617H258.167V175.182Z" fill="white"/>
<path d="M229.143 183.201V176.038L218.941 172.347V179.51L214.749 177.994V195.943L233.335 202.674V184.725L229.143 183.201Z" fill="#263238"/>
<path opacity="0.1" d="M229.143 183.201V176.038L218.941 172.347V179.51L214.749 177.994V195.943L233.335 202.674V184.725L229.143 183.201Z" fill="white"/>
<path d="M233.335 200.195V190.569H218.069V197.141L226.506 200.195H233.335Z" fill="#407BFF"/>
<path opacity="0.2" d="M233.335 200.195V190.569H218.069V197.141L226.506 200.195H233.335Z" fill="white"/>
<path d="M217.212 175.053L214.749 174.158V170.823L217.212 171.718V175.053Z" fill="white"/>
<path d="M233.335 180.89L230.872 179.995V176.667L233.335 177.554V180.89Z" fill="#407BFF"/>
<path d="M233.335 201.469V194.89H230.015V201.469H233.335Z" fill="#407BFF"/>
<path opacity="0.2" d="M233.335 201.469V194.89H230.015V201.469H233.335Z" fill="black"/>
<path d="M218.069 197.141L230.015 201.469V194.889L218.069 190.569V197.141Z" fill="#407BFF"/>
<path d="M314.623 147.333C313.941 148.947 313.198 150.721 312.417 152.373C311.637 154.048 305.77 167.874 305.277 168.42C304.792 168.958 286.137 176.963 281.733 178.934L282.105 181.245C282.256 182.185 282.325 182.481 283.272 182.42C286.638 182.208 304.276 177.296 305.3 177.039C305.815 176.91 307.968 176.235 308.688 175.886C312.887 174.401 317.458 161.606 318.33 159.771C318.762 158.854 320.657 154.018 321.058 153.086C321.468 152.146 321.832 151.244 322.203 150.22L314.623 147.333Z" fill="#B28F8F"/>
<path d="M282.082 178.986L276.662 180.411C274.881 180.76 273.926 182.791 274.585 184.838C275.457 187.559 278.512 188.545 280.073 186.612C280.733 185.793 282.582 183.565 283.068 182.625C283.234 182.306 283.212 181.927 283.037 181.609L282.082 178.986Z" fill="#B28F8F"/>
<path d="M320.172 141.655C328.388 144.657 318.239 166.176 318.239 166.176L306.588 161.894C306.588 161.894 309.12 156.959 311.348 150.266C313.471 143.876 314.949 139.752 320.172 141.655Z" fill="#263238"/>
<path d="M107.34 185.467C107.34 185.467 104.551 226.831 103.103 246.047C101.587 266.225 102.921 294.24 104.703 307.217C103.634 307.953 100.314 307.816 98.0549 307.301C98.0549 307.301 84.9339 271.902 88.921 249.071C85.7753 234.517 86.8895 223.299 85.6616 214.969C83.1147 197.754 88.7921 189.902 88.7921 189.902L107.34 185.467Z" fill="#B28F8F"/>
<path d="M111.077 185.066C111.077 185.066 125.563 222.534 131.748 240.779C138.244 259.941 149.106 283.545 155.822 294.794C155.125 295.886 152.078 297.364 149.796 297.765C149.796 297.765 124.994 270.371 120.583 248.814C93.6282 210.671 94.985 188.826 94.985 188.826L111.077 185.066Z" fill="#B28F8F"/>
<path opacity="0.2" d="M126.533 226.074C123.084 227.12 116.315 229.022 108.887 230.311C104.665 222.723 101.716 216.083 99.6618 210.482L118.862 205.471C121.325 211.99 124.054 219.282 126.533 226.074Z" fill="black"/>
<path opacity="0.2" d="M105.741 208.89C105.248 216 104.703 223.83 104.195 231.016C97.8957 231.812 91.5285 231.971 86.6242 230.637C86.3135 224.573 86.3135 219.365 85.6616 214.976C85.6237 214.704 85.5858 214.438 85.5555 214.165L105.741 208.89Z" fill="black"/>
<path d="M97.6607 155.079C99.2525 158.399 100.943 161.522 102.83 164.66C104.763 167.776 106.719 170.815 109.478 173.832C110.198 174.582 110.956 175.34 112.04 176.121C112.313 176.318 112.593 176.508 112.934 176.69C113.276 176.887 113.541 176.993 113.844 177.137C114.413 177.372 114.951 177.561 115.466 177.705C117.52 178.281 119.37 178.539 121.227 178.721C124.934 179.07 128.511 179.055 132.165 178.767C133.325 178.676 134.189 177.66 134.098 176.5C134.022 175.56 133.34 174.81 132.468 174.613L132.407 174.598C129.034 173.832 125.601 173.082 122.372 172.225C120.772 171.785 119.165 171.323 117.877 170.754C117.558 170.61 117.285 170.474 117.05 170.345C116.967 170.285 116.831 170.216 116.8 170.171C116.755 170.133 116.679 170.072 116.603 169.996C116.277 169.716 115.8 169.193 115.352 168.64C114.435 167.503 113.51 166.146 112.646 164.744C111.775 163.341 110.903 161.893 110.084 160.408C108.417 157.467 106.779 154.382 105.233 151.395L105.203 151.335C104.134 149.265 101.587 148.454 99.5254 149.523C97.5015 150.569 96.6829 153.032 97.6607 155.079Z" fill="#B28F8F"/>
<path d="M97.8047 148.583C97.8047 148.583 105.673 145.134 111.358 160.522C111.358 160.522 109.463 164.41 102.83 165.517C102.83 165.517 97.7972 156.224 97.8047 148.583Z" fill="#407BFF"/>
<path opacity="0.2" d="M97.8047 148.583C97.8047 148.583 105.673 145.134 111.358 160.522C111.358 160.522 109.463 164.41 102.83 165.517C102.83 165.517 97.7972 156.224 97.8047 148.583Z" fill="black"/>
<path d="M102.952 166.722C102.952 166.722 108.576 166.283 112.555 160.908L111.896 159.567L110.1 158.369C110.1 158.369 108.068 162.008 100.996 163.607L102.952 166.722Z" fill="#407BFF"/>
<path opacity="0.7" d="M102.952 166.722C102.952 166.722 108.576 166.283 112.555 160.908L111.896 159.567L110.1 158.369C110.1 158.369 108.068 162.008 100.996 163.607L102.952 166.722Z" fill="white"/>
<path d="M111.138 313.266C106.37 313.638 105.733 313.615 103.05 313.729C100.746 313.827 100.223 314.153 98.3732 314.259C96.8269 314.343 96.7739 312.865 97.115 311.136C97.2893 310.265 97.5091 308.438 97.7365 307.036L104.68 305.982C105.809 307.778 108.235 310.287 110.948 310.439C113.541 310.583 113.041 313.115 111.138 313.266Z" fill="#263238"/>
<path d="M164.531 298.265C160.287 300.471 159.695 300.698 157.27 301.858C155.193 302.844 154.837 303.359 153.177 304.17C151.789 304.852 151.16 303.518 150.797 301.782C150.615 300.918 150.107 299.144 149.758 297.765L155.739 294.081C157.482 295.294 160.696 296.651 163.25 295.726C165.691 294.854 166.222 297.386 164.531 298.265Z" fill="#263238"/>
<path d="M111.797 184.725L126.45 222.435C126.45 222.435 106.097 230.644 85.0021 228.37C85.0021 228.37 86.0178 222.177 85.0021 217.25C83.9864 212.323 82.6372 201.583 87.6627 189.932L88.2615 188.886L110.683 183.77L111.797 184.725Z" fill="#6782E1"/>
<g opacity="0.5">
<path d="M109.197 227.173L108.265 207.275L111.994 226.62C111.085 226.809 110.16 226.999 109.197 227.173Z" fill="black"/>
<path d="M102.952 221.048L103.277 228.09C102.391 228.204 101.489 228.302 100.571 228.386L102.952 221.048Z" fill="black"/>
<path d="M117.429 225.316L113.564 207.275L120.135 224.558C119.309 224.8 118.4 225.058 117.429 225.316Z" fill="black"/>
<path d="M94.659 215.992L94.841 228.742C93.8556 228.772 92.855 228.772 91.8469 228.764L94.659 215.992Z" fill="black"/>
</g>
<path d="M139.646 174.469L137.971 173.521C137.342 173.165 136.576 173.135 135.917 173.438L132.847 174.863C131.619 175.431 130.747 176.561 130.497 177.895L130.346 178.721C133.014 180.487 137.206 180.434 137.206 180.434L138.403 180.548C139.464 180.654 140.374 179.942 140.488 178.911L140.745 176.546C140.836 175.719 140.397 174.893 139.646 174.469Z" fill="#B55B52"/>
<path d="M111.024 186.233L88.542 190.72C87.5793 190.91 86.6546 190.243 86.556 189.265C86.2073 185.778 84.2744 176.568 74.9586 155.261C74.9586 155.261 81.9853 148.363 96.4934 148.484C99.7755 148.515 102.792 150.319 104.339 153.214C106.757 157.755 109.94 166.752 112.343 184.376C112.472 185.24 111.888 186.059 111.024 186.233Z" fill="#263238"/>
<path d="M93.4235 148.561C94.2649 149.281 96.0159 151.289 94.659 154.814C94.659 154.814 87.8067 151.502 82.7888 150.759C85.5706 149.72 89.1105 148.833 93.4235 148.561Z" fill="#B28F8F"/>
<path d="M74.7994 125.032C74.7994 125.032 75.0268 112.116 71.7068 110.63C68.6066 109.243 69.3646 114.291 69.3646 114.291C69.3646 114.291 65.4609 106.848 61.6557 107.719C58.3736 108.477 63.1717 113.404 63.1717 113.404C63.1717 113.404 56.3497 110.372 54.9626 112.518C53.5754 114.663 57.4867 117.194 57.4867 117.194C57.4867 117.194 51.4227 117.482 51.6729 120.052C51.923 122.622 58.2447 122.788 58.2447 122.788C58.2447 122.788 52.9008 123.842 53.5679 126.904C54.197 129.785 61.398 128.458 61.398 128.458C61.398 128.458 56.5695 129.618 57.4791 132.173C58.6161 135.356 65.4381 132.453 65.4381 132.453C65.4381 132.453 61.9059 134.575 63.2399 136.395C65.567 139.563 73.4957 130.065 73.4957 130.065L74.7994 125.032Z" fill="#263238"/>
<path d="M77.8921 123.766C77.8921 123.766 73.5033 122.25 72.0176 126.912C70.3121 132.248 76.1487 133.4 76.1487 133.4L77.8921 123.766Z" fill="#407BFF"/>
<path d="M80.7118 139.571C82.4552 142.777 85.0931 148.773 83.4103 151.593C83.4103 151.593 86.5409 150.334 94.4392 152.942C95.7506 149.607 94.0526 149.046 94.0526 149.046C89.9519 149.061 89.156 146.256 88.9892 143.482L80.7118 139.571Z" fill="#B28F8F"/>
<path opacity="0.2" d="M84.0849 141.17L88.9892 143.489C89.0271 144.149 89.1029 144.801 89.2545 145.422C87.7309 145.566 85.2219 144.467 84.5928 143.004C84.2744 142.277 84.0774 141.549 84.0849 141.17Z" fill="black"/>
<path d="M76.1411 133.401C78.4985 138.684 79.3853 140.958 83.1753 142.86C88.8755 145.718 94.894 142.049 94.1663 136.258C93.5145 131.051 89.7624 123.289 83.6301 122.826C77.5889 122.364 73.7837 128.117 76.1411 133.401Z" fill="#B28F8F"/>
<path d="M84.7747 132.597C84.9566 133.052 85.3356 133.34 85.6313 133.249C85.9269 133.158 86.0178 132.711 85.8435 132.263C85.6616 131.809 85.2826 131.521 84.987 131.611C84.6913 131.702 84.6004 132.142 84.7747 132.597Z" fill="#263238"/>
<path d="M90.4521 130.596C90.6341 131.051 91.0131 131.339 91.3087 131.248C91.6043 131.157 91.6953 130.71 91.5209 130.262C91.339 129.808 90.96 129.52 90.6644 129.611C90.3688 129.701 90.2702 130.149 90.4521 130.596Z" fill="#263238"/>
<path d="M90.5431 129.678L91.4982 129.019C91.4982 129.019 91.2784 130.042 90.5431 129.678Z" fill="#263238"/>
<path d="M88.5571 131.976C88.5571 131.976 90.0883 133.681 91.3011 134.348C90.9297 135.091 89.8154 135.159 89.8154 135.159L88.5571 131.976Z" fill="#8E7272"/>
<path d="M89.4743 138.297C89.7245 138.267 89.9822 138.206 90.2551 138.123C90.3309 138.1 90.3612 138.024 90.3309 137.949C90.3005 137.873 90.2247 137.835 90.1489 137.858C88.1781 138.487 86.7 137.395 86.6849 137.388C86.6242 137.342 86.5333 137.35 86.4878 137.41C86.4423 137.471 86.4575 137.554 86.5181 137.607C86.5788 137.645 87.7688 138.525 89.4743 138.297Z" fill="#263238"/>
<path d="M81.4623 130.065C81.5381 130.05 81.5987 130.005 81.6366 129.936C82.2127 128.875 83.2511 128.822 83.2587 128.822C83.4103 128.815 83.524 128.686 83.5089 128.534C83.4937 128.383 83.3497 128.261 83.1981 128.269C83.145 128.269 81.8413 128.33 81.1287 129.656C81.0605 129.785 81.1136 129.959 81.2576 130.035C81.3182 130.073 81.394 130.081 81.4623 130.065Z" fill="#263238"/>
<path d="M90.2702 126.912C90.3384 126.904 90.4067 126.874 90.4521 126.821C90.5431 126.707 90.5204 126.525 90.3991 126.427C89.1408 125.419 87.9053 125.752 87.8522 125.767C87.7082 125.813 87.6248 125.965 87.6779 126.109C87.7309 126.253 87.8901 126.344 88.0417 126.298C88.0872 126.283 89.0574 126.04 90.058 126.844C90.1186 126.897 90.1944 126.92 90.2702 126.912Z" fill="#263238"/>
<path d="M84.8657 131.68L85.8208 131.021C85.8208 131.021 85.6009 132.044 84.8657 131.68Z" fill="#263238"/>
<path d="M79.2641 137.895C79.2641 137.895 82.243 136.865 77.8845 129.05C77.8845 129.05 81.4319 129.595 80.257 126.298C80.257 126.298 84.3881 128.307 83.5089 124.646C83.5089 124.646 86.6697 126.419 86.6697 123.698C86.6697 123.698 89.4364 124.017 89.1863 121.614C88.9437 119.211 75.7545 118.453 74.2006 127.807C74.2006 127.814 70.729 132.946 79.2641 137.895Z" fill="#263238"/>
<path d="M76.0122 138.403C77.0355 139.298 78.3241 139.646 79.3626 139.563C80.9317 139.434 81.0529 137.797 80.0675 136.523C79.1807 135.371 77.2933 134.052 75.9895 134.818C74.7009 135.561 74.8373 137.38 76.0122 138.403Z" fill="#B28F8F"/>
<path d="M92.0894 148.477C92.0894 148.477 95.2806 149.682 94.4089 154.367C94.4089 154.367 92.9308 151.577 82.2657 150.304L79.2641 152.343C79.2641 152.343 85.3281 156.315 89.8154 157.49C89.8154 157.49 89.1863 155.496 91.1722 153.722C91.1722 153.722 93.6206 154.412 94.8561 156.118C94.8561 156.118 95.8112 154.973 95.6217 152.04C95.6217 152.04 97.5167 152.328 98.2747 155.17C98.2747 155.17 99.4344 153.268 96.4858 148.485L92.0894 148.477Z" fill="#407BFF"/>
<path opacity="0.7" d="M92.0894 148.477C92.0894 148.477 95.2806 149.682 94.4089 154.367C94.4089 154.367 92.9308 151.577 82.2657 150.304L79.2641 152.343C79.2641 152.343 85.3281 156.315 89.8154 157.49C89.8154 157.49 89.1863 155.496 91.1722 153.722C91.1722 153.722 93.6206 154.412 94.8561 156.118C94.8561 156.118 95.8112 154.973 95.6217 152.04C95.6217 152.04 97.5167 152.328 98.2747 155.17C98.2747 155.17 99.4344 153.268 96.4858 148.485L92.0894 148.477Z" fill="white"/>
<path d="M36.1945 306.384C36.2551 306.369 43.5623 304.853 72.5633 304.853C76.7096 304.853 89.2772 303.246 92.0591 300.07C105.203 285.107 99.0858 238.073 95.4322 209.974C94.4695 202.591 93.7115 196.762 93.7115 194.23C93.7115 192.259 94.3862 190.766 95.7733 189.652C100.7 185.695 113.116 187.34 117.482 188.31L118.301 184.611C117.589 184.452 100.738 180.806 93.4008 186.703C91.0889 188.553 89.9215 191.092 89.9215 194.238C89.9215 197.012 90.6568 202.652 91.6725 210.467C95.0077 236.132 101.223 283.902 89.2166 297.576C87.1548 299.926 75.6181 301.07 72.5633 301.07C42.8649 301.07 35.6487 302.632 35.3607 302.692L36.1945 306.384Z" fill="#407BFF"/>
<g opacity="0.7">
<path d="M36.1945 306.384C36.2551 306.369 43.5623 304.853 72.5633 304.853C76.7096 304.853 89.2772 303.246 92.0591 300.07C105.203 285.107 99.0858 238.073 95.4322 209.974C94.4695 202.591 93.7115 196.762 93.7115 194.23C93.7115 192.259 94.3862 190.766 95.7733 189.652C100.7 185.695 113.116 187.34 117.482 188.31L118.301 184.611C117.589 184.452 100.738 180.806 93.4008 186.703C91.0889 188.553 89.9215 191.092 89.9215 194.238C89.9215 197.012 90.6568 202.652 91.6725 210.467C95.0077 236.132 101.223 283.902 89.2166 297.576C87.1548 299.926 75.6181 301.07 72.5633 301.07C42.8649 301.07 35.6487 302.632 35.3607 302.692L36.1945 306.384Z" fill="white"/>
</g>
<path d="M137.721 173.112V182.617V187.438V196.943L101.89 191.327C100.177 191.061 98.9114 189.583 98.9114 187.847V187.438V182.617V182.208C98.9114 180.472 100.177 178.994 101.89 178.729L137.721 173.112Z" fill="#407BFF"/>
<path opacity="0.4" d="M137.721 173.112V182.617V187.438V196.943L101.89 191.327C100.177 191.061 98.9114 189.583 98.9114 187.847V187.438V182.617V182.208C98.9114 180.472 100.177 178.994 101.89 178.729L137.721 173.112Z" fill="white"/>
<path opacity="0.2" d="M101.89 188.249L137.721 193.866V196.944L101.89 191.327C100.177 191.061 98.9114 189.583 98.9114 187.848V187.438V184.77C98.919 186.506 100.177 187.976 101.89 188.249Z" fill="#263238"/>
<path d="M139.229 171.088H158.968V183.732H122.205V177.251L139.229 171.088Z" fill="#407BFF"/>
<path opacity="0.6" d="M139.229 171.088H158.968V183.732H122.205V177.251L139.229 171.088Z" fill="white"/>
<path d="M141.943 197.262L158.968 191.1V171.088L141.943 177.251V197.262Z" fill="#407BFF"/>
<path opacity="0.4" d="M141.943 197.262L158.968 191.1V171.088L141.943 177.251V197.262Z" fill="white"/>
<path d="M122.214 197.266H141.945V177.254H122.214V197.266Z" fill="#407BFF"/>
<path opacity="0.2" d="M122.214 197.266H141.945V177.254H122.214V197.266Z" fill="white"/>
<path d="M155.193 172.46C154.602 170.095 152.82 168.375 150.713 168.375H147.135C144.543 168.375 142.443 170.967 142.443 174.173C142.443 174.704 142.504 175.219 142.618 175.712H146.203L155.193 172.46Z" fill="#407BFF"/>
<path opacity="0.6" d="M155.193 172.46C154.602 170.095 152.82 168.375 150.713 168.375H147.135C144.543 168.375 142.443 170.967 142.443 174.173C142.443 174.704 142.504 175.219 142.618 175.712H146.203L155.193 172.46Z" fill="white"/>
<path d="M146.203 175.72L155.193 172.46C154.602 170.095 152.82 168.375 150.713 168.375C148.121 168.375 146.021 170.967 146.021 174.173C146.021 174.704 146.082 175.219 146.195 175.712H146.203V175.72Z" fill="#407BFF"/>
<path opacity="0.4" d="M146.203 175.72L155.193 172.46C154.602 170.095 152.82 168.375 150.713 168.375C148.121 168.375 146.021 170.967 146.021 174.173C146.021 174.704 146.082 175.219 146.195 175.712H146.203V175.72Z" fill="white"/>
<path d="M153.662 175.227V172.847C153.268 171.278 152.085 170.133 150.683 170.133C148.962 170.133 147.56 171.862 147.56 173.984V177.433L144.028 178.714V194.291L156.883 189.637V174.06L153.662 175.227Z" fill="#263238"/>
<path d="M144.028 179.684H170.429V186.582H144.028V183.05V179.684Z" fill="#263238"/>
<path opacity="0.8" d="M144.028 179.684H170.429V186.582H144.028V183.05V179.684Z" fill="white"/>
<path d="M161.136 193.965L170.429 190.607V179.684L161.136 183.05V193.965Z" fill="#263238"/>
<path d="M144.025 193.966H161.133V183.043H144.025V193.966Z" fill="#263238"/>
<path opacity="0.4" d="M144.025 193.966H161.133V183.043H144.025V193.966Z" fill="white"/>
<path opacity="0.6" d="M161.136 193.965L170.429 190.607V179.684L161.136 183.05V193.965Z" fill="white"/>
<path d="M162.606 193.434L168.951 191.137V188.06L162.606 190.364V193.434Z" fill="#407BFF"/>
<path d="M148.159 171.717C147.78 172.354 147.552 173.135 147.552 173.991V175.924L160.886 180.252L165.805 178.964V177.448L148.159 171.717Z" fill="#263238"/>
<path opacity="0.8" d="M148.159 171.717C147.78 172.354 147.552 173.135 147.552 173.991V175.924L160.886 180.252L165.805 178.964V177.448L148.159 171.717Z" fill="white"/>
<path d="M165.812 177.44L160.469 179.381V181.928L165.812 179.987V177.44Z" fill="#263238"/>
<path opacity="0.6" d="M165.812 177.44L160.469 179.381V181.928L165.812 179.987V177.44Z" fill="white"/>
<path d="M147.56 175.189V177.44L147.12 177.592L160.469 181.928V179.381L147.56 175.189Z" fill="#263238"/>
<path opacity="0.4" d="M147.56 175.189V177.44L147.12 177.592L160.469 181.928V179.381L147.56 175.189Z" fill="white"/>
<path d="M103.255 178.365L101.754 177.152C101.193 176.697 100.443 176.546 99.7452 176.735L96.4858 177.645C95.1821 178.009 94.136 178.986 93.6812 180.26L93.4008 181.048C95.7506 183.224 99.8968 183.845 99.8968 183.845L101.057 184.156C102.087 184.429 103.103 183.875 103.384 182.875L104.02 180.578C104.233 179.797 103.929 178.911 103.255 178.365Z" fill="#B28F8F"/>
<path d="M72.2374 162.03C71.4415 165.441 70.9336 168.693 70.8124 172.263C70.7593 174.052 70.782 175.856 71.1914 178.009C71.3051 178.555 71.4567 179.116 71.6841 179.745C71.9266 180.374 72.2222 181.064 72.8059 181.829C73.4502 182.671 74.1551 183.194 74.7919 183.58C75.4362 183.959 76.035 184.202 76.5959 184.399C77.7253 184.763 78.7183 184.922 79.681 185.028C80.636 185.126 81.5532 185.172 82.4401 185.164C84.2214 185.142 85.9269 185.02 87.6096 184.801C90.9752 184.368 94.1815 183.701 97.4182 182.746C98.5324 182.413 99.1691 181.245 98.8356 180.131C98.5627 179.206 97.7062 178.608 96.7814 178.63H96.7132C93.5827 178.691 90.3839 178.744 87.314 178.638C85.7753 178.57 84.2593 178.494 82.8267 178.304C82.1141 178.206 81.4168 178.107 80.7801 177.956C80.1509 177.812 79.5673 177.63 79.1807 177.433C78.7865 177.281 78.6425 177.001 79.0063 177.349C79.1807 177.569 79.0139 177.16 78.9912 176.667C78.8775 175.629 78.9609 174.189 79.0897 172.771C79.2337 171.331 79.4384 169.845 79.681 168.352C79.8932 166.866 80.2116 165.305 80.4617 163.902L80.492 163.736C80.9013 161.447 79.3778 159.256 77.0886 158.847C74.8677 158.445 72.7453 159.87 72.2374 162.03Z" fill="#B28F8F"/>
<path d="M80.6967 170.118C80.6967 170.118 74.754 170.186 70.2893 167.442C70.2893 167.442 70.1302 157.618 75.8531 154.427C81.576 151.229 80.6967 170.118 80.6967 170.118Z" fill="#407BFF"/>
<path opacity="0.2" d="M80.6967 170.118C80.6967 170.118 74.754 170.186 70.2893 167.442C70.2893 167.442 70.1302 157.618 75.8531 154.427C81.576 151.229 80.6967 170.118 80.6967 170.118Z" fill="black"/>
<path d="M72.5861 166.532L73.4426 169.185L74.428 166.964C76.2775 167.336 78.6652 167.662 81.6821 167.76L81.6897 171.217C81.6897 171.217 75.4816 171.581 69.2433 168.238L69.2812 165.282C69.2964 165.289 70.3045 165.903 72.5861 166.532Z" fill="#407BFF"/>
<path opacity="0.7" d="M72.5861 166.532L73.4426 169.185L74.428 166.964C76.2775 167.336 78.6652 167.662 81.6821 167.76L81.6897 171.217C81.6897 171.217 75.4816 171.581 69.2433 168.238L69.2812 165.282C69.2964 165.289 70.3045 165.903 72.5861 166.532Z" fill="white"/>
</svg>
