<svg width="36" height="36" viewBox="0 0 36 36" fill="none" xmlns="http://www.w3.org/2000/svg">
<g clip-path="url(#clip0_629_4364)">
<g clip-path="url(#clip1_629_4364)">
<g filter="url(#filter0_ii_629_4364)">
<path d="M0.953125 14.0824C0.953125 12.679 2.09085 11.5413 3.4943 11.5413H23.8237C25.2272 11.5413 26.3649 12.679 26.3649 14.0824V31.0236C26.3649 32.4271 25.2272 33.5648 23.8237 33.5648H3.4943C2.09085 33.5648 0.953125 32.4271 0.953125 31.0236V14.0824Z" fill="#8A7DD8"/>
</g>
<path d="M0.953125 14.0824C0.953125 12.679 2.09085 11.5413 3.4943 11.5413H23.8237C25.2272 11.5413 26.3649 12.679 26.3649 14.0824V31.0236C26.3649 32.4271 25.2272 33.5648 23.8237 33.5648H3.4943C2.09085 33.5648 0.953125 32.4271 0.953125 31.0236V14.0824Z" stroke="#1F2024" stroke-width="0.847059"/>
<path d="M17.6292 3.81189C15.3553 0.900115 14.2378 4.28272 10.7826 4.7693C9.64377 4.92967 9.11645 4.31282 8.68213 3.25727" stroke="#1F2024" stroke-width="0.847059" stroke-linecap="round"/>
<path d="M17.6292 3.81188C15.3553 0.900107 14.3123 4.70176 10.8571 5.18834C9.71828 5.34872 9.11645 4.31282 8.68213 3.25726" stroke="#1F2024" stroke-width="0.847059" stroke-linecap="round"/>
<g filter="url(#filter1_i_629_4364)">
<path d="M11.541 14.0824C11.541 12.679 12.6787 11.5413 14.0822 11.5413H32.7175C34.1209 11.5413 35.2587 12.679 35.2587 14.0824V31.0236C35.2587 32.4271 34.1209 33.5648 32.7175 33.5648H14.0822C12.6787 33.5648 11.541 32.4271 11.541 31.0236V14.0824Z" fill="#AEA5EE"/>
</g>
<path d="M11.541 14.0824C11.541 12.679 12.6787 11.5413 14.0822 11.5413H32.7175C34.1209 11.5413 35.2587 12.679 35.2587 14.0824V31.0236C35.2587 32.4271 34.1209 33.5648 32.7175 33.5648H14.0822C12.6787 33.5648 11.541 32.4271 11.541 31.0236V14.0824Z" stroke="#1F2024" stroke-width="0.847059"/>
<path d="M25.094 11.9646H29.1175L23.1881 33.1411H19.1646L25.094 11.9646Z" fill="white" fill-opacity="0.5"/>
<path d="M23.5061 11.9646H24.1414L18.212 33.1411H17.5767L23.5061 11.9646Z" fill="white" fill-opacity="0.5"/>
<g filter="url(#filter2_ii_629_4364)">
<path d="M22.5527 26.8532C22.5527 26.7401 22.6418 26.6469 22.7548 26.6417L30.9078 26.2689C31.0284 26.2634 31.1292 26.3597 31.1292 26.4805V28.6941C31.1292 28.811 31.0344 28.9058 30.9174 28.9058H22.7645C22.6475 28.9058 22.5527 28.811 22.5527 28.6941V26.8532Z" fill="#DE7E25"/>
</g>
<path d="M22.5527 26.8532C22.5527 26.7401 22.6418 26.6469 22.7548 26.6417L30.9078 26.2689C31.0284 26.2634 31.1292 26.3597 31.1292 26.4805V28.6941C31.1292 28.811 31.0344 28.9058 30.9174 28.9058H22.7645C22.6475 28.9058 22.5527 28.811 22.5527 28.6941V26.8532Z" stroke="#1F2024" stroke-width="0.847059" stroke-linejoin="round"/>
<g filter="url(#filter3_ii_629_4364)">
<path fill-rule="evenodd" clip-rule="evenodd" d="M33.5647 23.8235H29.1177V28.9058H33.4463C33.4505 28.9059 33.4547 28.9059 33.4588 28.9059C33.463 28.9059 33.4672 28.9059 33.4713 28.9058H33.5647V28.9028C34.6851 28.8365 35.5765 27.7255 35.5765 26.3647C35.5765 25.0039 34.6851 23.8929 33.5647 23.8267V23.8235Z" fill="#F2C95C"/>
</g>
<path d="M29.1177 23.8235V23.4C28.8838 23.4 28.6941 23.5896 28.6941 23.8235H29.1177ZM33.5647 23.8235H33.9883C33.9883 23.5896 33.7986 23.4 33.5647 23.4V23.8235ZM29.1177 28.9058H28.6941C28.6941 29.1397 28.8838 29.3294 29.1177 29.3294V28.9058ZM33.4463 28.9058L33.4493 28.4823H33.4463V28.9058ZM33.4713 28.9058V28.4823L33.4684 28.4823L33.4713 28.9058ZM33.5647 28.9058V29.3294C33.7986 29.3294 33.9883 29.1397 33.9883 28.9058H33.5647ZM33.5647 28.9028L33.5397 28.48C33.3159 28.4932 33.1412 28.6786 33.1412 28.9028H33.5647ZM33.5647 23.8267H33.1412C33.1412 24.0509 33.3159 24.2362 33.5397 24.2494L33.5647 23.8267ZM29.1177 24.247H33.5647V23.4H29.1177V24.247ZM29.5412 28.9058V23.8235H28.6941V28.9058H29.5412ZM33.4463 28.4823H29.1177V29.3294H33.4463V28.4823ZM33.4588 28.4824C33.4556 28.4824 33.4524 28.4823 33.4493 28.4823L33.4434 29.3294C33.4485 29.3294 33.4537 29.3294 33.4588 29.3294V28.4824ZM33.4684 28.4823C33.4652 28.4823 33.462 28.4824 33.4588 28.4824V29.3294C33.464 29.3294 33.4691 29.3294 33.4743 29.3294L33.4684 28.4823ZM33.5647 28.4823H33.4713V29.3294H33.5647V28.4823ZM33.1412 28.9028V28.9058H33.9883V28.9028H33.1412ZM35.1529 26.3647C35.1529 27.5692 34.3743 28.4306 33.5397 28.48L33.5897 29.3256C34.9959 29.2424 36 27.8819 36 26.3647H35.1529ZM33.5397 24.2494C34.3743 24.2988 35.1529 25.1602 35.1529 26.3647H36C36 24.8475 34.9959 23.487 33.5897 23.4039L33.5397 24.2494ZM33.1412 23.8235V23.8267H33.9883V23.8235H33.1412Z" fill="#1F2024"/>
<g filter="url(#filter4_ii_629_4364)">
<ellipse cx="29.3296" cy="26.3647" rx="2.11765" ry="2.54118" fill="#EDB146"/>
</g>
<ellipse cx="29.3296" cy="26.3647" rx="2.11765" ry="2.54118" stroke="#1F2024" stroke-width="0.847059" stroke-linejoin="round"/>
<circle cx="29.3295" cy="26.3646" r="0.847059" fill="#1F2024"/>
<g filter="url(#filter5_dii_629_4364)">
<circle cx="15.512" cy="32.9824" r="2.06471" fill="#75D1C1"/>
<circle cx="15.512" cy="32.9824" r="1.64118" stroke="#1F2024" stroke-width="0.847059" stroke-linejoin="round"/>
</g>
<g filter="url(#filter6_dii_629_4364)">
<path d="M12.0066 16.5192C12.4539 16.9937 12.2198 17.7744 11.5852 17.9245L8.37281 18.6845C7.73826 18.8346 7.17916 18.2415 7.36643 17.6169L8.31449 14.4549C8.50176 13.8303 9.29495 13.6427 9.74223 14.1171L12.0066 16.5192Z" fill="#FE204F"/>
<path d="M11.6984 16.8097C11.922 17.0469 11.805 17.4373 11.4877 17.5124L8.27531 18.2723C7.95803 18.3474 7.67848 18.0508 7.77212 17.7386L8.72018 14.5765C8.81381 14.2642 9.21041 14.1704 9.43405 14.4077L11.6984 16.8097Z" stroke="#1F2024" stroke-width="0.847059" stroke-linejoin="round"/>
</g>
<g filter="url(#filter7_dii_629_4364)">
<path d="M6.95966 30.0606C7.4372 30.5047 7.25499 31.2991 6.6317 31.4907L3.47625 32.4604C2.85295 32.6519 2.25604 32.0969 2.4018 31.4613L3.13973 28.2438C3.2855 27.6082 4.06462 27.3688 4.54215 27.8128L6.95966 30.0606Z" fill="#F9E174"/>
<path d="M6.67127 30.3708C6.91003 30.5928 6.81893 30.99 6.50728 31.0858L3.35184 32.0555C3.04019 32.1513 2.74173 31.8738 2.81461 31.556L3.55254 28.3385C3.62543 28.0207 4.01499 27.901 4.25375 28.123L6.67127 30.3708Z" stroke="#1F2024" stroke-width="0.847059" stroke-linejoin="round"/>
</g>
<g filter="url(#filter8_dii_629_4364)">
<circle cx="23.9822" cy="4.50001" r="2.06471" fill="#75D1C1"/>
<circle cx="23.9822" cy="4.50001" r="1.64118" stroke="#1F2024" stroke-width="0.847059" stroke-linejoin="round"/>
</g>
<g filter="url(#filter9_dii_629_4364)">
<path d="M6.35629 6.40016C7.00835 6.40016 7.4159 7.10604 7.08986 7.67075L5.43932 10.5296C5.11329 11.0943 4.2982 11.0943 3.97217 10.5296L2.32163 7.67075C1.9956 7.10604 2.40314 6.40016 3.0552 6.40016L6.35629 6.40016Z" fill="#2477D5"/>
<path d="M6.35629 6.82369C6.68232 6.82369 6.88609 7.17663 6.72308 7.45899L5.07253 10.3178C4.90952 10.6002 4.50197 10.6002 4.33896 10.3178L2.68842 7.45899C2.5254 7.17663 2.72917 6.82369 3.0552 6.82369L6.35629 6.82369Z" stroke="#1F2024" stroke-width="0.847059" stroke-linejoin="round"/>
</g>
<path d="M0.953125 22.0236C0.953125 21.5558 1.33237 21.1765 1.80018 21.1765H8.15313C8.62094 21.1765 9.00018 21.5558 9.00018 22.0236V26.2589C9.00018 26.7267 8.62094 27.1059 8.15313 27.1059H1.80018C1.33237 27.1059 0.953125 26.7267 0.953125 26.2589V22.0236Z" fill="#1F2024" fill-opacity="0.16"/>
<g filter="url(#filter10_ii_629_4364)">
<path d="M0.529297 20.7528C0.529297 20.285 0.908538 19.9058 1.37636 19.9058H8.25871C8.72653 19.9058 9.10577 20.285 9.10577 20.7528V24.9881C9.10577 25.4559 8.72653 25.8352 8.25871 25.8352H1.37636C0.908538 25.8352 0.529297 25.4559 0.529297 24.9881V20.7528Z" fill="#8A7DD8"/>
</g>
<path d="M0.529297 20.7528C0.529297 20.285 0.908538 19.9058 1.37636 19.9058H8.25871C8.72653 19.9058 9.10577 20.285 9.10577 20.7528V24.9881C9.10577 25.4559 8.72653 25.8352 8.25871 25.8352H1.37636C0.908538 25.8352 0.529297 25.4559 0.529297 24.9881V20.7528Z" stroke="#1F2024" stroke-width="0.847059"/>
<g filter="url(#filter11_i_629_4364)">
<path d="M6.56494 20.7528C6.56494 20.285 6.94418 19.9058 7.412 19.9058H8.25906C8.72688 19.9058 9.10612 20.285 9.10612 20.7528V24.9881C9.10612 25.4559 8.72688 25.8352 8.25906 25.8352H7.412C6.94418 25.8352 6.56494 25.4559 6.56494 24.9881V20.7528Z" fill="#AEA5EE"/>
</g>
<path d="M6.56494 20.7528C6.56494 20.285 6.94418 19.9058 7.412 19.9058H8.25906C8.72688 19.9058 9.10612 20.285 9.10612 20.7528V24.9881C9.10612 25.4559 8.72688 25.8352 8.25906 25.8352H7.412C6.94418 25.8352 6.56494 25.4559 6.56494 24.9881V20.7528Z" stroke="#1F2024" stroke-width="0.847059"/>
<rect x="2.32959" y="21.9177" width="0.847059" height="2.11765" rx="0.423529" fill="#1F2024"/>
<rect x="3.6001" y="21.9177" width="0.847059" height="2.11765" rx="0.423529" fill="#1F2024"/>
<path d="M20.7048 22.2458C19.4598 20.8832 17.2768 20.7793 15.927 22.2499C15.6897 22.5084 15.135 22.4725 14.8765 22.2352C14.561 21.9456 14.712 21.1234 15.1246 20.7269C16.1534 19.7383 17.452 19.4823 18.6456 19.6857C19.823 19.8863 20.9291 20.5354 21.6614 21.4097C21.7091 21.466 21.7455 21.5285 21.7704 21.5941C21.8022 21.6775 21.8156 21.7659 21.811 21.8531C21.8024 22.0187 21.7294 22.1804 21.5957 22.2977C21.5394 22.3472 21.4766 22.385 21.4105 22.4112C21.3204 22.4468 21.2243 22.4608 21.1299 22.4539C20.9719 22.4422 20.8183 22.3718 20.7048 22.2458Z" fill="#1F2024"/>
<path d="M26.4128 22.2458C27.6579 20.8832 29.8409 20.7793 31.1907 22.2499C31.428 22.5084 31.9826 22.4725 32.2411 22.2352C32.5567 21.9456 32.4057 21.1234 31.993 20.7269C30.9643 19.7383 29.6657 19.4823 28.472 19.6857C27.2947 19.8863 26.1886 20.5354 25.4563 21.4097C25.4085 21.466 25.3722 21.5285 25.3472 21.5941C25.3155 21.6775 25.3021 21.7659 25.3066 21.8531C25.3153 22.0187 25.3882 22.1804 25.522 22.2977C25.5783 22.3472 25.6411 22.385 25.7072 22.4112C25.7973 22.4468 25.8933 22.4608 25.9878 22.4539C26.1458 22.4422 26.2993 22.3718 26.4128 22.2458Z" fill="#1F2024"/>
<path d="M21.7061 27.8149C23.1884 27.3177 23.1884 25.8354 21.7061 25.4119" stroke="#1F2024" stroke-width="1.27059" stroke-linecap="round"/>
<path d="M21.7061 30.2502C23.1884 29.7531 23.1884 28.2707 21.7061 27.8472" stroke="#1F2024" stroke-width="1.27059" stroke-linecap="round"/>
<g filter="url(#filter12_dii_629_4364)">
<path d="M33.007 8.5665C33.4846 9.01052 33.3024 9.80497 32.6791 9.99652L29.5236 10.9662C28.9003 11.1578 28.3034 10.6028 28.4492 9.96719L29.1871 6.74964C29.3329 6.11407 30.112 5.87464 30.5895 6.31866L33.007 8.5665Z" fill="#F9E174"/>
<path d="M32.7186 8.87667C32.9574 9.09868 32.8663 9.4959 32.5546 9.59168L29.3992 10.5614C29.0876 10.6572 28.7891 10.3796 28.862 10.0619L29.5999 6.84431C29.6728 6.52653 30.0624 6.40681 30.3011 6.62882L32.7186 8.87667Z" stroke="#1F2024" stroke-width="0.847059" stroke-linejoin="round"/>
</g>
<g filter="url(#filter13_dii_629_4364)">
<circle cx="33.9353" cy="16.8882" r="2.06471" fill="#75D1C1"/>
<circle cx="33.9353" cy="16.8882" r="1.64118" stroke="#1F2024" stroke-width="0.847059" stroke-linejoin="round"/>
</g>
</g>
<path d="M17.7351 3.81177L23.7412 11.5941H11.729L17.7351 3.81177Z" fill="#4795E0" stroke="#1F2024" stroke-width="0.847059" stroke-linejoin="round"/>
<mask id="mask0_629_4364" style="mask-type:alpha" maskUnits="userSpaceOnUse" x="11" y="3" width="14" height="10">
<path d="M17.7351 3.81177L23.7412 11.5941H11.729L17.7351 3.81177Z" fill="#F9E174" stroke="#1F2024" stroke-width="0.847059" stroke-linejoin="round"/>
</mask>
<g mask="url(#mask0_629_4364)">
<path d="M20.4881 7.62354L13.5528 9.2416L12.2822 10.9059L21.5999 8.87175L20.4881 7.62354Z" fill="#F2C95C"/>
<path d="M19.0595 5.29419L15.6178 6.19419L14.356 7.88831L20.1636 6.56478L19.0595 5.29419Z" fill="#F2C95C"/>
<path d="M22.3863 9.95288L16.4646 11.3823L15.7764 12.8117L23.5058 11.1781L22.3863 9.95288Z" fill="#F2C95C"/>
<path d="M17.7351 3.81177L23.7412 11.5941H11.729L17.7351 3.81177Z" stroke="#1F2024" stroke-width="0.847059" stroke-linejoin="round"/>
<path d="M18.5293 6.77637L20.1299 9.15872M20.8058 10.1646L20.6999 10.007" stroke="white" stroke-width="0.847059" stroke-linecap="round"/>
<path d="M15.8293 11.3824L17.8411 4.23535L17.4705 4.39418L12.0176 11.3824H15.8293Z" fill="#1F2024" fill-opacity="0.35"/>
</g>
</g>
<defs>
<filter id="filter0_ii_629_4364" x="0.529785" y="11.1177" width="26.2588" height="22.8706" filterUnits="userSpaceOnUse" color-interpolation-filters="sRGB">
<feFlood flood-opacity="0" result="BackgroundImageFix"/>
<feBlend mode="normal" in="SourceGraphic" in2="BackgroundImageFix" result="shape"/>
<feColorMatrix in="SourceAlpha" type="matrix" values="0 0 0 0 0 0 0 0 0 0 0 0 0 0 0 0 0 0 127 0" result="hardAlpha"/>
<feOffset dy="-16"/>
<feComposite in2="hardAlpha" operator="arithmetic" k2="-1" k3="1"/>
<feColorMatrix type="matrix" values="0 0 0 0 0 0 0 0 0 0 0 0 0 0 0 0 0 0 0.25 0"/>
<feBlend mode="normal" in2="shape" result="effect1_innerShadow_629_4364"/>
<feColorMatrix in="SourceAlpha" type="matrix" values="0 0 0 0 0 0 0 0 0 0 0 0 0 0 0 0 0 0 127 0" result="hardAlpha"/>
<feOffset dy="16"/>
<feComposite in2="hardAlpha" operator="arithmetic" k2="-1" k3="1"/>
<feColorMatrix type="matrix" values="0 0 0 0 1 0 0 0 0 1 0 0 0 0 1 0 0 0 0.25 0"/>
<feBlend mode="normal" in2="effect1_innerShadow_629_4364" result="effect2_innerShadow_629_4364"/>
</filter>
<filter id="filter1_i_629_4364" x="11.1177" y="11.1177" width="24.5645" height="22.8706" filterUnits="userSpaceOnUse" color-interpolation-filters="sRGB">
<feFlood flood-opacity="0" result="BackgroundImageFix"/>
<feBlend mode="normal" in="SourceGraphic" in2="BackgroundImageFix" result="shape"/>
<feColorMatrix in="SourceAlpha" type="matrix" values="0 0 0 0 0 0 0 0 0 0 0 0 0 0 0 0 0 0 127 0" result="hardAlpha"/>
<feOffset dx="-24" dy="8"/>
<feComposite in2="hardAlpha" operator="arithmetic" k2="-1" k3="1"/>
<feColorMatrix type="matrix" values="0 0 0 0 1 0 0 0 0 1 0 0 0 0 1 0 0 0 0.25 0"/>
<feBlend mode="normal" in2="shape" result="effect1_innerShadow_629_4364"/>
</filter>
<filter id="filter2_ii_629_4364" x="22.1294" y="25.8452" width="9.42334" height="3.48413" filterUnits="userSpaceOnUse" color-interpolation-filters="sRGB">
<feFlood flood-opacity="0" result="BackgroundImageFix"/>
<feBlend mode="normal" in="SourceGraphic" in2="BackgroundImageFix" result="shape"/>
<feColorMatrix in="SourceAlpha" type="matrix" values="0 0 0 0 0 0 0 0 0 0 0 0 0 0 0 0 0 0 127 0" result="hardAlpha"/>
<feOffset dx="0.847059" dy="-0.847059"/>
<feComposite in2="hardAlpha" operator="arithmetic" k2="-1" k3="1"/>
<feColorMatrix type="matrix" values="0 0 0 0 0 0 0 0 0 0 0 0 0 0 0 0 0 0 0.25 0"/>
<feBlend mode="normal" in2="shape" result="effect1_innerShadow_629_4364"/>
<feColorMatrix in="SourceAlpha" type="matrix" values="0 0 0 0 0 0 0 0 0 0 0 0 0 0 0 0 0 0 127 0" result="hardAlpha"/>
<feOffset dx="-0.847059" dy="1.27059"/>
<feComposite in2="hardAlpha" operator="arithmetic" k2="-1" k3="1"/>
<feColorMatrix type="matrix" values="0 0 0 0 1 0 0 0 0 1 0 0 0 0 1 0 0 0 0.6 0"/>
<feBlend mode="normal" in2="effect1_innerShadow_629_4364" result="effect2_innerShadow_629_4364"/>
</filter>
<filter id="filter3_ii_629_4364" x="28.6943" y="23.3999" width="7.30566" height="5.92944" filterUnits="userSpaceOnUse" color-interpolation-filters="sRGB">
<feFlood flood-opacity="0" result="BackgroundImageFix"/>
<feBlend mode="normal" in="SourceGraphic" in2="BackgroundImageFix" result="shape"/>
<feColorMatrix in="SourceAlpha" type="matrix" values="0 0 0 0 0 0 0 0 0 0 0 0 0 0 0 0 0 0 127 0" result="hardAlpha"/>
<feOffset dx="0.847059" dy="-0.847059"/>
<feComposite in2="hardAlpha" operator="arithmetic" k2="-1" k3="1"/>
<feColorMatrix type="matrix" values="0 0 0 0 0 0 0 0 0 0 0 0 0 0 0 0 0 0 0.25 0"/>
<feBlend mode="normal" in2="shape" result="effect1_innerShadow_629_4364"/>
<feColorMatrix in="SourceAlpha" type="matrix" values="0 0 0 0 0 0 0 0 0 0 0 0 0 0 0 0 0 0 127 0" result="hardAlpha"/>
<feOffset dx="-1.05882" dy="1.27059"/>
<feComposite in2="hardAlpha" operator="arithmetic" k2="-1" k3="1"/>
<feColorMatrix type="matrix" values="0 0 0 0 1 0 0 0 0 1 0 0 0 0 1 0 0 0 0.6 0"/>
<feBlend mode="normal" in2="effect1_innerShadow_629_4364" result="effect2_innerShadow_629_4364"/>
</filter>
<filter id="filter4_ii_629_4364" x="26.7886" y="23.3999" width="5.08203" height="5.92944" filterUnits="userSpaceOnUse" color-interpolation-filters="sRGB">
<feFlood flood-opacity="0" result="BackgroundImageFix"/>
<feBlend mode="normal" in="SourceGraphic" in2="BackgroundImageFix" result="shape"/>
<feColorMatrix in="SourceAlpha" type="matrix" values="0 0 0 0 0 0 0 0 0 0 0 0 0 0 0 0 0 0 127 0" result="hardAlpha"/>
<feOffset dx="0.847059" dy="-0.847059"/>
<feComposite in2="hardAlpha" operator="arithmetic" k2="-1" k3="1"/>
<feColorMatrix type="matrix" values="0 0 0 0 0 0 0 0 0 0 0 0 0 0 0 0 0 0 0.25 0"/>
<feBlend mode="normal" in2="shape" result="effect1_innerShadow_629_4364"/>
<feColorMatrix in="SourceAlpha" type="matrix" values="0 0 0 0 0 0 0 0 0 0 0 0 0 0 0 0 0 0 127 0" result="hardAlpha"/>
<feOffset dx="-0.847059" dy="1.27059"/>
<feComposite in2="hardAlpha" operator="arithmetic" k2="-1" k3="1"/>
<feColorMatrix type="matrix" values="0 0 0 0 1 0 0 0 0 1 0 0 0 0 1 0 0 0 0.6 0"/>
<feBlend mode="normal" in2="effect1_innerShadow_629_4364" result="effect2_innerShadow_629_4364"/>
</filter>
<filter id="filter5_dii_629_4364" x="13.0237" y="30.9177" width="4.55292" height="4.55292" filterUnits="userSpaceOnUse" color-interpolation-filters="sRGB">
<feFlood flood-opacity="0" result="BackgroundImageFix"/>
<feColorMatrix in="SourceAlpha" type="matrix" values="0 0 0 0 0 0 0 0 0 0 0 0 0 0 0 0 0 0 127 0" result="hardAlpha"/>
<feOffset dx="-0.423529" dy="0.423529"/>
<feComposite in2="hardAlpha" operator="out"/>
<feColorMatrix type="matrix" values="0 0 0 0 0.121569 0 0 0 0 0.12549 0 0 0 0 0.141176 0 0 0 0.25 0"/>
<feBlend mode="normal" in2="BackgroundImageFix" result="effect1_dropShadow_629_4364"/>
<feBlend mode="normal" in="SourceGraphic" in2="effect1_dropShadow_629_4364" result="shape"/>
<feColorMatrix in="SourceAlpha" type="matrix" values="0 0 0 0 0 0 0 0 0 0 0 0 0 0 0 0 0 0 127 0" result="hardAlpha"/>
<feOffset dx="0.847059" dy="-0.847059"/>
<feComposite in2="hardAlpha" operator="arithmetic" k2="-1" k3="1"/>
<feColorMatrix type="matrix" values="0 0 0 0 0 0 0 0 0 0 0 0 0 0 0 0 0 0 0.25 0"/>
<feBlend mode="normal" in2="shape" result="effect2_innerShadow_629_4364"/>
<feColorMatrix in="SourceAlpha" type="matrix" values="0 0 0 0 0 0 0 0 0 0 0 0 0 0 0 0 0 0 127 0" result="hardAlpha"/>
<feOffset dx="-0.847059" dy="1.27059"/>
<feComposite in2="hardAlpha" operator="arithmetic" k2="-1" k3="1"/>
<feColorMatrix type="matrix" values="0 0 0 0 1 0 0 0 0 1 0 0 0 0 1 0 0 0 0.6 0"/>
<feBlend mode="normal" in2="effect2_innerShadow_629_4364" result="effect3_innerShadow_629_4364"/>
</filter>
<filter id="filter6_dii_629_4364" x="6.90606" y="13.8506" width="5.33173" height="5.28095" filterUnits="userSpaceOnUse" color-interpolation-filters="sRGB">
<feFlood flood-opacity="0" result="BackgroundImageFix"/>
<feColorMatrix in="SourceAlpha" type="matrix" values="0 0 0 0 0 0 0 0 0 0 0 0 0 0 0 0 0 0 127 0" result="hardAlpha"/>
<feOffset dx="-0.423529" dy="0.423529"/>
<feComposite in2="hardAlpha" operator="out"/>
<feColorMatrix type="matrix" values="0 0 0 0 0.121569 0 0 0 0 0.12549 0 0 0 0 0.141176 0 0 0 0.25 0"/>
<feBlend mode="normal" in2="BackgroundImageFix" result="effect1_dropShadow_629_4364"/>
<feBlend mode="normal" in="SourceGraphic" in2="effect1_dropShadow_629_4364" result="shape"/>
<feColorMatrix in="SourceAlpha" type="matrix" values="0 0 0 0 0 0 0 0 0 0 0 0 0 0 0 0 0 0 127 0" result="hardAlpha"/>
<feOffset dx="0.847059" dy="-0.847059"/>
<feComposite in2="hardAlpha" operator="arithmetic" k2="-1" k3="1"/>
<feColorMatrix type="matrix" values="0 0 0 0 0 0 0 0 0 0 0 0 0 0 0 0 0 0 0.25 0"/>
<feBlend mode="normal" in2="shape" result="effect2_innerShadow_629_4364"/>
<feColorMatrix in="SourceAlpha" type="matrix" values="0 0 0 0 0 0 0 0 0 0 0 0 0 0 0 0 0 0 127 0" result="hardAlpha"/>
<feOffset dx="-0.847059" dy="1.27059"/>
<feComposite in2="hardAlpha" operator="arithmetic" k2="-1" k3="1"/>
<feColorMatrix type="matrix" values="0 0 0 0 1 0 0 0 0 1 0 0 0 0 1 0 0 0 0.6 0"/>
<feBlend mode="normal" in2="effect2_innerShadow_629_4364" result="effect3_innerShadow_629_4364"/>
</filter>
<filter id="filter7_dii_629_4364" x="1.95587" y="27.5854" width="5.2746" height="5.33686" filterUnits="userSpaceOnUse" color-interpolation-filters="sRGB">
<feFlood flood-opacity="0" result="BackgroundImageFix"/>
<feColorMatrix in="SourceAlpha" type="matrix" values="0 0 0 0 0 0 0 0 0 0 0 0 0 0 0 0 0 0 127 0" result="hardAlpha"/>
<feOffset dx="-0.423529" dy="0.423529"/>
<feComposite in2="hardAlpha" operator="out"/>
<feColorMatrix type="matrix" values="0 0 0 0 0.121569 0 0 0 0 0.12549 0 0 0 0 0.141176 0 0 0 0.25 0"/>
<feBlend mode="normal" in2="BackgroundImageFix" result="effect1_dropShadow_629_4364"/>
<feBlend mode="normal" in="SourceGraphic" in2="effect1_dropShadow_629_4364" result="shape"/>
<feColorMatrix in="SourceAlpha" type="matrix" values="0 0 0 0 0 0 0 0 0 0 0 0 0 0 0 0 0 0 127 0" result="hardAlpha"/>
<feOffset dx="0.847059" dy="-0.847059"/>
<feComposite in2="hardAlpha" operator="arithmetic" k2="-1" k3="1"/>
<feColorMatrix type="matrix" values="0 0 0 0 0 0 0 0 0 0 0 0 0 0 0 0 0 0 0.25 0"/>
<feBlend mode="normal" in2="shape" result="effect2_innerShadow_629_4364"/>
<feColorMatrix in="SourceAlpha" type="matrix" values="0 0 0 0 0 0 0 0 0 0 0 0 0 0 0 0 0 0 127 0" result="hardAlpha"/>
<feOffset dx="-0.847059" dy="1.27059"/>
<feComposite in2="hardAlpha" operator="arithmetic" k2="-1" k3="1"/>
<feColorMatrix type="matrix" values="0 0 0 0 1 0 0 0 0 1 0 0 0 0 1 0 0 0 0.6 0"/>
<feBlend mode="normal" in2="effect2_innerShadow_629_4364" result="effect3_innerShadow_629_4364"/>
</filter>
<filter id="filter8_dii_629_4364" x="21.494" y="2.4353" width="4.55292" height="4.55292" filterUnits="userSpaceOnUse" color-interpolation-filters="sRGB">
<feFlood flood-opacity="0" result="BackgroundImageFix"/>
<feColorMatrix in="SourceAlpha" type="matrix" values="0 0 0 0 0 0 0 0 0 0 0 0 0 0 0 0 0 0 127 0" result="hardAlpha"/>
<feOffset dx="-0.423529" dy="0.423529"/>
<feComposite in2="hardAlpha" operator="out"/>
<feColorMatrix type="matrix" values="0 0 0 0 0.121569 0 0 0 0 0.12549 0 0 0 0 0.141176 0 0 0 0.25 0"/>
<feBlend mode="normal" in2="BackgroundImageFix" result="effect1_dropShadow_629_4364"/>
<feBlend mode="normal" in="SourceGraphic" in2="effect1_dropShadow_629_4364" result="shape"/>
<feColorMatrix in="SourceAlpha" type="matrix" values="0 0 0 0 0 0 0 0 0 0 0 0 0 0 0 0 0 0 127 0" result="hardAlpha"/>
<feOffset dx="0.847059" dy="-0.847059"/>
<feComposite in2="hardAlpha" operator="arithmetic" k2="-1" k3="1"/>
<feColorMatrix type="matrix" values="0 0 0 0 0 0 0 0 0 0 0 0 0 0 0 0 0 0 0.25 0"/>
<feBlend mode="normal" in2="shape" result="effect2_innerShadow_629_4364"/>
<feColorMatrix in="SourceAlpha" type="matrix" values="0 0 0 0 0 0 0 0 0 0 0 0 0 0 0 0 0 0 127 0" result="hardAlpha"/>
<feOffset dx="-0.847059" dy="1.27059"/>
<feComposite in2="hardAlpha" operator="arithmetic" k2="-1" k3="1"/>
<feColorMatrix type="matrix" values="0 0 0 0 1 0 0 0 0 1 0 0 0 0 1 0 0 0 0.6 0"/>
<feBlend mode="normal" in2="effect2_innerShadow_629_4364" result="effect3_innerShadow_629_4364"/>
</filter>
<filter id="filter9_dii_629_4364" x="1.7835" y="6.40015" width="5.42109" height="4.97651" filterUnits="userSpaceOnUse" color-interpolation-filters="sRGB">
<feFlood flood-opacity="0" result="BackgroundImageFix"/>
<feColorMatrix in="SourceAlpha" type="matrix" values="0 0 0 0 0 0 0 0 0 0 0 0 0 0 0 0 0 0 127 0" result="hardAlpha"/>
<feOffset dx="-0.423529" dy="0.423529"/>
<feComposite in2="hardAlpha" operator="out"/>
<feColorMatrix type="matrix" values="0 0 0 0 0.121569 0 0 0 0 0.12549 0 0 0 0 0.141176 0 0 0 0.25 0"/>
<feBlend mode="normal" in2="BackgroundImageFix" result="effect1_dropShadow_629_4364"/>
<feBlend mode="normal" in="SourceGraphic" in2="effect1_dropShadow_629_4364" result="shape"/>
<feColorMatrix in="SourceAlpha" type="matrix" values="0 0 0 0 0 0 0 0 0 0 0 0 0 0 0 0 0 0 127 0" result="hardAlpha"/>
<feOffset dx="0.847059" dy="-0.847059"/>
<feComposite in2="hardAlpha" operator="arithmetic" k2="-1" k3="1"/>
<feColorMatrix type="matrix" values="0 0 0 0 0 0 0 0 0 0 0 0 0 0 0 0 0 0 0.25 0"/>
<feBlend mode="normal" in2="shape" result="effect2_innerShadow_629_4364"/>
<feColorMatrix in="SourceAlpha" type="matrix" values="0 0 0 0 0 0 0 0 0 0 0 0 0 0 0 0 0 0 127 0" result="hardAlpha"/>
<feOffset dx="-0.847059" dy="1.27059"/>
<feComposite in2="hardAlpha" operator="arithmetic" k2="-1" k3="1"/>
<feColorMatrix type="matrix" values="0 0 0 0 1 0 0 0 0 1 0 0 0 0 1 0 0 0 0.6 0"/>
<feBlend mode="normal" in2="effect2_innerShadow_629_4364" result="effect3_innerShadow_629_4364"/>
</filter>
<filter id="filter10_ii_629_4364" x="0.105957" y="19.4822" width="9.42334" height="6.77661" filterUnits="userSpaceOnUse" color-interpolation-filters="sRGB">
<feFlood flood-opacity="0" result="BackgroundImageFix"/>
<feBlend mode="normal" in="SourceGraphic" in2="BackgroundImageFix" result="shape"/>
<feColorMatrix in="SourceAlpha" type="matrix" values="0 0 0 0 0 0 0 0 0 0 0 0 0 0 0 0 0 0 127 0" result="hardAlpha"/>
<feOffset dy="-16"/>
<feComposite in2="hardAlpha" operator="arithmetic" k2="-1" k3="1"/>
<feColorMatrix type="matrix" values="0 0 0 0 0 0 0 0 0 0 0 0 0 0 0 0 0 0 0.25 0"/>
<feBlend mode="normal" in2="shape" result="effect1_innerShadow_629_4364"/>
<feColorMatrix in="SourceAlpha" type="matrix" values="0 0 0 0 0 0 0 0 0 0 0 0 0 0 0 0 0 0 127 0" result="hardAlpha"/>
<feOffset dy="16"/>
<feComposite in2="hardAlpha" operator="arithmetic" k2="-1" k3="1"/>
<feColorMatrix type="matrix" values="0 0 0 0 1 0 0 0 0 1 0 0 0 0 1 0 0 0 0.25 0"/>
<feBlend mode="normal" in2="effect1_innerShadow_629_4364" result="effect2_innerShadow_629_4364"/>
</filter>
<filter id="filter11_i_629_4364" x="6.1416" y="19.4822" width="3.38818" height="6.77661" filterUnits="userSpaceOnUse" color-interpolation-filters="sRGB">
<feFlood flood-opacity="0" result="BackgroundImageFix"/>
<feBlend mode="normal" in="SourceGraphic" in2="BackgroundImageFix" result="shape"/>
<feColorMatrix in="SourceAlpha" type="matrix" values="0 0 0 0 0 0 0 0 0 0 0 0 0 0 0 0 0 0 127 0" result="hardAlpha"/>
<feOffset dx="-24" dy="8"/>
<feComposite in2="hardAlpha" operator="arithmetic" k2="-1" k3="1"/>
<feColorMatrix type="matrix" values="0 0 0 0 1 0 0 0 0 1 0 0 0 0 1 0 0 0 0.25 0"/>
<feBlend mode="normal" in2="shape" result="effect1_innerShadow_629_4364"/>
</filter>
<filter id="filter12_dii_629_4364" x="28.0032" y="6.09131" width="5.2746" height="5.33686" filterUnits="userSpaceOnUse" color-interpolation-filters="sRGB">
<feFlood flood-opacity="0" result="BackgroundImageFix"/>
<feColorMatrix in="SourceAlpha" type="matrix" values="0 0 0 0 0 0 0 0 0 0 0 0 0 0 0 0 0 0 127 0" result="hardAlpha"/>
<feOffset dx="-0.423529" dy="0.423529"/>
<feComposite in2="hardAlpha" operator="out"/>
<feColorMatrix type="matrix" values="0 0 0 0 0.121569 0 0 0 0 0.12549 0 0 0 0 0.141176 0 0 0 0.25 0"/>
<feBlend mode="normal" in2="BackgroundImageFix" result="effect1_dropShadow_629_4364"/>
<feBlend mode="normal" in="SourceGraphic" in2="effect1_dropShadow_629_4364" result="shape"/>
<feColorMatrix in="SourceAlpha" type="matrix" values="0 0 0 0 0 0 0 0 0 0 0 0 0 0 0 0 0 0 127 0" result="hardAlpha"/>
<feOffset dx="0.847059" dy="-0.847059"/>
<feComposite in2="hardAlpha" operator="arithmetic" k2="-1" k3="1"/>
<feColorMatrix type="matrix" values="0 0 0 0 0 0 0 0 0 0 0 0 0 0 0 0 0 0 0.25 0"/>
<feBlend mode="normal" in2="shape" result="effect2_innerShadow_629_4364"/>
<feColorMatrix in="SourceAlpha" type="matrix" values="0 0 0 0 0 0 0 0 0 0 0 0 0 0 0 0 0 0 127 0" result="hardAlpha"/>
<feOffset dx="-0.847059" dy="1.27059"/>
<feComposite in2="hardAlpha" operator="arithmetic" k2="-1" k3="1"/>
<feColorMatrix type="matrix" values="0 0 0 0 1 0 0 0 0 1 0 0 0 0 1 0 0 0 0.6 0"/>
<feBlend mode="normal" in2="effect2_innerShadow_629_4364" result="effect3_innerShadow_629_4364"/>
</filter>
<filter id="filter13_dii_629_4364" x="31.4471" y="14.8235" width="4.55292" height="4.55292" filterUnits="userSpaceOnUse" color-interpolation-filters="sRGB">
<feFlood flood-opacity="0" result="BackgroundImageFix"/>
<feColorMatrix in="SourceAlpha" type="matrix" values="0 0 0 0 0 0 0 0 0 0 0 0 0 0 0 0 0 0 127 0" result="hardAlpha"/>
<feOffset dx="-0.423529" dy="0.423529"/>
<feComposite in2="hardAlpha" operator="out"/>
<feColorMatrix type="matrix" values="0 0 0 0 0.121569 0 0 0 0 0.12549 0 0 0 0 0.141176 0 0 0 0.25 0"/>
<feBlend mode="normal" in2="BackgroundImageFix" result="effect1_dropShadow_629_4364"/>
<feBlend mode="normal" in="SourceGraphic" in2="effect1_dropShadow_629_4364" result="shape"/>
<feColorMatrix in="SourceAlpha" type="matrix" values="0 0 0 0 0 0 0 0 0 0 0 0 0 0 0 0 0 0 127 0" result="hardAlpha"/>
<feOffset dx="0.847059" dy="-0.847059"/>
<feComposite in2="hardAlpha" operator="arithmetic" k2="-1" k3="1"/>
<feColorMatrix type="matrix" values="0 0 0 0 0 0 0 0 0 0 0 0 0 0 0 0 0 0 0.25 0"/>
<feBlend mode="normal" in2="shape" result="effect2_innerShadow_629_4364"/>
<feColorMatrix in="SourceAlpha" type="matrix" values="0 0 0 0 0 0 0 0 0 0 0 0 0 0 0 0 0 0 127 0" result="hardAlpha"/>
<feOffset dx="-0.847059" dy="1.27059"/>
<feComposite in2="hardAlpha" operator="arithmetic" k2="-1" k3="1"/>
<feColorMatrix type="matrix" values="0 0 0 0 1 0 0 0 0 1 0 0 0 0 1 0 0 0 0.6 0"/>
<feBlend mode="normal" in2="effect2_innerShadow_629_4364" result="effect3_innerShadow_629_4364"/>
</filter>
<clipPath id="clip0_629_4364">
<rect width="36" height="36" fill="white"/>
</clipPath>
<clipPath id="clip1_629_4364">
<rect width="37.0588" height="33.5647" fill="white" transform="translate(-0.529297 2.11768)"/>
</clipPath>
</defs>
</svg>
