<svg width="20" height="20" viewBox="0 0 20 20" fill="none" xmlns="http://www.w3.org/2000/svg">
<path d="M10 3.52942C6.17879 3.52942 2.71351 6.00509 0.15649 10.0262C-0.0521632 10.3557 -0.0521632 10.8159 0.15649 11.1454C2.71351 15.1714 6.17879 17.6471 10 17.6471C13.8212 17.6471 17.2865 15.1714 19.8435 11.1502C20.0522 10.8208 20.0522 10.3605 19.8435 10.0311C17.2865 6.00509 13.8212 3.52942 10 3.52942ZM10.2741 15.559C7.73755 15.7479 5.64284 13.2722 5.80239 10.2636C5.93331 7.78312 7.63118 5.77255 9.72589 5.61751C12.2625 5.42857 14.3572 7.90424 14.1976 10.9128C14.0626 13.3885 12.3647 15.3991 10.2741 15.559ZM10.1473 13.2626C8.78081 13.3643 7.65163 12.032 7.74164 10.4138C7.81119 9.07668 8.72763 7.99629 9.85681 7.90909C11.2233 7.80735 12.3525 9.13966 12.2625 10.7578C12.1888 12.0998 11.2724 13.1802 10.1473 13.2626Z" fill="black"/>
</svg>
