<svg width="20" height="20" viewBox="0 0 20 20" fill="none" xmlns="http://www.w3.org/2000/svg">
<path d="M10 3.52936C6.17879 3.52936 2.71351 6.00503 0.15649 10.0262C-0.0521632 10.3556 -0.0521632 10.8159 0.15649 11.1453C2.71351 15.1713 6.17879 17.647 10 17.647C13.8212 17.647 17.2865 15.1713 19.8435 11.1502C20.0522 10.8207 20.0522 10.3605 19.8435 10.031C17.2865 6.00503 13.8212 3.52936 10 3.52936ZM10.2741 15.5589C7.73755 15.7479 5.64284 13.2722 5.80239 10.2636C5.93331 7.78306 7.63118 5.77248 9.72589 5.61745C12.2625 5.42851 14.3572 7.90418 14.1976 10.9128C14.0626 13.3885 12.3647 15.399 10.2741 15.5589ZM10.1473 13.2625C8.78081 13.3642 7.65163 12.0319 7.74164 10.4138C7.81119 9.07661 8.72763 7.99623 9.85681 7.90903C11.2233 7.80729 12.3525 9.1396 12.2625 10.7577C12.1888 12.0997 11.2724 13.1801 10.1473 13.2625Z" fill="black"/>
<path d="M1.74597 1.84869L17.6707 18.7102" stroke="black" stroke-width="1.5" stroke-linecap="square"/>
</svg>
