<svg width="22" height="22" viewBox="0 0 22 22" fill="none" xmlns="http://www.w3.org/2000/svg">
<path d="M4.73407 9.58833C6.41639 12.89 9.12681 15.585 12.433 17.2767L15.0033 14.71C15.3187 14.395 15.786 14.29 16.1949 14.43C17.5034 14.8617 18.917 15.095 20.3657 15.095C21.0082 15.095 21.534 15.62 21.534 16.2617V20.3333C21.534 20.975 21.0082 21.5 20.3657 21.5C9.39551 21.5 0.504883 12.6217 0.504883 1.66667C0.504883 1.025 1.03061 0.5 1.67317 0.5H5.76215C6.40471 0.5 6.93044 1.025 6.93044 1.66667C6.93044 3.125 7.16409 4.525 7.59636 5.83167C7.72487 6.24 7.63141 6.695 7.30429 7.02167L4.73407 9.58833Z" fill="white"/>
</svg>
