<svg width="20" height="19" viewBox="0 0 20 19" fill="none" xmlns="http://www.w3.org/2000/svg">
<path d="M19.1663 14.3175V17.0675C19.1674 17.3228 19.1151 17.5755 19.0128 17.8094C18.9105 18.0433 18.7605 18.2533 18.5724 18.4259C18.3843 18.5985 18.1622 18.7299 17.9203 18.8117C17.6785 18.8934 17.4222 18.9238 17.168 18.9008C14.3473 18.5943 11.6377 17.6305 9.25715 16.0867C7.04233 14.6793 5.16455 12.8015 3.75715 10.5867C2.20797 8.19527 1.24388 5.47258 0.942987 2.63917C0.92008 2.38568 0.950206 2.1302 1.03145 1.88899C1.11269 1.64778 1.24326 1.42613 1.41486 1.23816C1.58645 1.05018 1.79531 0.899986 2.02813 0.797148C2.26095 0.694309 2.51263 0.641076 2.76715 0.640836H5.51715C5.96202 0.636458 6.3933 0.793991 6.7306 1.08407C7.06791 1.37416 7.28822 1.777 7.35049 2.2175C7.46656 3.09756 7.68182 3.96167 7.99215 4.79334C8.11549 5.12143 8.14218 5.47801 8.06907 5.82081C7.99596 6.16361 7.82611 6.47827 7.57965 6.7275L6.41549 7.89167C7.72041 10.1866 9.62057 12.0867 11.9155 13.3917L13.0797 12.2275C13.3289 11.981 13.6435 11.8112 13.9863 11.7381C14.3291 11.665 14.6857 11.6917 15.0138 11.815C15.8455 12.1253 16.7096 12.3406 17.5897 12.4567C18.0349 12.5195 18.4416 12.7438 18.7323 13.0869C19.023 13.43 19.1775 13.8679 19.1663 14.3175Z" fill="#D9D9D9"/>
</svg>
