<svg width="43" height="43" viewBox="0 0 43 43" fill="none" xmlns="http://www.w3.org/2000/svg">
<path d="M38.1587 21.2449C38.1587 30.4429 30.5684 37.9306 21.2444 37.9306C11.9204 37.9306 4.33013 30.4429 4.33013 21.2449C4.33013 12.0469 11.9204 4.55919 21.2444 4.55919C30.5684 4.55919 38.1587 12.0469 38.1587 21.2449ZM42.3873 21.2449C42.3873 9.73177 32.9153 0.387764 21.2444 0.387764C9.57356 0.387764 0.101563 9.73177 0.101563 21.2449C0.101563 32.7581 9.57356 42.1021 21.2444 42.1021C32.9153 42.1021 42.3873 32.7581 42.3873 21.2449ZM21.2444 23.3306L29.7016 23.3306L29.7016 19.1592L21.2444 19.1592L21.2444 12.9021L12.7873 21.2449L21.2444 29.5878L21.2444 23.3306Z" fill="#A6A6A6"/>
</svg>
