<svg width="16" height="16" viewBox="0 0 16 16" fill="none" xmlns="http://www.w3.org/2000/svg">
<path fill-rule="evenodd" clip-rule="evenodd" d="M4.43755 7V4.75C4.43755 3.75544 4.86556 2.80161 5.62742 2.09835C6.38929 1.39509 7.4226 1 8.50005 1C9.57749 1 10.6108 1.39509 11.3727 2.09835C12.1345 2.80161 12.5625 3.75544 12.5625 4.75V7H13.375C13.806 7 14.2193 7.15804 14.5241 7.43934C14.8288 7.72064 15 8.10218 15 8.5V14.5C15 14.8978 14.8288 15.2794 14.5241 15.5607C14.2193 15.842 13.806 16 13.375 16H3.62505C3.19407 16 2.78074 15.842 2.476 15.5607C2.17125 15.2794 2.00005 14.8978 2.00005 14.5V8.5C2.00005 8.10218 2.17125 7.72064 2.476 7.43934C2.78074 7.15804 3.19407 7 3.62505 7H4.43755ZM3.62505 8.5V14.5H13.375V8.5H3.62505ZM6.06255 7H10.9375V4.75C10.9375 4.15326 10.6807 3.58097 10.2236 3.15901C9.7665 2.73705 9.14651 2.5 8.50005 2.5C7.85358 2.5 7.23359 2.73705 6.77647 3.15901C6.31935 3.58097 6.06255 4.15326 6.06255 4.75V7ZM10.125 10H11.75V13H10.125V10Z" fill="#6782E1"/>
</svg>
