<svg width="32" height="32" viewBox="0 0 32 32" fill="none" xmlns="http://www.w3.org/2000/svg">
<path d="M16 1.33325C7.8994 1.33325 1.33331 7.89934 1.33331 15.9999C1.33331 24.1005 7.8994 30.6666 16 30.6666C24.1006 30.6666 30.6666 24.1005 30.6666 15.9999C30.6666 7.89934 24.1006 1.33325 16 1.33325ZM16 29.7499C8.41823 29.7499 2.24998 23.5817 2.24998 15.9999C2.24998 8.41817 8.41823 2.24992 16 2.24992C23.5817 2.24992 29.75 8.41817 29.75 15.9999C29.75 23.5817 23.5817 29.7499 16 29.7499Z" fill="#6782E1" stroke="#6782E1" stroke-width="0.4"/>
<path d="M12.8335 10.819C12.8335 9.02811 14.2899 7.5709 16.0806 7.5709C17.8715 7.5709 19.3287 9.02816 19.3287 10.819C19.3287 12.6098 17.8715 14.0661 16.0806 14.0661C14.2898 14.0661 12.8335 12.6098 12.8335 10.819ZM13.4501 10.819C13.4501 12.2695 14.6301 13.4495 16.0806 13.4495C17.5311 13.4495 18.7121 12.2696 18.7121 10.819C18.7121 9.36847 17.5311 8.18757 16.0806 8.18757C14.6301 8.18757 13.4501 9.36854 13.4501 10.819Z" fill="#6782E1" stroke="#6782E1" stroke-width="0.3"/>
<path d="M14.1667 8.66653L16 8.05542H16.6111L18.4444 8.66653V10.4999V11.7221L17.8333 12.9443L16.6111 13.5554H14.7778L13.5555 11.7221V9.88875L14.1667 8.66653Z" fill="#6782E1" stroke="#6782E1" stroke-width="0.2"/>
<path d="M11.7222 17.833L10.4999 19.6664H19.9111H22.1111L21.5611 18.0367L19.9111 17.2219L17.7111 18.8516H16.6111L13.8611 17.2219H12.735L11.7222 17.833Z" fill="#6782E1" stroke="#6782E1"/>
<path d="M19.3294 15.7854L16.0807 18.2347L12.832 15.7854C8.83352 16.9853 8.88394 21.0333 8.88394 21.0333H16.0807H23.2774C23.2774 21.0333 23.3279 16.9853 19.3294 15.7854ZM16.0798 20.1157H9.91702C10.1398 19.1184 10.7879 17.5555 12.6698 16.8112L15.5289 18.9662C15.692 19.0891 15.8864 19.1505 16.0807 19.1505C16.275 19.1505 16.4694 19.0891 16.6325 18.9662L19.4916 16.8102C21.3827 17.5564 22.0271 19.1175 22.2471 20.1157H16.0798Z" fill="#6782E1" stroke="#6782E1" stroke-width="0.2"/>
</svg>
