<svg width="26" height="29" viewBox="0 0 26 29" fill="none" xmlns="http://www.w3.org/2000/svg">
<path fill-rule="evenodd" clip-rule="evenodd" d="M18.4279 14.7661C18.5107 14.8487 18.5764 14.9468 18.6212 15.0548C18.666 15.1629 18.6891 15.2787 18.6891 15.3956C18.6891 15.5126 18.666 15.6284 18.6212 15.7364C18.5764 15.8444 18.5107 15.9426 18.4279 16.0252L13.0929 21.3601C13.0103 21.4429 12.9122 21.5086 12.8042 21.5534C12.6962 21.5983 12.5804 21.6213 12.4634 21.6213C12.3464 21.6213 12.2306 21.5983 12.1226 21.5534C12.0146 21.5086 11.9165 21.4429 11.8339 21.3601L9.1664 18.6926C9.08373 18.61 9.01815 18.5118 8.97341 18.4038C8.92867 18.2958 8.90564 18.18 8.90564 18.0631C8.90564 17.9462 8.92867 17.8304 8.97341 17.7224C9.01815 17.6144 9.08373 17.5163 9.1664 17.4336C9.33336 17.2666 9.55981 17.1728 9.79592 17.1728C9.91284 17.1728 10.0286 17.1959 10.1366 17.2406C10.2446 17.2853 10.3428 17.3509 10.4254 17.4336L12.4634 19.4733L17.1688 14.7661C17.2514 14.6833 17.3496 14.6176 17.4576 14.5728C17.5656 14.528 17.6814 14.5049 17.7984 14.5049C17.9153 14.5049 18.0311 14.528 18.1392 14.5728C18.2472 14.6176 18.3453 14.6833 18.4279 14.7661Z" fill="black"/>
<path d="M13.3527 2.05811C14.5318 2.05811 15.6626 2.5265 16.4963 3.36025C17.3301 4.194 17.7985 5.32481 17.7985 6.50391V7.39307H8.90686V6.50391C8.90686 5.32481 9.37526 4.194 10.209 3.36025C11.0428 2.5265 12.1736 2.05811 13.3527 2.05811V2.05811ZM19.5768 7.39307V6.50391C19.5768 4.85317 18.921 3.27004 17.7538 2.10279C16.5865 0.935539 15.0034 0.279785 13.3527 0.279785C11.7019 0.279785 10.1188 0.935539 8.95154 2.10279C7.78429 3.27004 7.12854 4.85317 7.12854 6.50391V7.39307H0.904419V25.1763C0.904419 26.1195 1.27914 27.0242 1.94613 27.6912C2.61313 28.3582 3.51778 28.7329 4.46106 28.7329H22.2443C23.1875 28.7329 24.0922 28.3582 24.7592 27.6912C25.4262 27.0242 25.8009 26.1195 25.8009 25.1763V7.39307H19.5768ZM2.68274 9.17139H24.0226V25.1763C24.0226 25.6479 23.8352 26.1002 23.5017 26.4337C23.1682 26.7672 22.7159 26.9546 22.2443 26.9546H4.46106C3.98942 26.9546 3.5371 26.7672 3.2036 26.4337C2.8701 26.1002 2.68274 25.6479 2.68274 25.1763V9.17139Z" fill="black"/>
</svg>
