<svg width="37" height="37" viewBox="0 0 37 37" fill="none" xmlns="http://www.w3.org/2000/svg">
<path fill-rule="evenodd" clip-rule="evenodd" d="M30.04 10.8477C30.04 10.052 30.3561 9.28894 30.9187 8.72634C31.4813 8.16373 32.2444 7.84766 33.04 7.84766C33.8357 7.84766 34.5987 8.16373 35.1614 8.72634C35.724 9.28894 36.04 10.052 36.04 10.8477V31.1507L33.04 35.6507L30.04 31.1507V10.8477ZM33.04 9.84766C32.7748 9.84766 32.5205 9.95301 32.3329 10.1405C32.1454 10.3281 32.04 10.5824 32.04 10.8477V30.5447L33.04 32.0447L34.04 30.5447V10.8477C34.04 10.5824 33.9347 10.3281 33.7471 10.1405C33.5596 9.95301 33.3053 9.84766 33.04 9.84766Z" fill="black"/>
<path fill-rule="evenodd" clip-rule="evenodd" d="M35.04 14.8477H31.04V12.8477H35.04V14.8477ZM4.04004 2.84766C3.50961 2.84766 3.0009 3.05837 2.62583 3.43344C2.25075 3.80852 2.04004 4.31722 2.04004 4.84766V32.8477C2.04004 33.3781 2.25075 33.8868 2.62583 34.2619C3.0009 34.6369 3.50961 34.8477 4.04004 34.8477H24.04C24.5705 34.8477 25.0792 34.6369 25.4543 34.2619C25.8293 33.8868 26.04 33.3781 26.04 32.8477V4.84766C26.04 4.31722 25.8293 3.80852 25.4543 3.43344C25.0792 3.05837 24.5705 2.84766 24.04 2.84766H4.04004ZM0.0400391 4.84766C0.0400391 3.78679 0.461466 2.76937 1.21161 2.01923C1.96176 1.26908 2.97917 0.847656 4.04004 0.847656H24.04C25.1009 0.847656 26.1183 1.26908 26.8685 2.01923C27.6186 2.76937 28.04 3.78679 28.04 4.84766V32.8477C28.04 33.9085 27.6186 34.9259 26.8685 35.6761C26.1183 36.4262 25.1009 36.8477 24.04 36.8477H4.04004C2.97917 36.8477 1.96176 36.4262 1.21161 35.6761C0.461466 34.9259 0.0400391 33.9085 0.0400391 32.8477V4.84766Z" fill="black"/>
<path fill-rule="evenodd" clip-rule="evenodd" d="M14.04 9.84766C14.04 9.58244 14.1454 9.32809 14.3329 9.14055C14.5204 8.95301 14.7748 8.84766 15.04 8.84766H23.04C23.3052 8.84766 23.5596 8.95301 23.7471 9.14055C23.9346 9.32809 24.04 9.58244 24.04 9.84766C24.04 10.1129 23.9346 10.3672 23.7471 10.5548C23.5596 10.7423 23.3052 10.8477 23.04 10.8477H15.04C14.7748 10.8477 14.5204 10.7423 14.3329 10.5548C14.1454 10.3672 14.04 10.1129 14.04 9.84766ZM14.04 13.8477C14.04 13.5824 14.1454 13.3281 14.3329 13.1405C14.5204 12.953 14.7748 12.8477 15.04 12.8477H23.04C23.3052 12.8477 23.5596 12.953 23.7471 13.1405C23.9346 13.3281 24.04 13.5824 24.04 13.8477C24.04 14.1129 23.9346 14.3672 23.7471 14.5548C23.5596 14.7423 23.3052 14.8477 23.04 14.8477H15.04C14.7748 14.8477 14.5204 14.7423 14.3329 14.5548C14.1454 14.3672 14.04 14.1129 14.04 13.8477ZM14.04 22.8477C14.04 22.5824 14.1454 22.3281 14.3329 22.1405C14.5204 21.953 14.7748 21.8477 15.04 21.8477H23.04C23.3052 21.8477 23.5596 21.953 23.7471 22.1405C23.9346 22.3281 24.04 22.5824 24.04 22.8477C24.04 23.1129 23.9346 23.3672 23.7471 23.5548C23.5596 23.7423 23.3052 23.8477 23.04 23.8477H15.04C14.7748 23.8477 14.5204 23.7423 14.3329 23.5548C14.1454 23.3672 14.04 23.1129 14.04 22.8477ZM14.04 26.8477C14.04 26.5824 14.1454 26.3281 14.3329 26.1405C14.5204 25.953 14.7748 25.8477 15.04 25.8477H23.04C23.3052 25.8477 23.5596 25.953 23.7471 26.1405C23.9346 26.3281 24.04 26.5824 24.04 26.8477C24.04 27.1129 23.9346 27.3672 23.7471 27.5548C23.5596 27.7423 23.3052 27.8477 23.04 27.8477H15.04C14.7748 27.8477 14.5204 27.7423 14.3329 27.5548C14.1454 27.3672 14.04 27.1129 14.04 26.8477ZM6.04 22.8477V25.8477H9.04V22.8477H6.04ZM5.04 20.8477H10.04C10.3052 20.8477 10.5596 20.953 10.7471 21.1405C10.9346 21.3281 11.04 21.5824 11.04 21.8477V26.8477C11.04 27.1129 10.9346 27.3672 10.7471 27.5548C10.5596 27.7423 10.3052 27.8477 10.04 27.8477H5.04C4.77478 27.8477 4.52043 27.7423 4.33289 27.5548C4.14536 27.3672 4.04 27.1129 4.04 26.8477V21.8477C4.04 21.5824 4.14536 21.3281 4.33289 21.1405C4.52043 20.953 4.77478 20.8477 5.04 20.8477ZM11.747 9.14066C11.9345 9.32818 12.0398 9.58249 12.0398 9.84766C12.0398 10.1128 11.9345 10.3671 11.747 10.5547L7.04 15.2617L4.333 12.5547C4.23749 12.4624 4.16131 12.3521 4.1089 12.2301C4.05649 12.1081 4.0289 11.9768 4.02775 11.8441C4.02659 11.7113 4.0519 11.5796 4.10218 11.4567C4.15246 11.3338 4.22671 11.2222 4.3206 11.1283C4.4145 11.0344 4.52615 10.9601 4.64904 10.9098C4.77194 10.8596 4.90362 10.8343 5.0364 10.8354C5.16918 10.8366 5.3004 10.8641 5.4224 10.9166C5.54441 10.969 5.65475 11.0451 5.747 11.1407L7.04 12.4337L10.333 9.14066C10.5205 8.95319 10.7748 8.84787 11.04 8.84787C11.3052 8.84787 11.5595 8.95319 11.747 9.14066Z" fill="black"/>
</svg>
