<svg width="24" height="24" viewBox="0 0 24 24" fill="none" xmlns="http://www.w3.org/2000/svg">
<g clip-path="url(#clip0_356_8180)">
<path d="M15.985 2.22818L15.9847 2.22816L15.985 2.23366L15.9851 2.23502V2.98239C15.9851 3.58623 15.4597 4.08307 14.807 4.08307H9.19298C8.54034 4.08307 8.01491 3.58623 8.01491 2.98239V1.8817H15.9851V2.22682L15.985 2.22818ZM20.0201 1.82867H16.8365C16.8216 1.40906 16.4536 1.0772 16.01 1.0772H14.0296C14.0146 0.450325 13.4667 -0.05 12.802 -0.05H11.198C10.5333 -0.05 9.98543 0.450325 9.97037 1.0772H7.98997C7.54636 1.0772 7.17843 1.40906 7.1635 1.82867H3.97995C2.86372 1.82867 1.95 2.68029 1.95 3.73386V22.1448C1.95 23.1984 2.86372 24.05 3.97995 24.05H20.0201C21.1363 24.05 22.05 23.1984 22.05 22.1448V3.73386C22.05 2.68029 21.1363 1.82867 20.0201 1.82867ZM14.807 4.88757C15.4641 4.88757 16.0498 4.59292 16.4213 4.13611H19.5941V21.7426H4.40589V4.13611H7.57871C7.95019 4.59292 8.53594 4.88757 9.19298 4.88757H14.807ZM10.823 1.0772C10.8376 0.899551 10.9975 0.754501 11.198 0.754501H12.802C13.0026 0.754501 13.1624 0.899551 13.177 1.0772H10.823ZM21.1981 22.1448C21.1981 22.7487 20.6727 23.2455 20.0201 23.2455H3.97995C3.32731 23.2455 2.80188 22.7487 2.80188 22.1448V3.73386C2.80188 3.13001 3.32731 2.63317 3.97995 2.63317H7.16303V2.98239C7.16303 3.10174 7.17515 3.21841 7.19769 3.3316H4.38095C3.92803 3.3316 3.55401 3.67753 3.55401 4.10959V21.7691C3.55401 22.2011 3.92803 22.5471 4.38095 22.5471H19.619C20.072 22.5471 20.446 22.2011 20.446 21.7691V4.10959C20.446 3.67753 20.072 3.3316 19.619 3.3316H16.8023C16.8249 3.2184 16.837 3.10173 16.837 2.98239V2.63317H20.0201C20.6727 2.63317 21.1981 3.13001 21.1981 3.73386V22.1448Z" fill="black" stroke="black" stroke-width="0.1"/>
<path d="M8.70941 10.5547L9.63924 10.27C9.71251 10.2476 9.78948 10.2398 9.86575 10.2472C9.94202 10.2545 10.0161 10.2768 10.0838 10.3128C10.1514 10.3487 10.2113 10.3977 10.2601 10.4568C10.3088 10.5159 10.3454 10.5841 10.3678 10.6573C10.3902 10.7306 10.398 10.8076 10.3906 10.8838C10.3833 10.9601 10.361 11.0342 10.3251 11.1018C10.2891 11.1695 10.2401 11.2294 10.181 11.2781C10.1219 11.3269 10.0538 11.3635 9.98049 11.3859L7.74924 12.0684C7.67593 12.0908 7.59892 12.0986 7.52262 12.0912C7.44632 12.0838 7.37221 12.0615 7.30455 12.0255C7.23688 11.9894 7.17698 11.9404 7.12827 11.8812C7.07956 11.822 7.04299 11.7538 7.02066 11.6805L6.33816 9.44925C6.31575 9.37598 6.308 9.29901 6.31534 9.22274C6.32267 9.14647 6.34496 9.07239 6.38093 9.00474C6.4169 8.93708 6.46584 8.87718 6.52496 8.82843C6.58408 8.77969 6.65222 8.74307 6.72549 8.72067C6.87347 8.67541 7.03337 8.6908 7.17 8.76344C7.30664 8.83608 7.40882 8.96002 7.45408 9.108L7.71074 9.94858C9.11541 7.785 11.902 6.85458 14.3759 7.86842C15.1158 8.17167 15.7801 8.63337 16.3224 9.22103C16.8646 9.80868 17.2714 10.508 17.5142 11.2698C17.5391 11.3432 17.5492 11.4208 17.5437 11.4981C17.5383 11.5754 17.5175 11.6509 17.4826 11.7201C17.4477 11.7892 17.3993 11.8508 17.3404 11.9011C17.2814 11.9513 17.213 11.9894 17.1392 12.0129C17.0654 12.0365 16.9876 12.0451 16.9104 12.0383C16.8332 12.0315 16.7581 12.0093 16.6896 11.9731C16.6211 11.937 16.5604 11.8875 16.5112 11.8277C16.462 11.7678 16.4252 11.6987 16.403 11.6245C16.1565 10.8506 15.6963 10.1623 15.0753 9.63883C14.4543 9.11542 13.6979 8.77831 12.8935 8.66645C12.089 8.55458 11.2694 8.67251 10.5291 9.00662C9.78889 9.34074 9.15824 9.87741 8.70999 10.5547H8.70941ZM15.9002 15.3351L14.8647 15.5935C14.7898 15.6141 14.7114 15.6194 14.6344 15.6093C14.5573 15.5991 14.483 15.5737 14.4159 15.5344C14.3488 15.4952 14.2902 15.4429 14.2436 15.3807C14.197 15.3185 14.1633 15.2476 14.1445 15.1721C14.1257 15.0967 14.1221 15.0183 14.134 14.9415C14.146 14.8646 14.1731 14.791 14.2139 14.7248C14.2547 14.6586 14.3083 14.6013 14.3716 14.5561C14.4349 14.511 14.5066 14.4789 14.5824 14.4618L16.7075 13.9316C16.8182 13.8789 16.9428 13.8626 17.0633 13.8849C17.1795 13.9002 17.2884 13.9501 17.3758 14.0281C17.4632 14.1062 17.525 14.2087 17.5533 14.3224L18.118 16.5858C18.1514 16.7344 18.1254 16.8902 18.0454 17.0199C17.9655 17.1496 17.8379 17.2429 17.6901 17.2798C17.5423 17.3167 17.3859 17.2943 17.2543 17.2173C17.1228 17.1404 17.0266 17.015 16.9863 16.8681L16.7938 16.0969C16.2322 16.9052 15.4629 17.547 14.5671 17.9547C13.6713 18.3625 12.6821 18.5211 11.7038 18.4138C10.7254 18.3066 9.79404 17.9375 9.00785 17.3453C8.22165 16.7532 7.60971 15.96 7.23649 15.0493L7.08482 14.6794C7.05579 14.6085 7.04101 14.5326 7.04132 14.456C7.04162 14.3794 7.05702 14.3036 7.08662 14.2329C7.11622 14.1623 7.15945 14.0981 7.21384 14.0442C7.26823 13.9902 7.33272 13.9475 7.40362 13.9185C7.5468 13.8598 7.70741 13.8605 7.85012 13.9203C7.92078 13.9499 7.98492 13.9931 8.03887 14.0475C8.09283 14.1019 8.13554 14.1664 8.16457 14.2373L8.31624 14.6065C8.6136 15.3321 9.10345 15.9626 9.73293 16.4302C10.3624 16.8978 11.1076 17.1845 11.8882 17.2596C12.6687 17.3346 13.4549 17.1951 14.1619 16.856C14.869 16.517 15.47 15.9913 15.9002 15.3357V15.3351Z" fill="#101010"/>
</g>
<defs>
<clipPath id="clip0_356_8180">
<rect width="24" height="24" fill="white"/>
</clipPath>
</defs>
</svg>
