<svg width="24" height="24" viewBox="0 0 24 24" fill="none" xmlns="http://www.w3.org/2000/svg">
<g clip-path="url(#clip0_488_379)">
<path d="M15.985 2.22818L15.9846 2.22816L15.985 2.23366L15.985 2.23502V2.98239C15.985 3.58623 15.4596 4.08307 14.807 4.08307H9.19292C8.54028 4.08307 8.01485 3.58623 8.01485 2.98239V1.8817H15.985V2.22682L15.985 2.22818ZM20.02 1.82867H16.8364C16.8215 1.40906 16.4536 1.0772 16.01 1.0772H14.0296C14.0145 0.450325 13.4666 -0.05 12.8019 -0.05H11.1979C10.5333 -0.05 9.98537 0.450325 9.97031 1.0772H7.98991C7.5463 1.0772 7.17837 1.40906 7.16344 1.82867H3.97989C2.86366 1.82867 1.94994 2.68029 1.94994 3.73386V22.1448C1.94994 23.1984 2.86366 24.05 3.97989 24.05H20.02C21.1362 24.05 22.0499 23.1984 22.0499 22.1448V3.73386C22.0499 2.68029 21.1362 1.82867 20.02 1.82867ZM14.807 4.88757C15.464 4.88757 16.0497 4.59292 16.4212 4.13611H19.594V21.7426H4.40583V4.13611H7.57865C7.95013 4.59292 8.53588 4.88757 9.19292 4.88757H14.807ZM10.823 1.0772C10.8375 0.899551 10.9974 0.754501 11.1979 0.754501H12.8019C13.0025 0.754501 13.1623 0.899551 13.1769 1.0772H10.823ZM21.1981 22.1448C21.1981 22.7487 20.6726 23.2455 20.02 23.2455H3.97989C3.32724 23.2455 2.80182 22.7487 2.80182 22.1448V3.73386C2.80182 3.13001 3.32724 2.63317 3.97989 2.63317H7.16297V2.98239C7.16297 3.10174 7.17509 3.21841 7.19763 3.3316H4.38089C3.92797 3.3316 3.55395 3.67753 3.55395 4.10959V21.7691C3.55395 22.2011 3.92797 22.5471 4.38089 22.5471H19.619C20.0719 22.5471 20.4459 22.2011 20.4459 21.7691V4.10959C20.4459 3.67753 20.0719 3.3316 19.619 3.3316H16.8023C16.8248 3.2184 16.8369 3.10173 16.8369 2.98239V2.63317H20.02C20.6726 2.63317 21.1981 3.13001 21.1981 3.73386V22.1448Z" fill="black" stroke="black" stroke-width="0.1"/>
<g clip-path="url(#clip1_488_379)">
<rect width="14" height="14" transform="translate(4.99994 7)" fill="white"/>
<path d="M7.06222 11.5046L7.12023 11.3547C7.51342 10.3384 8.20586 9.46553 9.10595 8.85141C10.0059 8.2374 11.071 7.91101 12.1604 7.91541M7.06222 11.5046L12.1603 8.07695M7.06222 11.5046L7.21187 11.5633L7.60285 11.7168L7.75288 11.7757L7.81211 11.6258C8.17701 10.7022 8.82664 9.91886 9.66676 9.3894C10.5069 8.85994 11.4938 8.61186 12.4845 8.68115C13.4751 8.75043 14.4179 9.13348 15.1761 9.77474C15.889 10.3776 16.4039 11.1793 16.6564 12.0754M7.06222 11.5046L16.6564 12.0754M12.1604 7.91541C12.1606 7.91541 12.1608 7.91541 12.161 7.91541L12.1603 8.07695M12.1604 7.91541C12.1602 7.91541 12.16 7.91541 12.1598 7.91541L12.1603 8.07695M12.1604 7.91541C13.3858 7.91182 14.5759 8.32577 15.5345 9.08907C16.4543 9.82146 17.1084 10.8335 17.3993 11.97M12.1603 8.07695C13.3492 8.07334 14.5038 8.4749 15.4339 9.21544C16.3639 9.95598 17.014 10.9913 17.2768 12.1508M17.3993 11.97L17.2538 11.9909L17.2768 12.1508M17.3993 11.97L18.2208 11.8521L18.557 11.8039L18.3822 12.0951L17.3859 13.7558L17.2794 13.9332L17.1331 13.7869L15.8046 12.4584L15.5762 12.23L15.8959 12.1843L16.6564 12.0754M17.3993 11.97C17.4116 12.0181 17.4233 12.0665 17.4343 12.1151L17.2768 12.1508M17.2768 12.1508L16.6564 12.0754M12.161 18.0054L12.1603 18.1669L12.1598 18.0054C11.1093 18.0085 10.0886 17.6558 9.26411 17.0047C8.48597 16.3902 7.92587 15.5441 7.66318 14.5912L8.4247 14.4821L8.74439 14.4364L8.51603 14.208L7.18751 12.8795L7.04122 12.7332L6.93477 12.9106L5.93839 14.5712L5.76364 14.8625L6.09985 14.8142L6.92221 14.6963C7.20204 15.7629 7.80121 16.7201 8.64109 17.4384C9.51859 18.1888 10.6129 18.6392 11.7644 18.7239C12.9159 18.8085 14.0644 18.523 15.0422 17.909C16.02 17.295 16.776 16.3846 17.2 15.3106L17.2594 15.1601L17.1088 15.101L16.7178 14.9475L16.5667 14.8882L16.5081 15.0396C16.1691 15.916 15.5719 16.6688 14.7957 17.1984C14.0195 17.728 13.1007 18.0094 12.161 18.0054Z" fill="black" stroke="black" stroke-width="0.323077"/>
</g>
</g>
<defs>
<clipPath id="clip0_488_379">
<rect width="24" height="24" fill="white"/>
</clipPath>
<clipPath id="clip1_488_379">
<rect width="14" height="14" fill="white" transform="translate(4.99994 7)"/>
</clipPath>
</defs>
</svg>
