<svg width="35" height="36" viewBox="0 0 35 36" fill="none" xmlns="http://www.w3.org/2000/svg">
<path fill-rule="evenodd" clip-rule="evenodd" d="M25.7657 12.2419C25.7657 11.6738 25.9914 11.129 26.3931 10.7272C26.7949 10.3255 27.3397 10.0999 27.9078 10.0999C28.4759 10.0999 29.0207 10.3255 29.4225 10.7272C29.8242 11.129 30.0499 11.6738 30.0499 12.2419V26.7386L27.9078 29.9517L25.7657 26.7386V12.2419ZM27.9078 11.5279C27.7184 11.5279 27.5368 11.6031 27.4029 11.737C27.269 11.8709 27.1938 12.0525 27.1938 12.2419V26.3059L27.9078 27.3769L28.6218 26.3059V12.2419C28.6218 12.0525 28.5466 11.8709 28.4127 11.737C28.2788 11.6031 28.0972 11.5279 27.9078 11.5279Z" fill="black"/>
<path fill-rule="evenodd" clip-rule="evenodd" d="M29.3359 15.098H26.4798V13.67H29.3359V15.098ZM7.20134 6.52978C6.82261 6.52978 6.45938 6.68023 6.19157 6.94804C5.92376 7.21585 5.77331 7.57908 5.77331 7.95781V27.9503C5.77331 28.329 5.92376 28.6923 6.19157 28.9601C6.45938 29.2279 6.82261 29.3783 7.20134 29.3783H21.4817C21.8604 29.3783 22.2237 29.2279 22.4915 28.9601C22.7593 28.6923 22.9097 28.329 22.9097 27.9503V7.95781C22.9097 7.57908 22.7593 7.21585 22.4915 6.94804C22.2237 6.68023 21.8604 6.52978 21.4817 6.52978H7.20134ZM4.34528 7.95781C4.34528 7.20034 4.64618 6.47389 5.1818 5.93827C5.71742 5.40265 6.44387 5.10175 7.20134 5.10175H21.4817C22.2392 5.10175 22.9656 5.40265 23.5012 5.93827C24.0369 6.47389 24.3378 7.20034 24.3378 7.95781V27.9503C24.3378 28.7078 24.0369 29.4342 23.5012 29.9698C22.9656 30.5055 22.2392 30.8064 21.4817 30.8064H7.20134C6.44387 30.8064 5.71742 30.5055 5.1818 29.9698C4.64618 29.4342 4.34528 28.7078 4.34528 27.9503V7.95781Z" fill="black"/>
<path fill-rule="evenodd" clip-rule="evenodd" d="M14.3415 11.5279C14.3415 11.3385 14.4167 11.1569 14.5506 11.023C14.6845 10.8891 14.8662 10.8138 15.0555 10.8138H20.7677C20.957 10.8138 21.1387 10.8891 21.2726 11.023C21.4065 11.1569 21.4817 11.3385 21.4817 11.5279C21.4817 11.7172 21.4065 11.8988 21.2726 12.0327C21.1387 12.1667 20.957 12.2419 20.7677 12.2419H15.0555C14.8662 12.2419 14.6845 12.1667 14.5506 12.0327C14.4167 11.8988 14.3415 11.7172 14.3415 11.5279ZM14.3415 14.3839C14.3415 14.1946 14.4167 14.0129 14.5506 13.879C14.6845 13.7451 14.8662 13.6699 15.0555 13.6699H20.7677C20.957 13.6699 21.1387 13.7451 21.2726 13.879C21.4065 14.0129 21.4817 14.1946 21.4817 14.3839C21.4817 14.5733 21.4065 14.7549 21.2726 14.8888C21.1387 15.0227 20.957 15.0979 20.7677 15.0979H15.0555C14.8662 15.0979 14.6845 15.0227 14.5506 14.8888C14.4167 14.7549 14.3415 14.5733 14.3415 14.3839ZM14.3415 20.8101C14.3415 20.6207 14.4167 20.4391 14.5506 20.3052C14.6845 20.1713 14.8662 20.0961 15.0555 20.0961H20.7677C20.957 20.0961 21.1387 20.1713 21.2726 20.3052C21.4065 20.4391 21.4817 20.6207 21.4817 20.8101C21.4817 20.9995 21.4065 21.1811 21.2726 21.315C21.1387 21.4489 20.957 21.5241 20.7677 21.5241H15.0555C14.8662 21.5241 14.6845 21.4489 14.5506 21.315C14.4167 21.1811 14.3415 20.9995 14.3415 20.8101ZM14.3415 23.6662C14.3415 23.4768 14.4167 23.2952 14.5506 23.1613C14.6845 23.0274 14.8662 22.9521 15.0555 22.9521H20.7677C20.957 22.9521 21.1387 23.0274 21.2726 23.1613C21.4065 23.2952 21.4817 23.4768 21.4817 23.6662C21.4817 23.8555 21.4065 24.0371 21.2726 24.171C21.1387 24.3049 20.957 24.3802 20.7677 24.3802H15.0555C14.8662 24.3802 14.6845 24.3049 14.5506 24.171C14.4167 24.0371 14.3415 23.8555 14.3415 23.6662ZM8.62937 20.8101V22.9521H10.7714V20.8101H8.62937ZM7.91536 19.382H11.4854C11.6748 19.382 11.8564 19.4573 11.9903 19.5912C12.1242 19.7251 12.1995 19.9067 12.1995 20.0961V23.6662C12.1995 23.8555 12.1242 24.0371 11.9903 24.171C11.8564 24.3049 11.6748 24.3802 11.4854 24.3802H7.91536C7.72599 24.3802 7.54438 24.3049 7.41047 24.171C7.27657 24.0371 7.20134 23.8555 7.20134 23.6662V20.0961C7.20134 19.9067 7.27657 19.7251 7.41047 19.5912C7.54438 19.4573 7.72599 19.382 7.91536 19.382V19.382ZM12.7043 11.023C12.8381 11.1569 12.9133 11.3385 12.9133 11.5279C12.9133 11.7172 12.8381 11.8988 12.7043 12.0327L9.34339 15.3935L7.41055 13.4607C7.34235 13.3948 7.28796 13.3161 7.25053 13.2289C7.21311 13.1418 7.19342 13.0481 7.19259 12.9533C7.19177 12.8585 7.20984 12.7645 7.24574 12.6767C7.28164 12.589 7.33466 12.5093 7.4017 12.4422C7.46874 12.3752 7.54846 12.3222 7.63621 12.2863C7.72396 12.2504 7.81798 12.2323 7.91279 12.2331C8.00759 12.234 8.10129 12.2537 8.1884 12.2911C8.27551 12.3285 8.3543 12.3829 8.42017 12.4511L9.34339 13.3743L11.6947 11.023C11.8285 10.8892 12.0101 10.814 12.1995 10.814C12.3888 10.814 12.5704 10.8892 12.7043 11.023V11.023Z" fill="black"/>
</svg>
