<svg width="71" height="60" viewBox="0 0 71 60" fill="none" xmlns="http://www.w3.org/2000/svg">
<g clip-path="url(#clip0_412_378)">
<path d="M38.985 2.22818L38.9846 2.22816L38.985 2.23366L38.985 2.23502V2.98239C38.985 3.58623 38.4596 4.08307 37.807 4.08307H32.1929C31.5403 4.08307 31.0149 3.58623 31.0149 2.98239V1.8817H38.985V2.22682L38.985 2.22818ZM43.02 1.82867H39.8364C39.8215 1.40906 39.4536 1.0772 39.01 1.0772H37.0296C37.0145 0.450325 36.4666 -0.05 35.8019 -0.05H34.1979C33.5333 -0.05 32.9854 0.450325 32.9703 1.0772H30.9899C30.5463 1.0772 30.1784 1.40906 30.1634 1.82867H26.9799C25.8637 1.82867 24.9499 2.68029 24.9499 3.73386V22.1448C24.9499 23.1984 25.8637 24.05 26.9799 24.05H43.02C44.1362 24.05 45.0499 23.1984 45.0499 22.1448V3.73386C45.0499 2.68029 44.1362 1.82867 43.02 1.82867ZM37.807 4.88757C38.464 4.88757 39.0497 4.59292 39.4212 4.13611H42.594V21.7426H27.4058V4.13611H30.5787C30.9501 4.59292 31.5359 4.88757 32.1929 4.88757H37.807ZM33.823 1.0772C33.8375 0.899551 33.9974 0.754501 34.1979 0.754501H35.8019C36.0025 0.754501 36.1623 0.899551 36.1769 1.0772H33.823ZM44.1981 22.1448C44.1981 22.7487 43.6726 23.2455 43.02 23.2455H26.9799C26.3272 23.2455 25.8018 22.7487 25.8018 22.1448V3.73386C25.8018 3.13001 26.3272 2.63317 26.9799 2.63317H30.163V2.98239C30.163 3.10174 30.1751 3.21841 30.1976 3.3316H27.3809C26.928 3.3316 26.5539 3.67753 26.5539 4.10959V21.7691C26.5539 22.2011 26.928 22.5471 27.3809 22.5471H42.619C43.0719 22.5471 43.4459 22.2011 43.4459 21.7691V4.10959C43.4459 3.67753 43.0719 3.3316 42.619 3.3316H39.8023C39.8248 3.2184 39.8369 3.10173 39.8369 2.98239V2.63317H43.02C43.6726 2.63317 44.1981 3.13001 44.1981 3.73386V22.1448Z" fill="black" stroke="black" stroke-width="0.1"/>
<g clip-path="url(#clip1_412_378)">
<rect width="14" height="14" transform="translate(27.9999 7)" fill="white"/>
<path d="M30.0622 11.5046L30.1202 11.3547C30.5134 10.3384 31.2059 9.46553 32.1059 8.85141C33.0059 8.2374 34.071 7.91101 35.1604 7.91541M30.0622 11.5046L35.1603 8.07695M30.0622 11.5046L30.2119 11.5633L30.6029 11.7168L30.7529 11.7757L30.8121 11.6258C31.177 10.7022 31.8266 9.91886 32.6668 9.3894C33.5069 8.85994 34.4938 8.61186 35.4845 8.68115C36.4751 8.75043 37.4179 9.13348 38.1761 9.77474C38.889 10.3776 39.4039 11.1793 39.6564 12.0754M30.0622 11.5046L39.6564 12.0754M35.1604 7.91541C35.1606 7.91541 35.1608 7.91541 35.161 7.91541L35.1603 8.07695M35.1604 7.91541C35.1602 7.91541 35.16 7.91541 35.1598 7.91541L35.1603 8.07695M35.1604 7.91541C36.3858 7.91182 37.5759 8.32577 38.5345 9.08907C39.4543 9.82146 40.1084 10.8335 40.3993 11.97M35.1603 8.07695C36.3492 8.07334 37.5038 8.4749 38.4339 9.21544C39.3639 9.95598 40.014 10.9913 40.2768 12.1508M40.3993 11.97L40.2538 11.9909L40.2768 12.1508M40.3993 11.97L41.2208 11.8521L41.557 11.8039L41.3822 12.0951L40.3859 13.7558L40.2794 13.9332L40.1331 13.7869L38.8046 12.4584L38.5762 12.23L38.8959 12.1843L39.6564 12.0754M40.3993 11.97C40.4116 12.0181 40.4233 12.0665 40.4343 12.1151L40.2768 12.1508M40.2768 12.1508L39.6564 12.0754M35.161 18.0054L35.1603 18.1669L35.1598 18.0054C34.1093 18.0085 33.0886 17.6558 32.2641 17.0047C31.486 16.3902 30.9259 15.5441 30.6632 14.5912L31.4247 14.4821L31.7444 14.4364L31.516 14.208L30.1875 12.8795L30.0412 12.7332L29.9348 12.9106L28.9384 14.5712L28.7636 14.8625L29.0998 14.8142L29.9222 14.6963C30.202 15.7629 30.8012 16.7201 31.6411 17.4384C32.5186 18.1888 33.6129 18.6392 34.7644 18.7239C35.9159 18.8085 37.0644 18.523 38.0422 17.909C39.02 17.295 39.776 16.3846 40.2 15.3106L40.2594 15.1601L40.1088 15.101L39.7178 14.9475L39.5667 14.8882L39.5081 15.0396C39.1691 15.916 38.5719 16.6688 37.7957 17.1984C37.0195 17.728 36.1007 18.0094 35.161 18.0054Z" fill="black" stroke="black" stroke-width="0.323077"/>
</g>
</g>
<defs>
<clipPath id="clip0_412_378">
<rect width="24" height="24" fill="white" transform="translate(22.9999)"/>
</clipPath>
<clipPath id="clip1_412_378">
<rect width="14" height="14" fill="white" transform="translate(27.9999 7)"/>
</clipPath>
</defs>
</svg>
