<svg width="32" height="32" viewBox="0 0 32 32" fill="none" xmlns="http://www.w3.org/2000/svg">
<path d="M23 13L9.5 13.5L8 20L23 19.5V13Z" fill="white" stroke="black"/>
<path d="M16 4C19.1826 4 22.2348 5.26428 24.4853 7.51472C26.7357 9.76515 28 12.8174 28 16C28 19.1826 26.7357 22.2348 24.4853 24.4853C22.2348 26.7357 19.1826 28 16 28C12.8174 28 9.76515 26.7357 7.51472 24.4853C5.26428 22.2348 4 19.1826 4 16C4 12.8174 5.26428 9.76515 7.51472 7.51472C9.76515 5.26428 12.8174 4 16 4ZM10 16C10 16.2728 10.1084 16.5344 10.3013 16.7273C10.4942 16.9202 10.7558 17.0286 11.0286 17.0286H20.9714C21.2442 17.0286 21.5058 16.9202 21.6987 16.7273C21.8916 16.5344 22 16.2728 22 16C22 15.7272 21.8916 15.4656 21.6987 15.2727C21.5058 15.0798 21.2442 14.9714 20.9714 14.9714H11.0286C10.8935 14.9714 10.7597 14.998 10.635 15.0497C10.5102 15.1014 10.3968 15.1772 10.3013 15.2727C10.2057 15.3682 10.13 15.4816 10.0783 15.6064C10.0266 15.7312 10 15.8649 10 16Z" fill="#EE3E3E"/>
</svg>
