<svg width="36" height="36" viewBox="0 0 36 36" fill="none" xmlns="http://www.w3.org/2000/svg">
<g clip-path="url(#clip0_629_4018)">
<g filter="url(#filter0_ii_629_4018)">
<path d="M0.847168 14.8236C0.847168 13.4202 1.98489 12.2825 3.38834 12.2825H23.7178C25.1212 12.2825 26.2589 13.4202 26.2589 14.8236V31.7648C26.2589 33.1683 25.1212 34.306 23.7178 34.306H3.38835C1.98489 34.306 0.847168 33.1683 0.847168 31.7648V14.8236Z" fill="#8A7DD8"/>
</g>
<path d="M0.847168 14.8236C0.847168 13.4202 1.98489 12.2825 3.38834 12.2825H23.7178C25.1212 12.2825 26.2589 13.4202 26.2589 14.8236V31.7648C26.2589 33.1683 25.1212 34.306 23.7178 34.306H3.38835C1.98489 34.306 0.847168 33.1683 0.847168 31.7648V14.8236Z" stroke="#1F2024" stroke-width="0.847059"/>
<g filter="url(#filter1_i_629_4018)">
<path d="M11.4351 14.8236C11.4351 13.4202 12.5728 12.2825 13.9762 12.2825H32.6115C34.015 12.2825 35.1527 13.4202 35.1527 14.8236V31.7648C35.1527 33.1683 34.015 34.306 32.6115 34.306H13.9762C12.5728 34.306 11.4351 33.1683 11.4351 31.7648V14.8236Z" fill="#AEA5EE"/>
</g>
<path d="M11.4351 14.8236C11.4351 13.4202 12.5728 12.2825 13.9762 12.2825H32.6115C34.015 12.2825 35.1527 13.4202 35.1527 14.8236V31.7648C35.1527 33.1683 34.015 34.306 32.6115 34.306H13.9762C12.5728 34.306 11.4351 33.1683 11.4351 31.7648V14.8236Z" stroke="#1F2024" stroke-width="0.847059"/>
<path d="M24.988 12.7058H29.0115L23.0821 33.8823H19.0586L24.988 12.7058Z" fill="white" fill-opacity="0.5"/>
<path d="M23.4001 12.7058H24.0354L18.106 33.8823H17.4707L23.4001 12.7058Z" fill="white" fill-opacity="0.5"/>
<rect x="20.2236" y="29.5413" width="6.35294" height="1.69412" rx="0.847059" fill="#1F2024"/>
<path d="M0.847168 22.7648C0.847168 22.297 1.22641 21.9177 1.69423 21.9177H8.04717C8.51499 21.9177 8.89423 22.297 8.89423 22.7648V27.0001C8.89423 27.4679 8.51499 27.8471 8.04717 27.8471H1.69423C1.22641 27.8471 0.847168 27.4679 0.847168 27.0001V22.7648Z" fill="#1F2024" fill-opacity="0.16"/>
<g filter="url(#filter2_ii_629_4018)">
<path d="M0.42334 21.494C0.42334 21.0262 0.802581 20.647 1.2704 20.647H8.15275C8.62057 20.647 8.99981 21.0262 8.99981 21.494V25.7293C8.99981 26.1971 8.62057 26.5764 8.15275 26.5764H1.2704C0.802581 26.5764 0.42334 26.1971 0.42334 25.7293V21.494Z" fill="#8A7DD8"/>
</g>
<path d="M0.42334 21.494C0.42334 21.0262 0.802581 20.647 1.2704 20.647H8.15275C8.62057 20.647 8.99981 21.0262 8.99981 21.494V25.7293C8.99981 26.1971 8.62057 26.5764 8.15275 26.5764H1.2704C0.802581 26.5764 0.42334 26.1971 0.42334 25.7293V21.494Z" stroke="#1F2024" stroke-width="0.847059"/>
<g filter="url(#filter3_i_629_4018)">
<path d="M6.45898 21.494C6.45898 21.0262 6.83823 20.647 7.30604 20.647H8.1531C8.62092 20.647 9.00016 21.0262 9.00016 21.494V25.7293C9.00016 26.1971 8.62092 26.5764 8.1531 26.5764H7.30604C6.83823 26.5764 6.45898 26.1971 6.45898 25.7293V21.494Z" fill="#AEA5EE"/>
</g>
<path d="M6.45898 21.494C6.45898 21.0262 6.83823 20.647 7.30604 20.647H8.1531C8.62092 20.647 9.00016 21.0262 9.00016 21.494V25.7293C9.00016 26.1971 8.62092 26.5764 8.1531 26.5764H7.30604C6.83823 26.5764 6.45898 26.1971 6.45898 25.7293V21.494Z" stroke="#1F2024" stroke-width="0.847059"/>
<rect x="2.22363" y="22.6589" width="0.847059" height="2.11765" rx="0.423529" fill="#1F2024"/>
<rect x="3.49414" y="22.6589" width="0.847059" height="2.11765" rx="0.423529" fill="#1F2024"/>
<g filter="url(#filter4_i_629_4018)">
<circle cx="13.0235" cy="8.04716" r="0.635294" fill="white"/>
</g>
<g filter="url(#filter5_i_629_4018)">
<path fill-rule="evenodd" clip-rule="evenodd" d="M6.98829 7.4117C6.98829 4.60479 9.26374 2.32935 12.0706 2.32935C14.8066 2.32935 17.0377 4.49123 17.1487 7.19993H19.0632C19.1742 4.49124 21.4053 2.32935 24.1412 2.32935C26.9481 2.32935 29.2236 4.60479 29.2236 7.4117V8.49406C30.2634 9.42467 30.9177 10.7771 30.9177 12.2823H4.23535C4.23535 10.315 5.35316 8.6087 6.98829 7.764V7.4117Z" fill="#75D1C1"/>
</g>
<path d="M17.1487 7.19993L16.7255 7.21728L16.7421 7.62346H17.1487V7.19993ZM19.0632 7.19993V7.62346H19.4697L19.4864 7.21728L19.0632 7.19993ZM29.2236 8.49406H28.8001V8.68338L28.9411 8.80965L29.2236 8.49406ZM30.9177 12.2823V12.7058H31.3412V12.2823H30.9177ZM4.23535 12.2823H3.81182V12.7058H4.23535V12.2823ZM6.98829 7.764L7.18268 8.14028L7.41182 8.02191V7.764H6.98829ZM12.0706 1.90582C9.02983 1.90582 6.56476 4.37089 6.56476 7.4117H7.41182C7.41182 4.8387 9.49765 2.75288 12.0706 2.75288V1.90582ZM17.5718 7.18259C17.4516 4.24786 15.0347 1.90582 12.0706 1.90582V2.75288C14.5785 2.75288 16.6237 4.73461 16.7255 7.21728L17.5718 7.18259ZM19.0632 6.7764H17.1487V7.62346H19.0632V6.7764ZM19.4864 7.21728C19.5881 4.73461 21.6334 2.75288 24.1412 2.75288V1.90582C21.1772 1.90582 18.7603 4.24786 18.64 7.18259L19.4864 7.21728ZM24.1412 2.75288C26.7142 2.75288 28.8001 4.8387 28.8001 7.4117H29.6471C29.6471 4.37088 27.1821 1.90582 24.1412 1.90582V2.75288ZM28.8001 7.4117V8.49406H29.6471V7.4117H28.8001ZM31.3412 12.2823C31.3412 10.6516 30.6318 9.18603 29.506 8.17847L28.9411 8.80965C29.8949 9.66331 30.4942 10.9025 30.4942 12.2823H31.3412ZM4.23535 12.7058H30.9177V11.8588H4.23535V12.7058ZM6.79391 7.38771C5.02356 8.30226 3.81182 10.1504 3.81182 12.2823H4.65888C4.65888 10.4795 5.68275 8.91514 7.18268 8.14028L6.79391 7.38771ZM6.56476 7.4117V7.764H7.41182V7.4117H6.56476Z" fill="#1F2024"/>
<g filter="url(#filter6_i_629_4018)">
<circle cx="12.494" cy="7.0941" r="2.96471" fill="white"/>
</g>
<circle cx="12.494" cy="7.0941" r="2.96471" stroke="#1F2024" stroke-width="0.847059"/>
<g filter="url(#filter7_i_629_4018)">
<circle cx="12.6002" cy="5.92952" r="1.27059" fill="#1F2024"/>
</g>
<circle cx="12.6002" cy="5.92952" r="1.27059" stroke="#1F2024" stroke-width="0.847059"/>
<g filter="url(#filter8_i_629_4018)">
<circle cx="24.5648" cy="7.0941" r="2.96471" fill="white"/>
</g>
<circle cx="24.5648" cy="7.0941" r="2.96471" stroke="#1F2024" stroke-width="0.847059"/>
<g filter="url(#filter9_i_629_4018)">
<circle cx="24.6705" cy="5.92952" r="1.27059" fill="#1F2024"/>
</g>
<circle cx="24.6705" cy="5.92952" r="1.27059" stroke="#1F2024" stroke-width="0.847059"/>
<path d="M19.9059 9.95288L17.3647 9.95288" stroke="#1F2024" stroke-width="1.05882" stroke-linecap="round"/>
<g filter="url(#filter10_d_629_4018)">
<path d="M22.7354 21.8488C22.7354 24.6299 20.4483 26.8942 17.6149 26.8942C14.7814 26.8942 12.4943 24.6299 12.4943 21.8488C12.4943 19.0677 14.7814 16.8034 17.6149 16.8034C20.4483 16.8034 22.7354 19.0677 22.7354 21.8488Z" fill="#1F2024" stroke="#1F2024" stroke-width="0.847059"/>
<g filter="url(#filter11_i_629_4018)">
<ellipse cx="17.8942" cy="21.7589" rx="5.29412" ry="5.45294" fill="white"/>
</g>
<path d="M22.7648 21.7588C22.7648 24.5484 20.5725 26.7883 17.8942 26.7883C15.216 26.7883 13.0236 24.5484 13.0236 21.7588C13.0236 18.9693 15.216 16.7294 17.8942 16.7294C20.5725 16.7294 22.7648 18.9693 22.7648 21.7588Z" stroke="#1F2024" stroke-width="0.847059"/>
<circle cx="17.8942" cy="19.1647" r="2.11765" fill="#1F2024" stroke="#1F2024" stroke-width="0.847059"/>
<path d="M34.6997 21.8488C34.6997 24.6299 32.4127 26.8942 29.5792 26.8942C26.7458 26.8942 24.4587 24.6299 24.4587 21.8488C24.4587 19.0677 26.7458 16.8034 29.5792 16.8034C32.4127 16.8034 34.6997 19.0677 34.6997 21.8488Z" fill="#1F2024" stroke="#1F2024" stroke-width="0.847059"/>
<g filter="url(#filter12_i_629_4018)">
<ellipse cx="29.8591" cy="21.7589" rx="5.29412" ry="5.45294" fill="white"/>
</g>
<path d="M34.7296 21.7588C34.7296 24.5484 32.5373 26.7883 29.8591 26.7883C27.1808 26.7883 24.9885 24.5484 24.9885 21.7588C24.9885 18.9693 27.1808 16.7294 29.8591 16.7294C32.5373 16.7294 34.7296 18.9693 34.7296 21.7588Z" stroke="#1F2024" stroke-width="0.847059"/>
<circle cx="29.859" cy="19.1647" r="2.11765" fill="#1F2024" stroke="#1F2024" stroke-width="0.847059"/>
</g>
</g>
<defs>
<filter id="filter0_ii_629_4018" x="0.423828" y="11.8589" width="26.2588" height="22.8706" filterUnits="userSpaceOnUse" color-interpolation-filters="sRGB">
<feFlood flood-opacity="0" result="BackgroundImageFix"/>
<feBlend mode="normal" in="SourceGraphic" in2="BackgroundImageFix" result="shape"/>
<feColorMatrix in="SourceAlpha" type="matrix" values="0 0 0 0 0 0 0 0 0 0 0 0 0 0 0 0 0 0 127 0" result="hardAlpha"/>
<feOffset dy="-16"/>
<feComposite in2="hardAlpha" operator="arithmetic" k2="-1" k3="1"/>
<feColorMatrix type="matrix" values="0 0 0 0 0 0 0 0 0 0 0 0 0 0 0 0 0 0 0.25 0"/>
<feBlend mode="normal" in2="shape" result="effect1_innerShadow_629_4018"/>
<feColorMatrix in="SourceAlpha" type="matrix" values="0 0 0 0 0 0 0 0 0 0 0 0 0 0 0 0 0 0 127 0" result="hardAlpha"/>
<feOffset dy="16"/>
<feComposite in2="hardAlpha" operator="arithmetic" k2="-1" k3="1"/>
<feColorMatrix type="matrix" values="0 0 0 0 1 0 0 0 0 1 0 0 0 0 1 0 0 0 0.25 0"/>
<feBlend mode="normal" in2="effect1_innerShadow_629_4018" result="effect2_innerShadow_629_4018"/>
</filter>
<filter id="filter1_i_629_4018" x="11.0117" y="11.8589" width="24.5645" height="22.8706" filterUnits="userSpaceOnUse" color-interpolation-filters="sRGB">
<feFlood flood-opacity="0" result="BackgroundImageFix"/>
<feBlend mode="normal" in="SourceGraphic" in2="BackgroundImageFix" result="shape"/>
<feColorMatrix in="SourceAlpha" type="matrix" values="0 0 0 0 0 0 0 0 0 0 0 0 0 0 0 0 0 0 127 0" result="hardAlpha"/>
<feOffset dx="-24" dy="8"/>
<feComposite in2="hardAlpha" operator="arithmetic" k2="-1" k3="1"/>
<feColorMatrix type="matrix" values="0 0 0 0 1 0 0 0 0 1 0 0 0 0 1 0 0 0 0.25 0"/>
<feBlend mode="normal" in2="shape" result="effect1_innerShadow_629_4018"/>
</filter>
<filter id="filter2_ii_629_4018" x="0" y="20.2234" width="9.42334" height="6.77661" filterUnits="userSpaceOnUse" color-interpolation-filters="sRGB">
<feFlood flood-opacity="0" result="BackgroundImageFix"/>
<feBlend mode="normal" in="SourceGraphic" in2="BackgroundImageFix" result="shape"/>
<feColorMatrix in="SourceAlpha" type="matrix" values="0 0 0 0 0 0 0 0 0 0 0 0 0 0 0 0 0 0 127 0" result="hardAlpha"/>
<feOffset dy="-16"/>
<feComposite in2="hardAlpha" operator="arithmetic" k2="-1" k3="1"/>
<feColorMatrix type="matrix" values="0 0 0 0 0 0 0 0 0 0 0 0 0 0 0 0 0 0 0.25 0"/>
<feBlend mode="normal" in2="shape" result="effect1_innerShadow_629_4018"/>
<feColorMatrix in="SourceAlpha" type="matrix" values="0 0 0 0 0 0 0 0 0 0 0 0 0 0 0 0 0 0 127 0" result="hardAlpha"/>
<feOffset dy="16"/>
<feComposite in2="hardAlpha" operator="arithmetic" k2="-1" k3="1"/>
<feColorMatrix type="matrix" values="0 0 0 0 1 0 0 0 0 1 0 0 0 0 1 0 0 0 0.25 0"/>
<feBlend mode="normal" in2="effect1_innerShadow_629_4018" result="effect2_innerShadow_629_4018"/>
</filter>
<filter id="filter3_i_629_4018" x="6.03564" y="20.2234" width="3.38818" height="6.77661" filterUnits="userSpaceOnUse" color-interpolation-filters="sRGB">
<feFlood flood-opacity="0" result="BackgroundImageFix"/>
<feBlend mode="normal" in="SourceGraphic" in2="BackgroundImageFix" result="shape"/>
<feColorMatrix in="SourceAlpha" type="matrix" values="0 0 0 0 0 0 0 0 0 0 0 0 0 0 0 0 0 0 127 0" result="hardAlpha"/>
<feOffset dx="-24" dy="8"/>
<feComposite in2="hardAlpha" operator="arithmetic" k2="-1" k3="1"/>
<feColorMatrix type="matrix" values="0 0 0 0 1 0 0 0 0 1 0 0 0 0 1 0 0 0 0.25 0"/>
<feBlend mode="normal" in2="shape" result="effect1_innerShadow_629_4018"/>
</filter>
<filter id="filter4_i_629_4018" x="12.3882" y="7.41187" width="1.27051" height="1.27051" filterUnits="userSpaceOnUse" color-interpolation-filters="sRGB">
<feFlood flood-opacity="0" result="BackgroundImageFix"/>
<feBlend mode="normal" in="SourceGraphic" in2="BackgroundImageFix" result="shape"/>
<feColorMatrix in="SourceAlpha" type="matrix" values="0 0 0 0 0 0 0 0 0 0 0 0 0 0 0 0 0 0 127 0" result="hardAlpha"/>
<feOffset dx="12" dy="-8"/>
<feComposite in2="hardAlpha" operator="arithmetic" k2="-1" k3="1"/>
<feColorMatrix type="matrix" values="0 0 0 0 0 0 0 0 0 0 0 0 0 0 0 0 0 0 0.25 0"/>
<feBlend mode="normal" in2="shape" result="effect1_innerShadow_629_4018"/>
</filter>
<filter id="filter5_i_629_4018" x="3.81201" y="1.90576" width="27.5293" height="10.8" filterUnits="userSpaceOnUse" color-interpolation-filters="sRGB">
<feFlood flood-opacity="0" result="BackgroundImageFix"/>
<feBlend mode="normal" in="SourceGraphic" in2="BackgroundImageFix" result="shape"/>
<feColorMatrix in="SourceAlpha" type="matrix" values="0 0 0 0 0 0 0 0 0 0 0 0 0 0 0 0 0 0 127 0" result="hardAlpha"/>
<feOffset dx="2.11765"/>
<feComposite in2="hardAlpha" operator="arithmetic" k2="-1" k3="1"/>
<feColorMatrix type="matrix" values="0 0 0 0 0 0 0 0 0 0 0 0 0 0 0 0 0 0 0.25 0"/>
<feBlend mode="normal" in2="shape" result="effect1_innerShadow_629_4018"/>
</filter>
<filter id="filter6_i_629_4018" x="9.10596" y="3.70581" width="6.77637" height="6.77661" filterUnits="userSpaceOnUse" color-interpolation-filters="sRGB">
<feFlood flood-opacity="0" result="BackgroundImageFix"/>
<feBlend mode="normal" in="SourceGraphic" in2="BackgroundImageFix" result="shape"/>
<feColorMatrix in="SourceAlpha" type="matrix" values="0 0 0 0 0 0 0 0 0 0 0 0 0 0 0 0 0 0 127 0" result="hardAlpha"/>
<feOffset dx="12" dy="-8"/>
<feComposite in2="hardAlpha" operator="arithmetic" k2="-1" k3="1"/>
<feColorMatrix type="matrix" values="0 0 0 0 0 0 0 0 0 0 0 0 0 0 0 0 0 0 0.25 0"/>
<feBlend mode="normal" in2="shape" result="effect1_innerShadow_629_4018"/>
</filter>
<filter id="filter7_i_629_4018" x="10.9062" y="4.23535" width="3.38818" height="3.38818" filterUnits="userSpaceOnUse" color-interpolation-filters="sRGB">
<feFlood flood-opacity="0" result="BackgroundImageFix"/>
<feBlend mode="normal" in="SourceGraphic" in2="BackgroundImageFix" result="shape"/>
<feColorMatrix in="SourceAlpha" type="matrix" values="0 0 0 0 0 0 0 0 0 0 0 0 0 0 0 0 0 0 127 0" result="hardAlpha"/>
<feOffset dx="12" dy="-8"/>
<feComposite in2="hardAlpha" operator="arithmetic" k2="-1" k3="1"/>
<feColorMatrix type="matrix" values="0 0 0 0 0 0 0 0 0 0 0 0 0 0 0 0 0 0 0.25 0"/>
<feBlend mode="normal" in2="shape" result="effect1_innerShadow_629_4018"/>
</filter>
<filter id="filter8_i_629_4018" x="21.1768" y="3.70581" width="6.77637" height="6.77661" filterUnits="userSpaceOnUse" color-interpolation-filters="sRGB">
<feFlood flood-opacity="0" result="BackgroundImageFix"/>
<feBlend mode="normal" in="SourceGraphic" in2="BackgroundImageFix" result="shape"/>
<feColorMatrix in="SourceAlpha" type="matrix" values="0 0 0 0 0 0 0 0 0 0 0 0 0 0 0 0 0 0 127 0" result="hardAlpha"/>
<feOffset dx="12" dy="-8"/>
<feComposite in2="hardAlpha" operator="arithmetic" k2="-1" k3="1"/>
<feColorMatrix type="matrix" values="0 0 0 0 0 0 0 0 0 0 0 0 0 0 0 0 0 0 0.25 0"/>
<feBlend mode="normal" in2="shape" result="effect1_innerShadow_629_4018"/>
</filter>
<filter id="filter9_i_629_4018" x="22.9766" y="4.23535" width="3.38818" height="3.38818" filterUnits="userSpaceOnUse" color-interpolation-filters="sRGB">
<feFlood flood-opacity="0" result="BackgroundImageFix"/>
<feBlend mode="normal" in="SourceGraphic" in2="BackgroundImageFix" result="shape"/>
<feColorMatrix in="SourceAlpha" type="matrix" values="0 0 0 0 0 0 0 0 0 0 0 0 0 0 0 0 0 0 127 0" result="hardAlpha"/>
<feOffset dx="12" dy="-8"/>
<feComposite in2="hardAlpha" operator="arithmetic" k2="-1" k3="1"/>
<feColorMatrix type="matrix" values="0 0 0 0 0 0 0 0 0 0 0 0 0 0 0 0 0 0 0.25 0"/>
<feBlend mode="normal" in2="shape" result="effect1_innerShadow_629_4018"/>
</filter>
<filter id="filter10_d_629_4018" x="8.0708" y="16.3059" width="27.0825" height="15.012" filterUnits="userSpaceOnUse" color-interpolation-filters="sRGB">
<feFlood flood-opacity="0" result="BackgroundImageFix"/>
<feColorMatrix in="SourceAlpha" type="matrix" values="0 0 0 0 0 0 0 0 0 0 0 0 0 0 0 0 0 0 127 0" result="hardAlpha"/>
<feOffset dx="-4" dy="4"/>
<feColorMatrix type="matrix" values="0 0 0 0 0 0 0 0 0 0 0 0 0 0 0 0 0 0 0.25 0"/>
<feBlend mode="normal" in2="BackgroundImageFix" result="effect1_dropShadow_629_4018"/>
<feBlend mode="normal" in="SourceGraphic" in2="effect1_dropShadow_629_4018" result="shape"/>
</filter>
<filter id="filter11_i_629_4018" x="12.6001" y="16.3059" width="10.5884" height="10.9058" filterUnits="userSpaceOnUse" color-interpolation-filters="sRGB">
<feFlood flood-opacity="0" result="BackgroundImageFix"/>
<feBlend mode="normal" in="SourceGraphic" in2="BackgroundImageFix" result="shape"/>
<feColorMatrix in="SourceAlpha" type="matrix" values="0 0 0 0 0 0 0 0 0 0 0 0 0 0 0 0 0 0 127 0" result="hardAlpha"/>
<feOffset dx="1.69412" dy="-0.847059"/>
<feComposite in2="hardAlpha" operator="arithmetic" k2="-1" k3="1"/>
<feColorMatrix type="matrix" values="0 0 0 0 0 0 0 0 0 0 0 0 0 0 0 0 0 0 0.25 0"/>
<feBlend mode="normal" in2="shape" result="effect1_innerShadow_629_4018"/>
</filter>
<filter id="filter12_i_629_4018" x="24.5649" y="16.3059" width="10.5884" height="10.9058" filterUnits="userSpaceOnUse" color-interpolation-filters="sRGB">
<feFlood flood-opacity="0" result="BackgroundImageFix"/>
<feBlend mode="normal" in="SourceGraphic" in2="BackgroundImageFix" result="shape"/>
<feColorMatrix in="SourceAlpha" type="matrix" values="0 0 0 0 0 0 0 0 0 0 0 0 0 0 0 0 0 0 127 0" result="hardAlpha"/>
<feOffset dx="1.69412" dy="-0.847059"/>
<feComposite in2="hardAlpha" operator="arithmetic" k2="-1" k3="1"/>
<feColorMatrix type="matrix" values="0 0 0 0 0 0 0 0 0 0 0 0 0 0 0 0 0 0 0.25 0"/>
<feBlend mode="normal" in2="shape" result="effect1_innerShadow_629_4018"/>
</filter>
<clipPath id="clip0_629_4018">
<rect width="36" height="36" fill="white"/>
</clipPath>
</defs>
</svg>
