<svg width="20" height="20" viewBox="0 0 20 20" fill="none" xmlns="http://www.w3.org/2000/svg">
<path d="M13.3846 9.34615C13.3846 8.23438 12.9895 7.28335 12.1992 6.49309C11.409 5.70282 10.4579 5.30769 9.34615 5.30769C8.23438 5.30769 7.28335 5.70282 6.49309 6.49309C5.70282 7.28335 5.30769 8.23438 5.30769 9.34615C5.30769 10.4579 5.70282 11.409 6.49309 12.1992C7.28335 12.9895 8.23438 13.3846 9.34615 13.3846C10.4579 13.3846 11.409 12.9895 12.1992 12.1992C12.9895 11.409 13.3846 10.4579 13.3846 9.34615ZM18 16.8462C18 17.1587 17.8858 17.4291 17.6575 17.6575C17.4291 17.8858 17.1587 18 16.8462 18C16.5216 18 16.2512 17.8858 16.0349 17.6575L12.9429 14.5745C11.8672 15.3197 10.6683 15.6923 9.34615 15.6923C8.48678 15.6923 7.66496 15.5255 6.88071 15.192C6.09645 14.8585 5.42037 14.4078 4.85246 13.8398C4.28456 13.2719 3.83383 12.5959 3.5003 11.8116C3.16677 11.0273 3 10.2055 3 9.34615C3 8.48678 3.16677 7.66496 3.5003 6.88071C3.83383 6.09645 4.28456 5.42037 4.85246 4.85246C5.42037 4.28456 6.09645 3.83383 6.88071 3.5003C7.66496 3.16677 8.48678 3 9.34615 3C10.2055 3 11.0273 3.16677 11.8116 3.5003C12.5959 3.83383 13.2719 4.28456 13.8398 4.85246C14.4078 5.42037 14.8585 6.09645 15.192 6.88071C15.5255 7.66496 15.6923 8.48678 15.6923 9.34615C15.6923 10.6683 15.3197 11.8672 14.5745 12.9429L17.6665 16.0349C17.8888 16.2572 18 16.5276 18 16.8462Z" fill="#6782E1"/>
</svg>
