<svg width="18" height="18" viewBox="0 0 18 18" fill="none" xmlns="http://www.w3.org/2000/svg">
<path d="M12.919 11H12.129L11.849 10.73C12.829 9.59 13.419 8.11 13.419 6.5C13.419 2.91 10.509 0 6.91901 0C3.32901 0 0.419006 2.91 0.419006 6.5C0.419006 10.09 3.32901 13 6.91901 13C8.52901 13 10.009 12.41 11.149 11.43L11.419 11.71V12.5L16.419 17.49L17.909 16L12.919 11ZM6.91901 11C4.42901 11 2.41901 8.99 2.41901 6.5C2.41901 4.01 4.42901 2 6.91901 2C9.40901 2 11.419 4.01 11.419 6.5C11.419 8.99 9.40901 11 6.91901 11Z" fill="#B7B7B7" fill-opacity="0.7"/>
</svg>
