<svg width="29" height="30" viewBox="0 0 29 30" fill="none" xmlns="http://www.w3.org/2000/svg">
<path d="M14.1742 9.83957C13.4627 9.83957 12.7582 9.97971 12.1008 10.252C11.4434 10.5243 10.8462 10.9234 10.343 11.4265C9.83991 11.9296 9.44082 12.5269 9.16853 13.1843C8.89624 13.8416 8.7561 14.5462 8.7561 15.2577C8.7561 15.9692 8.89624 16.6738 9.16853 17.3311C9.44082 17.9885 9.83991 18.5858 10.343 19.0889C10.8462 19.592 11.4434 19.9911 12.1008 20.2634C12.7582 20.5357 13.4627 20.6759 14.1742 20.6759C15.6112 20.6759 16.9893 20.105 18.0054 19.0889C19.0215 18.0728 19.5924 16.6947 19.5924 15.2577C19.5924 13.8207 19.0215 12.4426 18.0054 11.4265C16.9893 10.4104 15.6112 9.83957 14.1742 9.83957ZM10.5621 15.2577C10.5621 14.7834 10.6556 14.3137 10.8371 13.8754C11.0186 13.4372 11.2847 13.039 11.6201 12.7036C11.9555 12.3682 12.3537 12.1021 12.792 11.9206C13.2302 11.739 13.6999 11.6456 14.1742 11.6456C14.6486 11.6456 15.1183 11.739 15.5565 11.9206C15.9948 12.1021 16.393 12.3682 16.7284 12.7036C17.0638 13.039 17.3299 13.4372 17.5114 13.8754C17.6929 14.3137 17.7863 14.7834 17.7863 15.2577C17.7863 16.2157 17.4058 17.1344 16.7284 17.8118C16.051 18.4892 15.1322 18.8698 14.1742 18.8698C13.2163 18.8698 12.2975 18.4892 11.6201 17.8118C10.9427 17.1344 10.5621 16.2157 10.5621 15.2577ZM23.4573 25.3656L21.3768 24.4517C21.0806 24.323 20.7585 24.2654 20.4362 24.2834C20.1138 24.3014 19.8001 24.3945 19.5201 24.5552C18.9579 24.8803 18.5991 25.4547 18.528 26.1012L18.2776 28.3648C18.2523 28.5923 18.1575 28.8064 18.006 28.9779C17.8545 29.1495 17.6537 29.2701 17.4311 29.3232C15.2891 29.8338 13.057 29.8338 10.9149 29.3232C10.6925 29.2698 10.492 29.1492 10.3408 28.9776C10.1895 28.8061 10.0948 28.5921 10.0697 28.3648L9.81926 26.1048C9.7833 25.7868 9.67329 25.4816 9.49807 25.2137C9.32285 24.9459 9.08728 24.7228 8.81028 24.5625C8.53356 24.4024 8.2231 24.3097 7.90394 24.2917C7.58479 24.2737 7.26587 24.331 6.97293 24.4589L4.89236 25.3728C4.68204 25.4652 4.44819 25.4899 4.22319 25.4435C3.9982 25.3971 3.79319 25.282 3.63655 25.1139C2.13906 23.5092 1.02471 21.5859 0.37724 19.4887C0.309159 19.2682 0.311291 19.0321 0.38334 18.8129C0.455389 18.5938 0.593791 18.4024 0.779387 18.2654L2.61794 16.9072C2.87677 16.7171 3.08722 16.4687 3.23227 16.1821C3.37732 15.8956 3.4529 15.5789 3.4529 15.2577C3.4529 14.9365 3.37732 14.6199 3.23227 14.3333C3.08722 14.0467 2.87677 13.7983 2.61794 13.6082L0.779387 12.2536C0.593552 12.1165 0.454995 11.925 0.382935 11.7056C0.310875 11.4861 0.308885 11.2497 0.37724 11.0291C1.02605 8.93374 2.14121 7.01257 3.63896 5.40993C3.79574 5.24209 4.00082 5.12714 4.2258 5.08098C4.45079 5.03481 4.68456 5.05973 4.89477 5.15227L6.9657 6.06372C7.26037 6.19054 7.58063 6.24663 7.90086 6.22748C8.22109 6.20834 8.53239 6.1145 8.80985 5.95348C9.08731 5.79246 9.32322 5.56872 9.49871 5.30018C9.6742 5.03163 9.78439 4.72574 9.82046 4.40697L10.0733 2.1458C10.0988 1.91577 10.1954 1.69943 10.3497 1.52697C10.5041 1.35451 10.7084 1.23453 10.9342 1.18378C11.9949 0.94779 13.0774 0.822571 14.1899 0.809326C15.2759 0.821366 16.3572 0.94779 17.4167 1.18378C17.6428 1.23443 17.8473 1.35454 18.0017 1.52727C18.1561 1.7 18.2525 1.9167 18.2776 2.14701L18.5292 4.40818C18.5835 4.90963 18.8209 5.37343 19.1959 5.71069C19.5709 6.04796 20.0573 6.23497 20.5616 6.2359C20.8422 6.2359 21.1203 6.1769 21.3804 6.06252L23.4513 5.15106C23.6615 5.05852 23.8953 5.03361 24.1203 5.07977C24.3453 5.12593 24.5503 5.24089 24.7071 5.40873C26.2045 7.01143 27.3192 8.93261 27.9676 11.0279C28.0358 11.2483 28.0339 11.4843 27.9621 11.7035C27.8902 11.9226 27.7521 12.114 27.5667 12.2512L25.7305 13.6082C25.2068 13.9935 24.8901 14.6063 24.8901 15.2577C24.8901 15.9079 25.2068 16.5207 25.7317 16.9072L27.5691 18.263C27.9496 18.5447 28.1109 19.036 27.9712 19.4875C27.3229 21.5826 26.2086 23.5037 24.7119 25.1067C24.5553 25.2747 24.3503 25.3899 24.1253 25.4363C23.9003 25.4827 23.6664 25.458 23.4561 25.3656H23.4573ZM16.899 25.1272C17.1863 24.2274 17.7978 23.4665 18.6147 22.9924C19.1402 22.6896 19.7295 22.5143 20.3351 22.4806C20.9407 22.447 21.5457 22.5559 22.1016 22.7986L23.7198 23.5089C24.7592 22.3054 25.5638 20.9177 26.0917 19.4176L24.6602 18.3617V18.3605C24.1728 18.0026 23.7762 17.5353 23.5025 16.9962C23.2287 16.4571 23.0854 15.8612 23.0841 15.2565C23.0841 14.02 23.6825 12.8725 24.6577 12.1549L24.6602 12.1537L26.0893 11.0978C25.561 9.59801 24.756 8.21066 23.7162 7.00768L22.1112 7.71324L22.1088 7.71445C21.62 7.93117 21.0938 8.04195 20.5604 8.04195C19.6119 8.04052 18.6972 7.68947 17.9912 7.05595C17.2853 6.42242 16.8377 5.55089 16.734 4.60805V4.60564L16.5378 2.84775C15.7632 2.7035 14.9777 2.62575 14.1899 2.61537C13.3921 2.62541 12.5966 2.70315 11.8119 2.84775L11.6157 4.60684C11.5482 5.20713 11.3408 5.78321 11.0102 6.28877C10.6796 6.79433 10.2349 7.21528 9.71206 7.51776C9.18919 7.82025 8.60263 7.99583 7.99955 8.03041C7.39648 8.06499 6.7937 7.9576 6.23967 7.71686L4.63108 7.00889C3.59119 8.21183 2.78622 9.59919 2.25794 11.099L3.69074 12.1549C4.17711 12.5131 4.57249 12.9806 4.84497 13.5196C5.11746 14.0587 5.25943 14.6543 5.25943 15.2583C5.25943 15.8623 5.11746 16.4579 4.84497 16.997C4.57249 17.536 4.17711 18.0035 3.69074 18.3617L2.25794 19.4188C2.78522 20.921 3.5898 22.3109 4.62988 23.5162L6.2493 22.8058C6.80157 22.564 7.40294 22.4555 8.00487 22.489C8.6068 22.5224 9.19244 22.697 9.71451 22.9984C10.2364 23.2999 10.6802 23.7196 11.0104 24.2237C11.3406 24.7279 11.5479 25.3025 11.6157 25.9014V25.9074L11.8107 27.6701C13.3724 27.9771 14.9773 27.9771 16.539 27.6701L16.734 25.9038C16.7629 25.6389 16.8183 25.3776 16.9002 25.1272H16.899Z" fill="black"/>
</svg>
