<svg width="33" height="33" viewBox="0 0 33 33" fill="none" xmlns="http://www.w3.org/2000/svg">
<rect width="33" height="33" rx="8" fill="black"/>
<path d="M25.4823 13.5558C25.462 13.464 25.4221 13.3777 25.3655 13.3027C25.3089 13.2277 25.2368 13.1657 25.1542 13.121L23.2019 12.0382C23.098 11.8249 22.9831 11.6198 22.8573 11.4229L22.8901 9.19169C22.8909 9.09811 22.8723 9.00537 22.8356 8.91927C22.7989 8.83318 22.7449 8.75557 22.6769 8.6913C21.7048 7.80993 20.5551 7.14701 19.3054 6.74716C19.2156 6.71918 19.121 6.71056 19.0276 6.72187C18.9343 6.73318 18.8444 6.76417 18.764 6.81279L16.8526 7.96123C16.6148 7.95302 16.3851 7.95302 16.1472 7.96123L14.2358 6.81279C14.1554 6.76417 14.0655 6.73318 13.9722 6.72187C13.8789 6.71056 13.7842 6.71918 13.6944 6.74716C12.443 7.14732 11.2929 7.81331 10.323 8.69951C10.2543 8.76157 10.1998 8.8376 10.163 8.9225C10.1262 9.00739 10.108 9.09918 10.1097 9.19169L10.1507 11.4229C10.0194 11.6198 9.9046 11.8249 9.78975 12.0382L7.84561 13.121C7.76195 13.1644 7.68906 13.226 7.63228 13.3012C7.5755 13.3764 7.53628 13.4634 7.51749 13.5558C7.23856 14.8368 7.23856 16.163 7.51749 17.444C7.53786 17.5358 7.5777 17.6221 7.63431 17.6971C7.69092 17.7721 7.76298 17.8341 7.84561 17.8788L9.79796 18.9616C9.90262 19.1738 10.0204 19.3793 10.1507 19.5768L10.1097 21.8081C10.1089 21.9017 10.1275 21.9944 10.1642 22.0805C10.2009 22.1666 10.2549 22.2442 10.323 22.3085C11.2964 23.188 12.4456 23.8507 13.6944 24.2526C13.7842 24.2806 13.8789 24.2892 13.9722 24.2779C14.0655 24.2666 14.1554 24.2356 14.2358 24.187L16.1472 23.0386H16.8526L18.7722 24.187C18.872 24.2526 18.9891 24.2869 19.1085 24.2854C19.1752 24.2826 19.2413 24.2715 19.3054 24.2526C20.5568 23.8525 21.7069 23.1865 22.6769 22.3003C22.7455 22.2382 22.8 22.1622 22.8368 22.0773C22.8736 21.9924 22.8918 21.9006 22.8901 21.8081L22.8573 19.5768C22.9804 19.38 23.0952 19.1749 23.2101 18.9616L25.1624 17.8788C25.2439 17.8336 25.3146 17.7713 25.3698 17.6963C25.425 17.6213 25.4634 17.5352 25.4823 17.444C25.7613 16.163 25.7613 14.8368 25.4823 13.5558ZM20.1093 15.4999C20.1093 16.2138 19.8976 16.9116 19.501 17.5052C19.1044 18.0987 18.5407 18.5613 17.8812 18.8345C17.2216 19.1077 16.4959 19.1792 15.7958 19.0399C15.0956 18.9007 14.4525 18.5569 13.9477 18.0521C13.4429 17.5473 13.0992 16.9042 12.9599 16.2041C12.8206 15.5039 12.8921 14.7782 13.1653 14.1186C13.4385 13.4591 13.9011 12.8954 14.4946 12.4988C15.0882 12.1022 15.786 11.8905 16.4999 11.8905C17.4572 11.8905 18.3752 12.2708 19.0521 12.9477C19.729 13.6246 20.1093 14.5426 20.1093 15.4999Z" fill="white"/>
</svg>
