<svg width="24" height="26" viewBox="0 0 24 26" fill="none" xmlns="http://www.w3.org/2000/svg">
<path d="M18.8065 10.2903C21.3719 10.2903 23.4516 8.21061 23.4516 5.64516C23.4516 3.07972 21.3719 1 18.8065 1C16.241 1 14.1613 3.07972 14.1613 5.64516C14.1613 6.38277 14.3378 7.07757 14.6437 7.69701L8.11337 12.0506C7.42263 10.9917 6.22956 10.2903 4.87097 10.2903C2.73307 10.2903 1 12.0234 1 14.1613C1 16.2991 2.73307 18.0323 4.87097 18.0323C6.23676 18.0323 7.43479 17.3232 8.12382 16.2548L15.2573 20.5349C15.0532 20.9479 14.9355 21.4113 14.9355 21.9032C14.9355 23.6135 16.3219 25 18.0323 25C19.7425 25 21.129 23.6135 21.129 21.9032C21.129 20.1929 19.7425 18.8065 18.0323 18.8065C17.0923 18.8065 16.2518 19.2268 15.6839 19.888L8.47608 15.5633C8.64547 15.1281 8.74194 14.6564 8.74194 14.1613C8.74194 13.6601 8.64354 13.1827 8.47015 12.7432L15.0434 8.36103C15.8872 9.52805 17.2562 10.2903 18.8065 10.2903ZM18.0323 19.5806C19.3129 19.5806 20.3548 20.6226 20.3548 21.9032C20.3548 23.1839 19.3129 24.2258 18.0323 24.2258C16.7516 24.2258 15.7097 23.1839 15.7097 21.9032C15.7097 20.6226 16.7516 19.5806 18.0323 19.5806ZM4.87097 17.2581C3.16341 17.2581 1.77419 15.8689 1.77419 14.1613C1.77419 12.4537 3.16341 11.0645 4.87097 11.0645C6.04081 11.0645 7.06081 11.7169 7.58746 12.6766C7.59617 12.729 7.61428 12.7805 7.64564 12.8276C7.65605 12.8432 7.66929 12.8553 7.68144 12.8689C7.86334 13.2629 7.96774 13.6996 7.96774 14.1613C7.96774 14.6286 7.86067 15.0703 7.67455 15.468C7.66221 15.4829 7.6461 15.4933 7.63581 15.5105C7.61026 15.5531 7.59586 15.5989 7.588 15.6451C7.06147 16.6053 6.04116 17.2581 4.87097 17.2581ZM18.8065 1.77419C20.9409 1.77419 22.6774 3.51071 22.6774 5.64516C22.6774 7.77961 20.9409 9.51613 18.8065 9.51613C16.672 9.51613 14.9355 7.77961 14.9355 5.64516C14.9355 3.51071 16.672 1.77419 18.8065 1.77419Z" fill="#101010" stroke="#101010" stroke-width="0.3"/>
</svg>
