<svg width="33" height="33" viewBox="0 0 33 33" fill="none" xmlns="http://www.w3.org/2000/svg">
<rect width="33" height="33" rx="8" fill="#FE983A"/>
<path d="M25.1542 16.4997V23.0622C25.1521 23.9318 24.8057 24.7651 24.1908 25.38C23.5759 25.9949 22.7426 26.3413 21.873 26.3435H17.1562C16.9821 26.3435 16.8152 26.2743 16.6922 26.1512C16.5691 26.0282 16.4999 25.8613 16.4999 25.6872C16.4999 25.5132 16.5691 25.3462 16.6922 25.2232C16.8152 25.1001 16.9821 25.031 17.1562 25.031H21.873C22.3945 25.0288 22.894 24.8207 23.2627 24.4519C23.6315 24.0832 23.8396 23.5837 23.8417 23.0622V22.9474C23.6313 23.0233 23.4092 23.0621 23.1855 23.0622H21.873C21.3508 23.0622 20.8501 22.8548 20.4809 22.4856C20.1117 22.1164 19.9042 21.6156 19.9042 21.0935V17.8122C19.9042 17.2901 20.1117 16.7893 20.4809 16.4201C20.8501 16.0509 21.3508 15.8435 21.873 15.8435H23.8089C23.6444 14.0406 22.8085 12.3653 21.4668 11.1498C20.1252 9.93433 18.3759 9.26729 16.5656 9.28095H16.5574C14.746 9.26348 12.9945 9.92922 11.6521 11.1455C10.3097 12.3617 9.47484 14.0392 9.314 15.8435H11.2499C11.7714 15.8456 12.2709 16.0537 12.6397 16.4225C13.0084 16.7912 13.2165 17.2907 13.2187 17.8122V21.0935C13.2165 21.6149 13.0084 22.1144 12.6397 22.4832C12.2709 22.8519 11.7714 23.06 11.2499 23.0622H9.93744C9.41596 23.06 8.91645 22.8519 8.54771 22.4832C8.17896 22.1144 7.97085 21.6149 7.96869 21.0935V16.4997C7.96866 15.3745 8.19122 14.2604 8.62354 13.2216C9.05586 12.1828 9.68941 11.2398 10.4877 10.4468C11.286 9.65385 12.2333 9.02665 13.275 8.6013C14.3167 8.17596 15.4322 7.96088 16.5574 7.96845H16.623C18.8849 7.97063 21.0536 8.87015 22.6531 10.4696C24.2525 12.069 25.1521 14.2377 25.1542 16.4997Z" fill="white"/>
</svg>
