<svg width="16" height="16" viewBox="0 0 16 16" fill="none" xmlns="http://www.w3.org/2000/svg">
<path d="M7.74995 6.25H9.24995V4.75H7.74995M8.49995 14.5C5.19245 14.5 2.49995 11.8075 2.49995 8.5C2.49995 5.1925 5.19245 2.5 8.49995 2.5C11.8075 2.5 14.5 5.1925 14.5 8.5C14.5 11.8075 11.8075 14.5 8.49995 14.5ZM8.49995 1C7.51504 1 6.53977 1.19399 5.62983 1.5709C4.71989 1.94781 3.89309 2.50026 3.19665 3.1967C1.79013 4.60322 0.999954 6.51088 0.999954 8.5C0.999954 10.4891 1.79013 12.3968 3.19665 13.8033C3.89309 14.4997 4.71989 15.0522 5.62983 15.4291C6.53977 15.806 7.51504 16 8.49995 16C10.4891 16 12.3967 15.2098 13.8033 13.8033C15.2098 12.3968 16 10.4891 16 8.5C16 7.51509 15.806 6.53982 15.4291 5.62987C15.0521 4.71993 14.4997 3.89314 13.8033 3.1967C13.1068 2.50026 12.28 1.94781 11.3701 1.5709C10.4601 1.19399 9.48487 1 8.49995 1ZM7.74995 12.25H9.24995V7.75H7.74995V12.25Z" fill="#6782E1"/>
</svg>
