<svg width="32" height="32" viewBox="0 0 32 32" fill="none" xmlns="http://www.w3.org/2000/svg">
<rect width="32" height="32" rx="16" fill="#F4F4F4"/>
<path d="M24.9737 10.7174C24.5093 11.3369 23.9479 11.8773 23.3112 12.3178C23.3112 12.4796 23.3112 12.6414 23.3112 12.8123C23.3163 15.7511 22.1424 18.5691 20.0527 20.6345C17.9629 22.6999 15.1321 23.8399 12.1949 23.7989C10.4968 23.8046 8.82053 23.4169 7.29728 22.6661C7.21514 22.6302 7.16217 22.549 7.16248 22.4593V22.3604C7.16248 22.2313 7.26709 22.1267 7.39613 22.1267C9.06528 22.0716 10.6749 21.4929 11.9972 20.4724C10.4864 20.4419 9.12705 19.5469 8.50146 18.1707C8.46987 18.0956 8.4797 18.0093 8.52743 17.9432C8.57515 17.8771 8.65386 17.8407 8.73511 17.8471C9.19428 17.8932 9.65804 17.8505 10.1011 17.7212C8.43325 17.375 7.18007 15.9904 7.00072 14.2957C6.99435 14.2144 7.03078 14.1357 7.09686 14.0879C7.16293 14.0402 7.2491 14.0303 7.32424 14.062C7.7718 14.2595 8.25495 14.3635 8.7441 14.3676C7.2827 13.4085 6.65147 11.5841 7.20741 9.92622C7.2648 9.76513 7.40267 9.64612 7.57036 9.61294C7.73804 9.57975 7.91082 9.63728 8.02518 9.76439C9.99725 11.8633 12.7069 13.114 15.5828 13.2528C15.5092 12.9589 15.473 12.6568 15.475 12.3537C15.5019 10.7647 16.4851 9.34921 17.9643 8.76987C19.4434 8.19054 21.1258 8.56203 22.2239 9.71044C22.9723 9.56785 23.6959 9.31645 24.3716 8.96421C24.4211 8.93331 24.4839 8.93331 24.5334 8.96421C24.5643 9.01373 24.5643 9.07652 24.5334 9.12604C24.2061 9.87552 23.6532 10.5041 22.9518 10.9242C23.566 10.853 24.1694 10.7081 24.7491 10.4926C24.7979 10.4594 24.862 10.4594 24.9108 10.4926C24.9517 10.5113 24.9823 10.5471 24.9944 10.5904C25.0065 10.6337 24.9989 10.6802 24.9737 10.7174Z" fill="#323232"/>
</svg>
