<svg width="26" height="21" viewBox="0 0 26 21" fill="none" xmlns="http://www.w3.org/2000/svg">
<path d="M25.5 0.998779C24.525 1.57753 22.5688 2.36628 21.4188 2.59378C21.385 2.60253 21.3575 2.61378 21.325 2.62253C20.3088 1.62003 18.9163 0.998779 17.375 0.998779C14.2688 0.998779 11.75 3.51753 11.75 6.62378C11.75 6.78753 11.7362 7.08878 11.75 7.24878C7.55875 7.24878 4.36875 5.05378 2.08125 2.24878C1.8325 2.87378 1.72375 3.86128 1.72375 4.78878C1.72375 6.54003 3.0925 8.26003 5.22375 9.32628C4.83125 9.42753 4.39875 9.50003 3.94875 9.50003C3.2225 9.50003 2.45375 9.30878 1.75 8.72878C1.75 8.75003 1.75 8.77003 1.75 8.79253C1.75 11.24 4.3475 12.9063 6.6575 13.37C6.18875 13.6463 5.24375 13.6738 4.7825 13.6738C4.4575 13.6738 3.3075 13.525 3 13.4675C3.6425 15.4738 5.96 16.6013 8.16875 16.6413C6.44125 17.9963 5.2425 18.4988 1.705 18.4988H0.5C2.735 19.9313 5.58125 21 8.43375 21C17.7213 21 23 13.9213 23 7.24878C23 7.14128 22.9975 6.91628 22.9938 6.69003C22.9938 6.66753 23 6.64628 23 6.62378C23 6.59003 22.99 6.55753 22.99 6.52378C22.9862 6.35378 22.9825 6.19503 22.9788 6.11253C23.9662 5.40003 24.8225 4.51128 25.5 3.49878C24.5938 3.90128 23.6213 4.17128 22.6 4.29378C23.6425 3.66878 25.1238 2.17878 25.5 0.998779Z" fill="#6782E1"/>
</svg>
