<svg width="24" height="24" viewBox="0 0 24 24" fill="none" xmlns="http://www.w3.org/2000/svg">
<path d="M22.6563 10.6584H22.0853V7.22768C22.0853 5.82489 20.9434 4.68789 19.5455 4.68789H19.0189L19.0238 3.41307C19.0238 2.46804 18.2559 1.7002 17.3109 1.7002H2.08203C0.945037 1.7002 0.0147662 2.6157 0 3.7527C0 3.76254 0 3.77239 0 3.78223V20.5862C0 21.5312 0.767842 22.299 1.71288 22.299H19.5505C20.9532 22.299 22.0902 21.1571 22.0902 19.7593V16.3237H22.6612C23.3995 16.3237 24 15.7232 24 14.9849V11.9972C23.9951 11.2589 23.3946 10.6584 22.6563 10.6584ZM2.08203 2.88149H17.3109C17.6013 2.88149 17.8425 3.11775 17.8425 3.40815L17.8376 4.68789H2.08203C1.58491 4.68789 1.1813 4.28428 1.1813 3.78715C1.1813 3.29002 1.58491 2.88149 2.08203 2.88149ZM20.904 19.7543C20.904 20.5025 20.2937 21.1128 19.5455 21.1128H1.70796C1.41756 21.1128 1.17637 20.8766 1.17637 20.5812V5.66246C1.45201 5.79536 1.75718 5.86919 2.08203 5.86919H19.5455C20.2937 5.86919 20.904 6.47952 20.904 7.22768V10.6584H16.8728C16.1345 10.6584 15.534 11.2589 15.534 11.9972V14.9849C15.534 15.7232 16.1345 16.3237 16.8728 16.3237H20.904V19.7543ZM22.8138 14.9849C22.8138 15.0735 22.7449 15.1424 22.6563 15.1424H16.8778C16.7892 15.1424 16.7203 15.0735 16.7203 14.9849V11.9972C16.7203 11.9135 16.7892 11.8397 16.8778 11.8397H22.6563C22.74 11.8397 22.8138 11.9086 22.8138 11.9972V14.9849Z" fill="black"/>
</svg>
