<svg width="33" height="32" viewBox="0 0 33 32" fill="none" xmlns="http://www.w3.org/2000/svg">
<g clip-path="url(#clip0_1510_7117)">
<path d="M19.0257 15.9999L16.359 18.6666L13.6924 15.9999L16.359 13.3333L19.0257 15.9999ZM16.359 7.99992L19.1857 10.8266L22.5191 7.49325L16.359 1.33325L10.199 7.49325L13.5324 10.8266L16.359 7.99992ZM8.35905 15.9999L11.1857 13.1733L7.85238 9.83992L1.69238 15.9999L7.85238 22.1599L11.1857 18.8266L8.35905 15.9999ZM24.3591 15.9999L21.5324 18.8266L24.8657 22.1599L31.0257 15.9999L24.8657 9.83992L21.5324 13.1733L24.3591 15.9999ZM16.359 23.9999L13.5324 21.1733L10.199 24.5066L16.359 30.6666L22.5191 24.5066L19.1857 21.1733L16.359 23.9999Z" fill="#086EE5"/>
</g>
<defs>
<clipPath id="clip0_1510_7117">
<rect width="32" height="32" fill="white" transform="translate(0.359375)"/>
</clipPath>
</defs>
</svg>
