<svg width="53" height="53" viewBox="0 0 53 53" fill="none" xmlns="http://www.w3.org/2000/svg">
<circle cx="26.518" cy="26.2172" r="26.2172" fill="white"/>
<path fill-rule="evenodd" clip-rule="evenodd" d="M38.1839 18.3844C38.5906 18.8037 38.8795 19.3229 39.0213 19.8896C39.4001 21.9896 39.584 24.1201 39.5706 26.2539C39.5781 28.3558 39.3943 30.4541 39.0213 32.5226C38.8795 33.0893 38.5906 33.6085 38.1839 34.0279C37.7771 34.4472 37.2669 34.7517 36.7048 34.9107C34.6511 35.46 26.436 35.46 26.436 35.46C26.436 35.46 18.2209 35.46 16.1672 34.9107C15.6165 34.7601 15.114 34.4699 14.7082 34.0683C14.3024 33.6667 14.0071 33.1673 13.8507 32.6182C13.4719 30.5182 13.2881 28.3877 13.3015 26.2539C13.291 24.136 13.4749 22.0216 13.8507 19.9374C13.9926 19.3707 14.2814 18.8515 14.6882 18.4322C15.0949 18.0128 15.6051 17.7083 16.1672 17.5493C18.2209 17 26.436 17 26.436 17C26.436 17 34.6511 17 36.7048 17.5015C37.2669 17.6605 37.7771 17.9651 38.1839 18.3844ZM30.6138 26.2539L23.748 30.1585V22.3494L30.6138 26.2539Z" fill="#052142"/>
</svg>
